<?xml version="1.0" encoding="UTF-8" standalone="no"?>
<!-- Created with Inkscape (http://www.inkscape.org/) -->

<svg
   xmlns:dc="http://purl.org/dc/elements/1.1/"
   xmlns:cc="http://creativecommons.org/ns#"
   xmlns:rdf="http://www.w3.org/1999/02/22-rdf-syntax-ns#"
   xmlns:svg="http://www.w3.org/2000/svg"
   xmlns="http://www.w3.org/2000/svg"
   xmlns:xlink="http://www.w3.org/1999/xlink"
   xmlns:sodipodi="http://sodipodi.sourceforge.net/DTD/sodipodi-0.dtd"
   xmlns:inkscape="http://www.inkscape.org/namespaces/inkscape"
   width="160"
   height="60"
   id="svg9857"
   version="1.1"
   inkscape:version="0.48.2 r9819"
   sodipodi:docname="viikonvalo-160x60-2012.svg"
   inkscape:export-filename="/home/pesasa/svnrepos/drawings/www/viikonvalo/viikonvalo-160x60.png"
   inkscape:export-xdpi="90"
   inkscape:export-ydpi="90">
  <defs
     id="defs9859">
    <filter
       id="filter7658"
       y="-0.15000001"
       height="1.3"
       x="-0.15000001"
       width="1.3"
       inkscape:menu-tooltip="Aquarelle paper effect which can be used for pictures as for objects"
       inkscape:menu="Textures"
       inkscape:label="Rough paper"
       color-interpolation-filters="sRGB">
      <feTurbulence
         id="feTurbulence7660"
         type="fractalNoise"
         baseFrequency="0.04"
         numOctaves="5"
         seed="0"
         result="result4" />
      <feDisplacementMap
         id="feDisplacementMap7662"
         in2="result4"
         in="SourceGraphic"
         yChannelSelector="G"
         xChannelSelector="R"
         scale="10"
         result="result3" />
      <feDiffuseLighting
         id="feDiffuseLighting7664"
         lighting-color="#e9e6d7"
         diffuseConstant="1"
         surfaceScale="2"
         result="result1"
         in="result4">
        <feDistantLight
           id="feDistantLight7666"
           azimuth="235"
           elevation="40" />
      </feDiffuseLighting>
      <feComposite
         id="feComposite7668"
         in2="result1"
         operator="in"
         in="result3"
         result="result2" />
      <feComposite
         k4="0"
         k3="0"
         k2="0"
         id="feComposite7670"
         in2="result1"
         result="result5"
         operator="arithmetic"
         k1="1.7" />
      <feBlend
         id="feBlend7672"
         in2="result3"
         in="result5"
         mode="normal" />
    </filter>
    <radialGradient
       id="XMLID_61_"
       cx="64.568802"
       cy="7.2266002"
       r="104.221"
       fx="64.568802"
       fy="7.2266002"
       gradientUnits="userSpaceOnUse">
      <stop
         offset="0"
         style="stop-color:#67C5D5"
         id="stop6858" />
      <stop
         offset="0.1604"
         style="stop-color:#66C2D3"
         id="stop6860" />
      <stop
         offset="0.2795"
         style="stop-color:#62B9CE"
         id="stop6862" />
      <stop
         offset="0.3852"
         style="stop-color:#5CA8C6"
         id="stop6864" />
      <stop
         offset="0.4832"
         style="stop-color:#5392BA"
         id="stop6866" />
      <stop
         offset="0.5759"
         style="stop-color:#4874AA"
         id="stop6868" />
      <stop
         offset="0.6646"
         style="stop-color:#3A5097"
         id="stop6870" />
      <stop
         offset="0.7485"
         style="stop-color:#2A2781"
         id="stop6872" />
      <stop
         offset="0.8146"
         style="stop-color:#1B006D"
         id="stop6874" />
      <stop
         offset="1"
         style="stop-color:#596AAD"
         id="stop6876" />
    </radialGradient>
    <radialGradient
       id="XMLID_62_"
       cx="64.551804"
       cy="14.1748"
       r="52.231701"
       fx="64.551804"
       fy="14.1748"
       gradientUnits="userSpaceOnUse">
      <stop
         offset="0"
         style="stop-color:#0F80BC"
         id="stop6881" />
      <stop
         offset="0.3376"
         style="stop-color:#0A5F9E"
         id="stop6883" />
      <stop
         offset="1"
         style="stop-color:#00145A"
         id="stop6885" />
    </radialGradient>
    <radialGradient
       id="XMLID_63_"
       cx="64.553703"
       cy="14.1758"
       r="52.228901"
       fx="64.553703"
       fy="14.1758"
       gradientUnits="userSpaceOnUse">
      <stop
         offset="0"
         style="stop-color:#0F80BC"
         id="stop6892" />
      <stop
         offset="0.3376"
         style="stop-color:#0A5F9E"
         id="stop6894" />
      <stop
         offset="1"
         style="stop-color:#00145A"
         id="stop6896" />
    </radialGradient>
    <radialGradient
       id="XMLID_64_"
       cx="64.548798"
       cy="14.1724"
       r="52.237301"
       fx="64.548798"
       fy="14.1724"
       gradientUnits="userSpaceOnUse">
      <stop
         offset="0"
         style="stop-color:#0F80BC"
         id="stop6901" />
      <stop
         offset="0.3376"
         style="stop-color:#0A5F9E"
         id="stop6903" />
      <stop
         offset="1"
         style="stop-color:#00145A"
         id="stop6905" />
    </radialGradient>
    <radialGradient
       id="XMLID_65_"
       cx="65.405296"
       cy="19.1201"
       r="57.382702"
       fx="65.405296"
       fy="19.1201"
       gradientUnits="userSpaceOnUse">
      <stop
         offset="0"
         style="stop-color:#0F80BC"
         id="stop6910" />
      <stop
         offset="0.2643"
         style="stop-color:#0B629B"
         id="stop6912" />
      <stop
         offset="0.8439"
         style="stop-color:#031747"
         id="stop6914" />
      <stop
         offset="1"
         style="stop-color:#00022F"
         id="stop6916" />
    </radialGradient>
    <radialGradient
       id="XMLID_66_"
       cx="64.550797"
       cy="14.1733"
       r="52.233299"
       fx="64.550797"
       fy="14.1733"
       gradientUnits="userSpaceOnUse">
      <stop
         offset="0"
         style="stop-color:#0F80BC"
         id="stop6921" />
      <stop
         offset="0.3376"
         style="stop-color:#0A5F9E"
         id="stop6923" />
      <stop
         offset="1"
         style="stop-color:#00145A"
         id="stop6925" />
    </radialGradient>
    <radialGradient
       id="XMLID_67_"
       cx="64.551804"
       cy="14.1646"
       r="52.241501"
       fx="64.551804"
       fy="14.1646"
       gradientUnits="userSpaceOnUse">
      <stop
         offset="0"
         style="stop-color:#0F80BC"
         id="stop6930" />
      <stop
         offset="0.3376"
         style="stop-color:#0A5F9E"
         id="stop6932" />
      <stop
         offset="1"
         style="stop-color:#00145A"
         id="stop6934" />
    </radialGradient>
    <linearGradient
       inkscape:collect="always"
       xlink:href="#XMLID_69_"
       id="linearGradient11709"
       gradientUnits="userSpaceOnUse"
       x1="76.371597"
       y1="16.591801"
       x2="93.231796"
       y2="18.029301" />
    <linearGradient
       id="XMLID_69_"
       gradientUnits="userSpaceOnUse"
       x1="76.371597"
       y1="16.591801"
       x2="93.231796"
       y2="18.029301">
      <stop
         offset="0"
         style="stop-color:#0F80BC"
         id="stop6947" />
      <stop
         offset="0.3376"
         style="stop-color:#0A5F9E"
         id="stop6949" />
      <stop
         offset="1"
         style="stop-color:#00145A"
         id="stop6951" />
    </linearGradient>
    <clipPath
       id="XMLID_68_">
      <use
         height="1"
         width="1"
         y="0"
         x="0"
         xlink:href="#XMLID_8_"
         id="use6944" />
    </clipPath>
    <linearGradient
       inkscape:collect="always"
       xlink:href="#XMLID_70_"
       id="linearGradient11711"
       gradientUnits="userSpaceOnUse"
       x1="38.491699"
       y1="19.146999"
       x2="29.173901"
       y2="32.832401" />
    <linearGradient
       id="XMLID_70_"
       gradientUnits="userSpaceOnUse"
       x1="38.491699"
       y1="19.146999"
       x2="29.173901"
       y2="32.832401">
      <stop
         offset="0"
         style="stop-color:#0F80BC"
         id="stop6956" />
      <stop
         offset="0.3376"
         style="stop-color:#0A5F9E"
         id="stop6958" />
      <stop
         offset="1"
         style="stop-color:#00145A"
         id="stop6960" />
    </linearGradient>
    <clipPath
       id="clipPath9205">
      <use
         height="1"
         width="1"
         y="0"
         x="0"
         xlink:href="#XMLID_8_"
         id="use9207" />
    </clipPath>
    <linearGradient
       id="XMLID_71_"
       gradientUnits="userSpaceOnUse"
       x1="62.651901"
       y1="34.546398"
       x2="62.651901"
       y2="11.8951">
      <stop
         offset="0.0137"
         style="stop-color:#000000"
         stop-opacity="0"
         id="stop6965" />
      <stop
         offset="0.65"
         style="stop-color:#C4E0E3"
         stop-opacity="0.2"
         id="stop6967" />
      <stop
         offset="0.8224"
         style="stop-color:#C4E0E3"
         id="stop6969" />
      <stop
         offset="0.8498"
         style="stop-color:#CDE5E8"
         id="stop6971" />
      <stop
         offset="0.9443"
         style="stop-color:#E8F4F7"
         id="stop6973" />
      <stop
         offset="1"
         style="stop-color:#F2FAFC"
         id="stop6975" />
    </linearGradient>
    <linearGradient
       id="XMLID_74_"
       gradientUnits="userSpaceOnUse"
       x1="64.477501"
       y1="56.3008"
       x2="78.466103"
       y2="48.0854">
      <stop
         offset="0"
         style="stop-color:#DF731B"
         id="stop6994" />
      <stop
         offset="0.5449"
         style="stop-color:#DF731B"
         id="stop6996" />
      <stop
         offset="0.7014"
         style="stop-color:#EC8811"
         id="stop6998" />
      <stop
         offset="0.8593"
         style="stop-color:#F4950B"
         id="stop7000" />
      <stop
         offset="1"
         style="stop-color:#F79A09"
         id="stop7002" />
    </linearGradient>
    <linearGradient
       id="XMLID_75_"
       gradientUnits="userSpaceOnUse"
       x1="41.838902"
       y1="36.961899"
       x2="52.696899"
       y2="37.8922">
      <stop
         offset="0.0112"
         style="stop-color:#941403"
         id="stop7007" />
      <stop
         offset="0.8972"
         style="stop-color:#E85C0A"
         id="stop7009" />
    </linearGradient>
    <linearGradient
       id="XMLID_76_"
       gradientUnits="userSpaceOnUse"
       x1="24.450199"
       y1="33.952599"
       x2="63.643002"
       y2="38.8517">
      <stop
         offset="0.0112"
         style="stop-color:#941403"
         id="stop7014" />
      <stop
         offset="0.1357"
         style="stop-color:#A32104"
         id="stop7016" />
      <stop
         offset="0.4978"
         style="stop-color:#C84107"
         id="stop7018" />
      <stop
         offset="0.7893"
         style="stop-color:#DF5509"
         id="stop7020" />
      <stop
         offset="0.972"
         style="stop-color:#E85C0A"
         id="stop7022" />
    </linearGradient>
    <linearGradient
       id="XMLID_77_"
       gradientUnits="userSpaceOnUse"
       x1="48.730999"
       y1="44.320301"
       x2="51.856499"
       y2="42.945099">
      <stop
         offset="0"
         style="stop-color:#F2C8A9"
         id="stop7027" />
      <stop
         offset="1"
         style="stop-color:#FFFFCC"
         id="stop7029" />
    </linearGradient>
    <linearGradient
       id="XMLID_78_"
       gradientUnits="userSpaceOnUse"
       x1="38.767601"
       y1="82.582497"
       x2="91.339104"
       y2="84.7472">
      <stop
         offset="0"
         style="stop-color:#B30000"
         id="stop7034" />
      <stop
         offset="1"
         style="stop-color:#DF731B"
         id="stop7036" />
    </linearGradient>
    <linearGradient
       id="XMLID_79_"
       gradientUnits="userSpaceOnUse"
       x1="51.277802"
       y1="74.424301"
       x2="78.689102"
       y2="84.211601">
      <stop
         offset="0"
         style="stop-color:#941403"
         id="stop7041" />
      <stop
         offset="1"
         style="stop-color:#DF731B"
         id="stop7043" />
    </linearGradient>
    <linearGradient
       id="XMLID_80_"
       gradientUnits="userSpaceOnUse"
       x1="6.1064"
       y1="87.056602"
       x2="32.828098"
       y2="87.056602"
       gradientTransform="matrix(0.9988,0.049,-0.049,0.9988,4.7153,-1.2399)">
      <stop
         offset="0.0562"
         style="stop-color:#B30000"
         id="stop7048" />
      <stop
         offset="1"
         style="stop-color:#DE5C01"
         id="stop7050" />
    </linearGradient>
    <linearGradient
       id="XMLID_81_"
       gradientUnits="userSpaceOnUse"
       x1="209.7227"
       y1="-130.65919"
       x2="224.26109"
       y2="-85.618599"
       gradientTransform="matrix(0.9929,0.1186,-0.1186,0.9929,-207.2682,181.2932)">
      <stop
         offset="0.0562"
         style="stop-color:#DE7210"
         id="stop7055" />
      <stop
         offset="1"
         style="stop-color:#F6C08F"
         id="stop7057" />
    </linearGradient>
    <linearGradient
       id="XMLID_82_"
       gradientUnits="userSpaceOnUse"
       x1="12.4712"
       y1="61.107399"
       x2="12.4712"
       y2="111.4548"
       gradientTransform="matrix(0.999,0.0448,-0.0448,0.999,3.2321,-0.6968)">
      <stop
         offset="0.0562"
         style="stop-color:#DE7210"
         id="stop7062" />
      <stop
         offset="1"
         style="stop-color:#F6C08F"
         id="stop7064" />
    </linearGradient>
    <linearGradient
       id="XMLID_83_"
       gradientUnits="userSpaceOnUse"
       x1="18.3477"
       y1="30.846201"
       x2="12.8857"
       y2="16.8496">
      <stop
         offset="0.0112"
         style="stop-color:#941403"
         id="stop7071" />
      <stop
         offset="0.4719"
         style="stop-color:#E85C0A"
         id="stop7073" />
      <stop
         offset="1"
         style="stop-color:#F9BD5F"
         id="stop7075" />
    </linearGradient>
    <linearGradient
       id="XMLID_84_"
       gradientUnits="userSpaceOnUse"
       x1="41.703602"
       y1="34.057598"
       x2="54.7924"
       y2="16.8533">
      <stop
         offset="0.1966"
         style="stop-color:#DE7210"
         id="stop7080" />
      <stop
         offset="0.8427"
         style="stop-color:#F9BD5F"
         id="stop7082" />
      <stop
         offset="1"
         style="stop-color:#FFFCCF"
         id="stop7084" />
    </linearGradient>
    <linearGradient
       id="XMLID_85_"
       gradientUnits="userSpaceOnUse"
       x1="34.783699"
       y1="57.5415"
       x2="48.052399"
       y2="84.078903">
      <stop
         offset="0.0169"
         style="stop-color:#941403"
         id="stop7089" />
      <stop
         offset="0.5"
         style="stop-color:#E35100"
         id="stop7091" />
      <stop
         offset="1"
         style="stop-color:#DF731B"
         id="stop7093" />
    </linearGradient>
    <linearGradient
       id="XMLID_86_"
       gradientUnits="userSpaceOnUse"
       x1="54.825199"
       y1="41.267101"
       x2="58.138699"
       y2="44.27">
      <stop
         offset="0"
         style="stop-color:#EEA272"
         id="stop7098" />
      <stop
         offset="0.1865"
         style="stop-color:#EFA777"
         id="stop7100" />
      <stop
         offset="0.4064"
         style="stop-color:#F2B585"
         id="stop7102" />
      <stop
         offset="0.643"
         style="stop-color:#F6CD9C"
         id="stop7104" />
      <stop
         offset="0.8898"
         style="stop-color:#FCEEBB"
         id="stop7106" />
      <stop
         offset="1"
         style="stop-color:#FFFFCC"
         id="stop7108" />
    </linearGradient>
    <linearGradient
       id="XMLID_87_"
       gradientUnits="userSpaceOnUse"
       x1="35.5"
       y1="48.361301"
       x2="50.721401"
       y2="63.893299">
      <stop
         offset="0.1966"
         style="stop-color:#DF731B"
         id="stop7113" />
      <stop
         offset="0.8427"
         style="stop-color:#F9BD5F"
         id="stop7115" />
      <stop
         offset="1"
         style="stop-color:#FFFCCF"
         id="stop7117" />
    </linearGradient>
    <linearGradient
       id="XMLID_88_"
       gradientUnits="userSpaceOnUse"
       x1="847.4707"
       y1="-1065.021"
       x2="847.4707"
       y2="-1007.9581"
       gradientTransform="matrix(0.9673,0.2537,-0.2537,0.9673,-1076.6656,855.2322)">
      <stop
         offset="0.0562"
         style="stop-color:#DE7210"
         id="stop7122" />
      <stop
         offset="1"
         style="stop-color:#F6C08F"
         id="stop7124" />
    </linearGradient>
    <linearGradient
       id="XMLID_89_"
       gradientUnits="userSpaceOnUse"
       x1="15.8564"
       y1="36.413101"
       x2="-3.4365001"
       y2="67.833"
       gradientTransform="matrix(0.9897,-0.0801,0.0949,1.1727,-3.8203,-4.9468)">
      <stop
         offset="0.0562"
         style="stop-color:#DE7210"
         id="stop7129" />
      <stop
         offset="1"
         style="stop-color:#F2C06E"
         id="stop7131" />
    </linearGradient>
    <linearGradient
       id="XMLID_90_"
       gradientUnits="userSpaceOnUse"
       x1="80.929199"
       y1="67.844704"
       x2="60.433201"
       y2="71.759697">
      <stop
         offset="0.0047"
         style="stop-color:#FFFAEE"
         id="stop7136" />
      <stop
         offset="0.2757"
         style="stop-color:#F5F89B"
         id="stop7138" />
      <stop
         offset="0.3102"
         style="stop-color:#F3ED91"
         id="stop7140" />
      <stop
         offset="0.4668"
         style="stop-color:#ECC267"
         id="stop7142" />
      <stop
         offset="0.6182"
         style="stop-color:#E6A046"
         id="stop7144" />
      <stop
         offset="0.7611"
         style="stop-color:#E2872E"
         id="stop7146" />
      <stop
         offset="0.8921"
         style="stop-color:#E07820"
         id="stop7148" />
      <stop
         offset="1"
         style="stop-color:#DF731B"
         id="stop7150" />
    </linearGradient>
    <linearGradient
       id="XMLID_91_"
       gradientUnits="userSpaceOnUse"
       x1="-411.27289"
       y1="427.6279"
       x2="-411.27289"
       y2="475.31949"
       gradientTransform="matrix(0.992,0.1261,-0.1261,0.992,477.0624,-332.3914)">
      <stop
         offset="0.0562"
         style="stop-color:#DE7210"
         id="stop7155" />
      <stop
         offset="1"
         style="stop-color:#F2C06E"
         id="stop7157" />
    </linearGradient>
    <linearGradient
       id="XMLID_92_"
       gradientUnits="userSpaceOnUse"
       x1="-414.43649"
       y1="422.68359"
       x2="-414.43649"
       y2="470.3703"
       gradientTransform="matrix(0.9324,0.3616,-0.3616,0.9324,554.92,-207.713)">
      <stop
         offset="0.0562"
         style="stop-color:#DE7210"
         id="stop7162" />
      <stop
         offset="1"
         style="stop-color:#F2C06E"
         id="stop7164" />
    </linearGradient>
    <linearGradient
       id="XMLID_93_"
       gradientUnits="userSpaceOnUse"
       x1="13.8481"
       y1="55.797401"
       x2="0.56919998"
       y2="75.715698"
       gradientTransform="matrix(0.8104,-0.5859,0.5859,0.8104,-28.537,20.3312)">
      <stop
         offset="0.0562"
         style="stop-color:#DE7210"
         id="stop7169" />
      <stop
         offset="1"
         style="stop-color:#F2C072"
         id="stop7171" />
    </linearGradient>
    <linearGradient
       id="XMLID_94_"
       gradientUnits="userSpaceOnUse"
       x1="21.0347"
       y1="49.271"
       x2="7.7561002"
       y2="69.188797"
       gradientTransform="matrix(0.8104,-0.5859,0.5859,0.8104,-28.537,20.3312)">
      <stop
         offset="0.0562"
         style="stop-color:#DE7210"
         id="stop7176" />
      <stop
         offset="1"
         style="stop-color:#F2C072"
         id="stop7178" />
    </linearGradient>
    <linearGradient
       id="XMLID_95_"
       gradientUnits="userSpaceOnUse"
       x1="12.3135"
       y1="37.8647"
       x2="6.5040002"
       y2="48.708801">
      <stop
         offset="0.0562"
         style="stop-color:#DE7210"
         id="stop7183" />
      <stop
         offset="1"
         style="stop-color:#EED8A5"
         id="stop7185" />
    </linearGradient>
    <linearGradient
       id="XMLID_96_"
       gradientUnits="userSpaceOnUse"
       x1="11.7305"
       y1="44.491699"
       x2="5.9211001"
       y2="55.3354">
      <stop
         offset="0.0562"
         style="stop-color:#DE7210"
         id="stop7190" />
      <stop
         offset="1"
         style="stop-color:#EED8A5"
         id="stop7192" />
    </linearGradient>
    <linearGradient
       id="XMLID_97_"
       gradientUnits="userSpaceOnUse"
       x1="18.313"
       y1="39.891102"
       x2="12.6977"
       y2="53.833">
      <stop
         offset="0.0562"
         style="stop-color:#DE7210"
         id="stop7197" />
      <stop
         offset="1"
         style="stop-color:#F2C072"
         id="stop7199" />
    </linearGradient>
    <linearGradient
       id="XMLID_98_"
       gradientUnits="userSpaceOnUse"
       x1="20.4468"
       y1="33.1045"
       x2="7.1675"
       y2="53.023399">
      <stop
         offset="0.0562"
         style="stop-color:#DE7210"
         id="stop7204" />
      <stop
         offset="1"
         style="stop-color:#F2C072"
         id="stop7206" />
    </linearGradient>
    <linearGradient
       id="XMLID_99_"
       gradientUnits="userSpaceOnUse"
       x1="21.340799"
       y1="37.1255"
       x2="9.2384996"
       y2="55.278999">
      <stop
         offset="0.0562"
         style="stop-color:#DE7210"
         id="stop7211" />
      <stop
         offset="1"
         style="stop-color:#F2C072"
         id="stop7213" />
    </linearGradient>
    <linearGradient
       id="XMLID_100_"
       gradientUnits="userSpaceOnUse"
       x1="60.286098"
       y1="34.297401"
       x2="61.244999"
       y2="36.0061">
      <stop
         offset="0"
         style="stop-color:#8B8B89"
         id="stop7218" />
      <stop
         offset="1"
         style="stop-color:#120500"
         id="stop7220" />
    </linearGradient>
    <linearGradient
       id="XMLID_101_"
       gradientUnits="userSpaceOnUse"
       x1="22.559601"
       y1="28.492201"
       x2="22.559601"
       y2="23.245199">
      <stop
         offset="0.0562"
         style="stop-color:#DE7210"
         id="stop7225" />
      <stop
         offset="1"
         style="stop-color:#F6C08F"
         id="stop7227" />
    </linearGradient>
    <linearGradient
       id="XMLID_102_"
       gradientUnits="userSpaceOnUse"
       x1="23.0117"
       y1="34.750999"
       x2="33.993099"
       y2="21.917999"
       gradientTransform="matrix(0.9992,0.0398,-0.0398,0.9992,0.9958,-1.3319)">
      <stop
         offset="0.0562"
         style="stop-color:#DE7210"
         id="stop7232" />
      <stop
         offset="1"
         style="stop-color:#F6C08F"
         id="stop7234" />
    </linearGradient>
    <linearGradient
       id="XMLID_103_"
       gradientUnits="userSpaceOnUse"
       x1="15.5088"
       y1="33.507801"
       x2="9.6995001"
       y2="44.351501">
      <stop
         offset="0.0562"
         style="stop-color:#DE7210"
         id="stop7239" />
      <stop
         offset="1"
         style="stop-color:#EED8A5"
         id="stop7241" />
    </linearGradient>
    <linearGradient
       id="XMLID_104_"
       gradientUnits="userSpaceOnUse"
       x1="16.3398"
       y1="35.804699"
       x2="27.0674"
       y2="23.268299"
       gradientTransform="matrix(0.9946,0.1039,-0.1039,0.9946,3.786,-2.0567)">
      <stop
         offset="0.0562"
         style="stop-color:#DE7210"
         id="stop7246" />
      <stop
         offset="1"
         style="stop-color:#F6C08F"
         id="stop7248" />
    </linearGradient>
    <linearGradient
       id="XMLID_105_"
       gradientUnits="userSpaceOnUse"
       x1="13.3721"
       y1="22.875999"
       x2="26.2598"
       y2="24.641001"
       gradientTransform="matrix(0.9959,0.0903,-0.0903,0.9959,2.3457,-2.346)">
      <stop
         offset="0.0562"
         style="stop-color:#DE7210"
         id="stop7253" />
      <stop
         offset="1"
         style="stop-color:#F6C08F"
         id="stop7255" />
    </linearGradient>
    <linearGradient
       id="XMLID_106_"
       gradientUnits="userSpaceOnUse"
       x1="6.9833999"
       y1="23.1094"
       x2="25.178301"
       y2="25.6012">
      <stop
         offset="0.0562"
         style="stop-color:#DE7210"
         id="stop7260" />
      <stop
         offset="1"
         style="stop-color:#F6C08F"
         id="stop7262" />
    </linearGradient>
    <linearGradient
       id="XMLID_107_"
       gradientUnits="userSpaceOnUse"
       x1="15.8809"
       y1="22.228001"
       x2="27.7244"
       y2="23.85"
       gradientTransform="matrix(0.9959,0.0903,-0.0903,0.9959,2.3457,-2.346)">
      <stop
         offset="0.0562"
         style="stop-color:#DE7210"
         id="stop7267" />
      <stop
         offset="1"
         style="stop-color:#F6C08F"
         id="stop7269" />
    </linearGradient>
    <linearGradient
       id="XMLID_108_"
       gradientUnits="userSpaceOnUse"
       x1="15.2012"
       y1="26.939899"
       x2="4.5215001"
       y2="25.8437">
      <stop
         offset="0.0562"
         style="stop-color:#DE7210"
         id="stop7274" />
      <stop
         offset="1"
         style="stop-color:#F6C08F"
         id="stop7276" />
    </linearGradient>
    <linearGradient
       id="XMLID_109_"
       gradientUnits="userSpaceOnUse"
       x1="10.9453"
       y1="37.099602"
       x2="25.7187"
       y2="19.835199"
       gradientTransform="matrix(0.9946,0.1039,-0.1039,0.9946,3.786,-2.0567)">
      <stop
         offset="0.0562"
         style="stop-color:#DE7210"
         id="stop7281" />
      <stop
         offset="1"
         style="stop-color:#F6C08F"
         id="stop7283" />
    </linearGradient>
    <linearGradient
       id="XMLID_110_"
       gradientUnits="userSpaceOnUse"
       x1="88.330597"
       y1="117.3682"
       x2="117.2648"
       y2="72.7407">
      <stop
         offset="0"
         style="stop-color:#DE5C01"
         id="stop7289" />
      <stop
         offset="0.736"
         style="stop-color:#FEFD00"
         id="stop7291" />
      <stop
         offset="0.7783"
         style="stop-color:#FEFE26"
         id="stop7293" />
      <stop
         offset="0.8369"
         style="stop-color:#FFFE54"
         id="stop7295" />
      <stop
         offset="0.889"
         style="stop-color:#FFFF76"
         id="stop7297" />
      <stop
         offset="0.932"
         style="stop-color:#FFFF8B"
         id="stop7299" />
      <stop
         offset="0.9607"
         style="stop-color:#FFFF92"
         id="stop7301" />
    </linearGradient>
    <linearGradient
       id="XMLID_111_"
       gradientUnits="userSpaceOnUse"
       x1="105.1567"
       y1="22.737801"
       x2="86.211197"
       y2="14.4171">
      <stop
         offset="0"
         style="stop-color:#F79A09"
         id="stop7306" />
      <stop
         offset="0.736"
         style="stop-color:#FEFD00"
         id="stop7308" />
      <stop
         offset="0.7783"
         style="stop-color:#FEFE26"
         id="stop7310" />
      <stop
         offset="0.8369"
         style="stop-color:#FFFE54"
         id="stop7312" />
      <stop
         offset="0.889"
         style="stop-color:#FFFF76"
         id="stop7314" />
      <stop
         offset="0.932"
         style="stop-color:#FFFF8B"
         id="stop7316" />
      <stop
         offset="0.9607"
         style="stop-color:#FFFF92"
         id="stop7318" />
    </linearGradient>
    <linearGradient
       id="XMLID_112_"
       gradientUnits="userSpaceOnUse"
       x1="117.8823"
       y1="41.729"
       x2="91.359299"
       y2="17.106001">
      <stop
         offset="0"
         style="stop-color:#DE5C01"
         id="stop7323" />
      <stop
         offset="0.736"
         style="stop-color:#FEFD00"
         id="stop7325" />
      <stop
         offset="0.7783"
         style="stop-color:#FEFE26"
         id="stop7327" />
      <stop
         offset="0.8369"
         style="stop-color:#FFFE54"
         id="stop7329" />
      <stop
         offset="0.889"
         style="stop-color:#FFFF76"
         id="stop7331" />
      <stop
         offset="0.932"
         style="stop-color:#FFFF8B"
         id="stop7333" />
      <stop
         offset="0.9607"
         style="stop-color:#FFFF92"
         id="stop7335" />
    </linearGradient>
    <linearGradient
       id="XMLID_113_"
       gradientUnits="userSpaceOnUse"
       x1="1.1396"
       y1="145.4453"
       x2="-9.9659004"
       y2="133.9595"
       gradientTransform="matrix(0.9996,-0.0282,0.0282,0.9996,104.7769,-104.6242)">
      <stop
         offset="0"
         style="stop-color:#F79A09"
         id="stop7340" />
      <stop
         offset="0.736"
         style="stop-color:#FEFD00"
         id="stop7342" />
      <stop
         offset="0.7783"
         style="stop-color:#FEFE26"
         id="stop7344" />
      <stop
         offset="0.8369"
         style="stop-color:#FFFE54"
         id="stop7346" />
      <stop
         offset="0.889"
         style="stop-color:#FFFF76"
         id="stop7348" />
      <stop
         offset="0.932"
         style="stop-color:#FFFF8B"
         id="stop7350" />
      <stop
         offset="0.9607"
         style="stop-color:#FFFF92"
         id="stop7352" />
    </linearGradient>
    <linearGradient
       id="XMLID_114_"
       gradientUnits="userSpaceOnUse"
       x1="113.4365"
       y1="55.834"
       x2="119.687"
       y2="34.332298">
      <stop
         offset="0"
         style="stop-color:#F79A09"
         id="stop7357" />
      <stop
         offset="0.736"
         style="stop-color:#FEFD00"
         id="stop7359" />
      <stop
         offset="0.7783"
         style="stop-color:#FEFE26"
         id="stop7361" />
      <stop
         offset="0.8369"
         style="stop-color:#FFFE54"
         id="stop7363" />
      <stop
         offset="0.889"
         style="stop-color:#FFFF76"
         id="stop7365" />
      <stop
         offset="0.932"
         style="stop-color:#FFFF8B"
         id="stop7367" />
      <stop
         offset="0.9607"
         style="stop-color:#FFFF92"
         id="stop7369" />
    </linearGradient>
    <linearGradient
       id="XMLID_115_"
       gradientUnits="userSpaceOnUse"
       x1="-51.966301"
       y1="212.7881"
       x2="-52.194302"
       y2="196.4341"
       gradientTransform="matrix(0.9992,-0.0412,0.0412,0.9992,151.8961,-153.906)">
      <stop
         offset="0"
         style="stop-color:#F79A09"
         id="stop7374" />
      <stop
         offset="0.736"
         style="stop-color:#FEFD00"
         id="stop7376" />
      <stop
         offset="0.7783"
         style="stop-color:#FEFE26"
         id="stop7378" />
      <stop
         offset="0.8369"
         style="stop-color:#FFFE54"
         id="stop7380" />
      <stop
         offset="0.889"
         style="stop-color:#FFFF76"
         id="stop7382" />
      <stop
         offset="0.932"
         style="stop-color:#FFFF8B"
         id="stop7384" />
      <stop
         offset="0.9607"
         style="stop-color:#FFFF92"
         id="stop7386" />
    </linearGradient>
    <linearGradient
       id="XMLID_116_"
       gradientUnits="userSpaceOnUse"
       x1="-172.72121"
       y1="332.082"
       x2="-161.4561"
       y2="309.89331"
       gradientTransform="matrix(0.9975,-0.0707,0.0707,0.9975,254.6004,-268.4704)">
      <stop
         offset="0"
         style="stop-color:#F79A09"
         id="stop7391" />
      <stop
         offset="0.736"
         style="stop-color:#FEFD00"
         id="stop7393" />
      <stop
         offset="0.7783"
         style="stop-color:#FEFE26"
         id="stop7395" />
      <stop
         offset="0.8369"
         style="stop-color:#FFFE54"
         id="stop7397" />
      <stop
         offset="0.889"
         style="stop-color:#FFFF76"
         id="stop7399" />
      <stop
         offset="0.932"
         style="stop-color:#FFFF8B"
         id="stop7401" />
      <stop
         offset="0.9607"
         style="stop-color:#FFFF92"
         id="stop7403" />
    </linearGradient>
    <linearGradient
       id="XMLID_117_"
       gradientUnits="userSpaceOnUse"
       x1="99.205597"
       y1="87.746597"
       x2="100.7206"
       y2="63.169102"
       gradientTransform="matrix(0.9975,-0.0707,0.0707,0.9975,-10.9669,13.6507)">
      <stop
         offset="0"
         style="stop-color:#DE5C01"
         id="stop7408" />
      <stop
         offset="0.736"
         style="stop-color:#FEFD00"
         id="stop7410" />
      <stop
         offset="0.7783"
         style="stop-color:#FEFE26"
         id="stop7412" />
      <stop
         offset="0.8369"
         style="stop-color:#FFFE54"
         id="stop7414" />
      <stop
         offset="0.889"
         style="stop-color:#FFFF76"
         id="stop7416" />
      <stop
         offset="0.932"
         style="stop-color:#FFFF8B"
         id="stop7418" />
      <stop
         offset="0.9607"
         style="stop-color:#FFFF92"
         id="stop7420" />
    </linearGradient>
    <linearGradient
       id="XMLID_118_"
       gradientUnits="userSpaceOnUse"
       x1="58.369099"
       y1="113.8594"
       x2="105.8753"
       y2="85.464897">
      <stop
         offset="0"
         style="stop-color:#B9120D"
         id="stop7425" />
      <stop
         offset="0.078"
         style="stop-color:#BB180D"
         id="stop7427" />
      <stop
         offset="0.1822"
         style="stop-color:#C0290C"
         id="stop7429" />
      <stop
         offset="0.3013"
         style="stop-color:#C8450A"
         id="stop7431" />
      <stop
         offset="0.4314"
         style="stop-color:#D36C08"
         id="stop7433" />
      <stop
         offset="0.5706"
         style="stop-color:#E29E05"
         id="stop7435" />
      <stop
         offset="0.7151"
         style="stop-color:#F4DA02"
         id="stop7437" />
      <stop
         offset="0.7921"
         style="stop-color:#FEFD00"
         id="stop7439" />
      <stop
         offset="0.8136"
         style="stop-color:#FEFD07"
         id="stop7441" />
      <stop
         offset="0.8455"
         style="stop-color:#FEFD1B"
         id="stop7443" />
      <stop
         offset="0.8837"
         style="stop-color:#FEFE3C"
         id="stop7445" />
      <stop
         offset="0.9268"
         style="stop-color:#FFFE69"
         id="stop7447" />
      <stop
         offset="0.9736"
         style="stop-color:#FFFFA3"
         id="stop7449" />
      <stop
         offset="1"
         style="stop-color:#FFFFC7"
         id="stop7451" />
    </linearGradient>
    <linearGradient
       id="XMLID_119_"
       gradientUnits="userSpaceOnUse"
       x1="54.2402"
       y1="93.582497"
       x2="102.9066"
       y2="100.176"
       gradientTransform="matrix(0.9951,0.0989,-0.0989,0.9951,10.3843,-6.0754)">
      <stop
         offset="0.0562"
         style="stop-color:#DE7210"
         id="stop7457" />
      <stop
         offset="1"
         style="stop-color:#F6C08F"
         id="stop7459" />
    </linearGradient>
    <linearGradient
       id="XMLID_120_"
       gradientUnits="userSpaceOnUse"
       x1="39.012699"
       y1="89.889603"
       x2="95.521896"
       y2="107.6497"
       gradientTransform="matrix(0.9895,0.1448,-0.1448,0.9895,14.2829,-5.8352)">
      <stop
         offset="0.0562"
         style="stop-color:#DE7210"
         id="stop7464" />
      <stop
         offset="1"
         style="stop-color:#F6C08F"
         id="stop7466" />
    </linearGradient>
    <linearGradient
       id="XMLID_121_"
       gradientUnits="userSpaceOnUse"
       x1="-601.46729"
       y1="628.96088"
       x2="-574.59741"
       y2="680.40417"
       gradientTransform="matrix(0.9837,-0.1799,0.1799,0.9837,500.9515,-643.7268)">
      <stop
         offset="0.0562"
         style="stop-color:#DE7210"
         id="stop7471" />
      <stop
         offset="1"
         style="stop-color:#F6C08F"
         id="stop7473" />
    </linearGradient>
    <linearGradient
       inkscape:collect="always"
       xlink:href="#linearGradient11811"
       id="linearGradient11693"
       gradientUnits="userSpaceOnUse"
       gradientTransform="translate(580,0)"
       x1="116.67262"
       y1="439.19958"
       x2="304.561"
       y2="696.28339" />
    <linearGradient
       id="linearGradient11811"
       inkscape:collect="always">
      <stop
         id="stop11813"
         offset="0"
         style="stop-color:#87aade;stop-opacity:1" />
      <stop
         id="stop11815"
         offset="1"
         style="stop-color:#162d50;stop-opacity:1" />
    </linearGradient>
    <filter
       id="filter12186"
       y="-0.25"
       height="1.5"
       x="-0.25"
       width="1.5"
       inkscape:menu-tooltip="Aquarelle paper effect which can be used for pictures as for objects"
       inkscape:menu="Textures"
       inkscape:label="Drop shadow"
       color-interpolation-filters="sRGB">
      <feTurbulence
         id="feTurbulence12188"
         type="fractalNoise"
         baseFrequency="0.04"
         numOctaves="5"
         seed="0"
         result="result4" />
      <feDisplacementMap
         id="feDisplacementMap12190"
         in2="result4"
         in="SourceGraphic"
         yChannelSelector="G"
         xChannelSelector="R"
         scale="10"
         result="result3" />
      <feDiffuseLighting
         id="feDiffuseLighting12192"
         lighting-color="#e9e6d7"
         diffuseConstant="1"
         surfaceScale="2"
         result="result1"
         in="result4">
        <feDistantLight
           id="feDistantLight12194"
           azimuth="235"
           elevation="40" />
      </feDiffuseLighting>
      <feComposite
         id="feComposite12196"
         in2="result1"
         operator="in"
         in="result3"
         result="result2" />
      <feComposite
         k4="0"
         k3="0"
         k2="0"
         id="feComposite12198"
         in2="result1"
         result="result5"
         operator="arithmetic"
         k1="1.7" />
      <feBlend
         id="feBlend12200"
         in2="result3"
         in="result5"
         mode="normal"
         result="fbSourceGraphic" />
      <feColorMatrix
         result="fbSourceGraphicAlpha"
         in="fbSourceGraphic"
         values="0 0 0 -1 0 0 0 0 -1 0 0 0 0 -1 0 0 0 0 1 0"
         id="feColorMatrix4516" />
      <feGaussianBlur
         id="feGaussianBlur4518"
         in="fbSourceGraphicAlpha"
         stdDeviation="2"
         result="blur" />
      <feColorMatrix
         id="feColorMatrix4520"
         result="bluralpha"
         type="matrix"
         values="1 0 0 0 0 0 1 0 0 0 0 0 1 0 0 0 0 0 0.5 0 " />
      <feOffset
         id="feOffset4522"
         in="bluralpha"
         dx="8"
         dy="8"
         result="offsetBlur" />
      <feMerge
         id="feMerge4524">
        <feMergeNode
           id="feMergeNode4526"
           in="offsetBlur" />
        <feMergeNode
           id="feMergeNode4528"
           in="fbSourceGraphic" />
      </feMerge>
    </filter>
    <linearGradient
       y2="701.51544"
       x2="318.55746"
       y1="443.56439"
       x1="284.10648"
       gradientTransform="matrix(0.20521816,0,0,0.2050046,-71.215697,103.71315)"
       gradientUnits="userSpaceOnUse"
       id="linearGradient9855"
       xlink:href="#linearGradient11811"
       inkscape:collect="always" />
    <radialGradient
       inkscape:collect="always"
       xlink:href="#linearGradient2989"
       id="radialGradient3020"
       cx="1076.4286"
       cy="478.79074"
       fx="1076.4286"
       fy="478.79074"
       r="142.85715"
       gradientUnits="userSpaceOnUse"
       gradientTransform="matrix(0,-1.3799999,1.5576574,0,330.63663,1964.2621)" />
    <linearGradient
       id="linearGradient2989">
      <stop
         style="stop-color:#ffffff;stop-opacity:1;"
         offset="0"
         id="stop2991" />
      <stop
         style="stop-color:#a5d9e6;stop-opacity:1;"
         offset="1"
         id="stop2993" />
    </linearGradient>
    <filter
       id="filter7901"
       y="-0.25"
       height="1.5"
       x="-0.25"
       width="1.5"
       inkscape:menu-tooltip="Aquarelle paper effect which can be used for pictures as for objects"
       inkscape:menu="Textures"
       inkscape:label="Drop shadow"
       color-interpolation-filters="sRGB">
      <feTurbulence
         id="feTurbulence7903"
         type="fractalNoise"
         baseFrequency="0.04"
         numOctaves="5"
         seed="0"
         result="result4" />
      <feDisplacementMap
         id="feDisplacementMap7905"
         in2="result4"
         in="SourceGraphic"
         yChannelSelector="G"
         xChannelSelector="R"
         scale="10"
         result="result3" />
      <feDiffuseLighting
         id="feDiffuseLighting7907"
         lighting-color="#e9e6d7"
         diffuseConstant="1"
         surfaceScale="2"
         result="result1"
         in="result4">
        <feDistantLight
           id="feDistantLight7909"
           azimuth="235"
           elevation="40" />
      </feDiffuseLighting>
      <feComposite
         id="feComposite7911"
         in2="result1"
         operator="in"
         in="result3"
         result="result2" />
      <feComposite
         id="feComposite7913"
         in2="result1"
         result="result5"
         operator="arithmetic"
         k1="1.7"
         k2="0"
         k3="0"
         k4="0" />
      <feBlend
         id="feBlend7915"
         in2="result3"
         in="result5"
         mode="normal"
         result="fbSourceGraphic" />
      <feColorMatrix
         result="fbSourceGraphicAlpha"
         in="fbSourceGraphic"
         values="0 0 0 -1 0 0 0 0 -1 0 0 0 0 -1 0 0 0 0 1 0"
         id="feColorMatrix7917" />
      <feGaussianBlur
         id="feGaussianBlur7919"
         in="fbSourceGraphicAlpha"
         stdDeviation="2"
         result="blur" />
      <feColorMatrix
         id="feColorMatrix7921"
         result="bluralpha"
         type="matrix"
         values="1 0 0 0 0 0 1 0 0 0 0 0 1 0 0 0 0 0 0.5 0 " />
      <feOffset
         id="feOffset7923"
         in="bluralpha"
         dx="4"
         dy="4"
         result="offsetBlur" />
      <feMerge
         id="feMerge7925">
        <feMergeNode
           id="feMergeNode7927"
           in="offsetBlur" />
        <feMergeNode
           id="feMergeNode7929"
           in="fbSourceGraphic" />
      </feMerge>
    </filter>
    <radialGradient
       inkscape:collect="always"
       xlink:href="#linearGradient38277"
       id="radialGradient38317"
       gradientUnits="userSpaceOnUse"
       gradientTransform="matrix(0.69719883,1.0793933,-1.1943603,0.77297612,832.93918,-733.53466)"
       cx="787.22473"
       cy="479.36584"
       fx="787.22473"
       fy="479.36584"
       r="258.02078" />
    <linearGradient
       id="linearGradient38277">
      <stop
         style="stop-color:#87aade;stop-opacity:1"
         offset="0"
         id="stop38279" />
      <stop
         style="stop-color:#162d50;stop-opacity:1"
         offset="1"
         id="stop38281" />
    </linearGradient>
    <linearGradient
       inkscape:collect="always"
       xlink:href="#linearGradient38300"
       id="linearGradient38319"
       gradientUnits="userSpaceOnUse"
       x1="161.11934"
       y1="83.783127"
       x2="136.37059"
       y2="4.9912353" />
    <linearGradient
       inkscape:collect="always"
       id="linearGradient38300">
      <stop
         style="stop-color:#ffffff;stop-opacity:1;"
         offset="0"
         id="stop38302" />
      <stop
         style="stop-color:#ffffff;stop-opacity:0"
         offset="1"
         id="stop38304" />
    </linearGradient>
    <filter
       color-interpolation-filters="sRGB"
       inkscape:collect="always"
       id="filter38253">
      <feGaussianBlur
         inkscape:collect="always"
         stdDeviation="3.7990597"
         id="feGaussianBlur38255" />
    </filter>
    <radialGradient
       inkscape:collect="always"
       xlink:href="#linearGradient38257"
       id="radialGradient38321"
       gradientUnits="userSpaceOnUse"
       gradientTransform="matrix(-0.51080991,-0.39352661,0.36619486,-0.47533151,176.33119,204.40239)"
       cx="204.84595"
       cy="111.79336"
       fx="204.84595"
       fy="111.79336"
       r="121.0625" />
    <linearGradient
       inkscape:collect="always"
       id="linearGradient38257">
      <stop
         style="stop-color:#ffe680;stop-opacity:1"
         offset="0"
         id="stop38259" />
      <stop
         style="stop-color:#ffcc00;stop-opacity:1"
         offset="1"
         id="stop38261" />
    </linearGradient>
    <filter
       inkscape:collect="always"
       id="filter45491">
      <feGaussianBlur
         inkscape:collect="always"
         stdDeviation="1.5609375"
         id="feGaussianBlur45493" />
    </filter>
    <radialGradient
       inkscape:collect="always"
       xlink:href="#linearGradient38257"
       id="radialGradient45495"
       gradientUnits="userSpaceOnUse"
       gradientTransform="matrix(-0.1832717,-0.14119204,0.13138577,-0.17054253,89.004394,73.344524)"
       cx="204.84595"
       cy="111.79336"
       fx="204.84595"
       fy="111.79336"
       r="121.0625" />
    <radialGradient
       inkscape:collect="always"
       xlink:href="#linearGradient38257"
       id="radialGradient45503"
       gradientUnits="userSpaceOnUse"
       gradientTransform="matrix(-0.1832717,-0.14119204,0.13138577,-0.17054253,89.004394,73.344524)"
       cx="204.84595"
       cy="111.79336"
       fx="204.84595"
       fy="111.79336"
       r="121.0625" />
  </defs>
  <sodipodi:namedview
     id="base"
     pagecolor="#ffffff"
     bordercolor="#666666"
     borderopacity="1.0"
     inkscape:pageopacity="0.0"
     inkscape:pageshadow="2"
     inkscape:zoom="11.260679"
     inkscape:cx="80.010885"
     inkscape:cy="30.008862"
     inkscape:document-units="px"
     inkscape:current-layer="layer1"
     showgrid="false"
     fit-margin-top="0"
     fit-margin-left="0"
     fit-margin-right="0"
     fit-margin-bottom="0"
     inkscape:window-width="1920"
     inkscape:window-height="1121"
     inkscape:window-x="-2"
     inkscape:window-y="-3"
     inkscape:window-maximized="1"
     gridtolerance="10000" />
  <metadata
     id="metadata9862">
    <rdf:RDF>
      <cc:Work
         rdf:about="">
        <dc:format>image/svg+xml</dc:format>
        <dc:type
           rdf:resource="http://purl.org/dc/dcmitype/StillImage" />
        <dc:title></dc:title>
      </cc:Work>
    </rdf:RDF>
  </metadata>
  <g
     inkscape:label="Layer 1"
     inkscape:groupmode="layer"
     id="layer1"
     transform="translate(60.419925,-270.01538)">
    <g
       id="g38310"
       transform="matrix(0.3587865,0,0,0.3587865,-40.780152,218.35783)">
      <rect
         ry="21.2132"
         y="423.4234"
         x="511.98059"
         height="283.68048"
         width="765.54309"
         id="rect10983-9"
         style="fill:url(#radialGradient38317);fill-opacity:1;fill-rule:nonzero;stroke:none;display:inline"
         transform="matrix(0.57918184,0,0,0.57857907,-350.1859,-99.789865)" />
      <path
         sodipodi:nodetypes="ssccsss"
         inkscape:connector-curvature="0"
         id="rect38285"
         transform="translate(17,144)"
         d="m -58.336058,1.494856 c -6.80661,0 -12.28125,5.4817236 -12.28125,12.28125 l 0,66.536394 C 72.183602,139.19649 283.56437,40.874351 372.8681,81.5 l 0,-67.723894 c 0,-6.7995264 -5.47464,-12.28125 -12.28125,-12.28125 z"
         style="opacity:0.26440681;fill:url(#linearGradient38319);fill-opacity:1;fill-rule:nonzero;stroke:none;display:inline" />
      <g
         id="g45499"
         transform="translate(-27.871729,0)">
        <path
           id="path37479"
           transform="matrix(2.7871729,0,0,2.7871729,-54.739443,143.97852)"
           d="m 74.71875,5.75 0,0.625 c 0,0.3211498 0.04424,1.7107633 0.125,4.3125 0.100747,2.576629 0.156246,4.579525 0.15625,6 -4e-6,0.295414 -0.05536,1.996552 -0.15625,5 -0.08082,2.987109 -0.125,5.305735 -0.125,6.96875 l 0,0.5625 0.5625,0 2.40625,-0.09375 0.03125,0 2.34375,0.09375 0.5625,0 0,-0.5625 c -1.1e-5,-0.18137 -0.02212,-1.176786 -0.0625,-3.09375 -0.01977,-0.938205 0.009,-1.329525 0,-2 0.308162,0.529102 0.53975,0.974176 0.90625,1.59375 0.804471,1.326014 1.525898,2.579602 2.1875,3.78125 l 0.15625,0.28125 0.34375,0 c 0.1575,0 0.463577,-0.02189 1.09375,-0.0625 l 0.03125,0 c 0.613981,-0.05928 1.122517,-0.09375 1.5,-0.09375 0.03358,0 0.451669,0.03364 1.09375,0.09375 l 0.03125,0 c 0.67472,0.04086 1.195282,0.0625 1.59375,0.0625 l 0.96875,0 -0.5,-0.84375 L 87.875,25.03125 C 86.608093,22.991222 85.538812,21.16412 84.59375,19.5 l 3,-3 0.03125,0 1.84375,-1.75 0.3125,-0.28125 -0.1875,-0.375 -0.125,-0.21875 -0.1875,-0.28125 -0.3125,0 -1.375,0.0625 c -0.0047,0 -0.02644,1.1e-5 -0.03125,0 -0.223104,-3.59e-4 -0.558125,-0.01155 -1.03125,-0.03125 -0.485682,-0.0202 -0.862623,-0.03125 -1.125,-0.03125 l -0.25,0 -0.1875,0.25 c -0.920983,1.300031 -1.782616,2.41488 -2.59375,3.34375 -0.543325,0.62219 -1.200202,1.180857 -1.84375,1.75 l 0,-3.375 C 80.531243,14.667568 80.54442,13.133212 80.625,11 80.70584,8.8597632 80.749993,7.3193548 80.75,6.375 l 0,-0.59375 -0.59375,0.0625 c -0.765191,0.078424 -1.651479,0.093771 -2.625,0.09375 -0.829611,2.15e-5 -1.547045,-0.01618 -2.1875,-0.09375 L 74.71875,5.75 z M 60.5625,6.03125 c -0.783575,3.23e-5 -1.522121,0.3352341 -2.09375,0.90625 -0.264831,0.264562 -0.475375,0.5523146 -0.625,0.875 l -0.78125,0 c -0.250286,2.51e-5 -0.554319,0.053297 -1,0.09375 -0.432531,0.039283 -0.772483,0.031264 -0.96875,0.03125 l 0,0.03125 -1.5625,-0.125 -0.46875,-0.0625 -0.09375,0.5 c -0.0967,0.5602128 -0.231303,1.1243415 -0.40625,1.6875 l 0,0.03125 C 52.404664,10.551817 52.217602,11.094638 52,11.6875 L 48.75,20.65625 45.40625,11.75 C 45.011405,10.724613 44.651309,9.5640448 44.3125,8.25 l -0.125,-0.4375 -0.4375,0 -2.71875,0.125 c 0.0034,0 -0.03277,3.23e-5 -0.03125,0 0.02131,-3.588e-4 -0.1118,0.00832 -0.3125,0 C 40.472481,7.9286021 40.162674,7.8951279 39.75,7.875 38.92154,7.8346652 38.340416,7.8125215 37.96875,7.8125 l -0.8125,0 0.3125,0.75 5.96875,15.28125 c 0.002,0.0056 0.02919,-0.0056 0.03125,0 0.440448,1.200191 0.769644,2.182574 1.03125,2.90625 0.260987,0.722 0.490716,1.394156 0.6875,2.0625 l 0.125,0.40625 0.40625,0 c 0.154843,0 0.339741,-0.02153 0.75,-0.0625 l 0.03125,0 c 0.408912,-0.05829 0.707797,-0.09375 0.90625,-0.09375 0.173584,0 0.388932,0.02623 0.625,0.0625 l 0.03125,0 c 0.255707,0.01966 0.579882,0.05405 0.9375,0.09375 l 0.4375,0.03125 0.125,-0.4375 c 0.458203,-1.771243 1.032589,-3.422412 1.6875,-4.96875 l 0,-0.03125 4.0625,-10.3125 0,-0.03125 c 0.702073,-1.622809 1.448457,-3.222333 2.25,-4.84375 L 57.71875,8.28125 C 57.651661,8.5238004 57.5625,8.7415804 57.5625,9 c 0,0.7987879 0.328568,1.540742 0.90625,2.09375 0.574299,0.549826 1.31772,0.843772 2.09375,0.84375 0.792265,2.2e-5 1.506628,-0.288453 2.0625,-0.84375 C 63.194326,10.525027 63.531243,9.782786 63.53125,9 63.531243,8.2172498 63.194315,7.5062555 62.625,6.9375 62.056331,6.369462 61.346065,6.0312823 60.5625,6.03125 z m 8.625,0 c -0.783572,3.23e-5 -1.522117,0.3352377 -2.09375,0.90625 -0.5723,0.5717227 -0.875,1.2860537 -0.875,2.0625 0,0.7926742 0.29429,1.537839 0.875,2.09375 0.574306,0.549822 1.317724,0.843772 2.09375,0.84375 0.792269,2.2e-5 1.506632,-0.288449 2.0625,-0.84375 C 71.819333,10.525023 72.156243,9.7827824 72.15625,9 72.156243,8.2172498 71.819319,7.5062555 71.25,6.9375 70.681334,6.369462 69.971068,6.0312823 69.1875,6.03125 z M 98.65625,13.25 c -2.524181,1.4e-5 -4.623281,0.702185 -6.1875,2.15625 -1.552534,1.441705 -2.34375,3.491333 -2.34375,6 0,2.448912 0.757437,4.490019 2.28125,5.96875 l 0.03125,0 c 1.540532,1.452231 3.572336,2.1875 6,2.1875 2.5245,0 4.57565,-0.733464 6.0625,-2.21875 1.48505,-1.483521 2.24998,-3.547967 2.25,-6.03125 -2e-5,-2.363994 -0.75737,-4.336686 -2.25,-5.8125 -0.002,-0.0022 -0.0292,0.0022 -0.0312,0 -1.47713,-1.493757 -3.44336,-2.249986 -5.8125,-2.25 z M 118,13.28125 c -0.96951,1.4e-5 -1.92952,0.28113 -2.84375,0.78125 -0.48939,0.267726 -0.93107,0.591572 -1.34375,0.9375 l 0,-0.84375 0,-0.625 -0.59375,0.0625 c -0.20506,0.02049 -0.50324,0.07207 -0.875,0.125 -0.50469,1.4e-5 -1.02657,1.4e-5 -1.53125,0 -0.44413,1.4e-5 -0.75586,1.4e-5 -0.9375,0 -0.19564,-0.02343 -0.55447,-0.0675 -1.1875,-0.125 l -0.59375,-0.03125 0,0.59375 c 0,0.534857 0.0442,1.649735 0.125,3.40625 0.0806,1.731145 0.0937,2.972603 0.0937,3.71875 -1e-5,0.365047 -0.0131,1.487798 -0.0937,3.28125 -0.0809,1.778594 -0.125,3.129601 -0.125,4.09375 l 0,0.5625 0.53125,0 c 0.1575,0 0.48326,-0.02185 1.09375,-0.0625 l 0.0312,0 c 0.59474,-0.05938 1.07208,-0.09375 1.40625,-0.09375 0.0336,0 0.41934,0.03374 1,0.09375 l 0.0312,0 c 0.61511,0.04097 1.07767,0.0625 1.4375,0.0625 l 0.5625,0 0,-0.5625 c -1e-5,-0.515931 -0.0442,-1.574198 -0.125,-3.25 -0.0605,-1.669731 -0.0938,-2.980412 -0.0937,-3.9375 -1e-5,-0.734127 -0.007,-1.353299 0.0312,-1.875 0.0557,-0.491545 0.18682,-0.946717 0.34375,-1.3125 0.15026,-0.366909 0.3444,-0.605419 0.59375,-0.78125 0.27252,-0.196611 0.57502,-0.281243 0.9375,-0.28125 0.54144,7e-6 0.80424,0.152766 1.0625,0.5625 l 0.0312,0 c 0.30239,0.45314 0.43749,0.960786 0.4375,1.59375 l 0,0.03125 0,0.03125 c 0.0576,0.460305 0.0937,0.954333 0.0937,1.4375 l 0,0.53125 c -10e-6,0.579465 -0.0444,1.746155 -0.125,3.4375 -0.0607,1.697408 -0.0938,2.952998 -0.0937,3.8125 l 0,0.5625 0.5625,0 c 0.15484,0 0.45548,-0.02196 1.125,-0.0625 0.67954,-0.03993 1.14381,-0.0625 1.40625,-0.0625 0.26241,0 0.64182,0.02296 1.15625,0.0625 0.53463,0.04109 0.96579,0.0625 1.25,0.0625 l 0.53125,0 0,-0.5625 c -10e-6,-0.860442 -0.0127,-2.089902 -0.0937,-3.75 -0.0604,-1.66811 -0.12475,-2.823681 -0.125,-3.40625 l 0.0312,-3.15625 c -2e-5,-1.448974 -0.49423,-2.727994 -1.46875,-3.65625 -0.96736,-0.921514 -2.2099,-1.406236 -3.6561,-1.40625 z m -60.59375,0.25 0.0625,0.65625 0.25,2.65625 -0.03125,0 0,9.03125 c 0,0.451558 0.0075,0.898944 -0.03125,1.34375 -0.03935,0.432413 -0.09586,0.892364 -0.15625,1.375 L 57.40625,29.25 58.0625,29.21875 60.5,29.125 l 0.03125,0 2.53125,0.09375 0.625,0 L 63.625,28.625 c -0.119849,-1.217104 -0.178774,-2.281407 -0.21875,-3.15625 -0.01995,-0.880713 -0.03132,-2.124335 -0.03125,-3.75 l 0.03125,-4.9375 0.25,-2.59375 0.0625,-0.65625 -0.65625,0.0625 c -0.445868,0.04051 -0.870134,0.08484 -1.3125,0.125 -0.436152,0.03961 -0.829467,0.06251 -1.1875,0.0625 -0.336456,1.4e-5 -0.761617,-0.02276 -1.21875,-0.0625 -0.441394,-0.04007 -0.856049,-0.08453 -1.28125,-0.125 l -0.65625,-0.0625 z m 8.625,0 0.0625,0.65625 0.25,2.65625 -0.03125,0 0,9.03125 c -4e-6,0.451562 0.0075,0.898948 -0.03125,1.34375 -0.03936,0.432413 -0.09586,0.892364 -0.15625,1.375 L 66.03125,29.25 66.6875,29.21875 69.125,29.125 l 0.0625,0 2.53125,0.09375 0.625,0 -0.0625,-0.59375 c -0.120168,-1.220358 -0.210146,-2.28592 -0.25,-3.15625 C 72.0113,24.588037 71.99993,23.344415 72,21.71875 l 0.03125,-4.9375 0.25,-2.59375 0.0625,-0.65625 -0.625,0.0625 c -0.445871,0.04051 -0.901384,0.08484 -1.34375,0.125 -0.436152,0.03961 -0.829463,0.06251 -1.1875,0.0625 -0.336452,1.4e-5 -0.730363,-0.02276 -1.1875,-0.0625 -0.44139,-0.04007 -0.887291,-0.08453 -1.3125,-0.125 l -0.65625,-0.0625 z M 98.4375,15.8125 c 0.627948,7e-6 1.014076,0.173529 1.3125,0.53125 0.33163,0.397564 0.57017,0.932739 0.71875,1.65625 0.04,0.319621 0.0982,0.752524 0.15625,1.3125 0.0578,0.558024 0.0625,1.23769 0.0625,2.03125 -1e-5,0.814051 -0.004,1.523268 -0.0625,2.125 -0.0581,0.580029 -0.11649,1.024932 -0.15625,1.34375 -0.14693,0.697154 -0.3837,1.233546 -0.71875,1.65625 -0.0029,0.0038 0.003,0.02748 0,0.03125 -0.300222,0.35353 -0.683953,0.5 -1.28125,0.5 -0.627966,0 -1.035025,-0.160746 -1.375,-0.53125 -0.333618,-0.405124 -0.553738,-0.930881 -0.625,-1.625 l 0,-0.03125 0,-0.03125 c -0.195209,-1.05301 -0.281254,-2.174586 -0.28125,-3.375 -4e-6,-1.058173 0.01623,-1.951873 0.09375,-2.6875 0.07372,-0.69972 0.275173,-1.398633 0.59375,-2.09375 0.27605,-0.56069 0.692357,-0.812489 1.5625,-0.8125 z m -29.21875,17.96875 -0.15625,0.375 c -0.564845,1.531559 -1.089831,2.983537 -1.59375,4.3125 -0.48204,1.324238 -1.097937,2.950957 -1.84375,4.84375 -0.725366,1.871918 -1.332225,3.349279 -1.8125,4.46875 l -3.03125,7.03125 -0.34375,0.84375 0.90625,-0.09375 1.0625,-0.0625 1.9375,0.0625 0.40625,0.03125 0.15625,-0.375 c 0.681856,-1.835308 1.284481,-3.597884 1.84375,-5.3125 l 1.71875,-0.09375 c 0.01098,3.12e-4 0.02031,-3.16e-4 0.03125,0 0.692802,0.01998 1.406153,0.04256 2.125,0.0625 0.601405,0.01672 1.169121,0.03017 1.75,0.03125 l 1.0625,3.28125 0.625,2 0.125,0.40625 0.40625,-0.03125 2.9375,-0.0625 0.03125,0 2.875,0.0625 0.84375,0.03125 -0.3125,-0.78125 C 79.659847,51.694552 78.363413,48.43368 77.09375,45.03125 75.822828,41.625555 74.497025,38.017144 73.125,34.1875 L 73,33.78125 72.59375,33.8125 71.125,33.90625 l -0.0625,0 -1.4375,-0.09375 -0.40625,-0.03125 z m 37.59375,0.03125 c -3.58844,2.2e-5 -6.54261,0.977805 -8.8125,2.90625 -2.286772,1.92147 -3.4375,4.671967 -3.4375,8.15625 0,3.533487 1.048404,6.327963 3.15625,8.21875 2.11449,1.877598 4.96549,2.8125 8.53125,2.8125 3.6686,0 6.67994,-0.988884 8.875,-2.96875 2.22343,-2.007561 3.31248,-4.882237 3.3125,-8.5 -2e-5,-3.362608 -1.09391,-6.032649 -3.28125,-7.875 -2.14913,-1.82801 -4.95752,-2.749978 -8.34375,-2.75 z m -56.9375,0.34375 -0.4375,0.03125 -2.75,0.09375 c 0.02146,-3.59e-4 -0.143049,0.0083 -0.34375,0 -0.215019,-0.0089 -0.524824,-0.01112 -0.9375,-0.03125 -0.833123,-0.04057 -1.390189,-0.06248 -1.75,-0.0625 l -0.8125,0 0.28125,0.75 6,15.25 c 0.0021,0.0056 -0.0021,0.02565 0,0.03125 0.441564,1.20295 0.802572,2.15597 1.0625,2.875 0.258692,0.71565 0.488718,1.418621 0.6875,2.09375 l 0.125,0.375 0.40625,0 c 0.154865,0 0.339746,-0.02153 0.75,-0.0625 0.418223,-0.05965 0.755844,-0.09375 0.9375,-0.09375 0.153411,0 0.342696,0.02391 0.59375,0.0625 l 0.03125,0 0.03125,0 c 0.255691,0.01966 0.548622,0.05406 0.90625,0.09375 L 55.125,55.625 55.25,55.15625 c 0.458339,-1.77177 1.001701,-3.42327 1.65625,-4.96875 l 0,-0.03125 4.0625,-10.3125 c 0.701288,-1.620829 1.47882,-3.251785 2.28125,-4.875 l 0.375,-0.78125 -0.875,0 c -0.230122,2.2e-5 -0.575684,0.02113 -1.03125,0.0625 -0.432539,0.03928 -0.741255,0.03127 -0.9375,0.03125 l 0,0.03125 -1.5625,-0.125 -0.5,-0.03125 -0.09375,0.5 c -0.0965,0.559061 -0.230717,1.091208 -0.40625,1.65625 l 0,0.03125 c -0.158361,0.553654 -0.345649,1.127936 -0.5625,1.71875 L 54.4375,47 51.09375,38.09375 c -0.394844,-1.025494 -0.78619,-2.185952 -1.125,-3.5 L 49.875,34.15625 z m 31.5625,0 0.0625,0.625 c 0.160959,1.909383 0.24131,3.484639 0.28125,4.78125 l 0,0.03125 c 0.05985,1.275479 0.09375,3.027271 0.09375,5.28125 0,2.152945 -0.03358,4.019811 -0.09375,5.5625 -0.04,1.538509 -0.121389,3.054087 -0.28125,4.53125 l -0.09375,0.59375 0.625,0 c 0.213123,0 0.777904,0.0092 1.75,-0.03125 l 0,-0.03125 c 0.965624,-0.06026 1.741387,-0.09375 2.34375,-0.09375 0.345303,0 1.485724,0.06448 3.34375,0.125 l 0.03125,0 c 1.880626,0.0404 3.384522,0.03125 4.5,0.03125 l 0.5625,0 L 94.53125,55 94.4375,53.65625 l 0,-0.03125 0,-0.03125 0.09375,-1.34375 0.03125,-0.65625 -0.625,0.09375 C 91.968551,51.908086 89.987756,51.983001 88,52 87.96936,51.569334 87.9375,51.143694 87.9375,50.65625 l 0,-2.0625 0,-7.03125 c -7e-6,-2.384567 0.08109,-4.641925 0.28125,-6.78125 l 0.0625,-0.625 -0.59375,0.03125 -2.90625,0.09375 -0.03125,0 -2.71875,-0.09375 -0.59375,-0.03125 z m 25.125,2.6875 c 1.88698,1.8e-5 3.17468,0.710752 4.0625,2.28125 0.91994,1.627416 1.37498,3.507535 1.375,5.625 -2e-5,2.201004 -0.48381,4.123078 -1.40625,5.8125 -0.88827,1.608289 -2.17773,2.343754 -4.125,2.34375 -1.9005,4e-6 -3.17392,-0.731461 -4.0625,-2.3125 -0.91647,-1.664877 -1.37501,-3.584089 -1.375,-5.71875 -1e-5,-2.223604 0.45793,-4.127704 1.375,-5.75 0.88531,-1.56611 2.1827,-2.281232 4.15625,-2.28125 z M 136.6875,37.5 c -1.45025,-3e-5 -2.7017,0.76465 -3.625,2.15625 -0.80913,1.24132 -1.2046,2.54424 -1.28125,3.875 -0.16981,-0.006 -0.34641,-0.02225 -0.5,-0.03125 -0.22471,-0.014 -0.44578,-0.05165 -0.65625,-0.09375 l -0.53125,-0.09375 0.0312,0.53125 0.0312,0.65625 0,0.0625 -0.0312,0.59375 -0.0312,0.46875 0.46875,-0.03125 0.75,-0.03125 0.0625,0 0.34375,0.03125 0,4.65625 c 0,0.76218 -0.001,1.57692 -0.0312,2.40625 -0.0303,0.83113 -0.083,1.52115 -0.15625,2.0625 l -0.0625,0.46875 0.46875,0 c 0.18907,0 0.42505,-0.0325 0.875,-0.0625 0.44752,-0.0447 0.78952,-0.0625 1.03125,-0.0625 0.0415,0 0.34595,0.0175 0.78125,0.0625 0.45257,0.0301 0.8004,0.0625 1.09375,0.0625 l 0.4375,0 -0.0312,-0.4375 c -0.13732,-1.46309 -0.2198,-2.38797 -0.25,-2.75 -0.014,-0.33553 -1e-5,-0.93662 0,-1.75 l 0,-4.65625 0.40625,-0.03125 0.0312,0 1.125,0.125 0.5,0.0625 -0.0625,-0.5 c -0.0117,-0.1168 -0.0171,-0.28327 -0.0312,-0.46875 l 0,-0.03125 0,-0.5625 0,-0.03125 -0.0312,-0.34375 -0.0312,-0.46875 -0.46875,0.09375 c -0.0782,0.0178 -0.30889,0.0494 -0.53125,0.0625 -0.21004,0.0124 -0.40484,0.02265 -0.53125,0.03125 -0.007,5.1e-4 -0.0243,-5.3e-4 -0.0312,0 -0.18984,2e-5 -0.39076,2e-5 -0.59375,0 -0.002,-0.004 -0.0289,0.004 -0.0312,0 C 135.42752,43.2545 135.23704,42.94916 135,42.5625 c -0.006,-0.0107 0.006,-0.02065 0,-0.03125 -0.23526,-0.42739 -0.34375,-0.82212 -0.34375,-1.15625 0,-0.24822 0.0484,-0.35354 0.15625,-0.4375 0.10788,-0.084 0.34417,-0.15625 0.71875,-0.15625 0.25074,1e-5 0.46803,0.0505 0.65625,0.15625 l 0,0.03125 c 0.20407,0.10195 0.43018,0.25499 0.71875,0.5 l 0.125,0.09375 0.15625,0 0.125,0 0.34375,0 0.0625,-0.3125 c 0.12235,-0.59588 0.23979,-1.17971 0.375,-1.75 0.15165,-0.59083 0.27167,-0.98835 0.34375,-1.21875 l 0.125,-0.40625 -0.40625,-0.125 c -0.0295,-0.008 -0.24442,-0.10233 -0.5,-0.1875 l -0.0312,0 c -0.26526,-0.0567 -0.57337,-0.0624 -0.9375,-0.0625 z m 3.96875,0.15625 c -0.59893,1e-5 -1.13526,0.26073 -1.5625,0.6875 -0.43603,0.43559 -0.65625,0.98177 -0.65625,1.5625 0,0.59319 0.2138,1.17017 0.65625,1.59375 0.43066,0.4123 0.97255,0.62502 1.5625,0.625 0.60214,2e-5 1.14345,-0.23763 1.5625,-0.65625 0.42775,-0.4273 0.6875,-0.96417 0.6875,-1.5625 0,-0.59831 -0.25976,-1.13519 -0.6875,-1.5625 -0.42724,-0.42677 -0.96358,-0.68749 -1.5625,-0.6875 z M 69.6875,42.0625 c 0.285433,0.696767 0.604418,1.481044 0.8125,2.03125 0.260658,0.689293 0.519982,1.512847 0.78125,2.34375 l -1.625,0.03125 -0.03125,0 -1.59375,-0.03125 c 0.533135,-1.471297 1.07545,-2.941354 1.65625,-4.375 z m 68.59375,1.25 0.0625,0.5 0.1875,2 0,0.03125 0,6.8125 c 0,0.32571 -0.0319,0.68011 -0.0625,1.03125 -0.0317,0.34795 -0.0505,0.68563 -0.0937,1.03125 l -0.0625,0.5 0.5,-0.03125 1.8125,-0.09375 0.0625,0 1.875,0.09375 0.5,0.03125 L 143,54.75 c -0.09,-0.91417 -0.15701,-1.72072 -0.1875,-2.375 -4e-4,-0.009 3.9e-4,-0.02275 0,-0.03125 -0.0151,-0.66755 -0.0312,-1.62552 -0.0312,-2.84375 l 0.0312,-3.6875 0,-0.03125 0.21875,-1.96875 0.0625,-0.5 -0.5,0.0625 -1.03125,0.09375 c -0.33867,0.0309 -0.64647,0.0625 -0.90625,0.0625 -0.2428,0 -0.55135,-0.0317 -0.90625,-0.0625 -0.33229,-0.0302 -0.64563,-0.06305 -0.96875,-0.09375 l -0.5,-0.0625 z m -10.96875,7.40625 c -0.6557,1e-5 -1.23912,0.27084 -1.6875,0.71875 -0.44483,0.44436 -0.6875,0.99824 -0.6875,1.625 0,0.65221 0.22403,1.27428 0.6875,1.71875 0.4517,0.43319 1.03979,0.65625 1.6875,0.65625 0.63182,0 1.21479,-0.27373 1.65625,-0.75 0.44759,-0.48152 0.6875,-1.03795 0.6875,-1.625 0,-0.61463 -0.23385,-1.20773 -0.71875,-1.65625 -0.46788,-0.43276 -1.0285,-0.68749 -1.625,-0.6875 z"
           style="font-size:84.35607147px;font-style:normal;font-variant:normal;font-weight:bold;font-stretch:normal;text-align:center;line-height:125%;letter-spacing:0px;word-spacing:0px;text-anchor:middle;fill:#000000;fill-opacity:1;stroke:none;filter:url(#filter45491);font-family:MgOpen Cosmetica;-inkscape-font-specification:MgOpen Cosmetica Bold"
           inkscape:connector-curvature="0" />
        <path
           id="path37388"
           transform="matrix(2.7871729,0,0,2.7871729,-54.739443,143.97852)"
           d="m 73.28125,4.3125 0,0.625 c 0,0.3211498 0.04424,1.7107633 0.125,4.3125 0.100747,2.576629 0.156246,4.579525 0.15625,6 -4e-6,0.295414 -0.05536,1.996552 -0.15625,5 l 0,0.03125 c -0.08082,2.987109 -0.125,5.274485 -0.125,6.9375 l 0,0.5625 0.59375,0 2.375,-0.09375 0.03125,0 2.34375,0.09375 0.5625,0 0,-0.5625 c -1.1e-5,-0.18137 0.0091,-1.176786 -0.03125,-3.09375 -0.01977,-0.938205 -0.02228,-1.329525 -0.03125,-2 0.308162,0.529102 0.53975,0.974176 0.90625,1.59375 0.804471,1.326014 1.525898,2.579602 2.1875,3.78125 l 0.15625,0.28125 0.34375,0 c 0.1575,0 0.494827,-0.02189 1.125,-0.0625 0.613981,-0.0593 1.122517,-0.09375 1.5,-0.09375 0.03358,0 0.451669,0.03364 1.09375,0.09375 l 0.03125,0 c 0.67472,0.04086 1.195282,0.0625 1.59375,0.0625 l 0.96875,0 -0.5,-0.84375 -2.09375,-3.34375 C 85.170593,21.553722 84.101312,19.72662 83.15625,18.0625 l 3.03125,-3 1.84375,-1.75 0.3125,-0.28125 -0.1875,-0.375 -0.125,-0.21875 -0.1875,-0.28125 -0.3125,0 -1.375,0.0625 c -0.0047,0 -0.02644,1.1e-5 -0.03125,0 C 85.901896,12.218391 85.566875,12.2072 85.09375,12.1875 84.608068,12.1673 84.262377,12.15625 84,12.15625 l -0.28125,0 -0.1875,0.25 c -0.920983,1.300031 -1.782616,2.41488 -2.59375,3.34375 -0.543325,0.62219 -1.200202,1.180857 -1.84375,1.75 l 0,-3.375 c -7e-6,-0.894932 0.01317,-2.429288 0.09375,-4.5625 0.08084,-2.1402368 0.124993,-3.6806452 0.125,-4.625 l 0,-0.59375 -0.59375,0.0625 C 77.953559,4.484674 77.067271,4.500021 76.09375,4.5 75.264139,4.5000215 74.546705,4.48382 73.90625,4.40625 L 73.28125,4.3125 z M 59.125,4.59375 c -0.783575,3.23e-5 -1.522121,0.3352341 -2.09375,0.90625 -0.264831,0.264562 -0.475375,0.5523146 -0.625,0.875 l -0.78125,0 c -0.250284,2.51e-5 -0.554319,0.053297 -1,0.09375 C 54.192467,6.508033 53.852517,6.500014 53.65625,6.5 l 0,0.03125 -1.53125,-0.125 -0.5,-0.0625 -0.09375,0.5 c -0.0967,0.5602128 -0.231303,1.1243415 -0.40625,1.6875 l 0,0.03125 C 50.967164,9.1143172 50.780102,9.6571376 50.5625,10.25 l 0,0.03125 -3.25,8.9375 -3.34375,-8.90625 C 43.573905,9.2870595 43.213809,8.1265448 42.875,6.8125 L 42.75,6.375 l -0.4375,0 -2.71875,0.125 c 0.0034,0 -0.03277,3.23e-5 -0.03125,0 0.02131,-3.588e-4 -0.1118,0.00831 -0.3125,0 C 39.034981,6.4911 38.725174,6.488878 38.3125,6.46875 37.48404,6.4284152 36.902916,6.3750215 36.53125,6.375 l -0.8125,0 0.3125,0.75 L 42,22.40625 c 0.002,0.0056 0.02919,-0.0056 0.03125,0 0.440448,1.200191 0.769644,2.182574 1.03125,2.90625 0.260987,0.722 0.490716,1.394156 0.6875,2.0625 l 0.125,0.40625 0.40625,0 c 0.154843,0 0.339741,-0.02153 0.75,-0.0625 l 0.03125,0 c 0.408912,-0.05831 0.707797,-0.09375 0.90625,-0.09375 0.173584,0 0.388932,0.02623 0.625,0.0625 l 0.03125,0 c 0.255707,0.01966 0.579882,0.05405 0.9375,0.09375 l 0.46875,0.03125 0.125,-0.4375 c 0.458203,-1.771243 1.001339,-3.422412 1.65625,-4.96875 l 0,-0.03125 4.0625,-10.3125 0,-0.03125 c 0.702072,-1.622773 1.448457,-3.2223328 2.25,-4.84375 L 56.28125,6.84375 C 56.214161,7.0863004 56.125,7.3040804 56.125,7.5625 c 0,0.7987879 0.328568,1.5407416 0.90625,2.09375 0.574299,0.549826 1.31772,0.843772 2.09375,0.84375 0.792265,2.2e-5 1.506628,-0.288453 2.0625,-0.84375 C 61.756826,9.0875268 62.093743,8.345286 62.09375,7.5625 62.093743,6.7797498 61.756815,6.0687555 61.1875,5.5 60.618831,4.931962 59.908565,4.5937823 59.125,4.59375 z m 8.625,0 c -0.783572,3.23e-5 -1.522117,0.3352377 -2.09375,0.90625 -0.5723,0.5717227 -0.875,1.2860537 -0.875,2.0625 0,0.7926742 0.29429,1.537839 0.875,2.09375 0.574306,0.549822 1.317724,0.843772 2.09375,0.84375 0.792269,2.2e-5 1.506632,-0.288449 2.0625,-0.84375 C 70.381833,9.0875232 70.718743,8.3452824 70.71875,7.5625 70.718743,6.7797498 70.381819,6.0687555 69.8125,5.5 69.243834,4.931962 68.533568,4.5937823 67.75,4.59375 z m 29.46875,7.21875 c -2.524181,1.4e-5 -4.623281,0.702185 -6.1875,2.15625 -1.552534,1.441705 -2.34375,3.491333 -2.34375,6 0,2.448912 0.757437,4.490019 2.28125,5.96875 l 0.03125,0 c 1.540532,1.452231 3.572336,2.1875 6,2.1875 2.524501,0 4.6069,-0.733464 6.09375,-2.21875 1.48505,-1.483521 2.21873,-3.547967 2.21875,-6.03125 -2e-5,-2.363994 -0.75737,-4.336686 -2.25,-5.8125 -0.002,-0.0022 -0.0292,0.0022 -0.0312,0 -1.47713,-1.493757 -3.443357,-2.249986 -5.8125,-2.25 z m 19.34375,0.03125 c -0.96951,1.4e-5 -1.92952,0.28113 -2.84375,0.78125 -0.48939,0.267726 -0.93107,0.591572 -1.34375,0.9375 l 0,-0.84375 0,-0.625 -0.59375,0.09375 c -0.20506,0.02049 -0.50324,0.04082 -0.875,0.09375 -0.50469,1.4e-5 -1.02657,1.4e-5 -1.53125,0 -0.44413,1.4e-5 -0.75586,1.4e-5 -0.9375,0 -0.19564,-0.02343 -0.55447,-0.03625 -1.1875,-0.09375 l -0.59375,-0.0625 0,0.59375 c 0,0.534857 0.0442,1.649735 0.125,3.40625 0.0806,1.731145 0.125,2.972603 0.125,3.71875 -1e-5,0.365047 -0.0443,1.487798 -0.125,3.28125 -0.0809,1.778594 -0.125,3.129601 -0.125,4.09375 l 0,0.5625 0.53125,0 c 0.1575,0 0.48326,-0.02185 1.09375,-0.0625 l 0.0312,0 c 0.59478,-0.05938 1.07208,-0.09375 1.40625,-0.09375 0.0336,0 0.41934,0.03374 1,0.09375 l 0.0312,0 c 0.61511,0.04097 1.07767,0.0625 1.4375,0.0625 l 0.5625,0 0,-0.5625 c -1e-5,-0.515931 -0.0442,-1.574198 -0.125,-3.25 -0.0605,-1.669731 -0.0938,-2.980412 -0.0937,-3.9375 -1e-5,-0.734127 -0.007,-1.353299 0.0312,-1.875 0.0557,-0.491545 0.18682,-0.915467 0.34375,-1.28125 l 0,-0.03125 c 0.15026,-0.366909 0.3444,-0.605419 0.59375,-0.78125 0.27252,-0.196611 0.57502,-0.281243 0.9375,-0.28125 0.54144,7e-6 0.80424,0.152766 1.0625,0.5625 l 0.0312,0 c 0.30239,0.45314 0.43749,0.960786 0.4375,1.59375 l 0,0.03125 L 116,18 c 0.0576,0.460305 0.0625,0.954333 0.0625,1.4375 l 0,0.53125 c -1e-5,0.579465 -0.0444,1.746155 -0.125,3.4375 -0.0607,1.697408 -0.0938,2.952998 -0.0937,3.8125 l 0,0.5625 0.5625,0 c 0.15484,0 0.45548,-0.02196 1.125,-0.0625 0.67954,-0.03993 1.14381,-0.0625 1.40625,-0.0625 0.26241,0 0.67307,0.02296 1.1875,0.0625 0.53463,0.04109 0.93454,0.0625 1.21875,0.0625 l 0.53125,0 0,-0.5625 c -1e-5,-0.860442 -0.0127,-2.089902 -0.0937,-3.75 -0.0604,-1.66811 -0.12475,-2.823681 -0.125,-3.40625 l 0.0625,-3.15625 c -2e-5,-1.448974 -0.49423,-2.727994 -1.46875,-3.65625 -0.96751,-0.921514 -2.2413,-1.406236 -3.6875,-1.40625 z m -60.59375,0.25 0.0625,0.65625 0.25,2.65625 -0.03125,0 0,9.03125 c 0,0.451558 0.0075,0.898944 -0.03125,1.34375 -0.03935,0.432413 -0.09586,0.892364 -0.15625,1.375 l -0.09375,0.65625 0.65625,-0.03125 2.4375,-0.09375 0.03125,0 2.53125,0.09375 0.625,0 -0.0625,-0.59375 c -0.119849,-1.217104 -0.178774,-2.281407 -0.21875,-3.15625 -0.01995,-0.880713 -0.03132,-2.124335 -0.03125,-3.75 l 0.03125,-4.9375 0.25,-2.5625 0.0625,-0.6875 -0.65625,0.09375 c -0.445868,0.04051 -0.870134,0.05359 -1.3125,0.09375 -0.436152,0.03961 -0.829467,0.06251 -1.1875,0.0625 -0.336456,1.4e-5 -0.761617,-0.02276 -1.21875,-0.0625 C 57.464856,12.24118 57.050201,12.22797 56.625,12.1875 l -0.65625,-0.09375 z m 8.65625,0 0.03125,0.65625 0.25,2.65625 0,9.03125 c -4e-6,0.451562 -0.02379,0.898948 -0.0625,1.34375 -0.03936,0.432413 -0.09586,0.892364 -0.15625,1.375 l -0.0625,0.65625 0.625,-0.03125 2.4375,-0.09375 0.0625,0 2.53125,0.09375 0.625,0 -0.0625,-0.59375 c -0.120186,-1.220358 -0.210146,-2.28592 -0.25,-3.15625 -0.01995,-0.880713 -0.03132,-2.124335 -0.03125,-3.75 l 0.03125,-4.9375 0.25,-2.5625 0.09375,-0.6875 -0.65625,0.09375 c -0.445871,0.04051 -0.901384,0.05359 -1.34375,0.09375 -0.436152,0.03961 -0.829463,0.06251 -1.1875,0.0625 -0.336452,1.4e-5 -0.730363,-0.02276 -1.1875,-0.0625 C 66.12111,12.24118 65.675209,12.22797 65.25,12.1875 L 64.625,12.09375 z M 97,14.375 c 0.627948,7e-6 1.014076,0.173529 1.3125,0.53125 0.33163,0.397564 0.570169,0.963989 0.71875,1.6875 0.03996,0.319621 0.09825,0.721274 0.15625,1.28125 0.05779,0.558024 0.09374,1.23769 0.09375,2.03125 -1.1e-5,0.814051 -0.03547,1.523268 -0.09375,2.125 -0.05807,0.580029 -0.116489,1.024932 -0.15625,1.34375 -0.14693,0.697154 -0.383704,1.233546 -0.71875,1.65625 -0.0029,0.0038 0.003,0.02748 0,0.03125 -0.300222,0.35353 -0.683953,0.5 -1.28125,0.5 -0.627966,0 -1.035025,-0.160746 -1.375,-0.53125 -0.333618,-0.405124 -0.553738,-0.930881 -0.625,-1.625 l 0,-0.03125 0,-0.03125 c -0.195209,-1.05301 -0.281254,-2.174586 -0.28125,-3.375 -4e-6,-1.058173 0.01623,-1.951873 0.09375,-2.6875 0.07372,-0.69972 0.275173,-1.398633 0.59375,-2.09375 C 95.71355,14.62681 96.129857,14.375011 97,14.375 z M 67.78125,32.34375 67.625,32.75 c -0.564845,1.531559 -1.089831,2.952287 -1.59375,4.28125 -0.48204,1.324238 -1.097937,2.950957 -1.84375,4.84375 -0.725366,1.871918 -1.332225,3.349279 -1.8125,4.46875 L 59.34375,53.375 59,54.21875 59.90625,54.125 l 1.0625,-0.0625 1.9375,0.0625 0.40625,0.03125 0.15625,-0.375 c 0.681856,-1.835308 1.284481,-3.597884 1.84375,-5.3125 L 67.03125,48.375 c 0.01098,3.12e-4 0.02027,-3.16e-4 0.03125,0 0.692802,0.01998 1.406153,0.07381 2.125,0.09375 0.601405,0.01672 1.169121,-0.0011 1.75,0 L 72,51.75 l 0.625,2 0.125,0.40625 0.40625,-0.03125 2.9375,-0.0625 0.03125,0 L 79,54.125 79.84375,54.15625 79.53125,53.375 C 78.222347,50.257052 76.925913,46.99618 75.65625,43.59375 74.385328,40.188055 73.059525,36.579644 71.6875,32.75 l -0.125,-0.40625 -0.40625,0.03125 -1.46875,0.09375 -0.0625,0 L 68.1875,32.375 67.78125,32.34375 z M 105.375,32.375 c -3.58844,2.2e-5 -6.542609,0.977805 -8.8125,2.90625 -2.286772,1.92147 -3.4375,4.703217 -3.4375,8.1875 0,3.533487 1.048404,6.296713 3.15625,8.1875 2.11449,1.877598 4.99674,2.8125 8.5625,2.8125 3.6686,0 6.64869,-0.957634 8.84375,-2.9375 2.22343,-2.007561 3.34373,-4.913487 3.34375,-8.53125 -2e-5,-3.362608 -1.12516,-6.032649 -3.3125,-7.875 -2.14913,-1.82801 -4.95752,-2.749978 -8.34375,-2.75 z m -48.09375,0.34375 -0.09375,0.5 c -0.0965,0.559061 -0.230717,1.091208 -0.40625,1.65625 l 0,0.03125 c -0.158361,0.553654 -0.345649,1.127936 -0.5625,1.71875 L 53,45.5625 49.65625,36.65625 c -0.394844,-1.025494 -0.78619,-2.185952 -1.125,-3.5 L 48.4375,32.75 48,32.75 45.25,32.84375 c 0.02146,-3.59e-4 -0.111799,0.0083 -0.3125,0 -0.215019,-0.0089 -0.556074,-0.01112 -0.96875,-0.03125 -0.833123,-0.04057 -1.390189,-0.06248 -1.75,-0.0625 l -0.8125,0 0.3125,0.75 5.96875,15.25 c 0.0021,0.0056 -0.0021,0.02565 0,0.03125 0.441564,1.20295 0.802572,2.15597 1.0625,2.875 0.258692,0.71565 0.488718,1.418621 0.6875,2.09375 l 0.125,0.375 0.40625,0 c 0.154865,0 0.339746,-0.02153 0.75,-0.0625 0.418223,-0.05965 0.755844,-0.09375 0.9375,-0.09375 0.153411,0 0.373946,0.02391 0.625,0.0625 l 0.03125,0 c 0.255691,0.01966 0.548622,0.05406 0.90625,0.09375 l 0.46875,0.0625 0.125,-0.46875 C 54.270841,51.94698 54.845452,50.29548 55.5,48.75 l 4.03125,-10.34375 c 0.701288,-1.620829 1.47882,-3.251785 2.28125,-4.875 l 0.375,-0.78125 -0.875,0 c -0.230122,2.2e-5 -0.575684,0.02113 -1.03125,0.0625 -0.432539,0.03928 -0.741255,0.03127 -0.9375,0.03125 l 0,0.03125 -1.5625,-0.125 -0.5,-0.03125 z M 80,32.75 l 0.0625,0.59375 c 0.160959,1.909383 0.24131,3.484639 0.28125,4.78125 l 0,0.03125 c 0.05985,1.275479 0.09375,3.058521 0.09375,5.3125 0,2.152945 -0.03358,3.988561 -0.09375,5.53125 l 0,0.03125 c -0.04,1.538509 -0.121389,3.022837 -0.28125,4.5 l -0.09375,0.59375 0.625,0 c 0.213123,0 0.777904,0.0092 1.75,-0.03125 l 0,-0.03125 c 0.965624,-0.06026 1.772637,-0.09375 2.375,-0.09375 0.345303,0 1.454474,0.06448 3.3125,0.125 l 0.03125,0 c 1.880626,0.0404 3.384522,0.03125 4.5,0.03125 l 0.5625,0 L 93.09375,53.5625 93,52.21875 93,52.1875 93,52.15625 93.09375,50.8125 93.125,50.15625 92.5,50.25 c -1.968949,0.220586 -3.949744,0.295501 -5.9375,0.3125 C 86.53186,50.131834 86.5,49.706194 86.5,49.21875 l 0,-2.0625 0,-7.03125 c -7e-6,-2.384567 0.08109,-4.641925 0.28125,-6.78125 l 0.0625,-0.59375 -0.59375,0 -2.90625,0.09375 -0.03125,0 L 80.625,32.75 80,32.75 z m 25.125,2.65625 c 1.88698,1.8e-5 3.17468,0.710752 4.0625,2.28125 0.91994,1.627416 1.37498,3.507535 1.375,5.625 -2e-5,2.201004 -0.48381,4.123078 -1.40625,5.8125 -0.88827,1.608289 -2.17773,2.343754 -4.125,2.34375 -1.9005,4e-6 -3.17392,-0.731461 -4.0625,-2.3125 -0.91647,-1.664877 -1.375007,-3.552839 -1.375,-5.6875 -7e-6,-2.223604 0.45793,-4.158954 1.375,-5.78125 0.88531,-1.56611 2.1827,-2.281232 4.15625,-2.28125 z M 135.84375,36.75 c -1.45025,-3e-5 -2.7017,0.76465 -3.625,2.15625 -0.80913,1.24132 -1.2046,2.54424 -1.28125,3.875 -0.16981,-0.006 -0.34641,-0.02225 -0.5,-0.03125 -0.22471,-0.014 -0.44578,-0.05165 -0.65625,-0.09375 L 129.25,42.5625 l 0.0312,0.53125 0.0312,0.65625 0,0.0625 -0.0312,0.59375 -0.0312,0.46875 0.46875,-0.03125 0.75,-0.03125 0.0625,0 0.34375,0.03125 0,4.65625 c 0,0.76218 -0.001,1.57692 -0.0312,2.40625 -0.0303,0.83113 -0.083,1.52115 -0.15625,2.0625 l -0.0625,0.46875 0.46875,0 c 0.18907,0 0.42505,-0.0325 0.875,-0.0625 0.44752,-0.0447 0.78952,-0.0625 1.03125,-0.0625 0.0415,0 0.34595,0.0175 0.78125,0.0625 0.45257,0.0301 0.8004,0.0625 1.09375,0.0625 l 0.4375,0 L 135.28125,54 c -0.13732,-1.46309 -0.2198,-2.38797 -0.25,-2.75 -0.014,-0.33553 -1e-5,-0.93662 0,-1.75 l 0,-4.65625 0.40625,-0.03125 0.0312,0 1.125,0.125 0.5,0.0625 -0.0625,-0.5 C 137.01956,44.3832 137.0141,44.21673 137,44.03125 L 137,44 l 0,-0.5625 0,-0.03125 -0.0312,-0.34375 -0.0312,-0.46875 -0.46875,0.09375 c -0.0782,0.0178 -0.30889,0.0494 -0.53125,0.0625 -0.21004,0.0124 -0.40484,0.02255 -0.53125,0.03125 -0.007,5.1e-4 -0.0243,-5.3e-4 -0.0312,0 -0.18984,2e-5 -0.39076,2e-5 -0.59375,0 -0.002,-0.004 -0.0289,0.004 -0.0312,0 -0.16623,-0.27675 -0.35671,-0.58209 -0.59375,-0.96875 -0.006,-0.0107 0.006,-0.02065 0,-0.03125 -0.23526,-0.42739 -0.34375,-0.82212 -0.34375,-1.15625 0,-0.24822 0.0484,-0.35354 0.15625,-0.4375 0.10788,-0.084 0.34417,-0.15625 0.71875,-0.15625 0.25074,1e-5 0.46803,0.0505 0.65625,0.15625 l 0,0.03125 c 0.20407,0.10195 0.43018,0.25499 0.71875,0.5 l 0.125,0.09375 0.15625,0 0.125,0 0.34375,0 0.0625,-0.3125 c 0.12235,-0.59588 0.23979,-1.17971 0.375,-1.75 0.15165,-0.59083 0.27167,-0.98835 0.34375,-1.21875 L 137.71875,37.125 137.3125,37 c -0.0295,-0.008 -0.24442,-0.10233 -0.5,-0.1875 l -0.0312,0 c -0.26526,-0.0567 -0.57337,-0.0624 -0.9375,-0.0625 z m 3.96875,0.15625 c -0.59893,1e-5 -1.13526,0.26073 -1.5625,0.6875 -0.43603,0.43559 -0.65625,0.98177 -0.65625,1.5625 0,0.59319 0.2138,1.17017 0.65625,1.59375 0.43066,0.4123 0.97255,0.62502 1.5625,0.625 0.60214,2e-5 1.14345,-0.23763 1.5625,-0.65625 0.42775,-0.4273 0.6875,-0.96417 0.6875,-1.5625 0,-0.59831 -0.25976,-1.13519 -0.6875,-1.5625 -0.42724,-0.42677 -0.96358,-0.68749 -1.5625,-0.6875 z M 68.25,40.625 c 0.285433,0.696767 0.604418,1.481044 0.8125,2.03125 0.260658,0.689293 0.519982,1.512847 0.78125,2.34375 l -1.625,0.03125 -0.03125,0 L 66.59375,45 C 67.126885,43.528703 67.6692,42.058646 68.25,40.625 z m 69.1875,1.9375 0.0625,0.5 0.1875,2 0,0.03125 0,6.8125 c 0,0.32571 -0.0319,0.68011 -0.0625,1.03125 -0.0317,0.34795 -0.0505,0.68563 -0.0937,1.03125 l -0.0625,0.5 0.5,-0.03125 1.8125,-0.09375 0.0625,0 1.875,0.09375 0.5,0.03125 L 142.15625,54 c -0.09,-0.91417 -0.15701,-1.72072 -0.1875,-2.375 -4e-4,-0.009 3.9e-4,-0.02275 0,-0.03125 -0.0151,-0.66755 -0.0312,-1.62552 -0.0312,-2.84375 l 0.0312,-3.6875 0,-0.03125 0.21875,-1.96875 0.0625,-0.5 -0.5,0.0625 -1.03125,0.09375 c -0.33867,0.0309 -0.64647,0.0625 -0.90625,0.0625 -0.2428,0 -0.55135,-0.0317 -0.90625,-0.0625 -0.33229,-0.0302 -0.64563,-0.06305 -0.96875,-0.09375 l -0.5,-0.0625 z m -10.96875,7.40625 c -0.6557,1e-5 -1.23912,0.27084 -1.6875,0.71875 -0.44483,0.44436 -0.6875,0.99824 -0.6875,1.625 0,0.65221 0.22403,1.27428 0.6875,1.71875 0.4517,0.43319 1.03979,0.65625 1.6875,0.65625 0.63182,0 1.21479,-0.27373 1.65625,-0.75 0.44759,-0.48152 0.6875,-1.03795 0.6875,-1.625 0,-0.61463 -0.23385,-1.20773 -0.71875,-1.65625 -0.46788,-0.43276 -1.0285,-0.68749 -1.625,-0.6875 z"
           style="font-size:84.35607147px;font-style:normal;font-variant:normal;font-weight:bold;font-stretch:normal;text-align:center;line-height:125%;letter-spacing:0px;word-spacing:0px;text-anchor:middle;fill:url(#radialGradient45503);fill-opacity:1;stroke:#000000;stroke-width:0.71757299;stroke-opacity:1;font-family:MgOpen Cosmetica;-inkscape-font-specification:MgOpen Cosmetica Bold"
           inkscape:connector-curvature="0" />
      </g>
      <rect
         transform="matrix(0.57918184,0,0,0.57857907,-350.1859,-99.789865)"
         style="fill:none;stroke:#000000;stroke-width:5.18241787;stroke-opacity:1;display:inline"
         id="rect38308"
         width="764.90619"
         height="283.81125"
         x="512.69"
         y="423.89236"
         ry="21.2132" />
    </g>
  </g>
</svg>
