<?xml version="1.0" encoding="UTF-8" standalone="no"?>
<!-- Created with Inkscape (http://www.inkscape.org/) -->

<svg
   xmlns:dc="http://purl.org/dc/elements/1.1/"
   xmlns:cc="http://creativecommons.org/ns#"
   xmlns:rdf="http://www.w3.org/1999/02/22-rdf-syntax-ns#"
   xmlns:svg="http://www.w3.org/2000/svg"
   xmlns="http://www.w3.org/2000/svg"
   xmlns:xlink="http://www.w3.org/1999/xlink"
   xmlns:sodipodi="http://sodipodi.sourceforge.net/DTD/sodipodi-0.dtd"
   xmlns:inkscape="http://www.inkscape.org/namespaces/inkscape"
   width="728"
   height="90"
   id="svg9857"
   version="1.1"
   inkscape:version="0.48.2 r9819"
   sodipodi:docname="viikonvalo-728x90.svg"
   inkscape:export-filename="/home/pesasa/svnrepos/drawings/www/viikonvalo/viikonvalo-728x90.png"
   inkscape:export-xdpi="90"
   inkscape:export-ydpi="90">
  <defs
     id="defs9859">
    <filter
       id="filter7658"
       y="-0.15000001"
       height="1.3"
       x="-0.15000001"
       width="1.3"
       inkscape:menu-tooltip="Aquarelle paper effect which can be used for pictures as for objects"
       inkscape:menu="Textures"
       inkscape:label="Rough paper"
       color-interpolation-filters="sRGB">
      <feTurbulence
         id="feTurbulence7660"
         type="fractalNoise"
         baseFrequency="0.04"
         numOctaves="5"
         seed="0"
         result="result4" />
      <feDisplacementMap
         id="feDisplacementMap7662"
         in2="result4"
         in="SourceGraphic"
         yChannelSelector="G"
         xChannelSelector="R"
         scale="10"
         result="result3" />
      <feDiffuseLighting
         id="feDiffuseLighting7664"
         lighting-color="#e9e6d7"
         diffuseConstant="1"
         surfaceScale="2"
         result="result1"
         in="result4">
        <feDistantLight
           id="feDistantLight7666"
           azimuth="235"
           elevation="40" />
      </feDiffuseLighting>
      <feComposite
         id="feComposite7668"
         in2="result1"
         operator="in"
         in="result3"
         result="result2" />
      <feComposite
         k4="0"
         k3="0"
         k2="0"
         id="feComposite7670"
         in2="result1"
         result="result5"
         operator="arithmetic"
         k1="1.7" />
      <feBlend
         id="feBlend7672"
         in2="result3"
         in="result5"
         mode="normal" />
    </filter>
    <radialGradient
       id="XMLID_61_"
       cx="64.568802"
       cy="7.2266002"
       r="104.221"
       fx="64.568802"
       fy="7.2266002"
       gradientUnits="userSpaceOnUse">
      <stop
         offset="0"
         style="stop-color:#67C5D5"
         id="stop6858" />
      <stop
         offset="0.1604"
         style="stop-color:#66C2D3"
         id="stop6860" />
      <stop
         offset="0.2795"
         style="stop-color:#62B9CE"
         id="stop6862" />
      <stop
         offset="0.3852"
         style="stop-color:#5CA8C6"
         id="stop6864" />
      <stop
         offset="0.4832"
         style="stop-color:#5392BA"
         id="stop6866" />
      <stop
         offset="0.5759"
         style="stop-color:#4874AA"
         id="stop6868" />
      <stop
         offset="0.6646"
         style="stop-color:#3A5097"
         id="stop6870" />
      <stop
         offset="0.7485"
         style="stop-color:#2A2781"
         id="stop6872" />
      <stop
         offset="0.8146"
         style="stop-color:#1B006D"
         id="stop6874" />
      <stop
         offset="1"
         style="stop-color:#596AAD"
         id="stop6876" />
    </radialGradient>
    <radialGradient
       id="XMLID_62_"
       cx="64.551804"
       cy="14.1748"
       r="52.231701"
       fx="64.551804"
       fy="14.1748"
       gradientUnits="userSpaceOnUse">
      <stop
         offset="0"
         style="stop-color:#0F80BC"
         id="stop6881" />
      <stop
         offset="0.3376"
         style="stop-color:#0A5F9E"
         id="stop6883" />
      <stop
         offset="1"
         style="stop-color:#00145A"
         id="stop6885" />
    </radialGradient>
    <radialGradient
       id="XMLID_63_"
       cx="64.553703"
       cy="14.1758"
       r="52.228901"
       fx="64.553703"
       fy="14.1758"
       gradientUnits="userSpaceOnUse">
      <stop
         offset="0"
         style="stop-color:#0F80BC"
         id="stop6892" />
      <stop
         offset="0.3376"
         style="stop-color:#0A5F9E"
         id="stop6894" />
      <stop
         offset="1"
         style="stop-color:#00145A"
         id="stop6896" />
    </radialGradient>
    <radialGradient
       id="XMLID_64_"
       cx="64.548798"
       cy="14.1724"
       r="52.237301"
       fx="64.548798"
       fy="14.1724"
       gradientUnits="userSpaceOnUse">
      <stop
         offset="0"
         style="stop-color:#0F80BC"
         id="stop6901" />
      <stop
         offset="0.3376"
         style="stop-color:#0A5F9E"
         id="stop6903" />
      <stop
         offset="1"
         style="stop-color:#00145A"
         id="stop6905" />
    </radialGradient>
    <radialGradient
       id="XMLID_65_"
       cx="65.405296"
       cy="19.1201"
       r="57.382702"
       fx="65.405296"
       fy="19.1201"
       gradientUnits="userSpaceOnUse">
      <stop
         offset="0"
         style="stop-color:#0F80BC"
         id="stop6910" />
      <stop
         offset="0.2643"
         style="stop-color:#0B629B"
         id="stop6912" />
      <stop
         offset="0.8439"
         style="stop-color:#031747"
         id="stop6914" />
      <stop
         offset="1"
         style="stop-color:#00022F"
         id="stop6916" />
    </radialGradient>
    <radialGradient
       id="XMLID_66_"
       cx="64.550797"
       cy="14.1733"
       r="52.233299"
       fx="64.550797"
       fy="14.1733"
       gradientUnits="userSpaceOnUse">
      <stop
         offset="0"
         style="stop-color:#0F80BC"
         id="stop6921" />
      <stop
         offset="0.3376"
         style="stop-color:#0A5F9E"
         id="stop6923" />
      <stop
         offset="1"
         style="stop-color:#00145A"
         id="stop6925" />
    </radialGradient>
    <radialGradient
       id="XMLID_67_"
       cx="64.551804"
       cy="14.1646"
       r="52.241501"
       fx="64.551804"
       fy="14.1646"
       gradientUnits="userSpaceOnUse">
      <stop
         offset="0"
         style="stop-color:#0F80BC"
         id="stop6930" />
      <stop
         offset="0.3376"
         style="stop-color:#0A5F9E"
         id="stop6932" />
      <stop
         offset="1"
         style="stop-color:#00145A"
         id="stop6934" />
    </radialGradient>
    <linearGradient
       inkscape:collect="always"
       xlink:href="#XMLID_69_"
       id="linearGradient11709"
       gradientUnits="userSpaceOnUse"
       x1="76.371597"
       y1="16.591801"
       x2="93.231796"
       y2="18.029301" />
    <linearGradient
       id="XMLID_69_"
       gradientUnits="userSpaceOnUse"
       x1="76.371597"
       y1="16.591801"
       x2="93.231796"
       y2="18.029301">
      <stop
         offset="0"
         style="stop-color:#0F80BC"
         id="stop6947" />
      <stop
         offset="0.3376"
         style="stop-color:#0A5F9E"
         id="stop6949" />
      <stop
         offset="1"
         style="stop-color:#00145A"
         id="stop6951" />
    </linearGradient>
    <clipPath
       id="XMLID_68_">
      <use
         height="1"
         width="1"
         y="0"
         x="0"
         xlink:href="#XMLID_8_"
         id="use6944" />
    </clipPath>
    <linearGradient
       inkscape:collect="always"
       xlink:href="#XMLID_70_"
       id="linearGradient11711"
       gradientUnits="userSpaceOnUse"
       x1="38.491699"
       y1="19.146999"
       x2="29.173901"
       y2="32.832401" />
    <linearGradient
       id="XMLID_70_"
       gradientUnits="userSpaceOnUse"
       x1="38.491699"
       y1="19.146999"
       x2="29.173901"
       y2="32.832401">
      <stop
         offset="0"
         style="stop-color:#0F80BC"
         id="stop6956" />
      <stop
         offset="0.3376"
         style="stop-color:#0A5F9E"
         id="stop6958" />
      <stop
         offset="1"
         style="stop-color:#00145A"
         id="stop6960" />
    </linearGradient>
    <clipPath
       id="clipPath9205">
      <use
         height="1"
         width="1"
         y="0"
         x="0"
         xlink:href="#XMLID_8_"
         id="use9207" />
    </clipPath>
    <linearGradient
       id="XMLID_71_"
       gradientUnits="userSpaceOnUse"
       x1="62.651901"
       y1="34.546398"
       x2="62.651901"
       y2="11.8951">
      <stop
         offset="0.0137"
         style="stop-color:#000000"
         stop-opacity="0"
         id="stop6965" />
      <stop
         offset="0.65"
         style="stop-color:#C4E0E3"
         stop-opacity="0.2"
         id="stop6967" />
      <stop
         offset="0.8224"
         style="stop-color:#C4E0E3"
         id="stop6969" />
      <stop
         offset="0.8498"
         style="stop-color:#CDE5E8"
         id="stop6971" />
      <stop
         offset="0.9443"
         style="stop-color:#E8F4F7"
         id="stop6973" />
      <stop
         offset="1"
         style="stop-color:#F2FAFC"
         id="stop6975" />
    </linearGradient>
    <linearGradient
       id="XMLID_74_"
       gradientUnits="userSpaceOnUse"
       x1="64.477501"
       y1="56.3008"
       x2="78.466103"
       y2="48.0854">
      <stop
         offset="0"
         style="stop-color:#DF731B"
         id="stop6994" />
      <stop
         offset="0.5449"
         style="stop-color:#DF731B"
         id="stop6996" />
      <stop
         offset="0.7014"
         style="stop-color:#EC8811"
         id="stop6998" />
      <stop
         offset="0.8593"
         style="stop-color:#F4950B"
         id="stop7000" />
      <stop
         offset="1"
         style="stop-color:#F79A09"
         id="stop7002" />
    </linearGradient>
    <linearGradient
       id="XMLID_75_"
       gradientUnits="userSpaceOnUse"
       x1="41.838902"
       y1="36.961899"
       x2="52.696899"
       y2="37.8922">
      <stop
         offset="0.0112"
         style="stop-color:#941403"
         id="stop7007" />
      <stop
         offset="0.8972"
         style="stop-color:#E85C0A"
         id="stop7009" />
    </linearGradient>
    <linearGradient
       id="XMLID_76_"
       gradientUnits="userSpaceOnUse"
       x1="24.450199"
       y1="33.952599"
       x2="63.643002"
       y2="38.8517">
      <stop
         offset="0.0112"
         style="stop-color:#941403"
         id="stop7014" />
      <stop
         offset="0.1357"
         style="stop-color:#A32104"
         id="stop7016" />
      <stop
         offset="0.4978"
         style="stop-color:#C84107"
         id="stop7018" />
      <stop
         offset="0.7893"
         style="stop-color:#DF5509"
         id="stop7020" />
      <stop
         offset="0.972"
         style="stop-color:#E85C0A"
         id="stop7022" />
    </linearGradient>
    <linearGradient
       id="XMLID_77_"
       gradientUnits="userSpaceOnUse"
       x1="48.730999"
       y1="44.320301"
       x2="51.856499"
       y2="42.945099">
      <stop
         offset="0"
         style="stop-color:#F2C8A9"
         id="stop7027" />
      <stop
         offset="1"
         style="stop-color:#FFFFCC"
         id="stop7029" />
    </linearGradient>
    <linearGradient
       id="XMLID_78_"
       gradientUnits="userSpaceOnUse"
       x1="38.767601"
       y1="82.582497"
       x2="91.339104"
       y2="84.7472">
      <stop
         offset="0"
         style="stop-color:#B30000"
         id="stop7034" />
      <stop
         offset="1"
         style="stop-color:#DF731B"
         id="stop7036" />
    </linearGradient>
    <linearGradient
       id="XMLID_79_"
       gradientUnits="userSpaceOnUse"
       x1="51.277802"
       y1="74.424301"
       x2="78.689102"
       y2="84.211601">
      <stop
         offset="0"
         style="stop-color:#941403"
         id="stop7041" />
      <stop
         offset="1"
         style="stop-color:#DF731B"
         id="stop7043" />
    </linearGradient>
    <linearGradient
       id="XMLID_80_"
       gradientUnits="userSpaceOnUse"
       x1="6.1064"
       y1="87.056602"
       x2="32.828098"
       y2="87.056602"
       gradientTransform="matrix(0.9988,0.049,-0.049,0.9988,4.7153,-1.2399)">
      <stop
         offset="0.0562"
         style="stop-color:#B30000"
         id="stop7048" />
      <stop
         offset="1"
         style="stop-color:#DE5C01"
         id="stop7050" />
    </linearGradient>
    <linearGradient
       id="XMLID_81_"
       gradientUnits="userSpaceOnUse"
       x1="209.7227"
       y1="-130.65919"
       x2="224.26109"
       y2="-85.618599"
       gradientTransform="matrix(0.9929,0.1186,-0.1186,0.9929,-207.2682,181.2932)">
      <stop
         offset="0.0562"
         style="stop-color:#DE7210"
         id="stop7055" />
      <stop
         offset="1"
         style="stop-color:#F6C08F"
         id="stop7057" />
    </linearGradient>
    <linearGradient
       id="XMLID_82_"
       gradientUnits="userSpaceOnUse"
       x1="12.4712"
       y1="61.107399"
       x2="12.4712"
       y2="111.4548"
       gradientTransform="matrix(0.999,0.0448,-0.0448,0.999,3.2321,-0.6968)">
      <stop
         offset="0.0562"
         style="stop-color:#DE7210"
         id="stop7062" />
      <stop
         offset="1"
         style="stop-color:#F6C08F"
         id="stop7064" />
    </linearGradient>
    <linearGradient
       id="XMLID_83_"
       gradientUnits="userSpaceOnUse"
       x1="18.3477"
       y1="30.846201"
       x2="12.8857"
       y2="16.8496">
      <stop
         offset="0.0112"
         style="stop-color:#941403"
         id="stop7071" />
      <stop
         offset="0.4719"
         style="stop-color:#E85C0A"
         id="stop7073" />
      <stop
         offset="1"
         style="stop-color:#F9BD5F"
         id="stop7075" />
    </linearGradient>
    <linearGradient
       id="XMLID_84_"
       gradientUnits="userSpaceOnUse"
       x1="41.703602"
       y1="34.057598"
       x2="54.7924"
       y2="16.8533">
      <stop
         offset="0.1966"
         style="stop-color:#DE7210"
         id="stop7080" />
      <stop
         offset="0.8427"
         style="stop-color:#F9BD5F"
         id="stop7082" />
      <stop
         offset="1"
         style="stop-color:#FFFCCF"
         id="stop7084" />
    </linearGradient>
    <linearGradient
       id="XMLID_85_"
       gradientUnits="userSpaceOnUse"
       x1="34.783699"
       y1="57.5415"
       x2="48.052399"
       y2="84.078903">
      <stop
         offset="0.0169"
         style="stop-color:#941403"
         id="stop7089" />
      <stop
         offset="0.5"
         style="stop-color:#E35100"
         id="stop7091" />
      <stop
         offset="1"
         style="stop-color:#DF731B"
         id="stop7093" />
    </linearGradient>
    <linearGradient
       id="XMLID_86_"
       gradientUnits="userSpaceOnUse"
       x1="54.825199"
       y1="41.267101"
       x2="58.138699"
       y2="44.27">
      <stop
         offset="0"
         style="stop-color:#EEA272"
         id="stop7098" />
      <stop
         offset="0.1865"
         style="stop-color:#EFA777"
         id="stop7100" />
      <stop
         offset="0.4064"
         style="stop-color:#F2B585"
         id="stop7102" />
      <stop
         offset="0.643"
         style="stop-color:#F6CD9C"
         id="stop7104" />
      <stop
         offset="0.8898"
         style="stop-color:#FCEEBB"
         id="stop7106" />
      <stop
         offset="1"
         style="stop-color:#FFFFCC"
         id="stop7108" />
    </linearGradient>
    <linearGradient
       id="XMLID_87_"
       gradientUnits="userSpaceOnUse"
       x1="35.5"
       y1="48.361301"
       x2="50.721401"
       y2="63.893299">
      <stop
         offset="0.1966"
         style="stop-color:#DF731B"
         id="stop7113" />
      <stop
         offset="0.8427"
         style="stop-color:#F9BD5F"
         id="stop7115" />
      <stop
         offset="1"
         style="stop-color:#FFFCCF"
         id="stop7117" />
    </linearGradient>
    <linearGradient
       id="XMLID_88_"
       gradientUnits="userSpaceOnUse"
       x1="847.4707"
       y1="-1065.021"
       x2="847.4707"
       y2="-1007.9581"
       gradientTransform="matrix(0.9673,0.2537,-0.2537,0.9673,-1076.6656,855.2322)">
      <stop
         offset="0.0562"
         style="stop-color:#DE7210"
         id="stop7122" />
      <stop
         offset="1"
         style="stop-color:#F6C08F"
         id="stop7124" />
    </linearGradient>
    <linearGradient
       id="XMLID_89_"
       gradientUnits="userSpaceOnUse"
       x1="15.8564"
       y1="36.413101"
       x2="-3.4365001"
       y2="67.833"
       gradientTransform="matrix(0.9897,-0.0801,0.0949,1.1727,-3.8203,-4.9468)">
      <stop
         offset="0.0562"
         style="stop-color:#DE7210"
         id="stop7129" />
      <stop
         offset="1"
         style="stop-color:#F2C06E"
         id="stop7131" />
    </linearGradient>
    <linearGradient
       id="XMLID_90_"
       gradientUnits="userSpaceOnUse"
       x1="80.929199"
       y1="67.844704"
       x2="60.433201"
       y2="71.759697">
      <stop
         offset="0.0047"
         style="stop-color:#FFFAEE"
         id="stop7136" />
      <stop
         offset="0.2757"
         style="stop-color:#F5F89B"
         id="stop7138" />
      <stop
         offset="0.3102"
         style="stop-color:#F3ED91"
         id="stop7140" />
      <stop
         offset="0.4668"
         style="stop-color:#ECC267"
         id="stop7142" />
      <stop
         offset="0.6182"
         style="stop-color:#E6A046"
         id="stop7144" />
      <stop
         offset="0.7611"
         style="stop-color:#E2872E"
         id="stop7146" />
      <stop
         offset="0.8921"
         style="stop-color:#E07820"
         id="stop7148" />
      <stop
         offset="1"
         style="stop-color:#DF731B"
         id="stop7150" />
    </linearGradient>
    <linearGradient
       id="XMLID_91_"
       gradientUnits="userSpaceOnUse"
       x1="-411.27289"
       y1="427.6279"
       x2="-411.27289"
       y2="475.31949"
       gradientTransform="matrix(0.992,0.1261,-0.1261,0.992,477.0624,-332.3914)">
      <stop
         offset="0.0562"
         style="stop-color:#DE7210"
         id="stop7155" />
      <stop
         offset="1"
         style="stop-color:#F2C06E"
         id="stop7157" />
    </linearGradient>
    <linearGradient
       id="XMLID_92_"
       gradientUnits="userSpaceOnUse"
       x1="-414.43649"
       y1="422.68359"
       x2="-414.43649"
       y2="470.3703"
       gradientTransform="matrix(0.9324,0.3616,-0.3616,0.9324,554.92,-207.713)">
      <stop
         offset="0.0562"
         style="stop-color:#DE7210"
         id="stop7162" />
      <stop
         offset="1"
         style="stop-color:#F2C06E"
         id="stop7164" />
    </linearGradient>
    <linearGradient
       id="XMLID_93_"
       gradientUnits="userSpaceOnUse"
       x1="13.8481"
       y1="55.797401"
       x2="0.56919998"
       y2="75.715698"
       gradientTransform="matrix(0.8104,-0.5859,0.5859,0.8104,-28.537,20.3312)">
      <stop
         offset="0.0562"
         style="stop-color:#DE7210"
         id="stop7169" />
      <stop
         offset="1"
         style="stop-color:#F2C072"
         id="stop7171" />
    </linearGradient>
    <linearGradient
       id="XMLID_94_"
       gradientUnits="userSpaceOnUse"
       x1="21.0347"
       y1="49.271"
       x2="7.7561002"
       y2="69.188797"
       gradientTransform="matrix(0.8104,-0.5859,0.5859,0.8104,-28.537,20.3312)">
      <stop
         offset="0.0562"
         style="stop-color:#DE7210"
         id="stop7176" />
      <stop
         offset="1"
         style="stop-color:#F2C072"
         id="stop7178" />
    </linearGradient>
    <linearGradient
       id="XMLID_95_"
       gradientUnits="userSpaceOnUse"
       x1="12.3135"
       y1="37.8647"
       x2="6.5040002"
       y2="48.708801">
      <stop
         offset="0.0562"
         style="stop-color:#DE7210"
         id="stop7183" />
      <stop
         offset="1"
         style="stop-color:#EED8A5"
         id="stop7185" />
    </linearGradient>
    <linearGradient
       id="XMLID_96_"
       gradientUnits="userSpaceOnUse"
       x1="11.7305"
       y1="44.491699"
       x2="5.9211001"
       y2="55.3354">
      <stop
         offset="0.0562"
         style="stop-color:#DE7210"
         id="stop7190" />
      <stop
         offset="1"
         style="stop-color:#EED8A5"
         id="stop7192" />
    </linearGradient>
    <linearGradient
       id="XMLID_97_"
       gradientUnits="userSpaceOnUse"
       x1="18.313"
       y1="39.891102"
       x2="12.6977"
       y2="53.833">
      <stop
         offset="0.0562"
         style="stop-color:#DE7210"
         id="stop7197" />
      <stop
         offset="1"
         style="stop-color:#F2C072"
         id="stop7199" />
    </linearGradient>
    <linearGradient
       id="XMLID_98_"
       gradientUnits="userSpaceOnUse"
       x1="20.4468"
       y1="33.1045"
       x2="7.1675"
       y2="53.023399">
      <stop
         offset="0.0562"
         style="stop-color:#DE7210"
         id="stop7204" />
      <stop
         offset="1"
         style="stop-color:#F2C072"
         id="stop7206" />
    </linearGradient>
    <linearGradient
       id="XMLID_99_"
       gradientUnits="userSpaceOnUse"
       x1="21.340799"
       y1="37.1255"
       x2="9.2384996"
       y2="55.278999">
      <stop
         offset="0.0562"
         style="stop-color:#DE7210"
         id="stop7211" />
      <stop
         offset="1"
         style="stop-color:#F2C072"
         id="stop7213" />
    </linearGradient>
    <linearGradient
       id="XMLID_100_"
       gradientUnits="userSpaceOnUse"
       x1="60.286098"
       y1="34.297401"
       x2="61.244999"
       y2="36.0061">
      <stop
         offset="0"
         style="stop-color:#8B8B89"
         id="stop7218" />
      <stop
         offset="1"
         style="stop-color:#120500"
         id="stop7220" />
    </linearGradient>
    <linearGradient
       id="XMLID_101_"
       gradientUnits="userSpaceOnUse"
       x1="22.559601"
       y1="28.492201"
       x2="22.559601"
       y2="23.245199">
      <stop
         offset="0.0562"
         style="stop-color:#DE7210"
         id="stop7225" />
      <stop
         offset="1"
         style="stop-color:#F6C08F"
         id="stop7227" />
    </linearGradient>
    <linearGradient
       id="XMLID_102_"
       gradientUnits="userSpaceOnUse"
       x1="23.0117"
       y1="34.750999"
       x2="33.993099"
       y2="21.917999"
       gradientTransform="matrix(0.9992,0.0398,-0.0398,0.9992,0.9958,-1.3319)">
      <stop
         offset="0.0562"
         style="stop-color:#DE7210"
         id="stop7232" />
      <stop
         offset="1"
         style="stop-color:#F6C08F"
         id="stop7234" />
    </linearGradient>
    <linearGradient
       id="XMLID_103_"
       gradientUnits="userSpaceOnUse"
       x1="15.5088"
       y1="33.507801"
       x2="9.6995001"
       y2="44.351501">
      <stop
         offset="0.0562"
         style="stop-color:#DE7210"
         id="stop7239" />
      <stop
         offset="1"
         style="stop-color:#EED8A5"
         id="stop7241" />
    </linearGradient>
    <linearGradient
       id="XMLID_104_"
       gradientUnits="userSpaceOnUse"
       x1="16.3398"
       y1="35.804699"
       x2="27.0674"
       y2="23.268299"
       gradientTransform="matrix(0.9946,0.1039,-0.1039,0.9946,3.786,-2.0567)">
      <stop
         offset="0.0562"
         style="stop-color:#DE7210"
         id="stop7246" />
      <stop
         offset="1"
         style="stop-color:#F6C08F"
         id="stop7248" />
    </linearGradient>
    <linearGradient
       id="XMLID_105_"
       gradientUnits="userSpaceOnUse"
       x1="13.3721"
       y1="22.875999"
       x2="26.2598"
       y2="24.641001"
       gradientTransform="matrix(0.9959,0.0903,-0.0903,0.9959,2.3457,-2.346)">
      <stop
         offset="0.0562"
         style="stop-color:#DE7210"
         id="stop7253" />
      <stop
         offset="1"
         style="stop-color:#F6C08F"
         id="stop7255" />
    </linearGradient>
    <linearGradient
       id="XMLID_106_"
       gradientUnits="userSpaceOnUse"
       x1="6.9833999"
       y1="23.1094"
       x2="25.178301"
       y2="25.6012">
      <stop
         offset="0.0562"
         style="stop-color:#DE7210"
         id="stop7260" />
      <stop
         offset="1"
         style="stop-color:#F6C08F"
         id="stop7262" />
    </linearGradient>
    <linearGradient
       id="XMLID_107_"
       gradientUnits="userSpaceOnUse"
       x1="15.8809"
       y1="22.228001"
       x2="27.7244"
       y2="23.85"
       gradientTransform="matrix(0.9959,0.0903,-0.0903,0.9959,2.3457,-2.346)">
      <stop
         offset="0.0562"
         style="stop-color:#DE7210"
         id="stop7267" />
      <stop
         offset="1"
         style="stop-color:#F6C08F"
         id="stop7269" />
    </linearGradient>
    <linearGradient
       id="XMLID_108_"
       gradientUnits="userSpaceOnUse"
       x1="15.2012"
       y1="26.939899"
       x2="4.5215001"
       y2="25.8437">
      <stop
         offset="0.0562"
         style="stop-color:#DE7210"
         id="stop7274" />
      <stop
         offset="1"
         style="stop-color:#F6C08F"
         id="stop7276" />
    </linearGradient>
    <linearGradient
       id="XMLID_109_"
       gradientUnits="userSpaceOnUse"
       x1="10.9453"
       y1="37.099602"
       x2="25.7187"
       y2="19.835199"
       gradientTransform="matrix(0.9946,0.1039,-0.1039,0.9946,3.786,-2.0567)">
      <stop
         offset="0.0562"
         style="stop-color:#DE7210"
         id="stop7281" />
      <stop
         offset="1"
         style="stop-color:#F6C08F"
         id="stop7283" />
    </linearGradient>
    <linearGradient
       id="XMLID_110_"
       gradientUnits="userSpaceOnUse"
       x1="88.330597"
       y1="117.3682"
       x2="117.2648"
       y2="72.7407">
      <stop
         offset="0"
         style="stop-color:#DE5C01"
         id="stop7289" />
      <stop
         offset="0.736"
         style="stop-color:#FEFD00"
         id="stop7291" />
      <stop
         offset="0.7783"
         style="stop-color:#FEFE26"
         id="stop7293" />
      <stop
         offset="0.8369"
         style="stop-color:#FFFE54"
         id="stop7295" />
      <stop
         offset="0.889"
         style="stop-color:#FFFF76"
         id="stop7297" />
      <stop
         offset="0.932"
         style="stop-color:#FFFF8B"
         id="stop7299" />
      <stop
         offset="0.9607"
         style="stop-color:#FFFF92"
         id="stop7301" />
    </linearGradient>
    <linearGradient
       id="XMLID_111_"
       gradientUnits="userSpaceOnUse"
       x1="105.1567"
       y1="22.737801"
       x2="86.211197"
       y2="14.4171">
      <stop
         offset="0"
         style="stop-color:#F79A09"
         id="stop7306" />
      <stop
         offset="0.736"
         style="stop-color:#FEFD00"
         id="stop7308" />
      <stop
         offset="0.7783"
         style="stop-color:#FEFE26"
         id="stop7310" />
      <stop
         offset="0.8369"
         style="stop-color:#FFFE54"
         id="stop7312" />
      <stop
         offset="0.889"
         style="stop-color:#FFFF76"
         id="stop7314" />
      <stop
         offset="0.932"
         style="stop-color:#FFFF8B"
         id="stop7316" />
      <stop
         offset="0.9607"
         style="stop-color:#FFFF92"
         id="stop7318" />
    </linearGradient>
    <linearGradient
       id="XMLID_112_"
       gradientUnits="userSpaceOnUse"
       x1="117.8823"
       y1="41.729"
       x2="91.359299"
       y2="17.106001">
      <stop
         offset="0"
         style="stop-color:#DE5C01"
         id="stop7323" />
      <stop
         offset="0.736"
         style="stop-color:#FEFD00"
         id="stop7325" />
      <stop
         offset="0.7783"
         style="stop-color:#FEFE26"
         id="stop7327" />
      <stop
         offset="0.8369"
         style="stop-color:#FFFE54"
         id="stop7329" />
      <stop
         offset="0.889"
         style="stop-color:#FFFF76"
         id="stop7331" />
      <stop
         offset="0.932"
         style="stop-color:#FFFF8B"
         id="stop7333" />
      <stop
         offset="0.9607"
         style="stop-color:#FFFF92"
         id="stop7335" />
    </linearGradient>
    <linearGradient
       id="XMLID_113_"
       gradientUnits="userSpaceOnUse"
       x1="1.1396"
       y1="145.4453"
       x2="-9.9659004"
       y2="133.9595"
       gradientTransform="matrix(0.9996,-0.0282,0.0282,0.9996,104.7769,-104.6242)">
      <stop
         offset="0"
         style="stop-color:#F79A09"
         id="stop7340" />
      <stop
         offset="0.736"
         style="stop-color:#FEFD00"
         id="stop7342" />
      <stop
         offset="0.7783"
         style="stop-color:#FEFE26"
         id="stop7344" />
      <stop
         offset="0.8369"
         style="stop-color:#FFFE54"
         id="stop7346" />
      <stop
         offset="0.889"
         style="stop-color:#FFFF76"
         id="stop7348" />
      <stop
         offset="0.932"
         style="stop-color:#FFFF8B"
         id="stop7350" />
      <stop
         offset="0.9607"
         style="stop-color:#FFFF92"
         id="stop7352" />
    </linearGradient>
    <linearGradient
       id="XMLID_114_"
       gradientUnits="userSpaceOnUse"
       x1="113.4365"
       y1="55.834"
       x2="119.687"
       y2="34.332298">
      <stop
         offset="0"
         style="stop-color:#F79A09"
         id="stop7357" />
      <stop
         offset="0.736"
         style="stop-color:#FEFD00"
         id="stop7359" />
      <stop
         offset="0.7783"
         style="stop-color:#FEFE26"
         id="stop7361" />
      <stop
         offset="0.8369"
         style="stop-color:#FFFE54"
         id="stop7363" />
      <stop
         offset="0.889"
         style="stop-color:#FFFF76"
         id="stop7365" />
      <stop
         offset="0.932"
         style="stop-color:#FFFF8B"
         id="stop7367" />
      <stop
         offset="0.9607"
         style="stop-color:#FFFF92"
         id="stop7369" />
    </linearGradient>
    <linearGradient
       id="XMLID_115_"
       gradientUnits="userSpaceOnUse"
       x1="-51.966301"
       y1="212.7881"
       x2="-52.194302"
       y2="196.4341"
       gradientTransform="matrix(0.9992,-0.0412,0.0412,0.9992,151.8961,-153.906)">
      <stop
         offset="0"
         style="stop-color:#F79A09"
         id="stop7374" />
      <stop
         offset="0.736"
         style="stop-color:#FEFD00"
         id="stop7376" />
      <stop
         offset="0.7783"
         style="stop-color:#FEFE26"
         id="stop7378" />
      <stop
         offset="0.8369"
         style="stop-color:#FFFE54"
         id="stop7380" />
      <stop
         offset="0.889"
         style="stop-color:#FFFF76"
         id="stop7382" />
      <stop
         offset="0.932"
         style="stop-color:#FFFF8B"
         id="stop7384" />
      <stop
         offset="0.9607"
         style="stop-color:#FFFF92"
         id="stop7386" />
    </linearGradient>
    <linearGradient
       id="XMLID_116_"
       gradientUnits="userSpaceOnUse"
       x1="-172.72121"
       y1="332.082"
       x2="-161.4561"
       y2="309.89331"
       gradientTransform="matrix(0.9975,-0.0707,0.0707,0.9975,254.6004,-268.4704)">
      <stop
         offset="0"
         style="stop-color:#F79A09"
         id="stop7391" />
      <stop
         offset="0.736"
         style="stop-color:#FEFD00"
         id="stop7393" />
      <stop
         offset="0.7783"
         style="stop-color:#FEFE26"
         id="stop7395" />
      <stop
         offset="0.8369"
         style="stop-color:#FFFE54"
         id="stop7397" />
      <stop
         offset="0.889"
         style="stop-color:#FFFF76"
         id="stop7399" />
      <stop
         offset="0.932"
         style="stop-color:#FFFF8B"
         id="stop7401" />
      <stop
         offset="0.9607"
         style="stop-color:#FFFF92"
         id="stop7403" />
    </linearGradient>
    <linearGradient
       id="XMLID_117_"
       gradientUnits="userSpaceOnUse"
       x1="99.205597"
       y1="87.746597"
       x2="100.7206"
       y2="63.169102"
       gradientTransform="matrix(0.9975,-0.0707,0.0707,0.9975,-10.9669,13.6507)">
      <stop
         offset="0"
         style="stop-color:#DE5C01"
         id="stop7408" />
      <stop
         offset="0.736"
         style="stop-color:#FEFD00"
         id="stop7410" />
      <stop
         offset="0.7783"
         style="stop-color:#FEFE26"
         id="stop7412" />
      <stop
         offset="0.8369"
         style="stop-color:#FFFE54"
         id="stop7414" />
      <stop
         offset="0.889"
         style="stop-color:#FFFF76"
         id="stop7416" />
      <stop
         offset="0.932"
         style="stop-color:#FFFF8B"
         id="stop7418" />
      <stop
         offset="0.9607"
         style="stop-color:#FFFF92"
         id="stop7420" />
    </linearGradient>
    <linearGradient
       id="XMLID_118_"
       gradientUnits="userSpaceOnUse"
       x1="58.369099"
       y1="113.8594"
       x2="105.8753"
       y2="85.464897">
      <stop
         offset="0"
         style="stop-color:#B9120D"
         id="stop7425" />
      <stop
         offset="0.078"
         style="stop-color:#BB180D"
         id="stop7427" />
      <stop
         offset="0.1822"
         style="stop-color:#C0290C"
         id="stop7429" />
      <stop
         offset="0.3013"
         style="stop-color:#C8450A"
         id="stop7431" />
      <stop
         offset="0.4314"
         style="stop-color:#D36C08"
         id="stop7433" />
      <stop
         offset="0.5706"
         style="stop-color:#E29E05"
         id="stop7435" />
      <stop
         offset="0.7151"
         style="stop-color:#F4DA02"
         id="stop7437" />
      <stop
         offset="0.7921"
         style="stop-color:#FEFD00"
         id="stop7439" />
      <stop
         offset="0.8136"
         style="stop-color:#FEFD07"
         id="stop7441" />
      <stop
         offset="0.8455"
         style="stop-color:#FEFD1B"
         id="stop7443" />
      <stop
         offset="0.8837"
         style="stop-color:#FEFE3C"
         id="stop7445" />
      <stop
         offset="0.9268"
         style="stop-color:#FFFE69"
         id="stop7447" />
      <stop
         offset="0.9736"
         style="stop-color:#FFFFA3"
         id="stop7449" />
      <stop
         offset="1"
         style="stop-color:#FFFFC7"
         id="stop7451" />
    </linearGradient>
    <linearGradient
       id="XMLID_119_"
       gradientUnits="userSpaceOnUse"
       x1="54.2402"
       y1="93.582497"
       x2="102.9066"
       y2="100.176"
       gradientTransform="matrix(0.9951,0.0989,-0.0989,0.9951,10.3843,-6.0754)">
      <stop
         offset="0.0562"
         style="stop-color:#DE7210"
         id="stop7457" />
      <stop
         offset="1"
         style="stop-color:#F6C08F"
         id="stop7459" />
    </linearGradient>
    <linearGradient
       id="XMLID_120_"
       gradientUnits="userSpaceOnUse"
       x1="39.012699"
       y1="89.889603"
       x2="95.521896"
       y2="107.6497"
       gradientTransform="matrix(0.9895,0.1448,-0.1448,0.9895,14.2829,-5.8352)">
      <stop
         offset="0.0562"
         style="stop-color:#DE7210"
         id="stop7464" />
      <stop
         offset="1"
         style="stop-color:#F6C08F"
         id="stop7466" />
    </linearGradient>
    <linearGradient
       id="XMLID_121_"
       gradientUnits="userSpaceOnUse"
       x1="-601.46729"
       y1="628.96088"
       x2="-574.59741"
       y2="680.40417"
       gradientTransform="matrix(0.9837,-0.1799,0.1799,0.9837,500.9515,-643.7268)">
      <stop
         offset="0.0562"
         style="stop-color:#DE7210"
         id="stop7471" />
      <stop
         offset="1"
         style="stop-color:#F6C08F"
         id="stop7473" />
    </linearGradient>
    <linearGradient
       inkscape:collect="always"
       xlink:href="#linearGradient11811"
       id="linearGradient11693"
       gradientUnits="userSpaceOnUse"
       gradientTransform="translate(580,0)"
       x1="116.67262"
       y1="439.19958"
       x2="304.561"
       y2="696.28339" />
    <linearGradient
       id="linearGradient11811"
       inkscape:collect="always">
      <stop
         id="stop11813"
         offset="0"
         style="stop-color:#87aade;stop-opacity:1" />
      <stop
         id="stop11815"
         offset="1"
         style="stop-color:#162d50;stop-opacity:1" />
    </linearGradient>
    <filter
       id="filter12186"
       y="-0.25"
       height="1.5"
       x="-0.25"
       width="1.5"
       inkscape:menu-tooltip="Aquarelle paper effect which can be used for pictures as for objects"
       inkscape:menu="Textures"
       inkscape:label="Drop shadow"
       color-interpolation-filters="sRGB">
      <feTurbulence
         id="feTurbulence12188"
         type="fractalNoise"
         baseFrequency="0.04"
         numOctaves="5"
         seed="0"
         result="result4" />
      <feDisplacementMap
         id="feDisplacementMap12190"
         in2="result4"
         in="SourceGraphic"
         yChannelSelector="G"
         xChannelSelector="R"
         scale="10"
         result="result3" />
      <feDiffuseLighting
         id="feDiffuseLighting12192"
         lighting-color="#e9e6d7"
         diffuseConstant="1"
         surfaceScale="2"
         result="result1"
         in="result4">
        <feDistantLight
           id="feDistantLight12194"
           azimuth="235"
           elevation="40" />
      </feDiffuseLighting>
      <feComposite
         id="feComposite12196"
         in2="result1"
         operator="in"
         in="result3"
         result="result2" />
      <feComposite
         k4="0"
         k3="0"
         k2="0"
         id="feComposite12198"
         in2="result1"
         result="result5"
         operator="arithmetic"
         k1="1.7" />
      <feBlend
         id="feBlend12200"
         in2="result3"
         in="result5"
         mode="normal"
         result="fbSourceGraphic" />
      <feColorMatrix
         result="fbSourceGraphicAlpha"
         in="fbSourceGraphic"
         values="0 0 0 -1 0 0 0 0 -1 0 0 0 0 -1 0 0 0 0 1 0"
         id="feColorMatrix4516" />
      <feGaussianBlur
         id="feGaussianBlur4518"
         in="fbSourceGraphicAlpha"
         stdDeviation="2"
         result="blur" />
      <feColorMatrix
         id="feColorMatrix4520"
         result="bluralpha"
         type="matrix"
         values="1 0 0 0 0 0 1 0 0 0 0 0 1 0 0 0 0 0 0.5 0 " />
      <feOffset
         id="feOffset4522"
         in="bluralpha"
         dx="8"
         dy="8"
         result="offsetBlur" />
      <feMerge
         id="feMerge4524">
        <feMergeNode
           id="feMergeNode4526"
           in="offsetBlur" />
        <feMergeNode
           id="feMergeNode4528"
           in="fbSourceGraphic" />
      </feMerge>
    </filter>
    <linearGradient
       y2="700.28357"
       x2="884.62604"
       y1="304.36359"
       x1="856.32794"
       gradientTransform="translate(580,0)"
       gradientUnits="userSpaceOnUse"
       id="linearGradient9855"
       xlink:href="#linearGradient11811"
       inkscape:collect="always" />
    <radialGradient
       inkscape:collect="always"
       xlink:href="#linearGradient2989"
       id="radialGradient3020"
       cx="1076.4286"
       cy="478.79074"
       fx="1076.4286"
       fy="478.79074"
       r="142.85715"
       gradientUnits="userSpaceOnUse"
       gradientTransform="matrix(0,-1.3799999,1.5576574,0,330.63663,1964.2621)" />
    <linearGradient
       id="linearGradient2989">
      <stop
         style="stop-color:#ffffff;stop-opacity:1;"
         offset="0"
         id="stop2991" />
      <stop
         style="stop-color:#a5d9e6;stop-opacity:1;"
         offset="1"
         id="stop2993" />
    </linearGradient>
    <filter
       id="filter7901"
       y="-0.25"
       height="1.5"
       x="-0.25"
       width="1.5"
       inkscape:menu-tooltip="Aquarelle paper effect which can be used for pictures as for objects"
       inkscape:menu="Textures"
       inkscape:label="Drop shadow"
       color-interpolation-filters="sRGB">
      <feTurbulence
         id="feTurbulence7903"
         type="fractalNoise"
         baseFrequency="0.04"
         numOctaves="5"
         seed="0"
         result="result4" />
      <feDisplacementMap
         id="feDisplacementMap7905"
         in2="result4"
         in="SourceGraphic"
         yChannelSelector="G"
         xChannelSelector="R"
         scale="10"
         result="result3" />
      <feDiffuseLighting
         id="feDiffuseLighting7907"
         lighting-color="#e9e6d7"
         diffuseConstant="1"
         surfaceScale="2"
         result="result1"
         in="result4">
        <feDistantLight
           id="feDistantLight7909"
           azimuth="235"
           elevation="40" />
      </feDiffuseLighting>
      <feComposite
         id="feComposite7911"
         in2="result1"
         operator="in"
         in="result3"
         result="result2" />
      <feComposite
         id="feComposite7913"
         in2="result1"
         result="result5"
         operator="arithmetic"
         k1="1.7"
         k2="0"
         k3="0"
         k4="0" />
      <feBlend
         id="feBlend7915"
         in2="result3"
         in="result5"
         mode="normal"
         result="fbSourceGraphic" />
      <feColorMatrix
         result="fbSourceGraphicAlpha"
         in="fbSourceGraphic"
         values="0 0 0 -1 0 0 0 0 -1 0 0 0 0 -1 0 0 0 0 1 0"
         id="feColorMatrix7917" />
      <feGaussianBlur
         id="feGaussianBlur7919"
         in="fbSourceGraphicAlpha"
         stdDeviation="2"
         result="blur" />
      <feColorMatrix
         id="feColorMatrix7921"
         result="bluralpha"
         type="matrix"
         values="1 0 0 0 0 0 1 0 0 0 0 0 1 0 0 0 0 0 0.5 0 " />
      <feOffset
         id="feOffset7923"
         in="bluralpha"
         dx="4"
         dy="4"
         result="offsetBlur" />
      <feMerge
         id="feMerge7925">
        <feMergeNode
           id="feMergeNode7927"
           in="offsetBlur" />
        <feMergeNode
           id="feMergeNode7929"
           in="fbSourceGraphic" />
      </feMerge>
    </filter>
    <radialGradient
       inkscape:collect="always"
       xlink:href="#linearGradient11811-8"
       id="radialGradient48417"
       cx="362.13956"
       cy="63.309612"
       fx="362.13956"
       fy="63.309612"
       r="232.79057"
       gradientTransform="matrix(0.66252931,0.37318882,-0.35779789,0.6046169,134.71441,12.51095)"
       gradientUnits="userSpaceOnUse" />
    <linearGradient
       id="linearGradient11811-8"
       inkscape:collect="always">
      <stop
         id="stop11813-6"
         offset="0"
         style="stop-color:#87aade;stop-opacity:1" />
      <stop
         id="stop11815-8"
         offset="1"
         style="stop-color:#162d50;stop-opacity:1" />
    </linearGradient>
    <linearGradient
       inkscape:collect="always"
       xlink:href="#linearGradient42114"
       id="linearGradient47895"
       gradientUnits="userSpaceOnUse"
       gradientTransform="translate(285.43236,166.44284)"
       x1="77.342308"
       y1="31.46319"
       x2="73.676781"
       y2="-1.7851859" />
    <linearGradient
       inkscape:collect="always"
       id="linearGradient42114">
      <stop
         style="stop-color:#ffffff;stop-opacity:1;"
         offset="0"
         id="stop42116" />
      <stop
         style="stop-color:#ffffff;stop-opacity:0;"
         offset="1"
         id="stop42118" />
    </linearGradient>
    <filter
       color-interpolation-filters="sRGB"
       inkscape:collect="always"
       id="filter42093"
       x="-0.027053807"
       width="1.0541075"
       y="-0.21261705"
       height="1.4252341">
      <feGaussianBlur
         inkscape:collect="always"
         stdDeviation="2.0818754"
         id="feGaussianBlur42095" />
    </filter>
    <radialGradient
       inkscape:collect="always"
       xlink:href="#linearGradient42077"
       id="radialGradient42126"
       gradientUnits="userSpaceOnUse"
       gradientTransform="matrix(0.41401365,0.23903089,-0.28380362,0.4915654,55.341448,-6.5542702)"
       cx="78.035713"
       cy="33.874077"
       fx="78.035713"
       fy="33.874077"
       r="92.881592" />
    <linearGradient
       inkscape:collect="always"
       id="linearGradient42077">
      <stop
         style="stop-color:#ffe680;stop-opacity:1"
         offset="0"
         id="stop42079" />
      <stop
         style="stop-color:#ffcc00;stop-opacity:1"
         offset="1"
         id="stop42081" />
    </linearGradient>
    <radialGradient
       r="92.881592"
       fy="33.874077"
       fx="78.035713"
       cy="33.874077"
       cx="78.035713"
       gradientTransform="matrix(0.41401365,0.23903089,-0.28380362,0.4915654,55.341448,-6.5542702)"
       gradientUnits="userSpaceOnUse"
       id="radialGradient49191"
       xlink:href="#linearGradient42077"
       inkscape:collect="always" />
  </defs>
  <sodipodi:namedview
     id="base"
     pagecolor="#ffffff"
     bordercolor="#666666"
     borderopacity="1.0"
     inkscape:pageopacity="0.0"
     inkscape:pageshadow="2"
     inkscape:zoom="1.4"
     inkscape:cx="310.24986"
     inkscape:cy="11.160689"
     inkscape:document-units="px"
     inkscape:current-layer="layer1"
     showgrid="false"
     fit-margin-top="0"
     fit-margin-left="0"
     fit-margin-right="0"
     fit-margin-bottom="0"
     inkscape:window-width="1920"
     inkscape:window-height="1121"
     inkscape:window-x="-2"
     inkscape:window-y="-3"
     inkscape:window-maximized="1" />
  <metadata
     id="metadata9862">
    <rdf:RDF>
      <cc:Work
         rdf:about="">
        <dc:format>image/svg+xml</dc:format>
        <dc:type
           rdf:resource="http://purl.org/dc/dcmitype/StillImage" />
        <dc:title></dc:title>
      </cc:Work>
    </rdf:RDF>
  </metadata>
  <g
     inkscape:label="Layer 1"
     inkscape:groupmode="layer"
     id="layer1"
     transform="translate(60.419925,-240.01538)">
    <g
       transform="matrix(1.5199127,0,0,1.5199127,-308.18396,-13.517966)"
       id="g49116">
      <rect
         rx="4.3488035"
         style="fill:url(#radialGradient48417);fill-opacity:1;fill-rule:nonzero;stroke:none;display:inline"
         id="rect10983-0"
         width="477.21185"
         height="58.002213"
         x="163.65271"
         y="167.44284"
         ry="4.3488035" />
      <path
         sodipodi:nodetypes="ssccsss"
         style="opacity:0.23389833;fill:url(#linearGradient47895);fill-opacity:1;fill-rule:nonzero;stroke:none;display:inline"
         d="m 168.32397,167.44284 c -2.40924,0 -4.34375,1.93451 -4.34375,4.34375 l 0,24.90625 c 85.72571,19.20285 418.04582,-21.17988 477.06486,0.25 l 0,-25.15625 c 0,-2.40924 -1.93451,-4.34375 -4.34375,-4.34375 z"
         id="rect42099"
         inkscape:connector-curvature="0" />
      <rect
         rx="4.3488035"
         ry="4.3488035"
         y="167.68811"
         x="164.07387"
         height="57.340084"
         width="476.91107"
         id="rect42097"
         style="fill:none;stroke:#000000;stroke-width:1.99999988;display:inline" />
    </g>
    <text
       xml:space="preserve"
       style="font-size:23.33987808px;font-style:normal;font-variant:normal;font-weight:bold;font-stretch:normal;text-align:center;line-height:101.99999809%;letter-spacing:0px;word-spacing:0px;text-anchor:middle;fill:#ffffff;fill-opacity:1;stroke:#000000;stroke-width:0.79934853;display:inline;font-family:MgOpen Modata;-inkscape-font-specification:MgOpen Modata Bold"
       x="307.3461"
       y="314.22345"
       id="text8351"
       sodipodi:linespacing="102%"
       transform="scale(0.99046147,1.0096304)"><tspan
         sodipodi:role="line"
         x="307.3461"
         y="314.22345"
         style="font-style:normal;font-variant:normal;font-weight:bold;font-stretch:normal;text-align:center;line-height:101.99999809%;text-anchor:middle;fill:#ffffff;stroke:#000000;stroke-width:0.79934853;font-family:MgOpen Modata;-inkscape-font-specification:MgOpen Modata Bold"
         id="tspan8359">Vapaita ohjelmia vuoden jokaiselle viikolle</tspan></text>
    <g
       transform="matrix(1.9187003,0,0,1.9187003,196.892,-300.35611)"
       id="g42122">
      <path
         sodipodi:nodetypes="cscsccsccccccsccccsccsccsccccccccccccccsccscsssccccccccccccccccccccscccsccsccscccscccccccccccccccccccccccccccccccccccccccccscccccccccccccccccsccccccsscsccccccccccsccccccccsccccccccsccccccccccccccccccccccccccccccccsccccccccscscccccccsccccccsscsccccccccccscccccccccccccccsccccscsccscccccccccsccccccccccscsscccsccsccccccccccccccscscscsccscccccccccccccccsccccsscscscccccccccccccccccccccccccccccsccccccccccccccccccccccccccscccccccccccccccccccccccccccsccccccccccccsccccccscccccccscssccccccc"
         inkscape:connector-curvature="0"
         id="path42087"
         d="m 1.236325,288.23413 0,0.59375 c -2e-6,0.32161 0.04525,1.71226 0.125,4.28125 0.09957,2.54635 0.156248,4.50658 0.15625,5.90625 -2e-6,0.27868 -0.05657,1.96995 -0.15625,4.9375 l 0,0.0312 c -0.07981,2.9496 -0.125002,5.23195 -0.125,6.875 l 0,0.5625 0.5625,-0.0312 2.375,-0.0937 2.3125,0.0937 0.5625,0.0312 0,-0.5625 c -10e-6,-0.19747 -0.02264,-1.13954 -0.0625,-3.03125 -0.01986,-0.94239 0.0028,-1.35416 0,-2.03125 0.309621,0.53703 0.535989,0.96781 0.90625,1.59375 0.795334,1.31095 1.535032,2.53369 2.1875,3.71875 l 0.15625,0.28125 0.3125,0 c 0.180974,0 0.4759,-0.0226 1.09375,-0.0625 l 0.03125,0 c 0.608967,-0.0589 1.100533,-0.0937 1.46875,-0.0937 0.01783,0 0.424785,0.034 1.0625,0.0937 l 0.03125,0 c 0.662929,0.0402 1.193547,0.0625 1.59375,0.0625 l 0.96875,0 -0.5,-0.8125 -2.0625,-3.3125 c -1.254895,-2.02069 -2.345001,-3.81806 -3.28125,-5.46875 l 3,-2.96875 0,0.0312 1.875,-1.71875 0.3125,-0.3125 -0.21875,-0.375 -0.125,-0.21875 -0.15625,-0.28125 -0.34375,0.0312 -1.471536,0.0622 c -0.127786,-3.1e-4 -0.47342,-0.0118 -0.934714,-0.0309 -0.480741,-0.02 -0.837583,-0.0312 -1.09375,-0.0312 l -0.28125,0 -0.15625,0.21875 c -0.909564,1.28391 -1.761234,2.39493 -2.5625,3.3125 -0.538624,0.61681 -1.204561,1.15431 -1.84375,1.71875 l 0,-3.34375 c -6e-6,-0.89059 0.01427,-2.36483 0.09375,-4.46875 0.07982,-2.11323 0.124993,-3.65988 0.125,-4.59375 l 0,-0.59375 -0.59375,0.0625 c -0.757612,0.0777 -1.602261,0.12503 -2.5625,0.125 -0.817919,3e-5 -1.554176,-0.0483 -2.1875,-0.125 z m 139.249995,0.0625 c -1.89879,4e-5 -3.48566,1.00109 -4.6875,2.8125 l 0,0.0312 c -1.05353,1.61624 -1.58398,3.29662 -1.6875,5.03125 -0.23525,-0.005 -0.48729,-0.0195 -0.6875,-0.0312 -0.29064,-0.0181 -0.59696,-0.0694 -0.875,-0.125 l -0.65625,-0.125 0.0312,0.6875 0.0312,0.90625 -0.0312,0.8125 -0.0312,0.59375 0.59375,-0.0312 0.96875,-0.0312 0.0625,0 0.5,0.0312 0,6.125 c 0,0.98767 -0.0228,2.0033 -0.0625,3.09375 -0.0394,1.08041 -0.12202,2.00307 -0.21875,2.71875 l -0.0937,0.59375 0.625,0 c 0.19762,0 0.55622,-0.0225 1.15625,-0.0625 l 0.0312,0 c 0.59044,-0.059 1.04074,-0.0937 1.34375,-0.0937 0.0178,0 0.39092,0.034 0.96875,0.0937 l 0.0312,0 c 0.60329,0.0403 1.07465,0.0625 1.4375,0.0625 l 0.59375,0 -0.0625,-0.59375 c -0.1791,-1.90826 -0.27215,-3.07908 -0.3125,-3.5625 -0.0193,-0.46315 -0.0312,-1.19829 -0.0312,-2.25 l 0,-6.125 0.53125,0 0.0312,0 1.5,0.125 0.625,0.0625 -0.0625,-0.65625 c -0.0191,-0.19082 -0.0439,-0.37466 -0.0625,-0.59375 l 0,-0.0312 c -1e-5,-0.24755 -1e-5,-0.48972 0,-0.71875 l 0,-0.59375 0,-0.75 -0.6875,0.25 -0.0937,0.0312 -0.0937,0.0312 c -0.68139,0.0751 -1.02767,0.14129 -1.1875,0.15625 -0.004,3.9e-4 -0.0274,-3e-4 -0.0312,0 l -0.78125,0 -0.0312,0 c -0.21947,-0.36139 -0.47228,-0.74652 -0.78125,-1.25 -0.006,-0.0108 0.006,-0.0206 0,-0.0312 -0.31279,-0.56462 -0.46876,-1.06153 -0.46875,-1.5 0,-0.3213 0.073,-0.44969 0.21875,-0.5625 0.14571,-0.11282 0.44932,-0.21874 0.9375,-0.21875 0.35808,2e-5 0.62107,0.0624 0.84375,0.1875 0.25471,0.12725 0.58619,0.36268 0.96875,0.6875 l 0.15625,0.125 0.1875,0 0.15625,0 0.4375,0 0.0937,-0.4375 c 0.15604,-0.75988 0.35025,-1.48661 0.53125,-2.25 0.19993,-0.77897 0.31789,-1.34229 0.40625,-1.625 l 0.18745,-0.53125 -0.53125,-0.15625 c -0.10014,-0.0286 -0.35021,-0.0856 -0.65625,-0.1875 l 0,-0.0312 -0.0312,0 c -0.33801,-0.0724 -0.76489,-0.0937 -1.25,-0.0937 z m -153.249995,0.21875 c -0.773287,2e-5 -1.496539,0.30965 -2.0625,0.875 -0.266848,0.26658 -0.47794,0.58105 -0.625,0.90625 l -0.75,0 c -0.184098,0 -0.561587,-0.0113 -1.03125,0.0312 -0.419159,0.0381 -0.690944,0.0611 -0.875,0.0625 l -0.03125,0 -1.5625,-0.0937 -0.46875,-0.0312 -0.09375,0.46875 c -0.09664,0.55985 -0.203642,1.10464 -0.375,1.65625 l -0.03125,0 c -0.150724,0.52696 -0.341738,1.08603 -0.5625,1.6875 l -3.15625,8.875 -3.34375,-8.8125 c -0.38935,-1.01122 -0.727389,-2.1378 -1.0625,-3.4375 l -0.125,-0.4375 -0.4375,0.0312 -2.689555,0.0933 c -0.0021,-4.5e-4 -0.118605,-0.0213 -0.310445,-0.0308 -0.212923,-0.0106 -0.528384,-0.0113 -0.9375,-0.0312 -0.833859,-0.0407 -1.451536,-0.0312 -1.78125,-0.0312 l -0.78125,0 0.28125,0.71875 5.9375,15.0625 c 0.436776,1.18999 0.769859,2.15192 1.03125,2.875 0.255569,0.70701 0.460037,1.39608 0.65625,2.0625 l 0.125,0.375 0.40625,0 c 0.09765,0 0.163438,0.0109 0.28125,0 0.117812,-0.0109 0.269242,-0.0425 0.46875,-0.0625 0.406271,-0.058 0.749133,-0.0937 0.9375,-0.0937 0.15871,0 0.351455,0.0252 0.625477,0.0532 0.274021,0.0281 0.545133,0.063 0.905773,0.103 l 0.46875,0.0625 0.125,-0.46875 c 0.45198,-1.74719 1.008858,-3.37767 1.65625,-4.90625 l 0,-0.0312 4,-10.1875 0,-0.0312 c 0.689555,-1.5925 1.427866,-3.15015 2.21875,-4.75 l 0.09375,-0.1875 c -0.03776,0.18535 -0.0625,0.36938 -0.0625,0.5625 -2e-6,0.78832 0.308679,1.48912 0.875,2.03125 0.568084,0.54387 1.295561,0.84377 2.0625,0.84375 0.782961,2e-5 1.486921,-0.29998 2.03125,-0.84375 0.55834,-0.55774 0.874993,-1.25875 0.875,-2.03125 -7e-6,-0.77248 -0.308389,-1.49645 -0.875,-2.0625 -0.557683,-0.55707 -1.257969,-0.87498 -2.03125,-0.875 z m 8.53125,0 c -0.773287,2e-5 -1.496539,0.30965 -2.0625,0.875 -0.566622,0.56605 -0.875002,1.29002 -0.875,2.0625 -2e-6,0.78832 0.308679,1.48912 0.875,2.03125 0.568084,0.54387 1.295561,0.84377 2.0625,0.84375 0.78296,2e-5 1.486921,-0.29998 2.03125,-0.84375 0.55834,-0.55774 0.874992,-1.25876 0.875,-2.03125 -8e-6,-0.77248 -0.308389,-1.49645 -0.875,-2.0625 -0.557683,-0.55707 -1.257969,-0.87498 -2.03125,-0.875 z m 149.937495,0 c -0.77329,2e-5 -1.49654,0.30965 -2.0625,0.875 -0.5666,0.56605 -0.875,1.29001 -0.875,2.0625 0,0.78833 0.3087,1.48913 0.875,2.03125 0.56808,0.54386 1.29556,0.84377 2.0625,0.84375 0.78296,2e-5 1.48692,-0.29998 2.03125,-0.84375 0.55834,-0.55774 0.87499,-1.25876 0.875,-2.03125 -1e-5,-0.77248 -0.30839,-1.49645 -0.875,-2.0625 -0.55769,-0.55707 -1.25797,-0.87498 -2.03125,-0.875 z m -70.499995,1.375 -0.125,0.375 c -0.55957,1.51727 -1.06691,2.94299 -1.5625,4.25 -0.4746,1.30379 -1.10614,2.90928 -1.84375,4.78125 -0.71678,1.84977 -1.30765,3.30234 -1.78125,4.40625 l -3,6.9375 -0.34375,0.84375 0.875,-0.0937 1.09375,-0.0937 1.90625,0.0937 0.40625,0.0312 0.125,-0.375 c 0.67284,-1.81106 1.26277,-3.56085 1.8125,-5.25 l 1.71875,-0.0937 c 0.0102,2.9e-4 0.021,-2.9e-4 0.0312,0 0.68665,0.0197 1.38508,0.0428 2.09375,0.0625 0.5945,0.0165 1.16747,0.0281 1.75,0.0312 l 1.03125,3.25 0.625,1.96875 0.125,0.40625 0.40625,-0.0312 2.875,-0.0937 0.0625,0 2.8125,0.0937 0.84375,0.0312 -0.31245,-0.78125 c -1.29337,-3.08094 -2.59053,-6.29788 -3.84375,-9.65625 -1.2548,-3.36251 -2.55102,-6.93597 -3.90625,-10.71875 l -0.125,-0.375 -0.40625,0.0312 -1.46875,0.0937 -1.46875,-0.0937 z m 37.156245,0.0312 c -3.54327,3e-5 -6.47645,0.93874 -8.71875,2.84375 -2.26019,1.89914 -3.37499,4.65414 -3.37499,8.09375 0,3.48658 1.01166,6.22607 3.09374,8.09375 2.0887,1.85467 4.94516,2.78125 8.46875,2.78125 3.62317,0 6.58284,-0.95154 8.75,-2.90625 2.19874,-1.98526 3.24998,-4.86656 3.25,-8.4375 -2e-5,-3.31802 -1.05778,-5.96113 -3.21875,-7.78125 -2.12366,-1.80636 -4.90656,-2.68747 -8.25,-2.6875 z m -56.249995,0.34375 -2.04396,0.0572 c -1.60646,0.0259 -1.92192,0.0252 -2.33104,0.005 -0.83386,-0.0407 -1.45154,-0.0312 -1.78125,-0.0312 l -0.78125,0 0.28125,0.71875 5.9375,15.0625 c 0.43678,1.18999 0.76986,2.15193 1.03125,2.875 0.25557,0.70701 0.46004,1.39609 0.65625,2.0625 l 0.125,0.375 0.40625,0 c 0.0977,0 0.16344,0.0109 0.28125,0 0.11781,-0.0109 0.26924,-0.0425 0.46875,-0.0625 0.40627,-0.058 0.74913,-0.0937 0.9375,-0.0937 0.15871,0 0.35145,0.0252 0.62708,0.0534 0.27563,0.0281 0.57809,0.0632 0.93532,0.1029 l 0.46875,0.0625 0.125,-0.46875 c 0.45346,-1.75293 0.97999,-3.3833 1.625,-4.90625 l 0,-0.0312 4,-10.1875 0,-0.0312 c 0.68955,-1.5925 1.42787,-3.15015 2.21875,-4.75 l 0.40625,-0.78125 -0.875,0 c -0.18409,0 -0.53262,-0.0111 -1,0.0312 -0.41743,0.038 -0.72017,0.0612 -0.82881,0.0618 l -1.67114,-0.0931 -0.46875,-0.0312 -0.0937,0.46875 c -0.0966,0.55985 -0.20364,1.10464 -0.375,1.65625 l -0.0312,0 c -0.15583,0.54482 -0.31618,1.10154 -0.53125,1.6875 l -3.1875,8.875 -3.3125,-8.8125 c -0.39274,-1.02002 -0.76063,-2.14554 -1.09375,-3.4375 z m 31.15625,0 0.0625,0.59375 c 0.15915,1.88803 0.27317,3.50443 0.3125,4.78125 0.0592,1.26119 0.0937,2.99363 0.0937,5.21875 -1e-5,2.12531 -0.0343,3.94402 -0.0937,5.46875 l 0,0.0312 c -0.0394,1.51617 -0.15426,2.9753 -0.3125,4.4375 l -0.0625,0.59375 0.59375,0 c 0.22459,0 0.79241,-0.0226 1.75,-0.0625 0.95097,-0.0594 1.74541,-0.0937 2.34375,-0.0937 0.34665,0 1.44744,0.034 3.28125,0.0937 l 0.0312,0 c 1.85579,0.0399 3.30233,0.0625 4.40625,0.0625 l 0.562505,0 -0.0312,-0.5625 -0.0625,-1.35156 0.0625,-1.36719 0.0312,-0.625 -0.625005,0.0625 c -1.94964,0.21842 -3.88545,0.32439 -5.84375,0.34375 -0.0319,-0.43373 -0.0626,-0.8635 -0.0625,-1.34375 l 0,-2.0625 0,-6.90625 c -1e-5,-2.35758 0.0839,-4.57782 0.28125,-6.6875 l 0.0625,-0.625 -0.59375,0.0312 -2.875,0.0625 -2.71875,-0.0625 z m 24.843745,2.625 c 1.85875,2e-5 3.12254,0.72906 4,2.28125 0.90928,1.60854 1.37498,3.4398 1.375,5.53125 -2e-5,2.17395 -0.46411,4.08175 -1.375,5.75 -0.87595,1.58603 -2.16927,2.3125 -4.09375,2.3125 -1.88372,0 -3.12114,-0.70826 -4,-2.28125 -0.91118,-1.64977 -1.375,-3.5129 -1.375,-5.625 0,-2.19452 0.46825,-4.08344 1.375,-5.6875 0.87633,-1.55023 2.14936,-2.28123 4.09375,-2.28125 z m -87.249995,2.75 c -2.492162,2e-5 -4.579527,0.68836 -6.125,2.125 -1.533906,1.42442 -2.28125,3.46018 -2.28125,5.9375 0,2.41861 0.74744,4.38565 2.257761,5.84586 1.510321,1.46022 3.528033,2.18539 5.929739,2.18539 2.49385,0 4.532097,-0.72114 6,-2.1875 1.466497,-1.46499 2.187484,-3.48434 2.1875,-5.9375 -1.6e-5,-2.34098 -0.738068,-4.29227 -2.21875,-5.75 -1.45854,-1.47842 -3.406579,-2.21873 -5.75,-2.21875 z m 19.09375,0.0625 c -0.95325,10e-6 -1.87793,0.25585 -2.78125,0.75 -0.524586,0.28698 -0.907775,0.71676 -1.34375,1.09375 l 0,-1.03125 0,-0.59375 -0.59375,0.0625 c -0.208132,0.0209 -0.495758,0.0709 -0.95563,0.098 -0.459873,0.0271 -0.941739,0.0271 -1.41937,0.027 -0.40835,2e-5 -0.662596,2e-5 -0.881304,-0.0117 -0.218707,-0.0117 -0.584095,-0.0562 -1.212446,-0.11331 l -0.59375,-0.0625 0,0.59375 c -2e-6,0.5305 0.04519,1.6411 0.125,3.375 0.07963,1.71008 0.124998,2.95215 0.125,3.6875 -2e-6,0.35759 -0.04529,1.4469 -0.125,3.21875 -0.0799,1.75583 -0.125002,3.10912 -0.125,4.0625 l 0,0.53125 0.53125,0 c 0.180975,0 0.494618,-0.0225 1.09375,-0.0625 l 0.03125,0 c 0.589771,-0.059 1.050059,-0.0937 1.375,-0.0937 0.01785,0 0.390913,0.034 0.997095,0.084 0.606182,0.05 1.077568,0.0722 1.440405,0.0722 l 0.53125,0 0,-0.53125 c -6e-6,-0.51192 -0.0452,-1.5645 -0.125,-3.21875 -0.05946,-1.64318 -0.06251,-2.95129 -0.0625,-3.90625 -1e-5,-0.72871 -0.0038,-1.34697 0.03125,-1.84375 5.94e-4,-0.008 -6.19e-4,-0.0229 0,-0.0312 0.05559,-0.47049 0.188153,-0.88732 0.34375,-1.25 0.144715,-0.35338 0.334205,-0.59823 0.59375,-0.78125 0.283063,-0.20421 0.562898,-0.31249 0.90625,-0.3125 0.53251,2e-5 0.81042,0.16257 1.09791,0.59668 0.28749,0.43411 0.43333,0.96007 0.43334,1.59082 l 0,0.0312 0,0.0312 c 0.0576,0.46052 0.0937,0.90152 0.0937,1.375 l 0,0.5625 c -10e-6,0.57031 -0.0454,1.70395 -0.125,3.375 -0.0599,1.67515 -0.0939,2.93013 -0.0937,3.78125 l 0,0.53125 0.53125,0 c 0.0977,0 0.15875,0.0107 0.34375,0 0.185,-0.0107 0.45223,-0.0426 0.78125,-0.0625 0.67484,-0.0397 1.15615,-0.0625 1.40625,-0.0625 0.25007,0 0.64297,0.023 1.15625,0.0625 0.52283,0.0403 0.89705,0.0625 1.1875,0.0625 l 0.53125,0 0,-0.53125 c -2e-5,-0.85588 -0.0451,-2.11346 -0.125,-3.75 -0.0595,-1.64479 -0.0625,-2.7479 -0.0625,-3.34375 l 0.0312,-3.125 c -2e-5,-1.43861 -0.51258,-2.65173 -1.46875,-3.5625 -0.9563,-0.91085 -2.19959,-1.37499 -3.625,-1.375 z m -59.84375,0.21875 0.0625,0.65625 0.25,2.625 0,8.90625 c 0,0.43014 -0.02547,0.87822 -0.0625,1.3125 -8.8e-4,0.0103 8.98e-4,0.021 0,0.0312 -0.03866,0.41783 -0.09786,0.87711 -0.15625,1.34375 l -0.09375,0.625 0.65625,-0.0312 2.4375,-0.0937 2.5,0.0937 0.625,0.0312 -0.0625,-0.625 c -0.117218,-1.19041 -0.179123,-2.19691 -0.21875,-3.0625 -1.64e-4,-0.007 1.63e-4,-0.024 0,-0.0312 -0.01944,-0.86841 -0.03126,-2.1215 -0.03125,-3.71875 l 0.03125,-4.8125 0,-0.0625 0.25,-2.53125 0.0625,-0.65625 -0.65625,0.0625 c -0.443233,0.0403 -0.878591,0.0856 -1.3125,0.125 -0.427387,0.0389 -0.798871,0.0625 -1.15625,0.0625 -0.327458,0 -0.722193,-0.0254 -1.15625,-0.0625 -0.01027,-9.3e-4 -0.02096,9.4e-4 -0.03125,0 -0.425944,-0.0388 -0.870873,-0.0859 -1.28125,-0.125 z m 8.53125,0 0.0625,0.65625 0.25,2.625 0,8.90625 c -2e-6,0.43014 -0.02546,0.87822 -0.0625,1.3125 -8.8e-4,0.0103 8.98e-4,0.021 0,0.0312 -0.03866,0.41783 -0.09786,0.87711 -0.15625,1.34375 l -0.09375,0.625 0.65625,-0.0312 2.4375,-0.0937 2.5,0.0937 0.625,0.0312 -0.0625,-0.625 c -0.118106,-1.19943 -0.21033,-2.2092 -0.25,-3.0625 -1.65e-4,-0.007 1.64e-4,-0.024 0,-0.0312 -0.01946,-0.86838 -0.03126,-2.12149 -0.03125,-3.71875 l 0.03125,-4.8125 0,-0.0625 0.28125,-2.53125 0.0625,-0.65625 -0.65625,0.0625 c -0.443234,0.0403 -0.878592,0.0856 -1.3125,0.125 -0.427387,0.0389 -0.798871,0.0625 -1.15625,0.0625 -0.327683,0 -0.753389,-0.0255 -1.1875,-0.0625 -0.01046,-9.5e-4 -0.0208,9.6e-4 -0.03125,0 -0.422143,-0.0386 -0.837405,-0.0857 -1.25,-0.125 z m 149.937495,0 0.0625,0.65625 0.25,2.625 0,8.90625 c 0,0.43016 -0.0254,0.87826 -0.0625,1.3125 -8.8e-4,0.0103 9e-4,0.021 0,0.0312 -0.0387,0.41782 -0.0979,0.87704 -0.15625,1.34375 l -0.0937,0.625 0.65625,-0.0312 2.40625,-0.0937 0.0625,0 2.46875,0.0937 0.625,0.0312 -0.0625,-0.625 c -0.11811,-1.19942 -0.2103,-2.20917 -0.25,-3.0625 -1.6e-4,-0.007 1.6e-4,-0.024 0,-0.0312 -0.0194,-0.86839 -0.0312,-2.12148 -0.0312,-3.71875 l 0.0312,-4.8125 0,-0.0625 0.28125,-2.53125 0.0625,-0.65625 -0.65625,0.0625 c -0.44324,0.0403 -0.87858,0.0856 -1.3125,0.125 -0.42737,0.0389 -0.79888,0.0625 -1.15625,0.0625 -0.32769,0 -0.75339,-0.0255 -1.1875,-0.0625 -0.0105,-9.5e-4 -0.0208,9.6e-4 -0.0312,0 -0.42214,-0.0386 -0.8374,-0.0857 -1.25,-0.125 z m -66.906245,2.15625 c 0.28011,0.68588 0.6069,1.42509 0.8125,1.96875 0.26189,0.69256 0.54656,1.51447 0.8125,2.34375 l -1.65625,0.0312 -1.59375,-0.0312 c 0.52501,-1.45653 1.0554,-2.89559 1.625,-4.3125 z m -51.03125,0.0937 c 0.635805,10e-6 1.029245,0.16046 1.3125,0.5 0.320454,0.38416 0.571583,0.92986 0.71875,1.625 8.22e-4,0.007 -8.13e-4,0.0246 0,0.0312 0.03445,0.28612 0.06526,0.73571 0.125,1.3125 0.05744,0.55476 0.09374,1.21865 0.09375,2 -10e-6,0.80166 -0.03595,1.497 -0.09375,2.09375 -0.05804,0.57978 -0.0914,0.9938 -0.125,1.28125 -0.14564,0.69102 -0.384828,1.27053 -0.71875,1.6875 -0.293847,0.35225 -0.683822,0.53125 -1.28125,0.53125 -0.620635,0 -1.002296,-0.19038 -1.34375,-0.5625 -0.332748,-0.40437 -0.555162,-0.91347 -0.686842,-1.79119 -0.131679,-0.87772 -0.250663,-1.99607 -0.250658,-3.17756 -5e-6,-1.04015 0.04772,-1.92286 0.125,-2.65625 0.07352,-0.69777 0.278574,-1.4085 0.59375,-2.09375 0.27238,-0.52809 0.685563,-0.78124 1.53125,-0.78125 z m 103.624995,7.40625 c -0.84366,10e-6 -1.62484,0.31296 -2.21875,0.90625 -0.58374,0.58314 -0.90625,1.32977 -0.90625,2.15625 0,0.85931 0.303,1.64023 0.90625,2.21875 0.59609,0.57164 1.38074,0.875 2.21875,0.875 0.82321,0 1.58004,-0.34709 2.15625,-0.96875 0.58895,-0.6336 0.90624,-1.38619 0.90625,-2.15625 -1e-5,-0.82233 -0.34578,-1.58002 -0.97474,-2.14325 -0.62896,-0.56323 -1.33313,-0.88799 -2.0877,-0.888 z"
         style="font-size:29.88940239px;font-style:normal;font-variant:normal;font-weight:bold;font-stretch:normal;text-align:center;line-height:125%;letter-spacing:0px;word-spacing:0px;text-anchor:middle;fill:#000000;fill-opacity:1;stroke:#000000;stroke-width:1.07569015;filter:url(#filter42093);font-family:MgOpen Cosmetica;-inkscape-font-specification:MgOpen Cosmetica Bold" />
      <path
         style="font-size:29.88940239px;font-style:normal;font-variant:normal;font-weight:bold;font-stretch:normal;text-align:center;line-height:125%;letter-spacing:0px;word-spacing:0px;text-anchor:middle;fill:url(#radialGradient49191);fill-opacity:1;stroke:#000000;stroke-width:1.07569015;font-family:MgOpen Cosmetica;-inkscape-font-specification:MgOpen Cosmetica Bold"
         d="m 59.65625,16.21875 0,0.59375 c -2e-6,0.32161 0.04525,1.71226 0.125,4.28125 0.09957,2.54635 0.156248,4.50658 0.15625,5.90625 -2e-6,0.27868 -0.05657,1.96995 -0.15625,4.9375 l 0,0.03125 c -0.07981,2.9496 -0.125002,5.23195 -0.125,6.875 l 0,0.5625 0.5625,-0.03125 2.375,-0.09375 2.3125,0.09375 0.5625,0.03125 0,-0.5625 c -1e-5,-0.19747 -0.02264,-1.13954 -0.0625,-3.03125 -0.01986,-0.94239 0.0028,-1.35416 0,-2.03125 0.309621,0.53703 0.535989,0.96781 0.90625,1.59375 0.795334,1.31095 1.535032,2.53369 2.1875,3.71875 l 0.15625,0.28125 0.3125,0 c 0.180974,0 0.4759,-0.0226 1.09375,-0.0625 l 0.03125,0 c 0.608967,-0.0589 1.100533,-0.09375 1.46875,-0.09375 0.01783,0 0.424785,0.03405 1.0625,0.09375 l 0.03125,0 c 0.662929,0.0402 1.193547,0.0625 1.59375,0.0625 l 0.96875,0 -0.5,-0.8125 -2.0625,-3.3125 C 71.401355,33.22931 70.311249,31.43194 69.375,29.78125 l 3,-2.96875 0,0.03125 1.875,-1.71875 0.3125,-0.3125 -0.21875,-0.375 -0.125,-0.21875 -0.15625,-0.28125 -0.34375,0.03125 -1.471536,0.06218 C 72.119428,24.03062 71.773794,24.0191 71.3125,24 70.831759,23.98 70.474917,23.96875 70.21875,23.96875 l -0.28125,0 -0.15625,0.21875 c -0.909564,1.28391 -1.761234,2.39493 -2.5625,3.3125 -0.538624,0.61681 -1.204561,1.15431 -1.84375,1.71875 l 0,-3.34375 c -6e-6,-0.89059 0.01427,-2.36483 0.09375,-4.46875 0.07982,-2.11323 0.124993,-3.65988 0.125,-4.59375 l 0,-0.59375 L 65,16.28125 c -0.757612,0.0777 -1.602261,0.12503 -2.5625,0.125 -0.817919,3e-5 -1.554176,-0.0483 -2.1875,-0.125 z m 139.25,0.0625 c -1.89879,4e-5 -3.48566,1.00109 -4.6875,2.8125 l 0,0.03125 c -1.05353,1.61624 -1.58398,3.29662 -1.6875,5.03125 -0.23525,-0.005 -0.48729,-0.01955 -0.6875,-0.03125 -0.29064,-0.0181 -0.59696,-0.0694 -0.875,-0.125 l -0.65625,-0.125 0.0312,0.6875 0.0312,0.90625 -0.0312,0.8125 -0.0312,0.59375 0.59375,-0.03125 0.96875,-0.03125 0.0625,0 0.5,0.03125 0,6.125 c 0,0.98767 -0.0228,2.0033 -0.0625,3.09375 -0.0394,1.08041 -0.12202,2.00307 -0.21875,2.71875 l -0.0937,0.59375 0.625,0 c 0.19762,0 0.55622,-0.0225 1.15625,-0.0625 l 0.0312,0 c 0.59044,-0.059 1.04074,-0.09375 1.34375,-0.09375 0.0178,0 0.39092,0.03405 0.96875,0.09375 l 0.0312,0 c 0.60328,0.0403 1.07465,0.0625 1.4375,0.0625 l 0.59375,0 -0.0625,-0.59375 c -0.1791,-1.90826 -0.27215,-3.07908 -0.3125,-3.5625 -0.0193,-0.46315 -0.0312,-1.19829 -0.0312,-2.25 l 0,-6.125 0.53125,0 0.0312,0 1.5,0.125 0.625,0.0625 -0.0625,-0.65625 c -0.0191,-0.19082 -0.0439,-0.37466 -0.0625,-0.59375 l 0,-0.03125 c -1e-5,-0.24755 -1e-5,-0.48972 0,-0.71875 l 0,-0.59375 0,-0.75 -0.6875,0.25 -0.0937,0.03125 L 199.53125,24 c -0.68139,0.0751 -1.02767,0.14129 -1.1875,0.15625 -0.004,3.9e-4 -0.0274,-3e-4 -0.0312,0 l -0.78125,0 -0.0312,0 c -0.21947,-0.36139 -0.47228,-0.74652 -0.78125,-1.25 -0.006,-0.0108 0.006,-0.02055 0,-0.03125 -0.31279,-0.56462 -0.46876,-1.06153 -0.46875,-1.5 0,-0.3213 0.073,-0.44969 0.21875,-0.5625 0.14571,-0.11282 0.44932,-0.21874 0.9375,-0.21875 0.35808,2e-5 0.62107,0.0624 0.84375,0.1875 0.25471,0.12725 0.58619,0.36268 0.96875,0.6875 l 0.15625,0.125 0.1875,0 0.15625,0 0.4375,0 0.0937,-0.4375 c 0.15604,-0.75988 0.35025,-1.48661 0.53125,-2.25 0.19993,-0.77897 0.31789,-1.34229 0.40625,-1.625 L 201.375,16.75 200.84375,16.59375 c -0.10014,-0.0286 -0.35021,-0.0856 -0.65625,-0.1875 l 0,-0.03125 -0.0312,0 c -0.33801,-0.0724 -0.76489,-0.09375 -1.25,-0.09375 z M 45.65625,16.5 c -0.773287,2e-5 -1.496539,0.30965 -2.0625,0.875 -0.266848,0.266579 -0.47794,0.581049 -0.625,0.90625 l -0.75,0 c -0.184098,0 -0.561587,-0.01125 -1.03125,0.03125 -0.419159,0.0381 -0.690944,0.0611 -0.875,0.0625 l -0.03125,0 -1.5625,-0.09375 L 38.25,18.25 38.15625,18.71875 c -0.09664,0.55985 -0.203642,1.10464 -0.375,1.65625 l -0.03125,0 c -0.150724,0.52696 -0.341738,1.08603 -0.5625,1.6875 L 34.03125,30.9375 30.6875,22.125 C 30.29815,21.11378 29.960111,19.9872 29.625,18.6875 L 29.5,18.25 l -0.4375,0.03125 -2.689555,0.0933 C 26.37089,18.3741 26.25434,18.35325 26.0625,18.34375 25.849577,18.33315 25.534116,18.3324 25.125,18.3125 24.291141,18.2718 23.673464,18.28125 23.34375,18.28125 l -0.78125,0 0.28125,0.71875 5.9375,15.0625 c 0.436776,1.18999 0.769859,2.15192 1.03125,2.875 0.255569,0.70701 0.460037,1.39608 0.65625,2.0625 l 0.125,0.375 0.40625,0 c 0.09765,0 0.163438,0.0109 0.28125,0 0.117812,-0.0109 0.269242,-0.0425 0.46875,-0.0625 0.406271,-0.058 0.749133,-0.09375 0.9375,-0.09375 0.15871,0 0.351455,0.0252 0.625477,0.05325 0.274021,0.02805 0.545133,0.063 0.905773,0.103 l 0.46875,0.0625 0.125,-0.46875 c 0.45198,-1.74719 1.008858,-3.37767 1.65625,-4.90625 l 0,-0.03125 4,-10.1875 0,-0.03125 c 0.689555,-1.5925 1.427866,-3.15015 2.21875,-4.75 l 0.09375,-0.1875 c -0.03776,0.185347 -0.0625,0.36938 -0.0625,0.5625 -2e-6,0.78832 0.308679,1.48912 0.875,2.03125 0.568084,0.54387 1.295561,0.84377 2.0625,0.84375 0.782961,2e-5 1.486921,-0.29998 2.03125,-0.84375 0.55834,-0.55774 0.874993,-1.25875 0.875,-2.03125 -7e-6,-0.77248 -0.308389,-1.49645 -0.875,-2.0625 -0.557683,-0.55707 -1.257969,-0.87498 -2.03125,-0.875 z m 8.53125,0 c -0.773287,2e-5 -1.496539,0.30965 -2.0625,0.875 -0.566622,0.56605 -0.875002,1.29002 -0.875,2.0625 -2e-6,0.78832 0.308679,1.48912 0.875,2.03125 0.568084,0.54387 1.295561,0.84377 2.0625,0.84375 0.78296,2e-5 1.486921,-0.29998 2.03125,-0.84375 0.55834,-0.55774 0.874992,-1.25876 0.875,-2.03125 -8e-6,-0.77248 -0.308389,-1.49645 -0.875,-2.0625 C 55.661067,16.81793 54.960781,16.50002 54.1875,16.5 z m 149.9375,0 c -0.77329,2e-5 -1.49654,0.30965 -2.0625,0.875 -0.5666,0.56605 -0.875,1.29001 -0.875,2.0625 0,0.78833 0.3087,1.48913 0.875,2.03125 0.56808,0.54386 1.29556,0.84377 2.0625,0.84375 0.78296,2e-5 1.48692,-0.29998 2.03125,-0.84375 0.55834,-0.55774 0.87499,-1.25876 0.875,-2.03125 -1e-5,-0.77248 -0.30839,-1.49645 -0.875,-2.0625 -0.55769,-0.55707 -1.25797,-0.87498 -2.03125,-0.875 z m -70.5,1.375 -0.125,0.375 c -0.55957,1.51727 -1.06691,2.94299 -1.5625,4.25 -0.4746,1.30379 -1.10614,2.90928 -1.84375,4.78125 -0.71678,1.84977 -1.30765,3.30234 -1.78125,4.40625 l -3,6.9375 -0.34375,0.84375 0.875,-0.09375 1.09375,-0.09375 1.90625,0.09375 0.40625,0.03125 0.125,-0.375 c 0.67284,-1.81106 1.26277,-3.56085 1.8125,-5.25 l 1.71875,-0.09375 c 0.0102,2.9e-4 0.021,-2.9e-4 0.0312,0 0.68665,0.0197 1.38508,0.0428 2.09375,0.0625 0.5945,0.0165 1.16747,0.02805 1.75,0.03125 l 1.03125,3.25 0.625,1.96875 0.125,0.40625 0.40625,-0.03125 2.875,-0.09375 0.0625,0 2.8125,0.09375 0.84375,0.03125 L 145.25,38.625 c -1.29337,-3.08094 -2.59053,-6.29788 -3.84375,-9.65625 C 140.15145,25.60624 138.85523,22.03278 137.5,18.25 l -0.125,-0.375 -0.40625,0.03125 L 135.5,18 134.03125,17.90625 z m 37.15625,0.03125 c -3.54327,3e-5 -6.47645,0.93874 -8.71875,2.84375 -2.2602,1.89914 -3.375,4.65414 -3.375,8.09375 0,3.48658 1.01166,6.22607 3.09375,8.09375 2.08869,1.85467 4.94516,2.78125 8.46875,2.78125 3.62317,0 6.58284,-0.95154 8.75,-2.90625 2.19873,-1.98526 3.24998,-4.86656 3.25,-8.4375 -2e-5,-3.31802 -1.05778,-5.96113 -3.21875,-7.78125 -2.12366,-1.80636 -4.90657,-2.68747 -8.25,-2.6875 z m -56.25,0.34375 -2.04396,0.0572 c -1.60646,0.02595 -1.92192,0.0252 -2.33104,0.0053 -0.83386,-0.0407 -1.45154,-0.03125 -1.78125,-0.03125 l -0.78125,0 L 107.875,19 l 5.9375,15.0625 c 0.43678,1.18999 0.76986,2.15193 1.03125,2.875 0.25557,0.70701 0.46004,1.39609 0.65625,2.0625 l 0.125,0.375 0.40625,0 c 0.0977,0 0.16344,0.0109 0.28125,0 0.11781,-0.0109 0.26924,-0.0425 0.46875,-0.0625 0.40627,-0.058 0.74913,-0.09375 0.9375,-0.09375 0.15871,0 0.35145,0.0252 0.62708,0.05335 0.27563,0.02815 0.57809,0.0632 0.93532,0.1029 l 0.46875,0.0625 0.125,-0.46875 c 0.45346,-1.75293 0.97999,-3.3833 1.625,-4.90625 l 0,-0.03125 4,-10.1875 0,-0.03125 c 0.68955,-1.5925 1.42787,-3.15015 2.21875,-4.75 l 0.40625,-0.78125 -0.875,0 c -0.18409,0 -0.53262,-0.01105 -1,0.03125 -0.41743,0.038 -0.72017,0.0612 -0.82881,0.06185 l -1.67114,-0.0931 -0.46875,-0.03125 -0.0937,0.46875 c -0.0966,0.55985 -0.20364,1.10464 -0.375,1.65625 l -0.0312,0 c -0.15583,0.54482 -0.31618,1.10154 -0.53125,1.6875 l -3.1875,8.875 -3.3125,-8.8125 c -0.39274,-1.02002 -0.76063,-2.14554 -1.09375,-3.4375 z m 31.15625,0 0.0625,0.59375 c 0.15915,1.88803 0.27317,3.50443 0.3125,4.78125 0.0592,1.26119 0.0937,2.99363 0.0937,5.21875 -1e-5,2.12531 -0.0343,3.94402 -0.0937,5.46875 l 0,0.03125 c -0.0394,1.51617 -0.15426,2.9753 -0.3125,4.4375 l -0.0625,0.59375 0.59375,0 c 0.22459,0 0.79241,-0.0226 1.75,-0.0625 0.95097,-0.0594 1.74541,-0.09375 2.34375,-0.09375 0.34665,0 1.44744,0.03405 3.28125,0.09375 l 0.0312,0 c 1.85579,0.0399 3.30233,0.0625 4.40625,0.0625 l 0.5625,0 -0.0312,-0.5625 -0.0625,-1.351563 0.0625,-1.367187 0.0312,-0.625 -0.625,0.0625 c -1.94964,0.21842 -3.88545,0.32439 -5.84375,0.34375 -0.0319,-0.43373 -0.0626,-0.8635 -0.0625,-1.34375 l 0,-2.0625 0,-6.90625 c -1e-5,-2.35758 0.0839,-4.57782 0.28125,-6.6875 l 0.0625,-0.625 -0.59375,0.03125 -2.875,0.0625 -2.71875,-0.0625 z m 24.84375,2.625 c 1.85874,2e-5 3.12254,0.72906 4,2.28125 0.90928,1.60854 1.37498,3.4398 1.375,5.53125 -2e-5,2.17395 -0.46411,4.08175 -1.375,5.75 -0.87596,1.58603 -2.16927,2.3125 -4.09375,2.3125 -1.88372,0 -3.12114,-0.70826 -4,-2.28125 -0.91118,-1.64977 -1.375,-3.5129 -1.375,-5.625 0,-2.19452 0.46824,-4.08344 1.375,-5.6875 0.87633,-1.55023 2.14936,-2.28123 4.09375,-2.28125 z m -87.25,2.75 c -2.492162,2e-5 -4.579527,0.68836 -6.125,2.125 -1.533906,1.42442 -2.28125,3.46018 -2.28125,5.9375 0,2.41861 0.74744,4.38565 2.257761,5.845865 1.510321,1.460215 3.528033,2.185385 5.929739,2.185385 2.49385,0 4.532097,-0.72114 6,-2.1875 1.466497,-1.46499 2.187484,-3.48434 2.1875,-5.9375 -1.6e-5,-2.34098 -0.738068,-4.29227 -2.21875,-5.75 -1.45854,-1.47842 -3.406579,-2.21873 -5.75,-2.21875 z m 19.09375,0.0625 c -0.95325,10e-6 -1.87793,0.25585 -2.78125,0.75 -0.524586,0.28698 -0.907775,0.71676 -1.34375,1.09375 l 0,-1.03125 0,-0.59375 -0.59375,0.0625 c -0.208132,0.0209 -0.495758,0.0709 -0.95563,0.09796 -0.459873,0.02706 -0.941739,0.02706 -1.41937,0.02704 -0.40835,2e-5 -0.662596,2e-5 -0.881304,-0.01169 -0.218707,-0.01171 -0.584095,-0.05621 -1.212446,-0.11331 l -0.59375,-0.0625 0,0.59375 c -2e-6,0.5305 0.04519,1.6411 0.125,3.375 0.07963,1.71008 0.124998,2.95215 0.125,3.6875 -2e-6,0.35759 -0.04529,1.4469 -0.125,3.21875 -0.0799,1.75583 -0.125002,3.10912 -0.125,4.0625 l 0,0.53125 0.53125,0 c 0.180975,0 0.494618,-0.0225 1.09375,-0.0625 l 0.03125,0 c 0.589771,-0.059 1.050059,-0.09375 1.375,-0.09375 0.01785,0 0.390913,0.03405 0.997095,0.08405 0.606182,0.05 1.077568,0.0722 1.440405,0.0722 l 0.53125,0 0,-0.53125 c -6e-6,-0.51192 -0.0452,-1.5645 -0.125,-3.21875 -0.05946,-1.64318 -0.06251,-2.95129 -0.0625,-3.90625 -1e-5,-0.72871 -0.0038,-1.34697 0.03125,-1.84375 5.94e-4,-0.008 -6.19e-4,-0.02295 0,-0.03125 0.05559,-0.47049 0.188153,-0.88732 0.34375,-1.25 0.144715,-0.35338 0.334205,-0.59823 0.59375,-0.78125 0.283063,-0.20421 0.562898,-0.31249 0.90625,-0.3125 0.53251,2e-5 0.81042,0.16257 1.09791,0.59668 0.28749,0.43411 0.43333,0.96007 0.43334,1.59082 l 0,0.03125 0,0.03125 c 0.0576,0.46052 0.0937,0.90152 0.0937,1.375 l 0,0.5625 c -1e-5,0.57031 -0.0454,1.70395 -0.125,3.375 -0.0599,1.67515 -0.0939,2.93013 -0.0937,3.78125 l 0,0.53125 0.53125,0 c 0.0977,0 0.15875,0.0107 0.34375,0 0.185,-0.0107 0.45223,-0.0426 0.78125,-0.0625 0.67484,-0.0397 1.15615,-0.0625 1.40625,-0.0625 0.25007,0 0.64297,0.023 1.15625,0.0625 0.52283,0.0403 0.89705,0.0625 1.1875,0.0625 l 0.53125,0 0,-0.53125 c -2e-5,-0.85588 -0.0451,-2.11346 -0.125,-3.75 -0.0595,-1.64479 -0.0625,-2.7479 -0.0625,-3.34375 l 0.0312,-3.125 c -2e-5,-1.43861 -0.51258,-2.65173 -1.46875,-3.5625 -0.9563,-0.91085 -2.19959,-1.37499 -3.625,-1.375 z m -59.84375,0.21875 0.0625,0.65625 0.25,2.625 0,8.90625 c 0,0.43014 -0.02547,0.87822 -0.0625,1.3125 -8.8e-4,0.0103 8.98e-4,0.02095 0,0.03125 -0.03866,0.41783 -0.09786,0.87711 -0.15625,1.34375 l -0.09375,0.625 0.65625,-0.03125 2.4375,-0.09375 2.5,0.09375 0.625,0.03125 -0.0625,-0.625 c -0.117218,-1.19041 -0.179123,-2.19691 -0.21875,-3.0625 -1.64e-4,-0.007 1.63e-4,-0.02405 0,-0.03125 -0.01944,-0.86841 -0.03126,-2.1215 -0.03125,-3.71875 l 0.03125,-4.8125 0,-0.0625 0.25,-2.53125 0.0625,-0.65625 -0.65625,0.0625 c -0.443233,0.0403 -0.878591,0.0856 -1.3125,0.125 -0.427387,0.0389 -0.798871,0.0625 -1.15625,0.0625 -0.327458,0 -0.722193,-0.0254 -1.15625,-0.0625 -0.01027,-9.3e-4 -0.02096,9.4e-4 -0.03125,0 -0.425944,-0.0388 -0.870873,-0.0859 -1.28125,-0.125 z m 8.53125,0 0.0625,0.65625 0.25,2.625 0,8.90625 c -2e-6,0.43014 -0.02546,0.87822 -0.0625,1.3125 -8.8e-4,0.0103 8.98e-4,0.02095 0,0.03125 -0.03866,0.41783 -0.09786,0.87711 -0.15625,1.34375 l -0.09375,0.625 0.65625,-0.03125 2.4375,-0.09375 2.5,0.09375 0.625,0.03125 -0.0625,-0.625 c -0.118106,-1.19943 -0.21033,-2.2092 -0.25,-3.0625 -1.65e-4,-0.007 1.64e-4,-0.02405 0,-0.03125 -0.01946,-0.86838 -0.03126,-2.12149 -0.03125,-3.71875 l 0.03125,-4.8125 0,-0.0625 0.28125,-2.53125 0.0625,-0.65625 -0.65625,0.0625 c -0.443234,0.0403 -0.878592,0.0856 -1.3125,0.125 -0.427387,0.0389 -0.798871,0.0625 -1.15625,0.0625 -0.327683,0 -0.753389,-0.0255 -1.1875,-0.0625 -0.01046,-9.5e-4 -0.0208,9.6e-4 -0.03125,0 -0.422143,-0.0386 -0.837405,-0.0857 -1.25,-0.125 z m 149.9375,0 0.0625,0.65625 0.25,2.625 0,8.90625 c 0,0.43016 -0.0254,0.87826 -0.0625,1.3125 -8.8e-4,0.0103 9e-4,0.02095 0,0.03125 -0.0387,0.41782 -0.0979,0.87704 -0.15625,1.34375 l -0.0937,0.625 0.65625,-0.03125 2.40625,-0.09375 0.0625,0 2.46875,0.09375 0.625,0.03125 -0.0625,-0.625 c -0.11811,-1.19942 -0.2103,-2.20917 -0.25,-3.0625 -1.6e-4,-0.007 1.6e-4,-0.02405 0,-0.03125 -0.0194,-0.86839 -0.0312,-2.12148 -0.0312,-3.71875 l 0.0312,-4.8125 0,-0.0625 0.28125,-2.53125 0.0625,-0.65625 -0.65625,0.0625 c -0.44324,0.0403 -0.87858,0.0856 -1.3125,0.125 -0.42737,0.0389 -0.79888,0.0625 -1.15625,0.0625 -0.32769,0 -0.75339,-0.0255 -1.1875,-0.0625 -0.0105,-9.5e-4 -0.0208,9.6e-4 -0.0312,0 -0.42214,-0.0386 -0.8374,-0.0857 -1.25,-0.125 z m -66.90625,2.15625 c 0.28011,0.68588 0.6069,1.42509 0.8125,1.96875 0.26189,0.69256 0.54656,1.51447 0.8125,2.34375 l -1.65625,0.03125 -1.59375,-0.03125 c 0.52501,-1.45653 1.0554,-2.89559 1.625,-4.3125 z M 83.0625,26.15625 c 0.635805,10e-6 1.029245,0.16046 1.3125,0.5 0.320454,0.38416 0.571583,0.92986 0.71875,1.625 8.22e-4,0.007 -8.13e-4,0.02455 0,0.03125 0.03445,0.28612 0.06526,0.73571 0.125,1.3125 0.05744,0.55476 0.09374,1.21865 0.09375,2 -1e-5,0.80166 -0.03595,1.497 -0.09375,2.09375 -0.05804,0.57978 -0.0914,0.9938 -0.125,1.28125 -0.14564,0.69102 -0.384828,1.27053 -0.71875,1.6875 -0.293847,0.35225 -0.683822,0.53125 -1.28125,0.53125 -0.620635,0 -1.002296,-0.19038 -1.34375,-0.5625 -0.332748,-0.40437 -0.555162,-0.91347 -0.686842,-1.79119 -0.131679,-0.87772 -0.250663,-1.99607 -0.250658,-3.17756 -5e-6,-1.04015 0.04772,-1.92286 0.125,-2.65625 0.07352,-0.69777 0.278574,-1.4085 0.59375,-2.09375 0.27238,-0.52809 0.685563,-0.78124 1.53125,-0.78125 z m 103.625,7.40625 c -0.84366,1e-5 -1.62484,0.31296 -2.21875,0.90625 -0.58374,0.58314 -0.90625,1.32977 -0.90625,2.15625 0,0.85931 0.303,1.64023 0.90625,2.21875 0.59609,0.57164 1.38074,0.875 2.21875,0.875 0.8232,0 1.58004,-0.34709 2.15625,-0.96875 0.58895,-0.6336 0.90624,-1.38619 0.90625,-2.15625 -1e-5,-0.82233 -0.34578,-1.58002 -0.97474,-2.14325 -0.62896,-0.56323 -1.33314,-0.88799 -2.08771,-0.888 z"
         transform="translate(-60.419925,270.01538)"
         id="path42029"
         inkscape:connector-curvature="0"
         sodipodi:nodetypes="cscsccsccccccsccccsccsccsccccccccccccccsccscsssccccccccccccccccccccscccsccsccscccscccccccccccccccccccccccccccccccccccccccccscccccccccccccccccsccccccsscsccccccccccsccccccccsccccccccsccccccccccccccccccccccccccccccccsccccccccscscccccccsccccccsscsccccccccccscccccccccccccccsccccscsccscccccccccsccccccccccscsscccsccsccccccccccccccscscscsccscccccccccccccccsccccsscscscccccccccccccccccccccccccccccsccccccccccccccccccccccccccscccccccccccccccccccccccccccsccccccccccccsccccccscccccccscssccccccc" />
    </g>
  </g>
</svg>
