<?xml version="1.0" encoding="UTF-8" standalone="no"?>
<!-- Created with Inkscape (http://www.inkscape.org/) -->

<svg
   xmlns:ns0="http://www.iki.fi/pav/software/textext/"
   xmlns:osb="http://www.openswatchbook.org/uri/2009/osb"
   xmlns:dc="http://purl.org/dc/elements/1.1/"
   xmlns:cc="http://creativecommons.org/ns#"
   xmlns:rdf="http://www.w3.org/1999/02/22-rdf-syntax-ns#"
   xmlns:svg="http://www.w3.org/2000/svg"
   xmlns="http://www.w3.org/2000/svg"
   xmlns:xlink="http://www.w3.org/1999/xlink"
   xmlns:sodipodi="http://sodipodi.sourceforge.net/DTD/sodipodi-0.dtd"
   xmlns:inkscape="http://www.inkscape.org/namespaces/inkscape"
   width="308.84375"
   height="170.65625"
   id="svg9857"
   version="1.1"
   inkscape:version="0.48.4 r9939"
   sodipodi:docname="2013-valo129-graph.tk.svg"
   inkscape:export-filename="/home/pesasa/svnrepos/drawings/www/viikonvalo/valo129-graph.tk.png"
   inkscape:export-xdpi="58.279999"
   inkscape:export-ydpi="58.279999">
  <sodipodi:namedview
     id="base"
     pagecolor="#ffffff"
     bordercolor="#666666"
     borderopacity="1.0"
     inkscape:pageopacity="0.0"
     inkscape:pageshadow="2"
     inkscape:zoom="2.1242404"
     inkscape:cx="130.26398"
     inkscape:cy="167.74363"
     inkscape:document-units="px"
     inkscape:current-layer="layer1"
     showgrid="false"
     fit-margin-top="0"
     fit-margin-left="0"
     fit-margin-right="0"
     fit-margin-bottom="0"
     inkscape:window-width="1920"
     inkscape:window-height="1114"
     inkscape:window-x="-8"
     inkscape:window-y="-4"
     inkscape:window-maximized="1">
    <inkscape:grid
       snapvisiblegridlinesonly="true"
       enabled="true"
       visible="true"
       empspacing="5"
       id="grid4787"
       type="xygrid" />
  </sodipodi:namedview>
  <defs
     id="defs9859">
    <linearGradient
       id="linearGradient14486">
      <stop
         style="stop-color:#ffffff;stop-opacity:1"
         offset="0"
         id="stop14488" />
      <stop
         style="stop-color:#d2d2d2;stop-opacity:1"
         offset="1"
         id="stop14490" />
    </linearGradient>
    <radialGradient
       r="258.02078"
       fy="479.36584"
       fx="787.22473"
       cy="479.36584"
       cx="787.22473"
       gradientTransform="matrix(0.69719883,1.0793933,-1.1943603,0.77297612,832.93918,-733.53466)"
       gradientUnits="userSpaceOnUse"
       id="radialGradient38317"
       xlink:href="#linearGradient38277"
       inkscape:collect="always" />
    <linearGradient
       id="linearGradient38277">
      <stop
         id="stop38279"
         offset="0"
         style="stop-color:#87aade;stop-opacity:1" />
      <stop
         id="stop38281"
         offset="1"
         style="stop-color:#162d50;stop-opacity:1" />
    </linearGradient>
    <linearGradient
       y2="4.9912353"
       x2="136.37059"
       y1="83.783127"
       x1="161.11934"
       gradientUnits="userSpaceOnUse"
       id="linearGradient38319"
       xlink:href="#linearGradient38300"
       inkscape:collect="always" />
    <linearGradient
       id="linearGradient38300"
       inkscape:collect="always">
      <stop
         id="stop38302"
         offset="0"
         style="stop-color:#ffffff;stop-opacity:1;" />
      <stop
         id="stop38304"
         offset="1"
         style="stop-color:#ffffff;stop-opacity:0" />
    </linearGradient>
    <filter
       id="filter38253"
       inkscape:collect="always"
       color-interpolation-filters="sRGB">
      <feGaussianBlur
         id="feGaussianBlur38255"
         stdDeviation="3.7990597"
         inkscape:collect="always" />
    </filter>
    <linearGradient
       id="linearGradient38257"
       inkscape:collect="always">
      <stop
         id="stop38259"
         offset="0"
         style="stop-color:#ffe680;stop-opacity:1" />
      <stop
         id="stop38261"
         offset="1"
         style="stop-color:#ffcc00;stop-opacity:1" />
    </linearGradient>
    <radialGradient
       r="121.0625"
       fy="111.79336"
       fx="204.84595"
       cy="111.79336"
       cx="204.84595"
       gradientTransform="matrix(-0.51080991,-0.39352661,0.36619486,-0.47533151,176.33119,204.40239)"
       gradientUnits="userSpaceOnUse"
       id="radialGradient39592"
       xlink:href="#linearGradient38257"
       inkscape:collect="always" />
    <filter
       height="1.2054614"
       y="-0.10273071"
       width="1.0626322"
       x="-0.031316078"
       id="filter40112"
       inkscape:collect="always">
      <feGaussianBlur
         id="feGaussianBlur40114"
         stdDeviation="2.401374"
         inkscape:collect="always" />
    </filter>
    <style
       type="text/css"
       id="style6654">
   
    .str1 {stroke:#1F1A17;stroke-width:0.0286362}
    .str0 {stroke:white;stroke-width:0.0286362}
    .fil2 {fill:#1F1A17}
    .fil0 {fill:#EAE342}
    .fil1 {fill:white}
   
  </style>
    <linearGradient
       osb:paint="solid"
       id="linearGradient4165">
      <stop
         id="stop4167"
         offset="0"
         style="stop-color:#4d4d4d;stop-opacity:1;" />
    </linearGradient>
    <linearGradient
       osb:paint="solid"
       id="linearGradient4171">
      <stop
         id="stop4173"
         offset="0"
         style="stop-color:#999999;stop-opacity:1;" />
    </linearGradient>
    <linearGradient
       osb:paint="solid"
       id="linearGradient4177">
      <stop
         id="stop4179"
         offset="0"
         style="stop-color:#000000;stop-opacity:1;" />
    </linearGradient>
    <filter
       id="filter6087"
       inkscape:collect="always">
      <feGaussianBlur
         id="feGaussianBlur6089"
         stdDeviation="0.3098678"
         inkscape:collect="always" />
    </filter>
    <filter
       color-interpolation-filters="sRGB"
       inkscape:collect="always"
       id="filter40130"
       x="-0.051605642"
       width="1.1032113"
       y="-0.11904688"
       height="1.2380939">
      <feGaussianBlur
         inkscape:collect="always"
         stdDeviation="1.9055437"
         id="feGaussianBlur40132" />
    </filter>
    <linearGradient
       inkscape:collect="always"
       xlink:href="#linearGradient6091-4"
       id="linearGradient6097-7"
       x1="502.35776"
       y1="215.35515"
       x2="502.35776"
       y2="247.32196"
       gradientUnits="userSpaceOnUse" />
    <linearGradient
       inkscape:collect="always"
       id="linearGradient6091-4">
      <stop
         style="stop-color:#ffffff;stop-opacity:1"
         offset="0"
         id="stop6093-6" />
      <stop
         style="stop-color:#d2d2d2;stop-opacity:1"
         offset="1"
         id="stop6095-0" />
    </linearGradient>
    <linearGradient
       inkscape:collect="always"
       xlink:href="#linearGradient14486"
       id="linearGradient3377"
       gradientUnits="userSpaceOnUse"
       x1="35.336468"
       y1="395.6817"
       x2="35.336468"
       y2="419.84171" />
    <linearGradient
       id="linearGradient2591">
      <stop
         id="stop2593"
         offset="0.0000000"
         style="stop-color:#7a7a7a;stop-opacity:1.0000000;" />
      <stop
         id="stop2595"
         offset="1.0000000"
         style="stop-color:#000000;stop-opacity:1.0000000;" />
    </linearGradient>
    <linearGradient
       id="linearGradient3301">
      <stop
         style="stop-color:#ffffff;stop-opacity:1.0000000;"
         offset="0.0000000"
         id="stop3303" />
      <stop
         style="stop-color:#cbcbcb;stop-opacity:1.0000000;"
         offset="1.0000000"
         id="stop3305" />
    </linearGradient>
    <linearGradient
       id="linearGradient2230">
      <stop
         id="stop2232"
         offset="0"
         style="stop-color:#eeeeee;stop-opacity:1;" />
      <stop
         id="stop2234"
         offset="1.0000000"
         style="stop-color:#a2a2a2;stop-opacity:1.0000000;" />
    </linearGradient>
    <linearGradient
       id="linearGradient2268">
      <stop
         style="stop-color:#555753;stop-opacity:1;"
         offset="0"
         id="stop2270" />
      <stop
         style="stop-opacity:1.0000000;stop-color:#141514"
         offset="1.0000000"
         id="stop2272" />
    </linearGradient>
    <linearGradient
       id="linearGradient2290">
      <stop
         style="stop-color:#555753;stop-opacity:1;"
         offset="0"
         id="stop2292" />
      <stop
         style="stop-color:#313330;stop-opacity:1.0000000;"
         offset="1.0000000"
         id="stop2294" />
    </linearGradient>
    <linearGradient
       id="linearGradient2304">
      <stop
         style="stop-color:#353633;stop-opacity:1.0000000;"
         offset="0.0000000"
         id="stop2306" />
      <stop
         style="stop-color:#676964;stop-opacity:1.0000000;"
         offset="1.0000000"
         id="stop2308" />
    </linearGradient>
    <linearGradient
       id="linearGradient2615">
      <stop
         style="stop-color:#363d40;stop-opacity:1.0000000;"
         offset="0.0000000"
         id="stop2617-3" />
      <stop
         id="stop2623-5"
         offset="0.50000000"
         style="stop-color:#818f95;stop-opacity:1.0000000;" />
      <stop
         style="stop-color:#31383b;stop-opacity:1.0000000;"
         offset="1.0000000"
         id="stop2619-9" />
    </linearGradient>
    <linearGradient
       id="linearGradient2631">
      <stop
         style="stop-color:#010101;stop-opacity:1.0000000;"
         offset="0.0000000"
         id="stop2633" />
      <stop
         style="stop-color:#959595;stop-opacity:1.0000000;"
         offset="1.0000000"
         id="stop2635" />
    </linearGradient>
    <linearGradient
       id="linearGradient2673">
      <stop
         style="stop-color:#8b8b8b;stop-opacity:1.0000000;"
         offset="0.0000000"
         id="stop2675" />
      <stop
         id="stop2681"
         offset="0.50000000"
         style="stop-color:#d3d9da;stop-opacity:1.0000000;" />
      <stop
         style="stop-color:#828282;stop-opacity:1.0000000;"
         offset="1.0000000"
         id="stop2677" />
    </linearGradient>
    <linearGradient
       id="linearGradient5048-8">
      <stop
         id="stop5050-4"
         offset="0"
         style="stop-color:black;stop-opacity:0;" />
      <stop
         style="stop-color:black;stop-opacity:1;"
         offset="0.5"
         id="stop5056-7" />
      <stop
         id="stop5052-0"
         offset="1"
         style="stop-color:black;stop-opacity:0;" />
    </linearGradient>
    <clipPath
       id="clipPath3271"
       clipPathUnits="userSpaceOnUse">
      <rect
         clip-path="none"
         style="fill:#ffff00;fill-opacity:1;stroke:none;stroke-width:0.74558502;stroke-miterlimit:4;stroke-dasharray:none"
         id="rect3273"
         width="1023.9577"
         height="426.74115"
         x="-152.73926"
         y="126.56609" />
    </clipPath>
    <radialGradient
       r="512.5"
       fy="645.59369"
       fx="49.142845"
       cy="645.59369"
       cx="49.142845"
       gradientTransform="matrix(1.0721778,0,0,0.5564061,12.349261,104.98626)"
       gradientUnits="userSpaceOnUse"
       id="radialGradient2572"
       xlink:href="#linearGradient3325"
       inkscape:collect="always" />
    <linearGradient
       id="linearGradient3325"
       inkscape:collect="always">
      <stop
         id="stop3327"
         offset="0"
         style="stop-color:#ffff00;stop-opacity:1;" />
      <stop
         id="stop3329"
         offset="1"
         style="stop-color:#ffff00;stop-opacity:0;" />
    </linearGradient>
    <linearGradient
       id="linearGradient2600-8">
      <stop
         id="stop2602"
         offset="0.0000000"
         style="stop-color:#000000;stop-opacity:1.0000000;" />
      <stop
         style="stop-color:#424242;stop-opacity:1.0000000;"
         offset="0.50000000"
         id="stop2380" />
      <stop
         id="stop2604"
         offset="1.0000000"
         style="stop-color:#7c7c7c;stop-opacity:1.0000000;" />
    </linearGradient>
    <linearGradient
       id="linearGradient2610">
      <stop
         id="stop2612"
         offset="0.0000000"
         style="stop-color:#3c3c3c;stop-opacity:1.0000000;" />
      <stop
         id="stop2614"
         offset="1.0000000"
         style="stop-color:#585858;stop-opacity:1.0000000;" />
    </linearGradient>
    <linearGradient
       id="linearGradient2831">
      <stop
         id="stop2833"
         offset="0.0000000"
         style="stop-color:#000000;stop-opacity:0.0000000;" />
      <stop
         style="stop-color:#4d4d4d;stop-opacity:0.88165683;"
         offset="0.77570093"
         id="stop2839" />
      <stop
         id="stop2835"
         offset="1.0000000"
         style="stop-color:#595959;stop-opacity:0.0000000;" />
    </linearGradient>
    <linearGradient
       id="linearGradient2384">
      <stop
         style="stop-color:#b6b6b6;stop-opacity:1;"
         offset="0"
         id="stop2386" />
      <stop
         style="stop-color:#6a6a6a;stop-opacity:1.0000000;"
         offset="1.0000000"
         id="stop2388" />
    </linearGradient>
    <linearGradient
       id="linearGradient2563">
      <stop
         style="stop-color:#e7e7e7;stop-opacity:1;"
         offset="0"
         id="stop2565" />
      <stop
         style="stop-color:#a0a0a0;stop-opacity:1.0000000;"
         offset="1.0000000"
         id="stop2567" />
    </linearGradient>
    <linearGradient
       id="linearGradient2571">
      <stop
         style="stop-color:#fff7b1;stop-opacity:1.0000000;"
         offset="0.0000000"
         id="stop2573" />
      <stop
         id="stop2579"
         offset="0.50000000"
         style="stop-color:#ecd300;stop-opacity:1.0000000;" />
      <stop
         style="stop-color:#b5a200;stop-opacity:1.0000000;"
         offset="1.0000000"
         id="stop2575" />
    </linearGradient>
    <linearGradient
       id="linearGradient2633">
      <stop
         style="stop-color:#2a2500;stop-opacity:1.0000000;"
         offset="0.0000000"
         id="stop2635-7" />
      <stop
         style="stop-color:#6e6200;stop-opacity:1.0000000;"
         offset="1.0000000"
         id="stop2637" />
    </linearGradient>
    <linearGradient
       id="linearGradient2641">
      <stop
         style="stop-color:#393939;stop-opacity:1.0000000;"
         offset="0.0000000"
         id="stop2643" />
      <stop
         id="stop2649"
         offset="0.15887851"
         style="stop-color:#747474;stop-opacity:1.0000000;" />
      <stop
         style="stop-color:#000000;stop-opacity:1.0000000;"
         offset="1.0000000"
         id="stop2645" />
    </linearGradient>
    <linearGradient
       id="linearGradient2697">
      <stop
         style="stop-color:#222222;stop-opacity:1;"
         offset="0"
         id="stop2699" />
      <stop
         style="stop-color:#afafaf;stop-opacity:1.0000000;"
         offset="1.0000000"
         id="stop2701" />
    </linearGradient>
    <clipPath
       id="clipPath3001"
       clipPathUnits="userSpaceOnUse">
      <path
         id="path3003"
         d="M 0,0 0,783 585,783 585,0 0,0 z"
         inkscape:connector-curvature="0" />
    </clipPath>
    <clipPath
       id="clipPath3011"
       clipPathUnits="userSpaceOnUse">
      <path
         id="path3013"
         d="M 0,0 639,0 639,783 0,783 0,0 z"
         inkscape:connector-curvature="0" />
    </clipPath>
    <clipPath
       id="clipPath3021"
       clipPathUnits="userSpaceOnUse">
      <path
         id="path3023"
         d="m 27,0 0,783 612,0 L 639,0 27,0 z"
         inkscape:connector-curvature="0" />
    </clipPath>
    <clipPath
       id="clipPath3031"
       clipPathUnits="userSpaceOnUse">
      <path
         id="path3033"
         d="M 0,0 720,0 720,891 0,891 0,0 z"
         inkscape:connector-curvature="0" />
    </clipPath>
    <clipPath
       id="clipPath3043"
       clipPathUnits="userSpaceOnUse">
      <path
         id="path3045"
         d="m 45,846 630,0 0,-801 -630,0 0,801 z"
         inkscape:connector-curvature="0" />
    </clipPath>
    <clipPath
       id="clipPath3051"
       clipPathUnits="userSpaceOnUse">
      <path
         id="path3053"
         d="m 0,891.015 720,0 0,-891 -720,0 0,891 z"
         inkscape:connector-curvature="0" />
    </clipPath>
    <clipPath
       id="clipPath3061"
       clipPathUnits="userSpaceOnUse">
      <path
         id="path3063"
         clip-rule="evenodd"
         d="m 60,446 549,0 0,-52 -549,0 0,52 z"
         inkscape:connector-curvature="0" />
    </clipPath>
    <clipPath
       id="clipPath3073"
       clipPathUnits="userSpaceOnUse">
      <path
         id="path3075"
         clip-rule="evenodd"
         d="m 583.002,411.929 -495.715,0 0,20.783 495.715,0 c 5.547,0 10.045,-4.653 10.045,-10.392 0,-5.739 -4.498,-10.391 -10.045,-10.391"
         inkscape:connector-curvature="0" />
    </clipPath>
    <clipPath
       id="clipPath3085"
       clipPathUnits="userSpaceOnUse">
      <path
         id="path3087"
         clip-rule="evenodd"
         d="m 583,411.929 -495.714,0 0,20.783 495.714,0 c 5.549,0 10.047,-4.653 10.047,-10.392 0,-5.739 -4.498,-10.391 -10.047,-10.391"
         inkscape:connector-curvature="0" />
    </clipPath>
    <clipPath
       id="clipPath3093"
       clipPathUnits="userSpaceOnUse">
      <path
         id="path3095"
         clip-rule="evenodd"
         d="m 583.002,411.929 -495.715,0 0,20.783 495.715,0 c 5.547,0 10.045,-4.653 10.045,-10.392 0,-5.739 -4.498,-10.391 -10.045,-10.391"
         inkscape:connector-curvature="0" />
    </clipPath>
    <clipPath
       id="clipPath3113"
       clipPathUnits="userSpaceOnUse">
      <path
         id="path3115"
         d="m 45,846 630,0 0,-801 -630,0 0,801 z"
         inkscape:connector-curvature="0" />
    </clipPath>
    <clipPath
       id="clipPath3121"
       clipPathUnits="userSpaceOnUse">
      <path
         id="path3123"
         d="m 0,891.015 720,0 0,-891 -720,0 0,891 z"
         inkscape:connector-curvature="0" />
    </clipPath>
    <clipPath
       id="clipPath3131"
       clipPathUnits="userSpaceOnUse">
      <path
         id="path3133"
         clip-rule="evenodd"
         d="m 58.62,815.78 550,0 0,-51.28 -550,0 0,51.28 z"
         inkscape:connector-curvature="0" />
    </clipPath>
    <clipPath
       id="clipPath3143"
       clipPathUnits="userSpaceOnUse">
      <path
         id="path3145"
         clip-rule="evenodd"
         d="m 582.612,782.41 -495.466,0 0,20.618 495.466,0 c 5.675,0 10.276,-4.615 10.276,-10.309 0,-5.694 -4.601,-10.309 -10.276,-10.309"
         inkscape:connector-curvature="0" />
    </clipPath>
    <clipPath
       id="clipPath3155"
       clipPathUnits="userSpaceOnUse">
      <path
         id="path3157"
         clip-rule="evenodd"
         d="m 582.775,782.41 -495.62,0 0,20.618 495.62,0 c 5.674,0 10.274,-4.615 10.274,-10.309 0,-5.694 -4.6,-10.309 -10.274,-10.309"
         inkscape:connector-curvature="0" />
    </clipPath>
    <clipPath
       id="clipPath3163"
       clipPathUnits="userSpaceOnUse">
      <path
         id="path3165"
         clip-rule="evenodd"
         d="m 582.612,782.41 -495.466,0 0,20.618 495.466,0 c 5.675,0 10.276,-4.615 10.276,-10.309 0,-5.694 -4.601,-10.309 -10.276,-10.309"
         inkscape:connector-curvature="0" />
    </clipPath>
    <clipPath
       id="clipPath3259"
       clipPathUnits="userSpaceOnUse">
      <path
         id="path3261"
         d="m 45,846 630,0 0,-801 -630,0 0,801 z"
         inkscape:connector-curvature="0" />
    </clipPath>
    <clipPath
       id="clipPath3267"
       clipPathUnits="userSpaceOnUse">
      <path
         id="path3269"
         d="m 0,891.015 720,0 0,-891 -720,0 0,891 z"
         inkscape:connector-curvature="0" />
    </clipPath>
    <clipPath
       id="clipPath3867"
       clipPathUnits="userSpaceOnUse">
      <path
         id="path3869"
         clip-rule="evenodd"
         d="m 428.19,268.89 107,0 0,-108.5 -107,0 0,108.5 z"
         inkscape:connector-curvature="0" />
    </clipPath>
    <clipPath
       id="clipPath3875"
       clipPathUnits="userSpaceOnUse">
      <path
         id="path3877"
         d="m 45,846 630,0 0,-801 -630,0 0,801 z"
         inkscape:connector-curvature="0" />
    </clipPath>
    <clipPath
       id="clipPath3883"
       clipPathUnits="userSpaceOnUse">
      <path
         id="path3885"
         d="m 0,891.015 720,0 0,-891 -720,0 0,891 z"
         inkscape:connector-curvature="0" />
    </clipPath>
    <clipPath
       id="clipPath4031"
       clipPathUnits="userSpaceOnUse">
      <path
         id="path4033"
         clip-rule="evenodd"
         d="m 229.19,268.89 107,0 0,-108.5 -107,0 0,108.5 z"
         inkscape:connector-curvature="0" />
    </clipPath>
    <clipPath
       id="clipPath4039"
       clipPathUnits="userSpaceOnUse">
      <path
         id="path4041"
         d="m 45,846 630,0 0,-801 -630,0 0,801 z"
         inkscape:connector-curvature="0" />
    </clipPath>
    <clipPath
       id="clipPath4047"
       clipPathUnits="userSpaceOnUse">
      <path
         id="path4049"
         d="m 0,891.015 720,0 0,-891 -720,0 0,891 z"
         inkscape:connector-curvature="0" />
    </clipPath>
    <clipPath
       id="clipPath4195"
       clipPathUnits="userSpaceOnUse">
      <path
         id="path4197"
         clip-rule="evenodd"
         d="m 428.19,383.89 107,0 0,-108.5 -107,0 0,108.5 z"
         inkscape:connector-curvature="0" />
    </clipPath>
    <clipPath
       id="clipPath4203"
       clipPathUnits="userSpaceOnUse">
      <path
         id="path4205"
         d="m 45,846 630,0 0,-801 -630,0 0,801 z"
         inkscape:connector-curvature="0" />
    </clipPath>
    <clipPath
       id="clipPath4211"
       clipPathUnits="userSpaceOnUse">
      <path
         id="path4213"
         d="m 0,891.015 720,0 0,-891 -720,0 0,891 z"
         inkscape:connector-curvature="0" />
    </clipPath>
    <clipPath
       id="clipPath4361"
       clipPathUnits="userSpaceOnUse">
      <path
         id="path4363"
         clip-rule="evenodd"
         d="m 229.19,383.89 107,0 0,-108.5 -107,0 0,108.5 z"
         inkscape:connector-curvature="0" />
    </clipPath>
    <clipPath
       id="clipPath4369"
       clipPathUnits="userSpaceOnUse">
      <path
         id="path4371"
         d="m 45,846 630,0 0,-801 -630,0 0,801 z"
         inkscape:connector-curvature="0" />
    </clipPath>
    <clipPath
       id="clipPath4377"
       clipPathUnits="userSpaceOnUse">
      <path
         id="path4379"
         d="m 0,891.015 720,0 0,-891 -720,0 0,891 z"
         inkscape:connector-curvature="0" />
    </clipPath>
    <clipPath
       id="clipPath4525"
       clipPathUnits="userSpaceOnUse">
      <path
         id="path4527"
         clip-rule="evenodd"
         d="m 428.19,697.89 107,0 0,-108.5 -107,0 0,108.5 z"
         inkscape:connector-curvature="0" />
    </clipPath>
    <clipPath
       id="clipPath4533"
       clipPathUnits="userSpaceOnUse">
      <path
         id="path4535"
         d="m 45,846 630,0 0,-801 -630,0 0,801 z"
         inkscape:connector-curvature="0" />
    </clipPath>
    <clipPath
       id="clipPath4541"
       clipPathUnits="userSpaceOnUse">
      <path
         id="path4543"
         d="m 0,891.015 720,0 0,-891 -720,0 0,891 z"
         inkscape:connector-curvature="0" />
    </clipPath>
    <clipPath
       id="clipPath4689"
       clipPathUnits="userSpaceOnUse">
      <path
         id="path4691"
         clip-rule="evenodd"
         d="m 229.19,697.89 107,0 0,-108.5 -107,0 0,108.5 z"
         inkscape:connector-curvature="0" />
    </clipPath>
    <clipPath
       id="clipPath4697"
       clipPathUnits="userSpaceOnUse">
      <path
         id="path4699"
         d="m 45,846 630,0 0,-801 -630,0 0,801 z"
         inkscape:connector-curvature="0" />
    </clipPath>
    <clipPath
       id="clipPath4705"
       clipPathUnits="userSpaceOnUse">
      <path
         id="path4707"
         d="m 0,891.015 720,0 0,-891 -720,0 0,891 z"
         inkscape:connector-curvature="0" />
    </clipPath>
    <clipPath
       id="clipPath4853"
       clipPathUnits="userSpaceOnUse">
      <path
         id="path4855"
         d="m 45,846 630,0 0,-801 -630,0 0,801 z"
         inkscape:connector-curvature="0" />
    </clipPath>
    <clipPath
       id="clipPath4861"
       clipPathUnits="userSpaceOnUse">
      <path
         id="path4863"
         d="m 0,891.015 720,0 0,-891 -720,0 0,891 z"
         inkscape:connector-curvature="0" />
    </clipPath>
    <clipPath
       id="clipPath4889"
       clipPathUnits="userSpaceOnUse">
      <path
         id="path4891"
         clip-rule="evenodd"
         d="m 86.5,365.24 105.5,0 0,-88.75 -105.5,0 0,88.75 z"
         inkscape:connector-curvature="0" />
    </clipPath>
    <clipPath
       id="clipPath4897"
       clipPathUnits="userSpaceOnUse">
      <path
         id="path4899"
         d="m 45,846 630,0 0,-801 -630,0 0,801 z"
         inkscape:connector-curvature="0" />
    </clipPath>
    <clipPath
       id="clipPath4905"
       clipPathUnits="userSpaceOnUse">
      <path
         id="path4907"
         d="m 0,891.015 720,0 0,-891 -720,0 0,891 z"
         inkscape:connector-curvature="0" />
    </clipPath>
    <clipPath
       id="clipPath4917"
       clipPathUnits="userSpaceOnUse">
      <path
         id="path4919"
         clip-rule="evenodd"
         d="m 86.5,402.79 105.5,0 0,-64.75 -105.5,0 0,64.75 z"
         inkscape:connector-curvature="0" />
    </clipPath>
    <clipPath
       id="clipPath4925"
       clipPathUnits="userSpaceOnUse">
      <path
         id="path4927"
         d="m 45,846 630,0 0,-801 -630,0 0,801 z"
         inkscape:connector-curvature="0" />
    </clipPath>
    <clipPath
       id="clipPath4933"
       clipPathUnits="userSpaceOnUse">
      <path
         id="path4935"
         d="m 0,891.015 720,0 0,-891 -720,0 0,891 z"
         inkscape:connector-curvature="0" />
    </clipPath>
    <clipPath
       id="clipPath4945"
       clipPathUnits="userSpaceOnUse">
      <path
         id="path4947"
         d="m 45,846 630,0 0,-801 -630,0 0,801 z"
         inkscape:connector-curvature="0" />
    </clipPath>
    <clipPath
       id="clipPath4953"
       clipPathUnits="userSpaceOnUse">
      <path
         id="path4955"
         d="m 0,891.015 720,0 0,-891 -720,0 0,891 z"
         inkscape:connector-curvature="0" />
    </clipPath>
    <clipPath
       id="clipPath5005"
       clipPathUnits="userSpaceOnUse">
      <path
         id="path5007"
         d="m 0,0 1000,0 0,1000 L 0,1000 0,0 z"
         inkscape:connector-curvature="0" />
    </clipPath>
    <clipPath
       id="clipPath5013"
       clipPathUnits="userSpaceOnUse">
      <path
         id="path5015"
         clip-rule="evenodd"
         d="m 363.5442,9.9144 c -1.7139,-0.949 -15.7138,-8.9704 -15.7714,-8.9856 -0.5451,-0.3634 -1.258,0 -1.258,0.6058 0,0.6058 0.7601,1.0147 0.7601,1.0147 0,0 1.7139,1.1106 1.7139,3.993 -0.0367,2.3878 -0.0472,6.1789 -0.0472,8.4808 -0.587,3.1096 -1.8502,3.5336 -1.8764,3.5841 -0.5818,0.5755 -0.6342,0.6159 -0.173,1.2216 0.4613,0.6058 1.6406,-0.1968 1.6406,-0.1968 0,0 14.0575,-7.976 14.8856,-8.4757 0.3093,-0.2777 0.8753,-0.6008 0.1258,-1.2419 m -24.294,-5.7245 c -1.8449,0 -40.752,-0.0101 -68.0965,-0.0101 -2.4058,0 -3.1763,3.1803 -3.1763,3.7356 0,1.4589 0.0367,2.9329 0.0367,4.7603 0,1.8274 1.5252,3.6397 3.0924,3.6397 1.5672,0 67.6406,-0.0051 68.2538,-0.0051 1.7297,0 3.1291,-1.8072 3.1291,-3.367 0,-1.9385 0.0105,-3.988 0.0105,-5.0632 0,-1.888 -1.4047,-3.6902 -3.2497,-3.6902 m -77.4734,11.8428 c -0.2568,-0.8329 -0.6762,-9.3339 0.0472,-11.3582 0.3302,-0.9389 1.174,-1.7163 1.7454,-2.5291 0.3197,-0.4543 0.414,-0.8177 -0.1206,-1.2468 -0.304,-0.3231 -0.8334,0.0656 -0.8334,0.0656 0,0 -9.7962,5.5175 -15.8081,8.925 -0.2464,0.2372 -0.2935,0.631 -0.1573,0.944 0.1258,0.2726 0.5661,0.5502 1.3104,0.944 3.7633,2.1202 14.2042,7.9305 14.6498,8.1981 0.8386,0.323 1.1793,-0.2929 1.1793,-0.2929 0,0 0.2568,-0.318 -0.3564,-1.0197 -0.4403,-0.212 -1.5777,-1.5245 -1.6563,-2.63"
         inkscape:connector-curvature="0" />
    </clipPath>
  </defs>
  <metadata
     id="metadata9862">
    <rdf:RDF>
      <cc:Work
         rdf:about="">
        <dc:format>image/svg+xml</dc:format>
        <dc:type
           rdf:resource="http://purl.org/dc/dcmitype/StillImage" />
        <dc:title></dc:title>
      </cc:Work>
    </rdf:RDF>
  </metadata>
  <g
     transform="translate(-17,-144)"
     id="layer1"
     inkscape:groupmode="layer"
     inkscape:label="Layer 1">
    <g
       transform="matrix(1.0213303,0,0,1.0213303,-0.39889826,-3.0840892)"
       id="g38310">
      <rect
         transform="matrix(0.57918184,0,0,0.57857907,-350.1859,-99.789865)"
         style="fill:url(#radialGradient38317);fill-opacity:1;fill-rule:nonzero;stroke:none;display:inline"
         id="rect10983-4"
         width="517.06445"
         height="283.68048"
         x="636.19702"
         y="423.4234"
         ry="21.2132" />
      <path
         style="opacity:0.26440681;fill:url(#linearGradient38319);fill-opacity:1;fill-rule:nonzero;stroke:none;display:inline"
         d="m 13.78204,1.494856 c -6.8066102,0 -12.28125,5.4817236 -12.28125,12.28125 l 0,66.536394 C 144.3017,139.19649 211.44627,40.874351 300.75,81.5 l 0,-67.723894 c 0,-6.7995264 -5.47464,-12.28125 -12.28125,-12.28125 z"
         transform="translate(17,144)"
         id="rect38285"
         inkscape:connector-curvature="0"
         sodipodi:nodetypes="ssccsss" />
      <g
         transform="matrix(0.52762727,0,0,0.52762727,10.932562,71.287425)"
         id="g39588">
        <path
           inkscape:connector-curvature="0"
           style="font-size:84.35607147px;font-style:normal;font-variant:normal;font-weight:bold;font-stretch:normal;text-align:center;line-height:125%;letter-spacing:0px;word-spacing:0px;text-anchor:middle;fill:#000000;fill-opacity:1;stroke:none;filter:url(#filter38253);font-family:MgOpen Cosmetica;-inkscape-font-specification:MgOpen Cosmetica Bold"
           d="m 153.53125,160.03125 0,1.71875 c 0,0.8951 0.11865,4.77976 0.34375,12.03125 0.2808,7.18151 0.40624,12.75964 0.40625,16.71875 -1e-5,0.82337 -0.12506,5.56637 -0.40625,13.9375 l 0,0.0312 c -0.22526,8.32559 -0.34375,14.77114 -0.34375,19.40625 l 0,1.5625 1.59375,-0.0312 6.625,-0.25 0.125,0 6.53125,0.25 1.59375,0.0312 0,-1.5625 c -3e-5,-0.50551 -0.0437,-3.28209 -0.15625,-8.625 -0.0551,-2.61494 -0.0375,-3.69377 -0.0625,-5.5625 0.8589,1.4747 1.50975,2.64814 2.53125,4.375 2.2422,3.69583 4.281,7.18205 6.125,10.53125 l 0.4375,0.8125 0.90625,0 c 0.43898,0 1.3686,-0.0743 3.125,-0.1875 l 0.0312,0 0.0312,0 C 184.67992,225.05347 186.07289,225 187.125,225 c 0.0936,0 1.27291,0.0512 3.0625,0.21875 l 0.0312,0 0.0312,0 c 1.88056,0.11387 3.35815,0.1875 4.46875,0.1875 l 2.71875,0 -1.4375,-2.34375 -5.8125,-9.34375 c -3.53109,-5.68591 -6.5222,-10.73681 -9.15625,-15.375 L 189.4375,190 l 0.0312,0 5.1875,-4.90625 0.875,-0.8125 -0.59375,-1.03125 -0.34375,-0.59375 -0.46875,-0.8125 -0.90625,0.0312 -3.8125,0.1875 c -0.013,0 -0.0491,3e-5 -0.0625,0 -0.62183,-0.001 -1.58757,-0.0388 -2.90625,-0.0937 -1.35368,-0.0563 -2.36246,-0.0937 -3.09375,-0.0937 l -0.78125,0 -0.46875,0.65625 c -2.56694,3.62341 -4.98923,6.75483 -7.25,9.34375 -1.51434,1.73415 -3.36257,3.2887 -5.15625,4.875 l 0,-9.4375 c -2e-5,-2.49433 0.0879,-6.74187 0.3125,-12.6875 0.22531,-5.96521 0.34373,-10.24292 0.34375,-12.875 l 0,-1.6875 -1.6875,0.1875 c -2.13272,0.21858 -4.56788,0.31256 -7.28125,0.3125 -2.31227,6e-5 -4.33994,-0.0963 -6.125,-0.3125 l -1.71875,-0.21875 z m -39.5,0.78125 c -2.18396,9e-5 -4.21927,0.90848 -5.8125,2.5 -0.73813,0.73738 -1.30172,1.56937 -1.71875,2.46875 l -2.1875,0 c -0.69759,7e-5 -1.57031,0.106 -2.8125,0.21875 -1.20554,0.10949 -2.10922,0.12504 -2.65625,0.125 l 0,0.0312 -4.34375,-0.34375 -1.375,-0.125 -0.25,1.375 c -0.269521,1.56141 -0.637392,3.14913 -1.125,4.71875 l -0.03125,0 0,0.0312 c -0.439916,1.53801 -0.956007,3.09759 -1.5625,4.75 l 0,0.0312 -9,24.96875 -9.34375,-24.84375 c -1.1005,-2.85793 -2.118181,-6.11863 -3.0625,-9.7811 l -0.3125,-1.1875 -1.21875,0.0312 -7.625,0.34375 c 0.0095,0 -0.06674,9e-5 -0.0625,0 0.0594,-0.001 -0.315615,-0.008 -0.875,-0.0312 -0.599294,-0.0248 -1.474806,-0.0689 -2.625,-0.125 -2.309061,-0.11242 -3.932852,-0.18744 -4.96875,-0.1875 l -2.21875,0 0.8125,2.09375 16.6875,42.5625 c 0.0057,0.0157 0.02551,0.0156 0.03125,0.0312 1.227605,3.34514 2.177109,6.04549 2.90625,8.0625 0.727416,2.01234 1.389029,3.91846 1.9375,5.78125 l 0.34375,1.09375 1.125,0 c 0.431574,0 0.950286,-0.0733 2.09375,-0.1875 l 0.03125,0 0.03125,0 C 75.983458,225.05624 76.853126,225 77.40625,225 c 0.48381,0 1.060788,0.0239 1.71875,0.125 l 0.03125,0 0.0625,0 c 0.7127,0.0548 1.597008,0.13936 2.59375,0.25 l 1.28125,0.15625 0.34375,-1.28125 c 1.277091,-4.93676 2.8309,-9.53384 4.65625,-13.84375 l 0,-0.0312 11.3125,-28.8125 0,-0.0312 c 1.9568,-4.52305 4.04721,-9.01218 6.28125,-13.53135 l 0.46875,-0.96875 c -0.18699,0.67603 -0.4375,1.34224 -0.4375,2.0625 0,2.22636 0.8899,4.27117 2.5,5.8125 1.60067,1.53246 3.64957,2.37506 5.8125,2.375 2.20818,6e-5 4.23194,-0.85854 5.78125,-2.40625 1.58681,-1.58513 2.49998,-3.59949 2.5,-5.78125 -2e-5,-2.18166 -0.91322,-4.19603 -2.5,-5.78125 -1.58498,-1.58322 -3.59732,-2.49991 -5.78125,-2.5 z m 24.0625,0 c -2.18395,9e-5 -4.21926,0.90849 -5.8125,2.5 -1.5951,1.59349 -2.46875,3.61716 -2.46875,5.78125 0,2.20932 0.85021,4.26308 2.46875,5.8125 1.60069,1.53245 3.64958,2.37506 5.8125,2.375 2.20819,6e-5 4.23195,-0.85853 5.78125,-2.40625 1.58683,-1.58514 2.49998,-3.5995 2.5,-5.78125 -2e-5,-2.18166 -0.91321,-4.19603 -2.5,-5.78125 -1.58497,-1.58322 -3.59731,-2.49991 -5.78125,-2.5 z m 82.125,20.0625 c -7.03533,4e-5 -12.89025,2.00977 -17.25,6.0625 -4.32718,4.01828 -6.5,9.72666 -6.5,16.71875 0,6.82554 2.12787,12.47227 6.375,16.59375 l 0.0312,0 c 4.29373,4.04762 9.98368,6.09375 16.75,6.09375 7.03622,0 12.79338,-2.04775 16.9375,-6.1875 4.1391,-4.13483 6.18745,-9.82866 6.1875,-16.75 -5e-5,-6.58886 -2.08977,-12.13665 -6.25,-16.25 -0.006,-0.006 -0.0256,0.006 -0.0312,0 -4.11703,-4.16336 -9.64679,-6.28121 -16.25,-6.28125 z m 53.90625,0.15625 c -2.7022,4e-5 -5.35814,0.76233 -7.90625,2.15625 -1.36401,0.7462 -2.5998,1.62959 -3.75,2.59375 l 0,-2.375 0,-1.6875 -1.6875,0.1875 c -0.57153,0.0571 -1.40135,0.16498 -2.4375,0.3125 -1.40666,4e-5 -2.84338,4e-5 -4.25,0 -1.23787,4e-5 -2.08749,4e-5 -2.59375,0 -0.54528,-0.0653 -1.57939,-0.15224 -3.34375,-0.3125 L 246.5,181.75 l 0,1.65625 c -1e-5,1.49074 0.11842,4.63554 0.34375,9.53125 0.22465,4.825 0.34376,8.29536 0.34375,10.375 -3e-5,1.01745 -0.11885,4.12634 -0.34375,9.125 -0.22557,4.95725 -0.34376,8.75025 -0.34375,11.4375 l 0,1.53125 1.53125,0 c 0.43899,0 1.36095,-0.0742 3.0625,-0.1875 l 0.0312,0 0.0312,0 c 1.65765,-0.1655 2.9436,-0.21875 3.875,-0.21875 0.0936,0 1.19411,0.0515 2.8125,0.21875 l 0.0312,0 0.0312,0 c 1.71441,0.11419 3.0596,0.1875 4.0625,0.1875 l 1.53125,0 0,-1.53125 c -2e-5,-1.43799 -0.11844,-4.39175 -0.34375,-9.0625 -0.16849,-4.65383 -0.25002,-8.33243 -0.25,-11 -2e-5,-2.04614 0.0182,-3.76468 0.125,-5.21875 6.4e-4,-0.009 -6.4e-4,-0.0226 0,-0.0312 0.15535,-1.37002 0.50012,-2.57425 0.9375,-3.59375 l 0,-0.0312 c 0.41879,-1.02264 0.96128,-1.69743 1.65625,-2.1875 l 0,-0.0312 c 0.75956,-0.54799 1.58345,-0.78123 2.59375,-0.78125 1.50909,2e-5 2.28018,0.4205 3,1.5625 l 0.0312,0.0312 c 0.84282,1.26298 1.24997,2.70457 1.25,4.46875 l 0,0.0937 0.0312,0.0937 c 0.16044,1.28295 0.21872,2.59083 0.21875,3.9375 l 0,1.53125 c -3e-5,1.61507 -0.11906,4.84843 -0.34375,9.5625 -0.16914,4.73097 -0.25003,8.26067 -0.25,10.65625 l 0,1.53125 1.53125,0 c 0.43157,0 1.25894,-0.0745 3.125,-0.1875 1.89399,-0.1113 3.23728,-0.125 3.96875,-0.125 0.73138,0 1.8162,0.0148 3.25,0.125 1.49012,0.11452 2.61412,0.1875 3.40625,0.1875 l 1.53125,0 0,-1.53125 c -4e-5,-2.3982 -0.0866,-5.87302 -0.3125,-10.5 -0.16823,-4.64931 -0.28056,-7.81378 -0.28125,-9.4375 l 0,-0.0312 0.0937,-8.8125 0,-0.0312 c -5e-5,-4.03854 -1.3776,-7.53779 -4.09375,-10.125 -2.69661,-2.56842 -6.21918,-3.90621 -10.25,-3.90625 z m -168.84375,0.6875 0.15625,1.8125 0.65625,7.40625 -0.0312,0 0,25.1875 c 0,1.25857 -0.0171,2.51025 -0.125,3.75 -0.10968,1.20521 -0.26918,2.46731 -0.4375,3.8125 l -0.21875,1.78125 1.78125,-0.0625 6.8125,-0.25 0.125,0 7.03125,0.25 1.75,0.0312 -0.1875,-1.71875 c -0.33404,-3.39228 -0.51358,-6.28041 -0.625,-8.71875 -1.7e-4,-0.007 1.7e-4,-0.024 0,-0.0312 -0.0556,-2.4547 -0.0939,-5.93774 -0.0937,-10.46875 l 0.0937,-13.75 0.71875,-7.1875 0.1875,-1.84375 -1.8125,0.1875 c -1.24271,0.1129 -2.4858,0.23181 -3.71875,0.34375 -1.21563,0.11041 -2.3146,0.15629 -3.3125,0.15625 -0.93776,4e-5 -2.06964,-0.0455 -3.34375,-0.15625 -1.23024,-0.11169 -2.40864,-0.23096 -3.59375,-0.34375 l -1.8125,-0.1875 z m 24.0625,0 0.15625,1.8125 0.65625,7.40625 -0.0312,0 0,25.1875 c -10e-6,1.25858 -0.0171,2.51026 -0.125,3.75 -0.10969,1.20521 -0.26918,2.46731 -0.4375,3.8125 l -0.21875,1.78125 1.78125,-0.0625 6.8125,-0.25 0.125,0 7.0625,0.25 1.75,0.0312 -0.1875,-1.71875 c -0.33493,-3.40135 -0.54517,-6.29299 -0.65625,-8.71875 -1.7e-4,-0.007 1.7e-4,-0.024 0,-0.0312 -0.0556,-2.4547 -0.0939,-5.93774 -0.0937,-10.46875 l 0.0937,-13.75 0.71875,-7.1875 0.1875,-1.84375 -1.8125,0.1875 c -1.24272,0.1129 -2.4858,0.23181 -3.71875,0.34375 -1.21563,0.11041 -2.31459,0.15629 -3.3125,0.15625 -0.93775,4e-5 -2.06963,-0.0455 -3.34375,-0.15625 -1.23023,-0.11169 -2.40862,-0.23095 -3.59375,-0.34375 l -1.8125,-0.1875 z m 90.28125,6.34375 c 1.7502,2e-5 2.82449,0.47172 3.65625,1.46875 0.92431,1.10808 1.58588,2.6397 2,4.65625 0.11138,0.89084 0.27584,2.06425 0.4375,3.625 0.16106,1.55531 0.21872,3.47571 0.21875,5.6875 -3e-5,2.2689 -0.0563,4.22912 -0.21875,5.90625 -0.16186,1.61664 -0.32668,2.83015 -0.4375,3.71875 -0.40952,1.94309 -1.06617,3.4781 -2,4.65625 -0.008,0.0106 -0.0229,0.0207 -0.0312,0.0312 -0.83677,0.98535 -1.86648,1.4375 -3.53125,1.4375 -1.75025,0 -2.92743,-0.49859 -3.875,-1.53125 -0.92985,-1.12915 -1.52013,-2.59662 -1.71875,-4.53125 l 0,-0.0625 0,-0.0625 c -0.54408,-2.93492 -0.81251,-6.06049 -0.8125,-9.40625 -10e-6,-2.94931 0.0652,-5.48093 0.28125,-7.53125 0.20548,-1.95024 0.76832,-3.87509 1.65625,-5.8125 0.004,-0.009 -0.004,-0.0223 0,-0.0312 0.7694,-1.56274 1.94976,-2.21872 4.375,-2.21875 z m -81.4375,50.09375 -0.40625,1.0625 c -1.57432,4.26872 -3.03299,8.2647 -4.4375,11.96875 l -0.0312,0 c -1.34353,3.69088 -3.04629,8.19321 -5.125,13.46875 -2.02172,5.21736 -3.72389,9.41109 -5.0625,12.53125 l -8.4375,19.5625 -1,2.3125 2.53125,-0.21875 2.9375,-0.21875 5.46875,0.25 1.09375,0.0312 0.40625,-1.03125 c 1.90045,-5.11532 3.59747,-10.03357 5.15625,-14.8125 l 4.78125,-0.21875 c 0.0306,8.7e-4 0.0632,-8.8e-4 0.0937,0 1.93096,0.0557 3.9027,0.13191 5.90625,0.1875 1.67622,0.0466 3.28724,0.0595 4.90625,0.0625 l 2.96875,9.15625 1.75,5.5625 0.34375,1.09375 1.125,-0.0312 8.21875,-0.25 0.0625,0 8.03125,0.25 2.34375,0.0625 -0.90625,-2.1875 c -3.64814,-8.69026 -7.21123,-17.76684 -10.75,-27.25 -3.54228,-9.49226 -7.23843,-19.57612 -11.0625,-30.25 l -0.40625,-1.09375 -1.125,0.0937 -4.03125,0.25 -0.1875,0 -4.03125,-0.25 -1.125,-0.0937 z m 104.78125,0.0625 c -10.0016,6e-5 -18.26717,2.68759 -24.59375,8.0625 -6.37363,5.35547 -9.59375,13.1012 -9.59375,22.8125 0,9.84844 2.93757,17.60505 8.8125,22.875 5.89345,5.23319 13.90537,7.84375 23.84375,7.84375 10.22501,0 18.56949,-2.73177 24.6875,-8.25 6.19708,-5.59542 9.28119,-13.63542 9.28125,-23.71875 -6e-5,-9.37217 -3.091,-16.86505 -9.1875,-22 -5.99,-5.09498 -13.81199,-7.62494 -23.25,-7.625 z m -134.03125,0.9375 -0.25,1.375 c -0.26896,1.5582 -0.63576,3.11263 -1.125,4.6875 l -0.0312,0 0,0.0312 c -0.44138,1.54313 -0.9581,3.13455 -1.5625,4.78125 l 0,0.0312 L 97,275 87.625,250.1875 c -1.100499,-2.85823 -2.118179,-6.11877 -3.0625,-9.78125 l -0.3125,-1.1875 -1.21875,0.0312 -7.625,0.3125 c 0.0096,0 -0.06677,9e-5 -0.0625,0 0.05982,-0.001 -0.315613,-0.008 -0.875,-0.0312 -0.599296,-0.0248 -1.4748,-0.0689 -2.625,-0.125 -2.322059,-0.11307 -3.934644,-0.1562 -4.9375,-0.15625 l -2.21875,0 0.8125,2.09375 16.65625,42.53125 c 0.0058,0.0157 0.0255,0.0156 0.03125,0.0312 1.230715,3.35283 2.213037,6.05844 2.9375,8.0625 0.721019,1.99464 1.35221,3.9308 1.90625,5.8125 l 0.34375,1.09375 1.125,0 c 0.431635,0 0.9503,-0.0733 2.09375,-0.1875 l 0.03125,0 0.03125,0 c 1.165661,-0.16627 2.056194,-0.25 2.5625,-0.25 0.427584,0 1.019019,0.0487 1.71875,0.15625 l 0.03125,0 0.0625,0 c 0.712656,0.0548 1.596978,0.13937 2.59375,0.25 L 98.90625,299 99.25,297.71875 c 1.27747,-4.93823 2.83191,-9.56748 4.65625,-13.875 l 0,-0.0312 11.3125,-28.78125 0,-0.0312 c 1.95461,-4.51753 4.07599,-9.00707 6.3125,-13.53125 l 1.0625,-2.21875 -2.4375,0 c -0.64139,6e-5 -1.57401,0.0722 -2.84375,0.1875 -1.20556,0.10948 -2.10928,0.12505 -2.65625,0.125 l 0,0.0312 -4.375,-0.3125 -1.34375,-0.125 z m 63.28125,0.0625 0.15625,1.6875 c 0.44862,5.32178 0.70118,9.76112 0.8125,13.375 l 0,0.0312 c 0.16681,3.55498 0.25,8.49902 0.25,14.78125 0,6.00063 -0.0823,11.16901 -0.25,15.46875 l 0,0.0312 c -0.1115,4.28809 -0.36694,8.47664 -0.8125,12.59375 l -0.1875,1.6875 1.6875,0 c 0.59401,0 2.1656,-0.0435 4.875,-0.15625 l 0.0312,0 0,-0.0312 c 2.69136,-0.16795 4.88361,-0.25 6.5625,-0.25 0.96242,0 4.13386,0.11256 9.3125,0.28125 l 0.0312,0 c 5.24163,0.11261 9.42222,0.15625 12.53125,0.15625 l 1.625,0 -0.125,-1.625 -0.25,-3.6875 0,-0.0937 0,-0.0937 0.25,-3.78125 0.125,-1.8125 L 207.0625,288 c -5.4878,0.61481 -11.02228,0.89012 -16.5625,0.9375 -0.0854,-1.20034 -0.15626,-2.39141 -0.15625,-3.75 -2e-5,-1.96726 -2e-5,-3.90142 0,-5.8125 l 0,-19.5625 c -2e-5,-6.6462 0.25463,-12.91233 0.8125,-18.875 l 0.15625,-1.71875 -1.6875,0.0312 -8.09375,0.25 -0.0937,0 -7.5,-0.25 -1.71875,-0.0312 z m 70.0625,7.46875 c 5.25935,5e-5 8.80674,1.99775 11.28125,6.375 2.56403,4.53589 3.8437,9.72326 3.84375,15.625 -5e-5,6.13458 -1.30399,11.51004 -3.875,16.21875 -2.47576,4.48258 -6.07263,6.53126 -11.5,6.53125 -5.29703,10e-6 -8.83587,-2.03087 -11.3125,-6.4375 -0.007,-0.0121 -0.0247,-0.0192 -0.0312,-0.0312 -2.55437,-4.6403 -3.81252,-9.92533 -3.8125,-15.875 -2e-5,-6.19757 1.25646,-11.50963 3.8125,-16.03125 2.46752,-4.36502 6.09313,-6.37495 11.59375,-6.375 z M 139.5,261.25 c 0.79555,1.94201 1.70129,4.06023 2.28125,5.59375 0.7265,1.92118 1.4593,4.21538 2.1875,6.53125 l -4.5625,0.0937 -0.0625,0 -4.5,-0.0937 c 1.48594,-4.10076 3.03746,-8.12918 4.65625,-12.125 z"
           id="path37479" />
        <path
           id="path37388"
           transform="translate(17,144)"
           d="m 132.53125,12.03125 0,1.71875 c 0,0.8951 0.11865,4.77976 0.34375,12.03125 0.2808,7.18151 0.40624,12.75964 0.40625,16.71875 -1e-5,0.82337 -0.12506,5.56637 -0.40625,13.9375 l 0,0.03125 c -0.22526,8.32559 -0.34375,14.77114 -0.34375,19.40625 l 0,1.5625 1.59375,-0.03125 6.625,-0.25 0.125,0 6.53125,0.25 L 149,77.4375 149,75.875 c -3e-5,-0.50551 -0.0437,-3.28209 -0.15625,-8.625 -0.0551,-2.61494 -0.0375,-3.69377 -0.0625,-5.5625 0.8589,1.4747 1.50975,2.64814 2.53125,4.375 2.2422,3.69583 4.281,7.18205 6.125,10.53125 l 0.4375,0.8125 0.90625,0 c 0.43898,0 1.3686,-0.0743 3.125,-0.1875 l 0.0312,0 0.0312,0 C 163.67992,77.05347 165.07289,77 166.125,77 c 0.0936,0 1.27291,0.0512 3.0625,0.21875 l 0.0312,0 0.0312,0 c 1.88056,0.11387 3.35815,0.1875 4.46875,0.1875 l 2.71875,0 L 175,75.0625 169.1875,65.71875 c -3.53109,-5.68591 -6.5222,-10.73681 -9.15625,-15.375 L 168.4375,42 l 0.0312,0 5.1875,-4.90625 0.875,-0.8125 -0.59375,-1.03125 -0.34375,-0.59375 -0.46875,-0.8125 -0.90625,0.03125 -3.8125,0.1875 c -0.013,0 -0.0491,3e-5 -0.0625,0 -0.62183,-10e-4 -1.58757,-0.03885 -2.90625,-0.09375 -1.35368,-0.0563 -2.36246,-0.09375 -3.09375,-0.09375 l -0.78125,0 -0.46875,0.65625 c -2.56694,3.62341 -4.98923,6.75483 -7.25,9.34375 -1.51434,1.73415 -3.36257,3.2887 -5.15625,4.875 l 0,-9.4375 c -2e-5,-2.49433 0.0879,-6.74187 0.3125,-12.6875 0.22531,-5.96521 0.34373,-10.24292 0.34375,-12.875 l 0,-1.6875 -1.6875,0.1875 c -2.13272,0.21858 -4.56788,0.31256 -7.28125,0.3125 -2.31227,6e-5 -4.33994,-0.0963 -6.125,-0.3125 l -1.71875,-0.21875 z m -39.5,0.78125 c -2.18396,9e-5 -4.21927,0.90848 -5.8125,2.5 -0.73813,0.73738 -1.30172,1.56937 -1.71875,2.46875 l -2.1875,0 c -0.697586,7e-5 -1.570311,0.106 -2.8125,0.21875 -1.205544,0.10949 -2.10922,0.12504 -2.65625,0.125 l 0,0.03125 L 73.5,17.8125 l -1.375,-0.125 -0.25,1.375 c -0.269521,1.56141 -0.637392,3.14913 -1.125,4.71875 l -0.03125,0 0,0.03125 c -0.439916,1.53801 -0.956007,3.09759 -1.5625,4.75 l 0,0.03125 -9,24.96875 L 50.8125,28.71875 C 49.712,25.86067 48.694319,22.59997 47.75,18.9375 l -0.3125,-1.1875 -1.21875,0.03125 -7.625,0.34375 c 0.0095,0 -0.06674,9e-5 -0.0625,0 0.0594,-0.001 -0.315615,-0.0081 -0.875,-0.03125 -0.599294,-0.0248 -1.474806,-0.0689 -2.625,-0.125 -2.309061,-0.11242 -3.932852,-0.18744 -4.96875,-0.1875 l -2.21875,0 0.8125,2.09375 16.6875,42.5625 c 0.0057,0.0157 0.02551,0.01565 0.03125,0.03125 1.227605,3.34514 2.177109,6.04549 2.90625,8.0625 0.727416,2.01234 1.389029,3.91846 1.9375,5.78125 l 0.34375,1.09375 1.125,0 c 0.431574,0 0.950286,-0.0733 2.09375,-0.1875 l 0.03125,0 0.03125,0 C 54.983458,77.05624 55.853126,77 56.40625,77 c 0.48381,0 1.060788,0.0239 1.71875,0.125 l 0.03125,0 0.0625,0 c 0.7127,0.0548 1.597008,0.13936 2.59375,0.25 L 62.09375,77.53125 62.4375,76.25 c 1.277091,-4.93676 2.8309,-9.53384 4.65625,-13.84375 l 0,-0.03125 11.3125,-28.8125 0,-0.03125 C 80.363046,29.0083 82.45346,24.51917 84.6875,20 l 0.46875,-0.96875 c -0.18699,0.67603 -0.4375,1.34224 -0.4375,2.0625 0,2.22636 0.8899,4.27117 2.5,5.8125 1.60067,1.53246 3.64957,2.37506 5.8125,2.375 2.20818,6e-5 4.23194,-0.85854 5.78125,-2.40625 1.58681,-1.58513 2.49998,-3.59949 2.5,-5.78125 -2e-5,-2.18166 -0.91322,-4.19603 -2.5,-5.78125 -1.58498,-1.58322 -3.59732,-2.49991 -5.78125,-2.5 z m 24.0625,0 c -2.18395,9e-5 -4.21926,0.90849 -5.8125,2.5 -1.5951,1.59349 -2.46875,3.61716 -2.46875,5.78125 0,2.20932 0.85021,4.26308 2.46875,5.8125 1.60069,1.53245 3.64958,2.37506 5.8125,2.375 2.20819,6e-5 4.23195,-0.85853 5.78125,-2.40625 1.58683,-1.58514 2.49998,-3.5995 2.5,-5.78125 -2e-5,-2.18166 -0.91321,-4.19603 -2.5,-5.78125 -1.58497,-1.58322 -3.59731,-2.49991 -5.78125,-2.5 z m 82.125,20.0625 c -7.03533,4e-5 -12.89025,2.00977 -17.25,6.0625 -4.32718,4.01828 -6.5,9.72666 -6.5,16.71875 0,6.82554 2.12787,12.47227 6.375,16.59375 l 0.0312,0 c 4.29373,4.04762 9.98368,6.09375 16.75,6.09375 7.03622,0 12.79338,-2.04775 16.9375,-6.1875 4.1391,-4.13483 6.18745,-9.82866 6.1875,-16.75 -5e-5,-6.58886 -2.08977,-12.13665 -6.25,-16.25 -0.006,-0.006 -0.0256,0.006 -0.0312,0 -4.11703,-4.16336 -9.64679,-6.28121 -16.25,-6.28125 z m 53.90625,0.15625 c -2.7022,4e-5 -5.35814,0.76233 -7.90625,2.15625 -1.36401,0.7462 -2.5998,1.62959 -3.75,2.59375 l 0,-2.375 0,-1.6875 -1.6875,0.1875 c -0.57153,0.0571 -1.40135,0.16498 -2.4375,0.3125 -1.40666,4e-5 -2.84338,4e-5 -4.25,0 -1.23787,4e-5 -2.08749,4e-5 -2.59375,0 -0.54528,-0.0653 -1.57939,-0.15224 -3.34375,-0.3125 L 225.5,33.75 l 0,1.65625 c -1e-5,1.49074 0.11842,4.63554 0.34375,9.53125 0.22465,4.825 0.34376,8.29536 0.34375,10.375 -3e-5,1.01745 -0.11885,4.12634 -0.34375,9.125 -0.22557,4.95725 -0.34376,8.75025 -0.34375,11.4375 l 0,1.53125 1.53125,0 c 0.43899,0 1.36095,-0.0742 3.0625,-0.1875 l 0.0312,0 0.0312,0 C 231.8139,77.05325 233.09985,77 234.03125,77 c 0.0936,0 1.19411,0.0515 2.8125,0.21875 l 0.0312,0 0.0312,0 c 1.71441,0.11419 3.0596,0.1875 4.0625,0.1875 l 1.53125,0 0,-1.53125 c -2e-5,-1.43799 -0.11844,-4.39175 -0.34375,-9.0625 -0.16849,-4.65383 -0.25002,-8.33243 -0.25,-11 -2e-5,-2.04614 0.0182,-3.76468 0.125,-5.21875 6.4e-4,-0.009 -6.4e-4,-0.02265 0,-0.03125 0.15535,-1.37002 0.50012,-2.57425 0.9375,-3.59375 l 0,-0.03125 c 0.41879,-1.02264 0.96128,-1.69743 1.65625,-2.1875 l 0,-0.03125 c 0.75956,-0.54799 1.58345,-0.78123 2.59375,-0.78125 1.50909,2e-5 2.28018,0.4205 3,1.5625 l 0.0312,0.03125 c 0.84282,1.26298 1.24997,2.70457 1.25,4.46875 l 0,0.09375 0.0312,0.09375 c 0.16044,1.28295 0.21872,2.59083 0.21875,3.9375 l 0,1.53125 c -3e-5,1.61507 -0.11906,4.84843 -0.34375,9.5625 -0.16914,4.73097 -0.25003,8.26067 -0.25,10.65625 l 0,1.53125 1.53125,0 c 0.43157,0 1.25894,-0.0745 3.125,-0.1875 1.89399,-0.1113 3.23728,-0.125 3.96875,-0.125 0.73138,0 1.8162,0.0148 3.25,0.125 1.49012,0.11452 2.61412,0.1875 3.40625,0.1875 l 1.53125,0 0,-1.53125 c -4e-5,-2.3982 -0.0866,-5.87302 -0.3125,-10.5 -0.16823,-4.64931 -0.28056,-7.81378 -0.28125,-9.4375 l 0,-0.03125 0.0937,-8.8125 0,-0.03125 c -5e-5,-4.03854 -1.3776,-7.53779 -4.09375,-10.125 -2.69661,-2.56842 -6.21918,-3.90621 -10.25,-3.90625 z m -168.84375,0.6875 0.15625,1.8125 0.65625,7.40625 -0.03125,0 0,25.1875 c 0,1.25857 -0.0171,2.51025 -0.125,3.75 -0.10968,1.20521 -0.26918,2.46731 -0.4375,3.8125 l -0.21875,1.78125 1.78125,-0.0625 6.8125,-0.25 0.125,0 7.03125,0.25 1.75,0.03125 -0.1875,-1.71875 c -0.33404,-3.39228 -0.51358,-6.28041 -0.625,-8.71875 -1.7e-4,-0.007 1.7e-4,-0.02395 0,-0.03125 -0.0556,-2.4547 -0.0939,-5.93774 -0.0937,-10.46875 l 0.0937,-13.75 0.71875,-7.1875 0.1875,-1.84375 -1.8125,0.1875 c -1.24271,0.1129 -2.4858,0.23181 -3.71875,0.34375 -1.21563,0.11041 -2.3146,0.15629 -3.3125,0.15625 -0.93776,4e-5 -2.06964,-0.0455 -3.34375,-0.15625 -1.23024,-0.11169 -2.40864,-0.23096 -3.59375,-0.34375 l -1.8125,-0.1875 z m 24.0625,0 0.15625,1.8125 0.65625,7.40625 -0.0312,0 0,25.1875 c -1e-5,1.25858 -0.0171,2.51026 -0.125,3.75 -0.10969,1.20521 -0.26918,2.46731 -0.4375,3.8125 l -0.21875,1.78125 1.78125,-0.0625 6.8125,-0.25 0.125,0 7.0625,0.25 1.75,0.03125 -0.1875,-1.71875 C 125.35257,72.3174 125.14233,69.42576 125.03125,67 c -1.7e-4,-0.007 1.7e-4,-0.02395 0,-0.03125 -0.0556,-2.4547 -0.0939,-5.93774 -0.0937,-10.46875 l 0.0937,-13.75 0.71875,-7.1875 0.1875,-1.84375 -1.8125,0.1875 c -1.24272,0.1129 -2.4858,0.23181 -3.71875,0.34375 -1.21563,0.11041 -2.31459,0.15629 -3.3125,0.15625 -0.93775,4e-5 -2.06963,-0.0455 -3.34375,-0.15625 -1.23023,-0.11169 -2.40862,-0.23095 -3.59375,-0.34375 l -1.8125,-0.1875 z M 198.625,40.0625 c 1.7502,2e-5 2.82449,0.47172 3.65625,1.46875 0.92431,1.10808 1.58588,2.6397 2,4.65625 0.11138,0.89084 0.27584,2.06425 0.4375,3.625 0.16106,1.55531 0.21872,3.47571 0.21875,5.6875 -3e-5,2.2689 -0.0563,4.22912 -0.21875,5.90625 -0.16186,1.61664 -0.32668,2.83015 -0.4375,3.71875 -0.40952,1.94309 -1.06617,3.4781 -2,4.65625 -0.008,0.0106 -0.0229,0.02075 -0.0312,0.03125 -0.83677,0.98535 -1.86648,1.4375 -3.53125,1.4375 -1.75025,0 -2.92743,-0.49859 -3.875,-1.53125 -0.92985,-1.12915 -1.52013,-2.59662 -1.71875,-4.53125 l 0,-0.0625 0,-0.0625 c -0.54408,-2.93492 -0.81251,-6.06049 -0.8125,-9.40625 -10e-6,-2.94931 0.0652,-5.48093 0.28125,-7.53125 0.20548,-1.95024 0.76832,-3.87509 1.65625,-5.8125 0.004,-0.009 -0.004,-0.02225 0,-0.03125 0.7694,-1.56274 1.94976,-2.21872 4.375,-2.21875 z m -81.4375,50.09375 -0.40625,1.0625 c -1.57432,4.26872 -3.03299,8.2647 -4.4375,11.96875 l -0.0312,0 c -1.34353,3.69088 -3.04629,8.19321 -5.125,13.46875 -2.02172,5.21736 -3.72389,9.41109 -5.0625,12.53125 l -8.4375,19.5625 -1,2.3125 2.53125,-0.21875 2.9375,-0.21875 5.46875,0.25 1.09375,0.0312 0.40625,-1.03125 c 1.90045,-5.11532 3.59747,-10.03357 5.15625,-14.8125 l 4.78125,-0.21875 c 0.0306,8.7e-4 0.0631,-8.8e-4 0.0937,0 1.93096,0.0557 3.9027,0.13191 5.90625,0.1875 1.67622,0.0466 3.28724,0.0595 4.90625,0.0625 l 2.96875,9.15625 1.75,5.5625 0.34375,1.09375 1.125,-0.0312 8.21875,-0.25 0.0625,0 8.03125,0.25 2.34375,0.0625 -0.90625,-2.1875 c -3.64814,-8.69026 -7.21123,-17.76684 -10.75,-27.25 -3.54228,-9.49226 -7.23843,-19.57612 -11.0625,-30.25 l -0.40625,-1.09375 -1.125,0.09375 -4.03125,0.25 -0.1875,0 -4.03125,-0.25 -1.125,-0.09375 z m 104.78125,0.0625 c -10.0016,6e-5 -18.26717,2.68759 -24.59375,8.0625 -6.37363,5.35547 -9.59375,13.1012 -9.59375,22.8125 0,9.84844 2.93757,17.60505 8.8125,22.875 5.89345,5.23319 13.90537,7.84375 23.84375,7.84375 10.22501,0 18.56949,-2.73177 24.6875,-8.25 6.19708,-5.59542 9.28119,-13.63542 9.28125,-23.71875 -6e-5,-9.37217 -3.091,-16.86505 -9.1875,-22 -5.99,-5.09498 -13.81199,-7.62494 -23.25,-7.625 z m -134.03125,0.9375 -0.25,1.375 c -0.26896,1.5582 -0.63576,3.11263 -1.125,4.6875 l -0.03125,0 0,0.03125 c -0.44138,1.54313 -0.9581,3.13455 -1.5625,4.78125 l 0,0.0312 L 76,127 66.625,102.1875 C 65.524501,99.32927 64.506821,96.06873 63.5625,92.40625 L 63.25,91.21875 62.03125,91.25 l -7.625,0.3125 c 0.0096,0 -0.06677,9e-5 -0.0625,0 0.05982,-0.001 -0.315613,-0.008 -0.875,-0.03125 -0.599296,-0.0248 -1.4748,-0.0689 -2.625,-0.125 -2.322059,-0.11307 -3.934644,-0.1562 -4.9375,-0.15625 l -2.21875,0 0.8125,2.09375 16.65625,42.53125 c 0.0058,0.0157 0.0255,0.0156 0.03125,0.0312 1.230715,3.35283 2.213037,6.05844 2.9375,8.0625 0.721019,1.99464 1.35221,3.9308 1.90625,5.8125 l 0.34375,1.09375 1.125,0 c 0.431635,0 0.9503,-0.0733 2.09375,-0.1875 l 0.03125,0 0.03125,0 c 1.165661,-0.16627 2.056194,-0.25 2.5625,-0.25 0.427584,0 1.019019,0.0487 1.71875,0.15625 l 0.03125,0 0.0625,0 c 0.712656,0.0548 1.596978,0.13937 2.59375,0.25 L 77.90625,151 78.25,149.71875 c 1.277475,-4.93823 2.831911,-9.56748 4.65625,-13.875 l 0,-0.0312 11.3125,-28.78125 0,-0.0312 c 1.95461,-4.51753 4.07599,-9.00707 6.3125,-13.53125 l 1.0625,-2.21875 -2.4375,0 c -0.64139,6e-5 -1.57401,0.0722 -2.84375,0.1875 -1.20556,0.10948 -2.10928,0.12505 -2.65625,0.125 l 0,0.03125 -4.375,-0.3125 -1.34375,-0.125 z m 63.28125,0.0625 0.15625,1.6875 c 0.44862,5.32178 0.70118,9.76112 0.8125,13.375 l 0,0.0312 c 0.16681,3.55498 0.25,8.49902 0.25,14.78125 0,6.00063 -0.0823,11.16901 -0.25,15.46875 l 0,0.0312 c -0.1115,4.28809 -0.36694,8.47664 -0.8125,12.59375 l -0.1875,1.6875 1.6875,0 c 0.59401,0 2.1656,-0.0435 4.875,-0.15625 l 0.0312,0 0,-0.0312 c 2.69136,-0.16795 4.88361,-0.25 6.5625,-0.25 0.96242,0 4.13386,0.11256 9.3125,0.28125 l 0.0312,0 c 5.24163,0.11261 9.42222,0.15625 12.53125,0.15625 l 1.625,0 -0.125,-1.625 -0.25,-3.6875 0,-0.0937 0,-0.0937 0.25,-3.78125 0.125,-1.8125 L 186.0625,140 c -5.4878,0.61481 -11.02228,0.89012 -16.5625,0.9375 -0.0854,-1.20034 -0.15626,-2.39141 -0.15625,-3.75 -2e-5,-1.96726 -2e-5,-3.90142 0,-5.8125 l 0,-19.5625 c -2e-5,-6.6462 0.25463,-12.91233 0.8125,-18.875 l 0.15625,-1.71875 -1.6875,0.03125 -8.09375,0.25 -0.0937,0 -7.5,-0.25 -1.71875,-0.03125 z m 70.0625,7.46875 c 5.25935,5e-5 8.80674,1.99775 11.28125,6.375 2.56403,4.53589 3.8437,9.72326 3.84375,15.625 -5e-5,6.13458 -1.30399,11.51004 -3.875,16.21875 -2.47576,4.48258 -6.07263,6.53126 -11.5,6.53125 -5.29703,1e-5 -8.83587,-2.03087 -11.3125,-6.4375 -0.007,-0.0121 -0.0247,-0.0192 -0.0312,-0.0312 -2.55437,-4.6403 -3.81252,-9.92533 -3.8125,-15.875 -2e-5,-6.19757 1.25646,-11.50963 3.8125,-16.03125 2.46752,-4.36502 6.09313,-6.37495 11.59375,-6.375 z M 118.5,113.25 c 0.79555,1.94201 1.70129,4.06023 2.28125,5.59375 0.7265,1.92118 1.4593,4.21538 2.1875,6.53125 l -4.5625,0.0937 -0.0625,0 -4.5,-0.0937 c 1.48594,-4.10076 3.03746,-8.12918 4.65625,-12.125 z"
           style="font-size:84.35607147px;font-style:normal;font-variant:normal;font-weight:bold;font-stretch:normal;text-align:center;line-height:125%;letter-spacing:0px;word-spacing:0px;text-anchor:middle;fill:url(#radialGradient39592);fill-opacity:1;stroke:#000000;stroke-width:2;stroke-opacity:1;font-family:MgOpen Cosmetica;-inkscape-font-specification:MgOpen Cosmetica Bold"
           inkscape:connector-curvature="0" />
      </g>
      <rect
         ry="21.2132"
         y="423.95224"
         x="636.59265"
         height="283.65457"
         width="516.98901"
         id="rect38308"
         style="fill:none;stroke:#000000;stroke-width:5.18241787;stroke-opacity:1;display:inline"
         transform="matrix(0.57918184,0,0,0.57857907,-350.1859,-99.789865)" />
    </g>
    <text
       sodipodi:linespacing="125%"
       id="text3392"
       y="423.27911"
       x="26.118309"
       style="font-size:40.25220871px;font-style:normal;font-variant:normal;font-weight:bold;font-stretch:normal;text-align:start;line-height:125%;letter-spacing:0px;word-spacing:0px;text-anchor:start;fill-opacity:1;display:inline;font-family:MgOpen Cosmetica;-inkscape-font-specification:MgOpen Cosmetica Bold"
       xml:space="preserve"><tspan
         style="text-align:start;text-anchor:start"
         y="423.27911"
         x="26.118309"
         sodipodi:role="line"
         id="tspan3740">Graph.tk</tspan></text>
    <g
       inkscape:label="Layer 1"
       id="layer1-1"
       transform="matrix(1.5048112,0,0,1.5048112,-545.32869,-1750.7841)" />
    <g
       id="layer2-4"
       inkscape:label="Layer"
       style="display:inline"
       transform="matrix(1.5048112,0,0,1.5048112,-545.32869,-919.58335)" />
    <flowRoot
       xml:space="preserve"
       id="flowRoot2499"
       style="font-size:12px;font-style:normal;font-weight:normal;fill:#000000;fill-opacity:1;stroke:none;font-family:Bitstream Vera Sans"
       transform="matrix(0.10955145,0,0,0.10955145,441.87713,158.29436)"><flowRegion
         id="flowRegion2501"><rect
           id="rect2503"
           width="459.375"
           height="68.75"
           x="37.5"
           y="318.125" /></flowRegion><flowPara
         id="flowPara2505" /></flowRoot>    <g
       id="g6251"
       transform="translate(23.281014,143.99161)">
      <use
         x="0"
         y="0"
         xlink:href="#text11685"
         id="use40118-1"
         transform="translate(-207.32912,-136.86631)"
         width="308.84375"
         height="170.65625"
         style="fill:#000000;stroke:#000000;stroke-width:4" />
      <use
         style="fill:#000000;stroke:#000000;stroke-width:3;filter:url(#filter40130)"
         height="170.65625"
         width="308.84375"
         transform="translate(-205.32912,-134.86631)"
         id="use40120-1"
         xlink:href="#text11685"
         y="0"
         x="0" />
      <use
         style="fill:url(#linearGradient6097-7);fill-opacity:1;stroke:#ffffff"
         height="170.65625"
         width="308.84375"
         transform="translate(-207.32912,-136.86631)"
         id="use40116-5"
         xlink:href="#text11685"
         y="0"
         x="0" />
    </g>
    <text
       xml:space="preserve"
       style="font-size:17.81859207px;font-style:normal;font-variant:normal;font-weight:bold;font-stretch:normal;fill:#eef4d7;fill-opacity:1;stroke:none;font-family:Ouhod;-inkscape-font-specification:Ouhod Bold"
       x="324.01773"
       y="193.16827"
       id="text3416"><tspan
         sodipodi:role="line"
         id="tspan3418"
         x="324.01773"
         y="193.16827" /></text>
    <path
       inkscape:transform-center-y="-1.4955988"
       inkscape:transform-center-x="-2.9748115"
       transform="translate(17.05128,138.29195)"
       d="M 5.9951896,18.208468 67.82561,59.786947 110.65091,-1.0829316 69.072431,60.747489 129.94231,103.57279 68.11189,61.99431 25.28659,122.86419 66.865069,61.033769 z"
       inkscape:randomized="0"
       inkscape:rounded="0"
       inkscape:flatsided="false"
       sodipodi:arg2="-1.6997697"
       sodipodi:arg1="-2.5384803"
       sodipodi:r2="1.1129248"
       sodipodi:r1="75.249512"
       sodipodi:cy="60.890629"
       sodipodi:cx="67.96875"
       sodipodi:sides="4"
       id="path13568"
       style="opacity:0.4;fill:#ffffff;fill-opacity:1;stroke:none;filter:url(#filter6087)"
       sodipodi:type="star" />
    <text
       sodipodi:linespacing="125%"
       id="text11685"
       y="186.8148"
       x="383.99756"
       style="font-size:48px;font-style:normal;font-variant:normal;font-weight:bold;font-stretch:normal;text-align:start;line-height:125%;letter-spacing:0px;word-spacing:0px;text-anchor:start;fill-opacity:1;display:inline;font-family:MgOpen Cosmetica;-inkscape-font-specification:MgOpen Cosmetica Bold"
       xml:space="preserve"><tspan
         id="tspan11687"
         y="186.8148"
         x="383.99756"
         sodipodi:role="line">#129</tspan></text>
    <g
       transform="matrix(1.1236604,0,0,0.96882148,1.7574633,3.4870813)"
       id="g5376">
      <use
         style="fill:#000000;stroke:#000000;stroke-width:4"
         height="170.65625"
         width="308.84375"
         transform="translate(0,-120)"
         id="use39596"
         xlink:href="#text3392"
         y="0"
         x="0" />
      <use
         x="0"
         y="0"
         xlink:href="#text3392"
         id="use39598"
         transform="translate(2,-118)"
         width="308.84375"
         height="170.65625"
         style="fill:#000000;stroke:#000000;stroke-width:3;filter:url(#filter40112)" />
      <use
         x="0"
         y="0"
         xlink:href="#text3392"
         id="use39594"
         transform="translate(0,-120)"
         width="308.84375"
         height="170.65625"
         style="fill:url(#linearGradient3377);fill-opacity:1;stroke:#ffffff" />
    </g>
    <g
       id="g4671"
       transform="matrix(0.86459913,0,0,0.86459913,36.483474,30.958649)">
      <g
         transform="matrix(0.77337477,0,0,0.77337477,201.33285,-506.26093)"
         id="layer1-5"
         inkscape:label="Layer 1">
        <g
           transform="translate(-18.897195,893.70657)"
           id="g20856">
          <g
             id="g20673"
             transform="translate(-134.95467,-466.78144)">
            <path
               inkscape:connector-curvature="0"
               d="m 173.68694,494.87174 117.67,0 0,118.17375 -117.67,0 0,-118.17375 z"
               style="fill:#d5d4d4;fill-opacity:1;fill-rule:nonzero;stroke:none"
               id="path4315" />
            <path
               inkscape:connector-curvature="0"
               d="m 173.75944,494.94424 117.52625,0 0,118.03 -117.52625,0 0,-118.03 z"
               style="fill:#d4d3d3;fill-opacity:1;fill-rule:nonzero;stroke:none"
               id="path4317" />
            <path
               inkscape:connector-curvature="0"
               d="m 173.83194,495.01549 117.38375,0 0,117.8875 -117.38375,0 0,-117.8875 z"
               style="fill:#d3d2d2;fill-opacity:1;fill-rule:nonzero;stroke:none"
               id="path4319" />
          </g>
          <path
             id="path4321"
             style="fill:#ffffff;fill-opacity:1;fill-rule:nonzero;stroke:#4f4c4d;stroke-width:0.3125;stroke-linecap:butt;stroke-linejoin:miter;stroke-miterlimit:4;stroke-opacity:1;stroke-dasharray:none"
             d="m 31.39602,20.7603 124.87125,0 0,125.33375 -124.87125,0 0,-125.33375 z"
             inkscape:connector-curvature="0" />
          <path
             id="path4323"
             style="fill:none;stroke:#4f4c4d;stroke-width:0.3125;stroke-linecap:butt;stroke-linejoin:miter;stroke-miterlimit:4;stroke-opacity:1;stroke-dasharray:none"
             d="m 81.39477,20.7428 0,125.29875 M 68.89352,20.7428 l 0,125.29875 M 56.23727,20.7428 l 0,125.29875 M 43.73852,20.7428 l 0,125.29875 m 62.8125,-125.29875 0,125.29875 m 12.5,-125.29875 0,125.29875 m 24.83125,-125.29875 0,125.29875 M 131.55102,20.7428 l 0,125.29875 m 24.675,-12.5 -124.8325,0 m 124.8325,-12.79875 -124.8325,0 m 124.8325,-12.34375 -124.8325,0 m 124.8325,-12.5 -124.8325,0 m 124.8325,-37.5 -124.8325,0 m 124.8325,-12.65625 -124.8325,0 m 124.8325,-12.5 -124.8325,0"
             inkscape:connector-curvature="0" />
          <path
             inkscape:connector-curvature="0"
             style="font-size:medium;font-style:normal;font-variant:normal;font-weight:normal;font-stretch:normal;text-indent:0;text-align:start;text-decoration:none;line-height:normal;letter-spacing:normal;word-spacing:normal;text-transform:none;direction:ltr;block-progression:tb;writing-mode:lr-tb;text-anchor:start;baseline-shift:baseline;color:#000000;fill:#4f4c4d;fill-opacity:1;stroke:none;stroke-width:1.25;marker:none;visibility:visible;display:inline;overflow:visible;enable-background:accumulate;font-family:Sans;-inkscape-font-specification:Sans"
             d="m 149.63908,81.40606 0,1.21875 -111.59375,0 0,-1.15625 -6.78125,1.8125 6.78125,1.8125 0,-1.21875 111.59375,0 0,1.15625 6.78125,-1.8125 -6.78125,-1.8125 z"
             id="path4325" />
          <path
             inkscape:connector-curvature="0"
             style="font-size:medium;font-style:normal;font-variant:normal;font-weight:normal;font-stretch:normal;text-indent:0;text-align:start;text-decoration:none;line-height:normal;letter-spacing:normal;word-spacing:normal;text-transform:none;direction:ltr;block-progression:tb;writing-mode:lr-tb;text-anchor:start;baseline-shift:baseline;color:#000000;fill:#4f4c4d;fill-opacity:1;stroke:none;stroke-width:1.25;marker:none;visibility:visible;display:inline;overflow:visible;enable-background:accumulate;font-family:Sans;-inkscape-font-specification:Sans"
             d="m 93.92033,20.68731 -1.8125,6.75 1.15625,0 0,112.0625 -1.1875,0 1.8125,6.78125 1.8125,-6.78125 -1.1875,0 0,-112.0625 1.21875,0 -1.8125,-6.75 z"
             id="path4331" />
          <path
             inkscape:connector-curvature="0"
             id="path20635"
             style="font-size:9.05538559px;font-variant:normal;font-weight:bold;writing-mode:lr-tb;fill:#231f20;fill-opacity:1;fill-rule:nonzero;stroke:none;font-family:FreeSans;-inkscape-font-specification:FreeSans"
             d="m 99.04495,28.22381 0.007,-0.04 -0.66864,-5.61999 1.2628,0 0.2908,3.92999 1.60341,-3.92999 1.18079,0 -2.93417,6.39 c -0.001,0.007 -0.0197,0.05 -0.0554,0.13 -0.037,0.0867 -0.066,0.14333 -0.087,0.17 -0.0168,0.0333 -0.0485,0.09 -0.0953,0.16999 -0.0425,0.0867 -0.083,0.14667 -0.12157,0.18001 -0.0397,0.04 -0.0928,0.0933 -0.15908,0.15999 -0.0675,0.0733 -0.13962,0.12667 -0.21649,0.16 -0.0725,0.04 -0.15607,0.08 -0.25052,0.12 -0.0944,0.04 -0.20022,0.0667 -0.31735,0.0801 -0.11828,0.02 -0.24577,0.03 -0.38243,0.03 -0.12028,0 -0.25461,-0.0134 -0.40304,-0.04 l 0.18302,-1.04999 c 0.1133,0.04 0.21094,0.06 0.29295,0.06 0.20226,0 0.38684,-0.0867 0.55371,-0.26 0.16688,-0.17333 0.27239,-0.38666 0.31656,-0.64" />
          <path
             inkscape:connector-curvature="0"
             id="path20637"
             style="font-size:9.05538559px;font-variant:normal;font-weight:bold;writing-mode:lr-tb;fill:#231f20;fill-opacity:1;fill-rule:nonzero;stroke:none;font-family:Helvetica;-inkscape-font-specification:Helvetica-Bold"
             d="m 152.41161,89.53183 1.91033,-2.68 -1.37761,0 -0.9975,1.62999 -0.4375,-1.62999 -1.37759,0 0.97607,2.68 -1.95009,2.72 1.37759,0 1.04723,-1.68 0.45338,1.68 1.37759,0 -1.0019,-2.72" />
          <path
             inkscape:connector-curvature="0"
             id="path20659"
             style="font-size:10px;font-style:italic;font-variant:normal;font-weight:bold;writing-mode:lr-tb;fill:#231f20;fill-opacity:1;fill-rule:nonzero;stroke:none;font-family:FreeSans;-inkscape-font-specification:FreeSans"
             d="m 89.26688,85.90652 c 0.91333,1e-5 1.62333,0.25334 2.13,0.76 0.51333,0.50001 0.76999,1.20001 0.77,2.1 -1e-5,0.41334 -0.0567,0.83667 -0.17,1.27 -0.10667,0.42667 -0.28001,0.85334 -0.52,1.28 -0.24,0.42 -0.52667,0.79667 -0.86,1.13 -0.32667,0.32667 -0.73334,0.59334 -1.22,0.8 -0.48,0.2 -1,0.3 -1.56,0.3 -0.89333,0 -1.6,-0.25333 -2.12,-0.76 -0.51333,-0.51333 -0.77,-1.20666 -0.77,-2.08 0,-0.39333 0.0533,-0.80333 0.16,-1.23 0.11333,-0.43333 0.29,-0.86333 0.53,-1.29 0.24,-0.42666 0.52333,-0.80666 0.85,-1.14 0.33333,-0.33999 0.74,-0.61333 1.22,-0.82 0.48667,-0.21332 1.00666,-0.31999 1.56,-0.32 m -1.19,6.36 c 0.34666,0 0.66333,-0.0633 0.95,-0.19 0.28666,-0.13333 0.52,-0.30666 0.7,-0.52 0.18,-0.22 0.33666,-0.45333 0.47,-0.7 0.13333,-0.24666 0.23,-0.5 0.29,-0.76 0.0667,-0.26 0.11333,-0.48333 0.14,-0.67 0.0333,-0.18666 0.05,-0.34666 0.05,-0.48 0,-0.55333 -0.14334,-0.98333 -0.43,-1.29 -0.28,-0.31333 -0.67,-0.46999 -1.17,-0.47 -0.34667,1e-5 -0.66667,0.0667 -0.96,0.2 -0.28667,0.12667 -0.52333,0.29667 -0.71,0.51 -0.18,0.21334 -0.33667,0.44334 -0.47,0.69 -0.13333,0.24001 -0.23667,0.49001 -0.31,0.75 -0.0667,0.26001 -0.11667,0.48667 -0.15,0.68 -0.0267,0.18667 -0.04,0.34667 -0.04,0.48 0,0.54667 0.14667,0.98 0.44,1.3 0.29333,0.31334 0.69333,0.47 1.2,0.47" />
          <path
             id="path4347"
             style="fill:none;stroke:#4f4c4d;stroke-width:0.3125;stroke-linecap:butt;stroke-linejoin:miter;stroke-miterlimit:4;stroke-opacity:1;stroke-dasharray:none"
             d="m 156.22602,70.7428 -124.8325,0"
             inkscape:connector-curvature="0" />
          <path
             id="path4355"
             style="fill:none;stroke:#4f4c4d;stroke-width:0.3125;stroke-linecap:butt;stroke-linejoin:miter;stroke-miterlimit:4;stroke-opacity:1;stroke-dasharray:none"
             d="m 31.39602,20.7603 124.87125,0 0,125.33375 -124.87125,0 0,-125.33375 z"
             inkscape:connector-curvature="0" />
        </g>
      </g>
      <path
         style="fill:none;stroke:#d40000;stroke-width:1px;stroke-linecap:butt;stroke-linejoin:miter;stroke-opacity:1"
         d="M 267.96447,57.478709 C 252.83813,89.847691 248.36251,121.73833 246.33034,153.67962"
         id="path3934"
         inkscape:connector-curvature="0"
         transform="translate(17,144)"
         sodipodi:nodetypes="cc" />
      <path
         style="fill:none;stroke:#0000ff;stroke-width:1px;stroke-linecap:butt;stroke-linejoin:miter;stroke-opacity:1"
         d="M 194.23263,144.02624 280.78016,57.478709"
         id="path3936"
         inkscape:connector-curvature="0"
         transform="translate(17,144)" />
      <g
         style="fill:#d40000"
         id="g3342"
         ns0:preamble="/home/pesasa/svnrepos/drawings/imped/imped-preamble.tex"
         ns0:text="$y=5\\ln(x)$"
         transform="translate(28.793693,151.95748)">
        <defs
           id="defs3344">
          <g
             id="g3346">
            <symbol
               id="textext-6c24b3ff-0"
               overflow="visible"
               style="overflow:visible">
              <path
                 id="path3349"
                 d=""
                 style="stroke:none"
                 inkscape:connector-curvature="0" />
            </symbol>
            <symbol
               id="textext-6c24b3ff-1"
               overflow="visible"
               style="overflow:visible">
              <path
                 id="path3352"
                 d="m 4.84375,-3.796875 c 0.046875,-0.140625 0.046875,-0.15625 0.046875,-0.234375 0,-0.171875 -0.140625,-0.265625 -0.296875,-0.265625 -0.09375,0 -0.25,0.0625 -0.34375,0.203125 -0.015625,0.0625 -0.109375,0.359375 -0.140625,0.546875 -0.078125,0.25 -0.140625,0.53125 -0.203125,0.796875 l -0.453125,1.796875 c -0.03125,0.140625 -0.46875,0.84375 -1.125,0.84375 -0.5,0 -0.609375,-0.4375 -0.609375,-0.8125 C 1.71875,-1.375 1.890625,-2 2.21875,-2.875 2.375,-3.28125 2.421875,-3.390625 2.421875,-3.59375 c 0,-0.4375 -0.3125,-0.8125 -0.8125,-0.8125 -0.953125,0 -1.3125,1.453125 -1.3125,1.53125 0,0.109375 0.09375,0.109375 0.109375,0.109375 0.109375,0 0.109375,-0.03125 0.15625,-0.1875 0.28125,-0.9375 0.671875,-1.234375 1.015625,-1.234375 0.078125,0 0.25,0 0.25,0.3125 0,0.25 -0.109375,0.515625 -0.171875,0.703125 -0.40625,1.0625 -0.578125,1.625 -0.578125,2.09375 0,0.890625 0.625,1.1875 1.21875,1.1875 0.390625,0 0.71875,-0.171875 1,-0.453125 -0.125,0.515625 -0.25,1.015625 -0.640625,1.546875 -0.265625,0.328125 -0.640625,0.625 -1.09375,0.625 -0.140625,0 -0.59375,-0.03125 -0.765625,-0.421875 0.15625,0 0.296875,0 0.421875,-0.125 C 1.328125,1.203125 1.421875,1.0625 1.421875,0.875 1.421875,0.5625 1.15625,0.53125 1.0625,0.53125 0.828125,0.53125 0.5,0.6875 0.5,1.171875 c 0,0.5 0.4375,0.875 1.0625,0.875 1.015625,0 2.046875,-0.90625 2.328125,-2.03125 z"
                 style="stroke:none"
                 inkscape:connector-curvature="0" />
            </symbol>
            <symbol
               id="textext-6c24b3ff-2"
               overflow="visible"
               style="overflow:visible">
              <path
                 id="path3355"
                 d="M 3.328125,-3.015625 C 3.390625,-3.265625 3.625,-4.1875 4.3125,-4.1875 c 0.046875,0 0.296875,0 0.5,0.125 C 4.53125,-4 4.34375,-3.765625 4.34375,-3.515625 c 0,0.15625 0.109375,0.34375 0.375,0.34375 0.21875,0 0.53125,-0.171875 0.53125,-0.578125 0,-0.515625 -0.578125,-0.65625 -0.921875,-0.65625 -0.578125,0 -0.921875,0.53125 -1.046875,0.75 -0.25,-0.65625 -0.78125,-0.75 -1.078125,-0.75 -1.03125,0 -1.609375,1.28125 -1.609375,1.53125 0,0.109375 0.109375,0.109375 0.125,0.109375 0.078125,0 0.109375,-0.03125 0.125,-0.109375 0.34375,-1.0625 1,-1.3125 1.34375,-1.3125 0.1875,0 0.53125,0.09375 0.53125,0.671875 0,0.3125 -0.171875,0.96875 -0.53125,2.375 -0.15625,0.609375 -0.515625,1.03125 -0.953125,1.03125 -0.0625,0 -0.28125,0 -0.5,-0.125 0.25,-0.0625 0.46875,-0.265625 0.46875,-0.546875 0,-0.265625 -0.21875,-0.34375 -0.359375,-0.34375 -0.3125,0 -0.546875,0.25 -0.546875,0.578125 0,0.453125 0.484375,0.65625 0.921875,0.65625 0.671875,0 1.03125,-0.703125 1.046875,-0.75 0.125,0.359375 0.484375,0.75 1.078125,0.75 1.03125,0 1.59375,-1.28125 1.59375,-1.53125 0,-0.109375 -0.078125,-0.109375 -0.109375,-0.109375 -0.09375,0 -0.109375,0.046875 -0.140625,0.109375 -0.328125,1.078125 -1,1.3125 -1.3125,1.3125 -0.390625,0 -0.546875,-0.3125 -0.546875,-0.65625 0,-0.21875 0.046875,-0.4375 0.15625,-0.875 z"
                 style="stroke:none"
                 inkscape:connector-curvature="0" />
            </symbol>
            <symbol
               id="textext-6c24b3ff-3"
               overflow="visible"
               style="overflow:visible">
              <path
                 id="path3358"
                 d=""
                 style="stroke:none"
                 inkscape:connector-curvature="0" />
            </symbol>
            <symbol
               id="textext-6c24b3ff-4"
               overflow="visible"
               style="overflow:visible">
              <path
                 id="path3361"
                 d="m 6.84375,-3.265625 c 0.15625,0 0.34375,0 0.34375,-0.1875 C 7.1875,-3.65625 7,-3.65625 6.859375,-3.65625 l -5.96875,0 c -0.140625,0 -0.328125,0 -0.328125,0.203125 0,0.1875 0.1875,0.1875 0.328125,0.1875 z m 0.015625,1.9375 c 0.140625,0 0.328125,0 0.328125,-0.203125 0,-0.1875 -0.1875,-0.1875 -0.34375,-0.1875 l -5.953125,0 c -0.140625,0 -0.328125,0 -0.328125,0.1875 0,0.203125 0.1875,0.203125 0.328125,0.203125 z"
                 style="stroke:none"
                 inkscape:connector-curvature="0" />
            </symbol>
            <symbol
               id="textext-6c24b3ff-5"
               overflow="visible"
               style="overflow:visible">
              <path
                 id="path3364"
                 d="m 4.46875,-2 c 0,-1.1875 -0.8125,-2.1875 -1.890625,-2.1875 -0.46875,0 -0.90625,0.15625 -1.265625,0.515625 l 0,-1.953125 c 0.203125,0.0625 0.53125,0.125 0.84375,0.125 1.234375,0 1.9375,-0.90625 1.9375,-1.03125 0,-0.0625 -0.03125,-0.109375 -0.109375,-0.109375 0,0 -0.03125,0 -0.078125,0.03125 C 3.703125,-6.515625 3.21875,-6.3125 2.546875,-6.3125 2.15625,-6.3125 1.6875,-6.390625 1.21875,-6.59375 1.140625,-6.625 1.125,-6.625 1.109375,-6.625 1,-6.625 1,-6.546875 1,-6.390625 L 1,-3.4375 c 0,0.171875 0,0.25 0.140625,0.25 0.078125,0 0.09375,-0.015625 0.140625,-0.078125 C 1.390625,-3.421875 1.75,-3.96875 2.5625,-3.96875 c 0.515625,0 0.765625,0.453125 0.84375,0.640625 0.15625,0.375 0.1875,0.75 0.1875,1.25 0,0.359375 0,0.953125 -0.25,1.375 C 3.109375,-0.3125 2.734375,-0.0625 2.28125,-0.0625 c -0.71875,0 -1.296875,-0.53125 -1.46875,-1.109375 0.03125,0 0.0625,0.015625 0.171875,0.015625 0.328125,0 0.5,-0.25 0.5,-0.484375 0,-0.25 -0.171875,-0.5 -0.5,-0.5 C 0.84375,-2.140625 0.5,-2.0625 0.5,-1.609375 0.5,-0.75 1.1875,0.21875 2.296875,0.21875 3.453125,0.21875 4.46875,-0.734375 4.46875,-2 z"
                 style="stroke:none"
                 inkscape:connector-curvature="0" />
            </symbol>
            <symbol
               id="textext-6c24b3ff-6"
               overflow="visible"
               style="overflow:visible">
              <path
                 id="path3367"
                 d="m 1.765625,-6.921875 -1.4375,0.109375 0,0.3125 c 0.703125,0 0.78125,0.0625 0.78125,0.5625 l 0,5.1875 c 0,0.4375 -0.109375,0.4375 -0.78125,0.4375 l 0,0.3125 C 0.65625,-0.015625 1.1875,-0.03125 1.4375,-0.03125 c 0.25,0 0.734375,0.015625 1.109375,0.03125 l 0,-0.3125 c -0.671875,0 -0.78125,0 -0.78125,-0.4375 z"
                 style="stroke:none"
                 inkscape:connector-curvature="0" />
            </symbol>
            <symbol
               id="textext-6c24b3ff-7"
               overflow="visible"
               style="overflow:visible">
              <path
                 id="path3370"
                 d="m 1.09375,-3.421875 0,2.671875 c 0,0.4375 -0.109375,0.4375 -0.78125,0.4375 l 0,0.3125 c 0.359375,-0.015625 0.859375,-0.03125 1.140625,-0.03125 0.25,0 0.765625,0.015625 1.109375,0.03125 l 0,-0.3125 c -0.671875,0 -0.78125,0 -0.78125,-0.4375 l 0,-1.84375 C 1.78125,-3.625 2.5,-4.1875 3.125,-4.1875 c 0.640625,0 0.75,0.53125 0.75,1.109375 l 0,2.328125 c 0,0.4375 -0.109375,0.4375 -0.78125,0.4375 l 0,0.3125 c 0.34375,-0.015625 0.859375,-0.03125 1.125,-0.03125 0.25,0 0.78125,0.015625 1.109375,0.03125 l 0,-0.3125 c -0.515625,0 -0.765625,0 -0.765625,-0.296875 l 0,-1.90625 c 0,-0.859375 0,-1.15625 -0.3125,-1.515625 -0.140625,-0.171875 -0.46875,-0.375 -1.046875,-0.375 C 2.46875,-4.40625 2,-3.984375 1.71875,-3.359375 l 0,-1.046875 -1.40625,0.109375 0,0.3125 c 0.703125,0 0.78125,0.0625 0.78125,0.5625 z"
                 style="stroke:none"
                 inkscape:connector-curvature="0" />
            </symbol>
            <symbol
               id="textext-6c24b3ff-8"
               overflow="visible"
               style="overflow:visible">
              <path
                 id="path3373"
                 d="m 3.296875,2.390625 c 0,-0.03125 0,-0.046875 -0.171875,-0.21875 C 1.890625,0.921875 1.5625,-0.96875 1.5625,-2.5 c 0,-1.734375 0.375,-3.46875 1.609375,-4.703125 0.125,-0.125 0.125,-0.140625 0.125,-0.171875 0,-0.078125 -0.03125,-0.109375 -0.09375,-0.109375 -0.109375,0 -1,0.6875 -1.59375,1.953125 -0.5,1.09375 -0.625,2.203125 -0.625,3.03125 0,0.78125 0.109375,1.984375 0.65625,3.125 C 2.25,1.84375 3.09375,2.5 3.203125,2.5 c 0.0625,0 0.09375,-0.03125 0.09375,-0.109375 z"
                 style="stroke:none"
                 inkscape:connector-curvature="0" />
            </symbol>
            <symbol
               id="textext-6c24b3ff-9"
               overflow="visible"
               style="overflow:visible">
              <path
                 id="path3376"
                 d="m 2.875,-2.5 c 0,-0.765625 -0.109375,-1.96875 -0.65625,-3.109375 -0.59375,-1.21875 -1.453125,-1.875 -1.546875,-1.875 -0.0625,0 -0.109375,0.046875 -0.109375,0.109375 0,0.03125 0,0.046875 0.1875,0.234375 0.984375,0.984375 1.546875,2.5625 1.546875,4.640625 0,1.71875 -0.359375,3.46875 -1.59375,4.71875 C 0.5625,2.34375 0.5625,2.359375 0.5625,2.390625 0.5625,2.453125 0.609375,2.5 0.671875,2.5 0.765625,2.5 1.671875,1.8125 2.25,0.546875 2.765625,-0.546875 2.875,-1.65625 2.875,-2.5 z"
                 style="stroke:none"
                 inkscape:connector-curvature="0" />
            </symbol>
          </g>
        </defs>
        <g
           style="fill:#d40000"
           id="textext-6c24b3ff-10">
          <g
             id="g3379"
             style="fill:#d40000;fill-opacity:1">
            <use
               style="fill:#d40000"
               id="use3381"
               y="134.765"
               x="223.43201"
               xlink:href="#textext-6c24b3ff-1"
               width="308.84375"
               height="170.65625" />
          </g>
          <g
             id="g3383"
             style="fill:#d40000;fill-opacity:1">
            <use
               style="fill:#d40000"
               id="use3385"
               y="134.765"
               x="231.44099"
               xlink:href="#textext-6c24b3ff-4"
               width="308.84375"
               height="170.65625" />
          </g>
          <g
             id="g3387"
             style="fill:#d40000;fill-opacity:1">
            <use
               style="fill:#d40000"
               id="use3389"
               y="134.765"
               x="241.95952"
               xlink:href="#textext-6c24b3ff-5"
               width="308.84375"
               height="170.65625" />
          </g>
          <g
             id="g3391"
             style="fill:#d40000;fill-opacity:1">
            <use
               style="fill:#d40000"
               id="use3393"
               y="134.765"
               x="248.5946"
               xlink:href="#textext-6c24b3ff-6"
               width="308.84375"
               height="170.65625" />
            <use
               style="fill:#d40000"
               id="use3395"
               y="134.765"
               x="251.36221"
               xlink:href="#textext-6c24b3ff-7"
               width="308.84375"
               height="170.65625" />
            <use
               style="fill:#d40000"
               id="use3397"
               y="134.765"
               x="256.89743"
               xlink:href="#textext-6c24b3ff-8"
               width="308.84375"
               height="170.65625" />
          </g>
          <g
             id="g3399"
             style="fill:#d40000;fill-opacity:1">
            <use
               style="fill:#d40000"
               id="use3401"
               y="134.765"
               x="260.776"
               xlink:href="#textext-6c24b3ff-2"
               width="308.84375"
               height="170.65625" />
          </g>
          <g
             id="g3403"
             style="fill:#d40000;fill-opacity:1">
            <use
               style="fill:#d40000"
               id="use3405"
               y="134.765"
               x="266.47"
               xlink:href="#textext-6c24b3ff-9"
               width="308.84375"
               height="170.65625" />
          </g>
        </g>
      </g>
      <g
         style="fill:#0000ff;stroke:#0000ff;stroke-width:1"
         ns0:text="$y=x+1$"
         ns0:preamble="/home/pesasa/svnrepos/drawings/imped/imped-preamble.tex"
         transform="translate(-6.158194,93.73184)"
         id="g4304">
        <defs
           id="defs4306">
          <g
             id="g4308">
            <symbol
               style="overflow:visible"
               overflow="visible"
               id="textext-63f58503-0">
              <path
                 inkscape:connector-curvature="0"
                 style="stroke:none"
                 d=""
                 id="path4311" />
            </symbol>
            <symbol
               style="overflow:visible"
               overflow="visible"
               id="textext-63f58503-1">
              <path
                 inkscape:connector-curvature="0"
                 style="stroke:none"
                 d="m 4.84375,-3.796875 c 0.046875,-0.140625 0.046875,-0.15625 0.046875,-0.234375 0,-0.171875 -0.140625,-0.265625 -0.296875,-0.265625 -0.09375,0 -0.25,0.0625 -0.34375,0.203125 -0.015625,0.0625 -0.109375,0.359375 -0.140625,0.546875 -0.078125,0.25 -0.140625,0.53125 -0.203125,0.796875 l -0.453125,1.796875 c -0.03125,0.140625 -0.46875,0.84375 -1.125,0.84375 -0.5,0 -0.609375,-0.4375 -0.609375,-0.8125 C 1.71875,-1.375 1.890625,-2 2.21875,-2.875 2.375,-3.28125 2.421875,-3.390625 2.421875,-3.59375 c 0,-0.4375 -0.3125,-0.8125 -0.8125,-0.8125 -0.953125,0 -1.3125,1.453125 -1.3125,1.53125 0,0.109375 0.09375,0.109375 0.109375,0.109375 0.109375,0 0.109375,-0.03125 0.15625,-0.1875 0.28125,-0.9375 0.671875,-1.234375 1.015625,-1.234375 0.078125,0 0.25,0 0.25,0.3125 0,0.25 -0.109375,0.515625 -0.171875,0.703125 -0.40625,1.0625 -0.578125,1.625 -0.578125,2.09375 0,0.890625 0.625,1.1875 1.21875,1.1875 0.390625,0 0.71875,-0.171875 1,-0.453125 -0.125,0.515625 -0.25,1.015625 -0.640625,1.546875 -0.265625,0.328125 -0.640625,0.625 -1.09375,0.625 -0.140625,0 -0.59375,-0.03125 -0.765625,-0.421875 0.15625,0 0.296875,0 0.421875,-0.125 C 1.328125,1.203125 1.421875,1.0625 1.421875,0.875 1.421875,0.5625 1.15625,0.53125 1.0625,0.53125 0.828125,0.53125 0.5,0.6875 0.5,1.171875 c 0,0.5 0.4375,0.875 1.0625,0.875 1.015625,0 2.046875,-0.90625 2.328125,-2.03125 z"
                 id="path4314" />
            </symbol>
            <symbol
               style="overflow:visible"
               overflow="visible"
               id="textext-63f58503-2">
              <path
                 inkscape:connector-curvature="0"
                 style="stroke:none"
                 d="M 3.328125,-3.015625 C 3.390625,-3.265625 3.625,-4.1875 4.3125,-4.1875 c 0.046875,0 0.296875,0 0.5,0.125 C 4.53125,-4 4.34375,-3.765625 4.34375,-3.515625 c 0,0.15625 0.109375,0.34375 0.375,0.34375 0.21875,0 0.53125,-0.171875 0.53125,-0.578125 0,-0.515625 -0.578125,-0.65625 -0.921875,-0.65625 -0.578125,0 -0.921875,0.53125 -1.046875,0.75 -0.25,-0.65625 -0.78125,-0.75 -1.078125,-0.75 -1.03125,0 -1.609375,1.28125 -1.609375,1.53125 0,0.109375 0.109375,0.109375 0.125,0.109375 0.078125,0 0.109375,-0.03125 0.125,-0.109375 0.34375,-1.0625 1,-1.3125 1.34375,-1.3125 0.1875,0 0.53125,0.09375 0.53125,0.671875 0,0.3125 -0.171875,0.96875 -0.53125,2.375 -0.15625,0.609375 -0.515625,1.03125 -0.953125,1.03125 -0.0625,0 -0.28125,0 -0.5,-0.125 0.25,-0.0625 0.46875,-0.265625 0.46875,-0.546875 0,-0.265625 -0.21875,-0.34375 -0.359375,-0.34375 -0.3125,0 -0.546875,0.25 -0.546875,0.578125 0,0.453125 0.484375,0.65625 0.921875,0.65625 0.671875,0 1.03125,-0.703125 1.046875,-0.75 0.125,0.359375 0.484375,0.75 1.078125,0.75 1.03125,0 1.59375,-1.28125 1.59375,-1.53125 0,-0.109375 -0.078125,-0.109375 -0.109375,-0.109375 -0.09375,0 -0.109375,0.046875 -0.140625,0.109375 -0.328125,1.078125 -1,1.3125 -1.3125,1.3125 -0.390625,0 -0.546875,-0.3125 -0.546875,-0.65625 0,-0.21875 0.046875,-0.4375 0.15625,-0.875 z"
                 id="path4318" />
            </symbol>
            <symbol
               style="overflow:visible"
               overflow="visible"
               id="textext-63f58503-3">
              <path
                 inkscape:connector-curvature="0"
                 style="stroke:none"
                 d=""
                 id="path4322" />
            </symbol>
            <symbol
               style="overflow:visible"
               overflow="visible"
               id="textext-63f58503-4">
              <path
                 inkscape:connector-curvature="0"
                 style="stroke:none"
                 d="m 6.84375,-3.265625 c 0.15625,0 0.34375,0 0.34375,-0.1875 C 7.1875,-3.65625 7,-3.65625 6.859375,-3.65625 l -5.96875,0 c -0.140625,0 -0.328125,0 -0.328125,0.203125 0,0.1875 0.1875,0.1875 0.328125,0.1875 z m 0.015625,1.9375 c 0.140625,0 0.328125,0 0.328125,-0.203125 0,-0.1875 -0.1875,-0.1875 -0.34375,-0.1875 l -5.953125,0 c -0.140625,0 -0.328125,0 -0.328125,0.1875 0,0.203125 0.1875,0.203125 0.328125,0.203125 z"
                 id="path4326" />
            </symbol>
            <symbol
               style="overflow:visible"
               overflow="visible"
               id="textext-63f58503-5">
              <path
                 inkscape:connector-curvature="0"
                 style="stroke:none"
                 d="m 4.078125,-2.296875 2.78125,0 C 7,-2.296875 7.1875,-2.296875 7.1875,-2.5 7.1875,-2.6875 7,-2.6875 6.859375,-2.6875 l -2.78125,0 0,-2.796875 c 0,-0.140625 0,-0.328125 -0.203125,-0.328125 -0.203125,0 -0.203125,0.1875 -0.203125,0.328125 l 0,2.796875 -2.78125,0 c -0.140625,0 -0.328125,0 -0.328125,0.1875 0,0.203125 0.1875,0.203125 0.328125,0.203125 l 2.78125,0 0,2.796875 c 0,0.140625 0,0.328125 0.203125,0.328125 0.203125,0 0.203125,-0.1875 0.203125,-0.328125 z"
                 id="path4329" />
            </symbol>
            <symbol
               style="overflow:visible"
               overflow="visible"
               id="textext-63f58503-6">
              <path
                 inkscape:connector-curvature="0"
                 style="stroke:none"
                 d="m 2.9375,-6.375 c 0,-0.25 0,-0.265625 -0.234375,-0.265625 C 2.078125,-6 1.203125,-6 0.890625,-6 l 0,0.3125 c 0.203125,0 0.78125,0 1.296875,-0.265625 l 0,5.171875 c 0,0.359375 -0.03125,0.46875 -0.921875,0.46875 l -0.3125,0 0,0.3125 c 0.34375,-0.03125 1.203125,-0.03125 1.609375,-0.03125 0.390625,0 1.265625,0 1.609375,0.03125 l 0,-0.3125 -0.3125,0 c -0.90625,0 -0.921875,-0.109375 -0.921875,-0.46875 z"
                 id="path4332" />
            </symbol>
          </g>
        </defs>
        <g
           style="fill:#0000ff;stroke:#0000ff;stroke-width:1"
           id="textext-63f58503-7">
          <g
             style="fill:#0000ff;fill-opacity:1;stroke:#0000ff;stroke-width:1"
             id="g4335">
            <use
               style="fill:#0000ff;stroke:#0000ff;stroke-width:1"
               height="170.65625"
               width="308.84375"
               xlink:href="#textext-63f58503-1"
               x="223.43201"
               y="134.765"
               id="use4337" />
          </g>
          <g
             style="fill:#0000ff;fill-opacity:1;stroke:#0000ff;stroke-width:1"
             id="g4339">
            <use
               style="fill:#0000ff;stroke:#0000ff;stroke-width:1"
               height="170.65625"
               width="308.84375"
               xlink:href="#textext-63f58503-4"
               x="231.44099"
               y="134.765"
               id="use4341" />
          </g>
          <g
             style="fill:#0000ff;fill-opacity:1;stroke:#0000ff;stroke-width:1"
             id="g4343">
            <use
               style="fill:#0000ff;stroke:#0000ff;stroke-width:1"
               height="170.65625"
               width="308.84375"
               xlink:href="#textext-63f58503-2"
               x="241.957"
               y="134.765"
               id="use4345" />
          </g>
          <g
             style="fill:#0000ff;fill-opacity:1;stroke:#0000ff;stroke-width:1"
             id="g4347">
            <use
               style="fill:#0000ff;stroke:#0000ff;stroke-width:1"
               height="170.65625"
               width="308.84375"
               xlink:href="#textext-63f58503-5"
               x="249.86501"
               y="134.765"
               id="use4349" />
          </g>
          <g
             style="fill:#0000ff;fill-opacity:1;stroke:#0000ff;stroke-width:1"
             id="g4351">
            <use
               style="fill:#0000ff;stroke:#0000ff;stroke-width:1"
               height="170.65625"
               width="308.84375"
               xlink:href="#textext-63f58503-6"
               x="259.82559"
               y="134.765"
               id="use4353" />
          </g>
        </g>
      </g>
    </g>
  </g>
</svg>
