<?xml version="1.0" encoding="UTF-8" standalone="no"?>
<!-- Created with Inkscape (http://www.inkscape.org/) -->

<svg
   xmlns:osb="http://www.openswatchbook.org/uri/2009/osb"
   xmlns:dc="http://purl.org/dc/elements/1.1/"
   xmlns:cc="http://creativecommons.org/ns#"
   xmlns:rdf="http://www.w3.org/1999/02/22-rdf-syntax-ns#"
   xmlns:svg="http://www.w3.org/2000/svg"
   xmlns="http://www.w3.org/2000/svg"
   xmlns:xlink="http://www.w3.org/1999/xlink"
   xmlns:sodipodi="http://sodipodi.sourceforge.net/DTD/sodipodi-0.dtd"
   xmlns:inkscape="http://www.inkscape.org/namespaces/inkscape"
   width="308.8927"
   height="170.66518"
   id="svg9857"
   version="1.1"
   inkscape:version="0.48.4 r9939"
   sodipodi:docname="2014-valo-179-entangle.svg"
   inkscape:export-filename="/home/pesasa/svnrepos/drawings/www/viikonvalo/valo179-entangle.png"
   inkscape:export-xdpi="58.27"
   inkscape:export-ydpi="58.27">
  <sodipodi:namedview
     id="base"
     pagecolor="#ffffff"
     bordercolor="#666666"
     borderopacity="1.0"
     inkscape:pageopacity="0.0"
     inkscape:pageshadow="2"
     inkscape:zoom="2.8997195"
     inkscape:cx="239.72707"
     inkscape:cy="18.108681"
     inkscape:document-units="px"
     inkscape:current-layer="layer1"
     showgrid="false"
     fit-margin-top="0"
     fit-margin-left="0"
     fit-margin-right="0"
     fit-margin-bottom="0"
     inkscape:window-width="1920"
     inkscape:window-height="1128"
     inkscape:window-x="-2"
     inkscape:window-y="-3"
     inkscape:window-maximized="1">
    <inkscape:grid
       snapvisiblegridlinesonly="true"
       enabled="true"
       visible="true"
       empspacing="5"
       id="grid4787"
       type="xygrid"
       originx="0.0205684px"
       originy="0.0054835526px" />
  </sodipodi:namedview>
  <defs
     id="defs9859">
    <linearGradient
       id="linearGradient14486">
      <stop
         style="stop-color:#ffffff;stop-opacity:1"
         offset="0"
         id="stop14488" />
      <stop
         style="stop-color:#d2d2d2;stop-opacity:1"
         offset="1"
         id="stop14490" />
    </linearGradient>
    <radialGradient
       r="258.02078"
       fy="479.36584"
       fx="787.22473"
       cy="479.36584"
       cx="787.22473"
       gradientTransform="matrix(0.69719883,1.0793933,-1.1943603,0.77297612,832.93918,-733.53466)"
       gradientUnits="userSpaceOnUse"
       id="radialGradient38317"
       xlink:href="#linearGradient38277"
       inkscape:collect="always" />
    <linearGradient
       id="linearGradient38277">
      <stop
         id="stop38279"
         offset="0"
         style="stop-color:#87aade;stop-opacity:1" />
      <stop
         id="stop38281"
         offset="1"
         style="stop-color:#162d50;stop-opacity:1" />
    </linearGradient>
    <linearGradient
       y2="4.9912353"
       x2="136.37059"
       y1="83.783127"
       x1="161.11934"
       gradientUnits="userSpaceOnUse"
       id="linearGradient38319"
       xlink:href="#linearGradient38300"
       inkscape:collect="always" />
    <linearGradient
       id="linearGradient38300"
       inkscape:collect="always">
      <stop
         id="stop38302"
         offset="0"
         style="stop-color:#ffffff;stop-opacity:1;" />
      <stop
         id="stop38304"
         offset="1"
         style="stop-color:#ffffff;stop-opacity:0" />
    </linearGradient>
    <filter
       id="filter38253"
       inkscape:collect="always"
       color-interpolation-filters="sRGB">
      <feGaussianBlur
         id="feGaussianBlur38255"
         stdDeviation="3.7990597"
         inkscape:collect="always" />
    </filter>
    <linearGradient
       id="linearGradient38257"
       inkscape:collect="always">
      <stop
         id="stop38259"
         offset="0"
         style="stop-color:#ffe680;stop-opacity:1" />
      <stop
         id="stop38261"
         offset="1"
         style="stop-color:#ffcc00;stop-opacity:1" />
    </linearGradient>
    <radialGradient
       r="121.0625"
       fy="111.79336"
       fx="204.84595"
       cy="111.79336"
       cx="204.84595"
       gradientTransform="matrix(-0.51080991,-0.39352661,0.36619486,-0.47533151,176.33119,204.40239)"
       gradientUnits="userSpaceOnUse"
       id="radialGradient39592"
       xlink:href="#linearGradient38257"
       inkscape:collect="always" />
    <filter
       height="1.2054614"
       y="-0.10273071"
       width="1.0626322"
       x="-0.031316079"
       id="filter40112"
       inkscape:collect="always"
       color-interpolation-filters="sRGB">
      <feGaussianBlur
         id="feGaussianBlur40114"
         stdDeviation="2.401374"
         inkscape:collect="always" />
    </filter>
    <style
       type="text/css"
       id="style6654">
   
    .str1 {stroke:#1F1A17;stroke-width:0.0286362}
    .str0 {stroke:white;stroke-width:0.0286362}
    .fil2 {fill:#1F1A17}
    .fil0 {fill:#EAE342}
    .fil1 {fill:white}
   
  </style>
    <linearGradient
       osb:paint="solid"
       id="linearGradient4165">
      <stop
         id="stop4167"
         offset="0"
         style="stop-color:#4d4d4d;stop-opacity:1;" />
    </linearGradient>
    <linearGradient
       osb:paint="solid"
       id="linearGradient4171">
      <stop
         id="stop4173"
         offset="0"
         style="stop-color:#999999;stop-opacity:1;" />
    </linearGradient>
    <linearGradient
       osb:paint="solid"
       id="linearGradient4177">
      <stop
         id="stop4179"
         offset="0"
         style="stop-color:#000000;stop-opacity:1;" />
    </linearGradient>
    <filter
       id="filter6087"
       inkscape:collect="always"
       color-interpolation-filters="sRGB">
      <feGaussianBlur
         id="feGaussianBlur6089"
         stdDeviation="0.3098678"
         inkscape:collect="always" />
    </filter>
    <filter
       color-interpolation-filters="sRGB"
       inkscape:collect="always"
       id="filter40130"
       x="-0.051605642"
       width="1.1032113"
       y="-0.11904688"
       height="1.2380939">
      <feGaussianBlur
         inkscape:collect="always"
         stdDeviation="1.9055437"
         id="feGaussianBlur40132" />
    </filter>
    <linearGradient
       inkscape:collect="always"
       xlink:href="#linearGradient6091-4"
       id="linearGradient6097-7"
       x1="502.35776"
       y1="215.35515"
       x2="502.35776"
       y2="247.32196"
       gradientUnits="userSpaceOnUse" />
    <linearGradient
       inkscape:collect="always"
       id="linearGradient6091-4">
      <stop
         style="stop-color:#ffffff;stop-opacity:1"
         offset="0"
         id="stop6093-6" />
      <stop
         style="stop-color:#d2d2d2;stop-opacity:1"
         offset="1"
         id="stop6095-0" />
    </linearGradient>
    <linearGradient
       inkscape:collect="always"
       xlink:href="#linearGradient14486"
       id="linearGradient4330"
       gradientUnits="userSpaceOnUse"
       x1="35.336468"
       y1="395.6817"
       x2="35.336468"
       y2="419.84171" />
    <filter
       color-interpolation-filters="sRGB"
       x="-.039886"
       y="-.12104"
       width="1.0798"
       height="1.2421"
       id="filter4037">
      <feGaussianBlur
         stdDeviation="11.868751"
         id="feGaussianBlur4039" />
    </filter>
    <linearGradient
       x1="-153"
       x2="-145.56"
       y1="-47.638"
       gradientUnits="userSpaceOnUse"
       y2="-89.638"
       id="linearGradient5999">
      <stop
         offset="0"
         stop-color="#2ad4ff"
         id="stop5783" />
      <stop
         offset="1"
         stop-opacity="0"
         stop-color="#2ad4ff"
         id="stop5785" />
    </linearGradient>
    <linearGradient
       x1="-210.09"
       x2="-164.83"
       y1="245.86"
       gradientUnits="userSpaceOnUse"
       y2="249.55"
       id="linearGradient5995">
      <stop
         offset="0"
         stop-color="#fff"
         id="stop5664" />
      <stop
         offset="1"
         stop-opacity=".053137"
         stop-color="#fff"
         id="stop5666" />
    </linearGradient>
    <linearGradient
       x1="-210.09"
       x2="-149.5"
       y1="245.86"
       gradientUnits="userSpaceOnUse"
       y2="245.86"
       id="linearGradient5993">
      <stop
         offset="0"
         stop-color="#fff"
         id="stop5556" />
      <stop
         offset="1"
         stop-opacity=".037931"
         stop-color="#fff"
         id="stop5558" />
    </linearGradient>
    <linearGradient
       y2="249.36"
       y1="249.36"
       x2="22.886"
       gradientUnits="userSpaceOnUse"
       x1="-228.89"
       id="linearGradient5991">
      <stop
         offset="0"
         stop-color="#aed3ff"
         id="stop5641" />
      <stop
         offset=".21015"
         stop-opacity=".13245"
         stop-color="#d6e9ff"
         id="stop5643" />
      <stop
         offset=".77785"
         stop-opacity=".13245"
         stop-color="#c2deff"
         id="stop5647" />
      <stop
         offset="1"
         stop-color="#aed3ff"
         id="stop5645" />
    </linearGradient>
    <linearGradient
       y2="-191.78"
       x2="-807.77"
       y1="-119.64"
       gradientUnits="userSpaceOnUse"
       spreadMethod="reflect"
       x1="-838.19"
       id="linearGradient5989">
      <stop
         offset="0"
         stop-color="#cdd0ce"
         id="stop5889" />
      <stop
         offset="1"
         stop-opacity="0"
         stop-color="#cdd0ce"
         id="stop5891" />
    </linearGradient>
    <linearGradient
       y2="233.88"
       x2="47.811"
       gradientTransform="matrix(0,1,-1,0,511.38,554.38)"
       y1="233.88"
       gradientUnits="userSpaceOnUse"
       x1="-356.81"
       id="linearGradient5974">
      <stop
         offset="0"
         id="stop5528" />
      <stop
         offset="1"
         stop-opacity=".99608"
         stop-color="#fff"
         id="stop5530" />
    </linearGradient>
    <radialGradient
       r="231.54"
       gradientTransform="matrix(1.5048,0.23121,-0.16112,1.0486,317.46,104.94)"
       cx="81.5"
       cy="127.88"
       gradientUnits="userSpaceOnUse"
       id="radialGradient5971">
      <stop
         offset="0"
         stop-color="#acacac"
         id="stop5506" />
      <stop
         offset="1"
         id="stop5508" />
    </radialGradient>
    <linearGradient
       y2="165.88"
       x2="-175.16"
       gradientTransform="matrix(1.2614,0,0,1.2614,473.02,129.31)"
       y1="76.875"
       gradientUnits="userSpaceOnUse"
       x1="-182.84"
       id="linearGradient5965">
      <stop
         offset="0"
         stop-color="#2a5e89"
         id="stop5623" />
      <stop
         offset="1"
         stop-opacity="0"
         stop-color="#2a5e89"
         id="stop5625" />
    </linearGradient>
    <radialGradient
       r="56"
       gradientTransform="matrix(1.3393,0,0,1.1719,495.16,127.69)"
       cx="-167"
       cy="337.36"
       gradientUnits="userSpaceOnUse"
       id="radialGradient5961">
      <stop
         offset="0"
         stop-color="#042b76"
         id="stop5610" />
      <stop
         offset="1"
         stop-color="#2e75f8"
         id="stop5612" />
    </radialGradient>
    <linearGradient
       y2="305.11"
       x2="-143.59"
       gradientTransform="translate(427.84,138.77)"
       y1="345.38"
       gradientUnits="userSpaceOnUse"
       x1="-150.34"
       id="linearGradient5957">
      <stop
         offset="0"
         stop-color="#89269d"
         id="stop5771" />
      <stop
         offset=".33681"
         stop-color="#a40000"
         id="stop5777" />
      <stop
         offset="1"
         stop-opacity="0"
         stop-color="#89269d"
         id="stop5773" />
    </linearGradient>
    <filter
       id="filter5827">
      <feGaussianBlur
         stdDeviation="1.0174043"
         id="feGaussianBlur5829" />
    </filter>
    <filter
       id="filter5590">
      <feGaussianBlur
         stdDeviation="0.81070223"
         id="feGaussianBlur5592" />
    </filter>
    <linearGradient
       inkscape:collect="always"
       xlink:href="#linearGradient5991"
       id="linearGradient3245"
       gradientUnits="userSpaceOnUse"
       x1="-228.89"
       y1="249.36"
       x2="22.886"
       y2="249.36" />
    <linearGradient
       inkscape:collect="always"
       xlink:href="#linearGradient5991"
       id="linearGradient3247"
       gradientUnits="userSpaceOnUse"
       x1="-228.89"
       y1="249.36"
       x2="22.886"
       y2="249.36" />
    <linearGradient
       inkscape:collect="always"
       xlink:href="#linearGradient5989"
       id="linearGradient3249"
       gradientUnits="userSpaceOnUse"
       spreadMethod="reflect"
       x1="-838.19"
       y1="-119.64"
       x2="-807.77"
       y2="-191.78" />
    <linearGradient
       inkscape:collect="always"
       xlink:href="#linearGradient5989"
       id="linearGradient3251"
       gradientUnits="userSpaceOnUse"
       spreadMethod="reflect"
       x1="-838.19"
       y1="-119.64"
       x2="-807.77"
       y2="-191.78" />
    <linearGradient
       inkscape:collect="always"
       xlink:href="#linearGradient5989"
       id="linearGradient3253"
       gradientUnits="userSpaceOnUse"
       spreadMethod="reflect"
       x1="-838.19"
       y1="-119.64"
       x2="-807.77"
       y2="-191.78" />
  </defs>
  <metadata
     id="metadata9862">
    <rdf:RDF>
      <cc:Work
         rdf:about="">
        <dc:format>image/svg+xml</dc:format>
        <dc:type
           rdf:resource="http://purl.org/dc/dcmitype/StillImage" />
        <dc:title></dc:title>
      </cc:Work>
    </rdf:RDF>
  </metadata>
  <g
     transform="translate(-16.979432,-143.99655)"
     id="layer1"
     inkscape:groupmode="layer"
     inkscape:label="Layer 1">
    <g
       transform="matrix(1.0213303,0,0,1.0213303,-0.39889826,-3.0840892)"
       id="g38310">
      <rect
         transform="matrix(0.57918184,0,0,0.57857907,-350.1859,-99.789865)"
         style="fill:url(#radialGradient38317);fill-opacity:1;fill-rule:nonzero;stroke:none;display:inline"
         id="rect10983-4"
         width="517.06445"
         height="283.68048"
         x="636.19702"
         y="423.4234"
         ry="21.2132" />
      <path
         style="opacity:0.26440681;fill:url(#linearGradient38319);fill-opacity:1;fill-rule:nonzero;stroke:none;display:inline"
         d="m 13.78204,1.494856 c -6.8066102,0 -12.28125,5.4817236 -12.28125,12.28125 l 0,66.536394 C 144.3017,139.19649 211.44627,40.874351 300.75,81.5 l 0,-67.723894 c 0,-6.7995264 -5.47464,-12.28125 -12.28125,-12.28125 z"
         transform="translate(17,144)"
         id="rect38285"
         inkscape:connector-curvature="0"
         sodipodi:nodetypes="ssccsss" />
      <g
         transform="matrix(0.52762727,0,0,0.52762727,10.932562,71.287425)"
         id="g39588">
        <path
           inkscape:connector-curvature="0"
           style="font-size:84.35607147px;font-style:normal;font-variant:normal;font-weight:bold;font-stretch:normal;text-align:center;line-height:125%;letter-spacing:0px;word-spacing:0px;text-anchor:middle;fill:#000000;fill-opacity:1;stroke:none;filter:url(#filter38253);font-family:MgOpen Cosmetica;-inkscape-font-specification:MgOpen Cosmetica Bold"
           d="m 153.53125,160.03125 0,1.71875 c 0,0.8951 0.11865,4.77976 0.34375,12.03125 0.2808,7.18151 0.40624,12.75964 0.40625,16.71875 -1e-5,0.82337 -0.12506,5.56637 -0.40625,13.9375 l 0,0.0312 c -0.22526,8.32559 -0.34375,14.77114 -0.34375,19.40625 l 0,1.5625 1.59375,-0.0312 6.625,-0.25 0.125,0 6.53125,0.25 1.59375,0.0312 0,-1.5625 c -3e-5,-0.50551 -0.0437,-3.28209 -0.15625,-8.625 -0.0551,-2.61494 -0.0375,-3.69377 -0.0625,-5.5625 0.8589,1.4747 1.50975,2.64814 2.53125,4.375 2.2422,3.69583 4.281,7.18205 6.125,10.53125 l 0.4375,0.8125 0.90625,0 c 0.43898,0 1.3686,-0.0743 3.125,-0.1875 l 0.0312,0 0.0312,0 C 184.67992,225.05347 186.07289,225 187.125,225 c 0.0936,0 1.27291,0.0512 3.0625,0.21875 l 0.0312,0 0.0312,0 c 1.88056,0.11387 3.35815,0.1875 4.46875,0.1875 l 2.71875,0 -1.4375,-2.34375 -5.8125,-9.34375 c -3.53109,-5.68591 -6.5222,-10.73681 -9.15625,-15.375 L 189.4375,190 l 0.0312,0 5.1875,-4.90625 0.875,-0.8125 -0.59375,-1.03125 -0.34375,-0.59375 -0.46875,-0.8125 -0.90625,0.0312 -3.8125,0.1875 c -0.013,0 -0.0491,3e-5 -0.0625,0 -0.62183,-0.001 -1.58757,-0.0388 -2.90625,-0.0937 -1.35368,-0.0563 -2.36246,-0.0937 -3.09375,-0.0937 l -0.78125,0 -0.46875,0.65625 c -2.56694,3.62341 -4.98923,6.75483 -7.25,9.34375 -1.51434,1.73415 -3.36257,3.2887 -5.15625,4.875 l 0,-9.4375 c -2e-5,-2.49433 0.0879,-6.74187 0.3125,-12.6875 0.22531,-5.96521 0.34373,-10.24292 0.34375,-12.875 l 0,-1.6875 -1.6875,0.1875 c -2.13272,0.21858 -4.56788,0.31256 -7.28125,0.3125 -2.31227,6e-5 -4.33994,-0.0963 -6.125,-0.3125 l -1.71875,-0.21875 z m -39.5,0.78125 c -2.18396,9e-5 -4.21927,0.90848 -5.8125,2.5 -0.73813,0.73738 -1.30172,1.56937 -1.71875,2.46875 l -2.1875,0 c -0.69759,7e-5 -1.57031,0.106 -2.8125,0.21875 -1.20554,0.10949 -2.10922,0.12504 -2.65625,0.125 l 0,0.0312 -4.34375,-0.34375 -1.375,-0.125 -0.25,1.375 c -0.269521,1.56141 -0.637392,3.14913 -1.125,4.71875 l -0.03125,0 0,0.0312 c -0.439916,1.53801 -0.956007,3.09759 -1.5625,4.75 l 0,0.0312 -9,24.96875 -9.34375,-24.84375 c -1.1005,-2.85793 -2.118181,-6.11863 -3.0625,-9.7811 l -0.3125,-1.1875 -1.21875,0.0312 -7.625,0.34375 c 0.0095,0 -0.06674,9e-5 -0.0625,0 0.0594,-0.001 -0.315615,-0.008 -0.875,-0.0312 -0.599294,-0.0248 -1.474806,-0.0689 -2.625,-0.125 -2.309061,-0.11242 -3.932852,-0.18744 -4.96875,-0.1875 l -2.21875,0 0.8125,2.09375 16.6875,42.5625 c 0.0057,0.0157 0.02551,0.0156 0.03125,0.0312 1.227605,3.34514 2.177109,6.04549 2.90625,8.0625 0.727416,2.01234 1.389029,3.91846 1.9375,5.78125 l 0.34375,1.09375 1.125,0 c 0.431574,0 0.950286,-0.0733 2.09375,-0.1875 l 0.03125,0 0.03125,0 C 75.983458,225.05624 76.853126,225 77.40625,225 c 0.48381,0 1.060788,0.0239 1.71875,0.125 l 0.03125,0 0.0625,0 c 0.7127,0.0548 1.597008,0.13936 2.59375,0.25 l 1.28125,0.15625 0.34375,-1.28125 c 1.277091,-4.93676 2.8309,-9.53384 4.65625,-13.84375 l 0,-0.0312 11.3125,-28.8125 0,-0.0312 c 1.9568,-4.52305 4.04721,-9.01218 6.28125,-13.53135 l 0.46875,-0.96875 c -0.18699,0.67603 -0.4375,1.34224 -0.4375,2.0625 0,2.22636 0.8899,4.27117 2.5,5.8125 1.60067,1.53246 3.64957,2.37506 5.8125,2.375 2.20818,6e-5 4.23194,-0.85854 5.78125,-2.40625 1.58681,-1.58513 2.49998,-3.59949 2.5,-5.78125 -2e-5,-2.18166 -0.91322,-4.19603 -2.5,-5.78125 -1.58498,-1.58322 -3.59732,-2.49991 -5.78125,-2.5 z m 24.0625,0 c -2.18395,9e-5 -4.21926,0.90849 -5.8125,2.5 -1.5951,1.59349 -2.46875,3.61716 -2.46875,5.78125 0,2.20932 0.85021,4.26308 2.46875,5.8125 1.60069,1.53245 3.64958,2.37506 5.8125,2.375 2.20819,6e-5 4.23195,-0.85853 5.78125,-2.40625 1.58683,-1.58514 2.49998,-3.5995 2.5,-5.78125 -2e-5,-2.18166 -0.91321,-4.19603 -2.5,-5.78125 -1.58497,-1.58322 -3.59731,-2.49991 -5.78125,-2.5 z m 82.125,20.0625 c -7.03533,4e-5 -12.89025,2.00977 -17.25,6.0625 -4.32718,4.01828 -6.5,9.72666 -6.5,16.71875 0,6.82554 2.12787,12.47227 6.375,16.59375 l 0.0312,0 c 4.29373,4.04762 9.98368,6.09375 16.75,6.09375 7.03622,0 12.79338,-2.04775 16.9375,-6.1875 4.1391,-4.13483 6.18745,-9.82866 6.1875,-16.75 -5e-5,-6.58886 -2.08977,-12.13665 -6.25,-16.25 -0.006,-0.006 -0.0256,0.006 -0.0312,0 -4.11703,-4.16336 -9.64679,-6.28121 -16.25,-6.28125 z m 53.90625,0.15625 c -2.7022,4e-5 -5.35814,0.76233 -7.90625,2.15625 -1.36401,0.7462 -2.5998,1.62959 -3.75,2.59375 l 0,-2.375 0,-1.6875 -1.6875,0.1875 c -0.57153,0.0571 -1.40135,0.16498 -2.4375,0.3125 -1.40666,4e-5 -2.84338,4e-5 -4.25,0 -1.23787,4e-5 -2.08749,4e-5 -2.59375,0 -0.54528,-0.0653 -1.57939,-0.15224 -3.34375,-0.3125 L 246.5,181.75 l 0,1.65625 c -1e-5,1.49074 0.11842,4.63554 0.34375,9.53125 0.22465,4.825 0.34376,8.29536 0.34375,10.375 -3e-5,1.01745 -0.11885,4.12634 -0.34375,9.125 -0.22557,4.95725 -0.34376,8.75025 -0.34375,11.4375 l 0,1.53125 1.53125,0 c 0.43899,0 1.36095,-0.0742 3.0625,-0.1875 l 0.0312,0 0.0312,0 c 1.65765,-0.1655 2.9436,-0.21875 3.875,-0.21875 0.0936,0 1.19411,0.0515 2.8125,0.21875 l 0.0312,0 0.0312,0 c 1.71441,0.11419 3.0596,0.1875 4.0625,0.1875 l 1.53125,0 0,-1.53125 c -2e-5,-1.43799 -0.11844,-4.39175 -0.34375,-9.0625 -0.16849,-4.65383 -0.25002,-8.33243 -0.25,-11 -2e-5,-2.04614 0.0182,-3.76468 0.125,-5.21875 6.4e-4,-0.009 -6.4e-4,-0.0226 0,-0.0312 0.15535,-1.37002 0.50012,-2.57425 0.9375,-3.59375 l 0,-0.0312 c 0.41879,-1.02264 0.96128,-1.69743 1.65625,-2.1875 l 0,-0.0312 c 0.75956,-0.54799 1.58345,-0.78123 2.59375,-0.78125 1.50909,2e-5 2.28018,0.4205 3,1.5625 l 0.0312,0.0312 c 0.84282,1.26298 1.24997,2.70457 1.25,4.46875 l 0,0.0937 0.0312,0.0937 c 0.16044,1.28295 0.21872,2.59083 0.21875,3.9375 l 0,1.53125 c -3e-5,1.61507 -0.11906,4.84843 -0.34375,9.5625 -0.16914,4.73097 -0.25003,8.26067 -0.25,10.65625 l 0,1.53125 1.53125,0 c 0.43157,0 1.25894,-0.0745 3.125,-0.1875 1.89399,-0.1113 3.23728,-0.125 3.96875,-0.125 0.73138,0 1.8162,0.0148 3.25,0.125 1.49012,0.11452 2.61412,0.1875 3.40625,0.1875 l 1.53125,0 0,-1.53125 c -4e-5,-2.3982 -0.0866,-5.87302 -0.3125,-10.5 -0.16823,-4.64931 -0.28056,-7.81378 -0.28125,-9.4375 l 0,-0.0312 0.0937,-8.8125 0,-0.0312 c -5e-5,-4.03854 -1.3776,-7.53779 -4.09375,-10.125 -2.69661,-2.56842 -6.21918,-3.90621 -10.25,-3.90625 z m -168.84375,0.6875 0.15625,1.8125 0.65625,7.40625 -0.0312,0 0,25.1875 c 0,1.25857 -0.0171,2.51025 -0.125,3.75 -0.10968,1.20521 -0.26918,2.46731 -0.4375,3.8125 l -0.21875,1.78125 1.78125,-0.0625 6.8125,-0.25 0.125,0 7.03125,0.25 1.75,0.0312 -0.1875,-1.71875 c -0.33404,-3.39228 -0.51358,-6.28041 -0.625,-8.71875 -1.7e-4,-0.007 1.7e-4,-0.024 0,-0.0312 -0.0556,-2.4547 -0.0939,-5.93774 -0.0937,-10.46875 l 0.0937,-13.75 0.71875,-7.1875 0.1875,-1.84375 -1.8125,0.1875 c -1.24271,0.1129 -2.4858,0.23181 -3.71875,0.34375 -1.21563,0.11041 -2.3146,0.15629 -3.3125,0.15625 -0.93776,4e-5 -2.06964,-0.0455 -3.34375,-0.15625 -1.23024,-0.11169 -2.40864,-0.23096 -3.59375,-0.34375 l -1.8125,-0.1875 z m 24.0625,0 0.15625,1.8125 0.65625,7.40625 -0.0312,0 0,25.1875 c -10e-6,1.25858 -0.0171,2.51026 -0.125,3.75 -0.10969,1.20521 -0.26918,2.46731 -0.4375,3.8125 l -0.21875,1.78125 1.78125,-0.0625 6.8125,-0.25 0.125,0 7.0625,0.25 1.75,0.0312 -0.1875,-1.71875 c -0.33493,-3.40135 -0.54517,-6.29299 -0.65625,-8.71875 -1.7e-4,-0.007 1.7e-4,-0.024 0,-0.0312 -0.0556,-2.4547 -0.0939,-5.93774 -0.0937,-10.46875 l 0.0937,-13.75 0.71875,-7.1875 0.1875,-1.84375 -1.8125,0.1875 c -1.24272,0.1129 -2.4858,0.23181 -3.71875,0.34375 -1.21563,0.11041 -2.31459,0.15629 -3.3125,0.15625 -0.93775,4e-5 -2.06963,-0.0455 -3.34375,-0.15625 -1.23023,-0.11169 -2.40862,-0.23095 -3.59375,-0.34375 l -1.8125,-0.1875 z m 90.28125,6.34375 c 1.7502,2e-5 2.82449,0.47172 3.65625,1.46875 0.92431,1.10808 1.58588,2.6397 2,4.65625 0.11138,0.89084 0.27584,2.06425 0.4375,3.625 0.16106,1.55531 0.21872,3.47571 0.21875,5.6875 -3e-5,2.2689 -0.0563,4.22912 -0.21875,5.90625 -0.16186,1.61664 -0.32668,2.83015 -0.4375,3.71875 -0.40952,1.94309 -1.06617,3.4781 -2,4.65625 -0.008,0.0106 -0.0229,0.0207 -0.0312,0.0312 -0.83677,0.98535 -1.86648,1.4375 -3.53125,1.4375 -1.75025,0 -2.92743,-0.49859 -3.875,-1.53125 -0.92985,-1.12915 -1.52013,-2.59662 -1.71875,-4.53125 l 0,-0.0625 0,-0.0625 c -0.54408,-2.93492 -0.81251,-6.06049 -0.8125,-9.40625 -10e-6,-2.94931 0.0652,-5.48093 0.28125,-7.53125 0.20548,-1.95024 0.76832,-3.87509 1.65625,-5.8125 0.004,-0.009 -0.004,-0.0223 0,-0.0312 0.7694,-1.56274 1.94976,-2.21872 4.375,-2.21875 z m -81.4375,50.09375 -0.40625,1.0625 c -1.57432,4.26872 -3.03299,8.2647 -4.4375,11.96875 l -0.0312,0 c -1.34353,3.69088 -3.04629,8.19321 -5.125,13.46875 -2.02172,5.21736 -3.72389,9.41109 -5.0625,12.53125 l -8.4375,19.5625 -1,2.3125 2.53125,-0.21875 2.9375,-0.21875 5.46875,0.25 1.09375,0.0312 0.40625,-1.03125 c 1.90045,-5.11532 3.59747,-10.03357 5.15625,-14.8125 l 4.78125,-0.21875 c 0.0306,8.7e-4 0.0632,-8.8e-4 0.0937,0 1.93096,0.0557 3.9027,0.13191 5.90625,0.1875 1.67622,0.0466 3.28724,0.0595 4.90625,0.0625 l 2.96875,9.15625 1.75,5.5625 0.34375,1.09375 1.125,-0.0312 8.21875,-0.25 0.0625,0 8.03125,0.25 2.34375,0.0625 -0.90625,-2.1875 c -3.64814,-8.69026 -7.21123,-17.76684 -10.75,-27.25 -3.54228,-9.49226 -7.23843,-19.57612 -11.0625,-30.25 l -0.40625,-1.09375 -1.125,0.0937 -4.03125,0.25 -0.1875,0 -4.03125,-0.25 -1.125,-0.0937 z m 104.78125,0.0625 c -10.0016,6e-5 -18.26717,2.68759 -24.59375,8.0625 -6.37363,5.35547 -9.59375,13.1012 -9.59375,22.8125 0,9.84844 2.93757,17.60505 8.8125,22.875 5.89345,5.23319 13.90537,7.84375 23.84375,7.84375 10.22501,0 18.56949,-2.73177 24.6875,-8.25 6.19708,-5.59542 9.28119,-13.63542 9.28125,-23.71875 -6e-5,-9.37217 -3.091,-16.86505 -9.1875,-22 -5.99,-5.09498 -13.81199,-7.62494 -23.25,-7.625 z m -134.03125,0.9375 -0.25,1.375 c -0.26896,1.5582 -0.63576,3.11263 -1.125,4.6875 l -0.0312,0 0,0.0312 c -0.44138,1.54313 -0.9581,3.13455 -1.5625,4.78125 l 0,0.0312 L 97,275 87.625,250.1875 c -1.100499,-2.85823 -2.118179,-6.11877 -3.0625,-9.78125 l -0.3125,-1.1875 -1.21875,0.0312 -7.625,0.3125 c 0.0096,0 -0.06677,9e-5 -0.0625,0 0.05982,-0.001 -0.315613,-0.008 -0.875,-0.0312 -0.599296,-0.0248 -1.4748,-0.0689 -2.625,-0.125 -2.322059,-0.11307 -3.934644,-0.1562 -4.9375,-0.15625 l -2.21875,0 0.8125,2.09375 16.65625,42.53125 c 0.0058,0.0157 0.0255,0.0156 0.03125,0.0312 1.230715,3.35283 2.213037,6.05844 2.9375,8.0625 0.721019,1.99464 1.35221,3.9308 1.90625,5.8125 l 0.34375,1.09375 1.125,0 c 0.431635,0 0.9503,-0.0733 2.09375,-0.1875 l 0.03125,0 0.03125,0 c 1.165661,-0.16627 2.056194,-0.25 2.5625,-0.25 0.427584,0 1.019019,0.0487 1.71875,0.15625 l 0.03125,0 0.0625,0 c 0.712656,0.0548 1.596978,0.13937 2.59375,0.25 L 98.90625,299 99.25,297.71875 c 1.27747,-4.93823 2.83191,-9.56748 4.65625,-13.875 l 0,-0.0312 11.3125,-28.78125 0,-0.0312 c 1.95461,-4.51753 4.07599,-9.00707 6.3125,-13.53125 l 1.0625,-2.21875 -2.4375,0 c -0.64139,6e-5 -1.57401,0.0722 -2.84375,0.1875 -1.20556,0.10948 -2.10928,0.12505 -2.65625,0.125 l 0,0.0312 -4.375,-0.3125 -1.34375,-0.125 z m 63.28125,0.0625 0.15625,1.6875 c 0.44862,5.32178 0.70118,9.76112 0.8125,13.375 l 0,0.0312 c 0.16681,3.55498 0.25,8.49902 0.25,14.78125 0,6.00063 -0.0823,11.16901 -0.25,15.46875 l 0,0.0312 c -0.1115,4.28809 -0.36694,8.47664 -0.8125,12.59375 l -0.1875,1.6875 1.6875,0 c 0.59401,0 2.1656,-0.0435 4.875,-0.15625 l 0.0312,0 0,-0.0312 c 2.69136,-0.16795 4.88361,-0.25 6.5625,-0.25 0.96242,0 4.13386,0.11256 9.3125,0.28125 l 0.0312,0 c 5.24163,0.11261 9.42222,0.15625 12.53125,0.15625 l 1.625,0 -0.125,-1.625 -0.25,-3.6875 0,-0.0937 0,-0.0937 0.25,-3.78125 0.125,-1.8125 L 207.0625,288 c -5.4878,0.61481 -11.02228,0.89012 -16.5625,0.9375 -0.0854,-1.20034 -0.15626,-2.39141 -0.15625,-3.75 -2e-5,-1.96726 -2e-5,-3.90142 0,-5.8125 l 0,-19.5625 c -2e-5,-6.6462 0.25463,-12.91233 0.8125,-18.875 l 0.15625,-1.71875 -1.6875,0.0312 -8.09375,0.25 -0.0937,0 -7.5,-0.25 -1.71875,-0.0312 z m 70.0625,7.46875 c 5.25935,5e-5 8.80674,1.99775 11.28125,6.375 2.56403,4.53589 3.8437,9.72326 3.84375,15.625 -5e-5,6.13458 -1.30399,11.51004 -3.875,16.21875 -2.47576,4.48258 -6.07263,6.53126 -11.5,6.53125 -5.29703,10e-6 -8.83587,-2.03087 -11.3125,-6.4375 -0.007,-0.0121 -0.0247,-0.0192 -0.0312,-0.0312 -2.55437,-4.6403 -3.81252,-9.92533 -3.8125,-15.875 -2e-5,-6.19757 1.25646,-11.50963 3.8125,-16.03125 2.46752,-4.36502 6.09313,-6.37495 11.59375,-6.375 z M 139.5,261.25 c 0.79555,1.94201 1.70129,4.06023 2.28125,5.59375 0.7265,1.92118 1.4593,4.21538 2.1875,6.53125 l -4.5625,0.0937 -0.0625,0 -4.5,-0.0937 c 1.48594,-4.10076 3.03746,-8.12918 4.65625,-12.125 z"
           id="path37479" />
        <path
           id="path37388"
           transform="translate(17,144)"
           d="m 132.53125,12.03125 0,1.71875 c 0,0.8951 0.11865,4.77976 0.34375,12.03125 0.2808,7.18151 0.40624,12.75964 0.40625,16.71875 -1e-5,0.82337 -0.12506,5.56637 -0.40625,13.9375 l 0,0.03125 c -0.22526,8.32559 -0.34375,14.77114 -0.34375,19.40625 l 0,1.5625 1.59375,-0.03125 6.625,-0.25 0.125,0 6.53125,0.25 L 149,77.4375 149,75.875 c -3e-5,-0.50551 -0.0437,-3.28209 -0.15625,-8.625 -0.0551,-2.61494 -0.0375,-3.69377 -0.0625,-5.5625 0.8589,1.4747 1.50975,2.64814 2.53125,4.375 2.2422,3.69583 4.281,7.18205 6.125,10.53125 l 0.4375,0.8125 0.90625,0 c 0.43898,0 1.3686,-0.0743 3.125,-0.1875 l 0.0312,0 0.0312,0 C 163.67992,77.05347 165.07289,77 166.125,77 c 0.0936,0 1.27291,0.0512 3.0625,0.21875 l 0.0312,0 0.0312,0 c 1.88056,0.11387 3.35815,0.1875 4.46875,0.1875 l 2.71875,0 L 175,75.0625 169.1875,65.71875 c -3.53109,-5.68591 -6.5222,-10.73681 -9.15625,-15.375 L 168.4375,42 l 0.0312,0 5.1875,-4.90625 0.875,-0.8125 -0.59375,-1.03125 -0.34375,-0.59375 -0.46875,-0.8125 -0.90625,0.03125 -3.8125,0.1875 c -0.013,0 -0.0491,3e-5 -0.0625,0 -0.62183,-10e-4 -1.58757,-0.03885 -2.90625,-0.09375 -1.35368,-0.0563 -2.36246,-0.09375 -3.09375,-0.09375 l -0.78125,0 -0.46875,0.65625 c -2.56694,3.62341 -4.98923,6.75483 -7.25,9.34375 -1.51434,1.73415 -3.36257,3.2887 -5.15625,4.875 l 0,-9.4375 c -2e-5,-2.49433 0.0879,-6.74187 0.3125,-12.6875 0.22531,-5.96521 0.34373,-10.24292 0.34375,-12.875 l 0,-1.6875 -1.6875,0.1875 c -2.13272,0.21858 -4.56788,0.31256 -7.28125,0.3125 -2.31227,6e-5 -4.33994,-0.0963 -6.125,-0.3125 l -1.71875,-0.21875 z m -39.5,0.78125 c -2.18396,9e-5 -4.21927,0.90848 -5.8125,2.5 -0.73813,0.73738 -1.30172,1.56937 -1.71875,2.46875 l -2.1875,0 c -0.697586,7e-5 -1.570311,0.106 -2.8125,0.21875 -1.205544,0.10949 -2.10922,0.12504 -2.65625,0.125 l 0,0.03125 L 73.5,17.8125 l -1.375,-0.125 -0.25,1.375 c -0.269521,1.56141 -0.637392,3.14913 -1.125,4.71875 l -0.03125,0 0,0.03125 c -0.439916,1.53801 -0.956007,3.09759 -1.5625,4.75 l 0,0.03125 -9,24.96875 L 50.8125,28.71875 C 49.712,25.86067 48.694319,22.59997 47.75,18.9375 l -0.3125,-1.1875 -1.21875,0.03125 -7.625,0.34375 c 0.0095,0 -0.06674,9e-5 -0.0625,0 0.0594,-0.001 -0.315615,-0.0081 -0.875,-0.03125 -0.599294,-0.0248 -1.474806,-0.0689 -2.625,-0.125 -2.309061,-0.11242 -3.932852,-0.18744 -4.96875,-0.1875 l -2.21875,0 0.8125,2.09375 16.6875,42.5625 c 0.0057,0.0157 0.02551,0.01565 0.03125,0.03125 1.227605,3.34514 2.177109,6.04549 2.90625,8.0625 0.727416,2.01234 1.389029,3.91846 1.9375,5.78125 l 0.34375,1.09375 1.125,0 c 0.431574,0 0.950286,-0.0733 2.09375,-0.1875 l 0.03125,0 0.03125,0 C 54.983458,77.05624 55.853126,77 56.40625,77 c 0.48381,0 1.060788,0.0239 1.71875,0.125 l 0.03125,0 0.0625,0 c 0.7127,0.0548 1.597008,0.13936 2.59375,0.25 L 62.09375,77.53125 62.4375,76.25 c 1.277091,-4.93676 2.8309,-9.53384 4.65625,-13.84375 l 0,-0.03125 11.3125,-28.8125 0,-0.03125 C 80.363046,29.0083 82.45346,24.51917 84.6875,20 l 0.46875,-0.96875 c -0.18699,0.67603 -0.4375,1.34224 -0.4375,2.0625 0,2.22636 0.8899,4.27117 2.5,5.8125 1.60067,1.53246 3.64957,2.37506 5.8125,2.375 2.20818,6e-5 4.23194,-0.85854 5.78125,-2.40625 1.58681,-1.58513 2.49998,-3.59949 2.5,-5.78125 -2e-5,-2.18166 -0.91322,-4.19603 -2.5,-5.78125 -1.58498,-1.58322 -3.59732,-2.49991 -5.78125,-2.5 z m 24.0625,0 c -2.18395,9e-5 -4.21926,0.90849 -5.8125,2.5 -1.5951,1.59349 -2.46875,3.61716 -2.46875,5.78125 0,2.20932 0.85021,4.26308 2.46875,5.8125 1.60069,1.53245 3.64958,2.37506 5.8125,2.375 2.20819,6e-5 4.23195,-0.85853 5.78125,-2.40625 1.58683,-1.58514 2.49998,-3.5995 2.5,-5.78125 -2e-5,-2.18166 -0.91321,-4.19603 -2.5,-5.78125 -1.58497,-1.58322 -3.59731,-2.49991 -5.78125,-2.5 z m 82.125,20.0625 c -7.03533,4e-5 -12.89025,2.00977 -17.25,6.0625 -4.32718,4.01828 -6.5,9.72666 -6.5,16.71875 0,6.82554 2.12787,12.47227 6.375,16.59375 l 0.0312,0 c 4.29373,4.04762 9.98368,6.09375 16.75,6.09375 7.03622,0 12.79338,-2.04775 16.9375,-6.1875 4.1391,-4.13483 6.18745,-9.82866 6.1875,-16.75 -5e-5,-6.58886 -2.08977,-12.13665 -6.25,-16.25 -0.006,-0.006 -0.0256,0.006 -0.0312,0 -4.11703,-4.16336 -9.64679,-6.28121 -16.25,-6.28125 z m 53.90625,0.15625 c -2.7022,4e-5 -5.35814,0.76233 -7.90625,2.15625 -1.36401,0.7462 -2.5998,1.62959 -3.75,2.59375 l 0,-2.375 0,-1.6875 -1.6875,0.1875 c -0.57153,0.0571 -1.40135,0.16498 -2.4375,0.3125 -1.40666,4e-5 -2.84338,4e-5 -4.25,0 -1.23787,4e-5 -2.08749,4e-5 -2.59375,0 -0.54528,-0.0653 -1.57939,-0.15224 -3.34375,-0.3125 L 225.5,33.75 l 0,1.65625 c -1e-5,1.49074 0.11842,4.63554 0.34375,9.53125 0.22465,4.825 0.34376,8.29536 0.34375,10.375 -3e-5,1.01745 -0.11885,4.12634 -0.34375,9.125 -0.22557,4.95725 -0.34376,8.75025 -0.34375,11.4375 l 0,1.53125 1.53125,0 c 0.43899,0 1.36095,-0.0742 3.0625,-0.1875 l 0.0312,0 0.0312,0 C 231.8139,77.05325 233.09985,77 234.03125,77 c 0.0936,0 1.19411,0.0515 2.8125,0.21875 l 0.0312,0 0.0312,0 c 1.71441,0.11419 3.0596,0.1875 4.0625,0.1875 l 1.53125,0 0,-1.53125 c -2e-5,-1.43799 -0.11844,-4.39175 -0.34375,-9.0625 -0.16849,-4.65383 -0.25002,-8.33243 -0.25,-11 -2e-5,-2.04614 0.0182,-3.76468 0.125,-5.21875 6.4e-4,-0.009 -6.4e-4,-0.02265 0,-0.03125 0.15535,-1.37002 0.50012,-2.57425 0.9375,-3.59375 l 0,-0.03125 c 0.41879,-1.02264 0.96128,-1.69743 1.65625,-2.1875 l 0,-0.03125 c 0.75956,-0.54799 1.58345,-0.78123 2.59375,-0.78125 1.50909,2e-5 2.28018,0.4205 3,1.5625 l 0.0312,0.03125 c 0.84282,1.26298 1.24997,2.70457 1.25,4.46875 l 0,0.09375 0.0312,0.09375 c 0.16044,1.28295 0.21872,2.59083 0.21875,3.9375 l 0,1.53125 c -3e-5,1.61507 -0.11906,4.84843 -0.34375,9.5625 -0.16914,4.73097 -0.25003,8.26067 -0.25,10.65625 l 0,1.53125 1.53125,0 c 0.43157,0 1.25894,-0.0745 3.125,-0.1875 1.89399,-0.1113 3.23728,-0.125 3.96875,-0.125 0.73138,0 1.8162,0.0148 3.25,0.125 1.49012,0.11452 2.61412,0.1875 3.40625,0.1875 l 1.53125,0 0,-1.53125 c -4e-5,-2.3982 -0.0866,-5.87302 -0.3125,-10.5 -0.16823,-4.64931 -0.28056,-7.81378 -0.28125,-9.4375 l 0,-0.03125 0.0937,-8.8125 0,-0.03125 c -5e-5,-4.03854 -1.3776,-7.53779 -4.09375,-10.125 -2.69661,-2.56842 -6.21918,-3.90621 -10.25,-3.90625 z m -168.84375,0.6875 0.15625,1.8125 0.65625,7.40625 -0.03125,0 0,25.1875 c 0,1.25857 -0.0171,2.51025 -0.125,3.75 -0.10968,1.20521 -0.26918,2.46731 -0.4375,3.8125 l -0.21875,1.78125 1.78125,-0.0625 6.8125,-0.25 0.125,0 7.03125,0.25 1.75,0.03125 -0.1875,-1.71875 c -0.33404,-3.39228 -0.51358,-6.28041 -0.625,-8.71875 -1.7e-4,-0.007 1.7e-4,-0.02395 0,-0.03125 -0.0556,-2.4547 -0.0939,-5.93774 -0.0937,-10.46875 l 0.0937,-13.75 0.71875,-7.1875 0.1875,-1.84375 -1.8125,0.1875 c -1.24271,0.1129 -2.4858,0.23181 -3.71875,0.34375 -1.21563,0.11041 -2.3146,0.15629 -3.3125,0.15625 -0.93776,4e-5 -2.06964,-0.0455 -3.34375,-0.15625 -1.23024,-0.11169 -2.40864,-0.23096 -3.59375,-0.34375 l -1.8125,-0.1875 z m 24.0625,0 0.15625,1.8125 0.65625,7.40625 -0.0312,0 0,25.1875 c -1e-5,1.25858 -0.0171,2.51026 -0.125,3.75 -0.10969,1.20521 -0.26918,2.46731 -0.4375,3.8125 l -0.21875,1.78125 1.78125,-0.0625 6.8125,-0.25 0.125,0 7.0625,0.25 1.75,0.03125 -0.1875,-1.71875 C 125.35257,72.3174 125.14233,69.42576 125.03125,67 c -1.7e-4,-0.007 1.7e-4,-0.02395 0,-0.03125 -0.0556,-2.4547 -0.0939,-5.93774 -0.0937,-10.46875 l 0.0937,-13.75 0.71875,-7.1875 0.1875,-1.84375 -1.8125,0.1875 c -1.24272,0.1129 -2.4858,0.23181 -3.71875,0.34375 -1.21563,0.11041 -2.31459,0.15629 -3.3125,0.15625 -0.93775,4e-5 -2.06963,-0.0455 -3.34375,-0.15625 -1.23023,-0.11169 -2.40862,-0.23095 -3.59375,-0.34375 l -1.8125,-0.1875 z M 198.625,40.0625 c 1.7502,2e-5 2.82449,0.47172 3.65625,1.46875 0.92431,1.10808 1.58588,2.6397 2,4.65625 0.11138,0.89084 0.27584,2.06425 0.4375,3.625 0.16106,1.55531 0.21872,3.47571 0.21875,5.6875 -3e-5,2.2689 -0.0563,4.22912 -0.21875,5.90625 -0.16186,1.61664 -0.32668,2.83015 -0.4375,3.71875 -0.40952,1.94309 -1.06617,3.4781 -2,4.65625 -0.008,0.0106 -0.0229,0.02075 -0.0312,0.03125 -0.83677,0.98535 -1.86648,1.4375 -3.53125,1.4375 -1.75025,0 -2.92743,-0.49859 -3.875,-1.53125 -0.92985,-1.12915 -1.52013,-2.59662 -1.71875,-4.53125 l 0,-0.0625 0,-0.0625 c -0.54408,-2.93492 -0.81251,-6.06049 -0.8125,-9.40625 -10e-6,-2.94931 0.0652,-5.48093 0.28125,-7.53125 0.20548,-1.95024 0.76832,-3.87509 1.65625,-5.8125 0.004,-0.009 -0.004,-0.02225 0,-0.03125 0.7694,-1.56274 1.94976,-2.21872 4.375,-2.21875 z m -81.4375,50.09375 -0.40625,1.0625 c -1.57432,4.26872 -3.03299,8.2647 -4.4375,11.96875 l -0.0312,0 c -1.34353,3.69088 -3.04629,8.19321 -5.125,13.46875 -2.02172,5.21736 -3.72389,9.41109 -5.0625,12.53125 l -8.4375,19.5625 -1,2.3125 2.53125,-0.21875 2.9375,-0.21875 5.46875,0.25 1.09375,0.0312 0.40625,-1.03125 c 1.90045,-5.11532 3.59747,-10.03357 5.15625,-14.8125 l 4.78125,-0.21875 c 0.0306,8.7e-4 0.0631,-8.8e-4 0.0937,0 1.93096,0.0557 3.9027,0.13191 5.90625,0.1875 1.67622,0.0466 3.28724,0.0595 4.90625,0.0625 l 2.96875,9.15625 1.75,5.5625 0.34375,1.09375 1.125,-0.0312 8.21875,-0.25 0.0625,0 8.03125,0.25 2.34375,0.0625 -0.90625,-2.1875 c -3.64814,-8.69026 -7.21123,-17.76684 -10.75,-27.25 -3.54228,-9.49226 -7.23843,-19.57612 -11.0625,-30.25 l -0.40625,-1.09375 -1.125,0.09375 -4.03125,0.25 -0.1875,0 -4.03125,-0.25 -1.125,-0.09375 z m 104.78125,0.0625 c -10.0016,6e-5 -18.26717,2.68759 -24.59375,8.0625 -6.37363,5.35547 -9.59375,13.1012 -9.59375,22.8125 0,9.84844 2.93757,17.60505 8.8125,22.875 5.89345,5.23319 13.90537,7.84375 23.84375,7.84375 10.22501,0 18.56949,-2.73177 24.6875,-8.25 6.19708,-5.59542 9.28119,-13.63542 9.28125,-23.71875 -6e-5,-9.37217 -3.091,-16.86505 -9.1875,-22 -5.99,-5.09498 -13.81199,-7.62494 -23.25,-7.625 z m -134.03125,0.9375 -0.25,1.375 c -0.26896,1.5582 -0.63576,3.11263 -1.125,4.6875 l -0.03125,0 0,0.03125 c -0.44138,1.54313 -0.9581,3.13455 -1.5625,4.78125 l 0,0.0312 L 76,127 66.625,102.1875 C 65.524501,99.32927 64.506821,96.06873 63.5625,92.40625 L 63.25,91.21875 62.03125,91.25 l -7.625,0.3125 c 0.0096,0 -0.06677,9e-5 -0.0625,0 0.05982,-0.001 -0.315613,-0.008 -0.875,-0.03125 -0.599296,-0.0248 -1.4748,-0.0689 -2.625,-0.125 -2.322059,-0.11307 -3.934644,-0.1562 -4.9375,-0.15625 l -2.21875,0 0.8125,2.09375 16.65625,42.53125 c 0.0058,0.0157 0.0255,0.0156 0.03125,0.0312 1.230715,3.35283 2.213037,6.05844 2.9375,8.0625 0.721019,1.99464 1.35221,3.9308 1.90625,5.8125 l 0.34375,1.09375 1.125,0 c 0.431635,0 0.9503,-0.0733 2.09375,-0.1875 l 0.03125,0 0.03125,0 c 1.165661,-0.16627 2.056194,-0.25 2.5625,-0.25 0.427584,0 1.019019,0.0487 1.71875,0.15625 l 0.03125,0 0.0625,0 c 0.712656,0.0548 1.596978,0.13937 2.59375,0.25 L 77.90625,151 78.25,149.71875 c 1.277475,-4.93823 2.831911,-9.56748 4.65625,-13.875 l 0,-0.0312 11.3125,-28.78125 0,-0.0312 c 1.95461,-4.51753 4.07599,-9.00707 6.3125,-13.53125 l 1.0625,-2.21875 -2.4375,0 c -0.64139,6e-5 -1.57401,0.0722 -2.84375,0.1875 -1.20556,0.10948 -2.10928,0.12505 -2.65625,0.125 l 0,0.03125 -4.375,-0.3125 -1.34375,-0.125 z m 63.28125,0.0625 0.15625,1.6875 c 0.44862,5.32178 0.70118,9.76112 0.8125,13.375 l 0,0.0312 c 0.16681,3.55498 0.25,8.49902 0.25,14.78125 0,6.00063 -0.0823,11.16901 -0.25,15.46875 l 0,0.0312 c -0.1115,4.28809 -0.36694,8.47664 -0.8125,12.59375 l -0.1875,1.6875 1.6875,0 c 0.59401,0 2.1656,-0.0435 4.875,-0.15625 l 0.0312,0 0,-0.0312 c 2.69136,-0.16795 4.88361,-0.25 6.5625,-0.25 0.96242,0 4.13386,0.11256 9.3125,0.28125 l 0.0312,0 c 5.24163,0.11261 9.42222,0.15625 12.53125,0.15625 l 1.625,0 -0.125,-1.625 -0.25,-3.6875 0,-0.0937 0,-0.0937 0.25,-3.78125 0.125,-1.8125 L 186.0625,140 c -5.4878,0.61481 -11.02228,0.89012 -16.5625,0.9375 -0.0854,-1.20034 -0.15626,-2.39141 -0.15625,-3.75 -2e-5,-1.96726 -2e-5,-3.90142 0,-5.8125 l 0,-19.5625 c -2e-5,-6.6462 0.25463,-12.91233 0.8125,-18.875 l 0.15625,-1.71875 -1.6875,0.03125 -8.09375,0.25 -0.0937,0 -7.5,-0.25 -1.71875,-0.03125 z m 70.0625,7.46875 c 5.25935,5e-5 8.80674,1.99775 11.28125,6.375 2.56403,4.53589 3.8437,9.72326 3.84375,15.625 -5e-5,6.13458 -1.30399,11.51004 -3.875,16.21875 -2.47576,4.48258 -6.07263,6.53126 -11.5,6.53125 -5.29703,1e-5 -8.83587,-2.03087 -11.3125,-6.4375 -0.007,-0.0121 -0.0247,-0.0192 -0.0312,-0.0312 -2.55437,-4.6403 -3.81252,-9.92533 -3.8125,-15.875 -2e-5,-6.19757 1.25646,-11.50963 3.8125,-16.03125 2.46752,-4.36502 6.09313,-6.37495 11.59375,-6.375 z M 118.5,113.25 c 0.79555,1.94201 1.70129,4.06023 2.28125,5.59375 0.7265,1.92118 1.4593,4.21538 2.1875,6.53125 l -4.5625,0.0937 -0.0625,0 -4.5,-0.0937 c 1.48594,-4.10076 3.03746,-8.12918 4.65625,-12.125 z"
           style="font-size:84.35607147px;font-style:normal;font-variant:normal;font-weight:bold;font-stretch:normal;text-align:center;line-height:125%;letter-spacing:0px;word-spacing:0px;text-anchor:middle;fill:url(#radialGradient39592);fill-opacity:1;stroke:#000000;stroke-width:2;stroke-opacity:1;font-family:MgOpen Cosmetica;-inkscape-font-specification:MgOpen Cosmetica Bold"
           inkscape:connector-curvature="0" />
      </g>
      <rect
         ry="21.2132"
         y="423.95224"
         x="636.59265"
         height="283.65457"
         width="516.98901"
         id="rect38308"
         style="fill:none;stroke:#000000;stroke-width:5.18241787;stroke-opacity:1;display:inline"
         transform="matrix(0.57918184,0,0,0.57857907,-350.1859,-99.789865)" />
    </g>
    <text
       sodipodi:linespacing="125%"
       id="text3392"
       y="447.0563"
       x="25.822266"
       style="font-size:43.05503464px;font-style:normal;font-variant:normal;font-weight:bold;font-stretch:normal;text-align:start;line-height:125%;letter-spacing:0px;word-spacing:0px;text-anchor:start;fill-opacity:1;display:inline;font-family:MgOpen Cosmetica;-inkscape-font-specification:MgOpen Cosmetica Bold"
       xml:space="preserve"><tspan
         style="text-align:start;text-anchor:start"
         y="447.0563"
         x="25.822266"
         sodipodi:role="line"
         id="tspan3846">Entangle</tspan></text>
    <g
       inkscape:label="Layer 1"
       id="layer1-1"
       transform="matrix(1.5048112,0,0,1.5048112,-545.32869,-1750.7841)" />
    <g
       id="layer2-4"
       inkscape:label="Layer"
       style="display:inline"
       transform="matrix(1.5048112,0,0,1.5048112,-545.32869,-919.58335)" />
    <flowRoot
       xml:space="preserve"
       id="flowRoot2499"
       style="font-size:12px;font-style:normal;font-weight:normal;fill:#000000;fill-opacity:1;stroke:none;font-family:Bitstream Vera Sans"
       transform="matrix(0.10955145,0,0,0.10955145,441.87713,158.29436)"><flowRegion
         id="flowRegion2501"><rect
           id="rect2503"
           width="459.375"
           height="68.75"
           x="37.5"
           y="318.125" /></flowRegion><flowPara
         id="flowPara2505" /></flowRoot>    <g
       id="g6251"
       transform="translate(23.281014,143.99161)">
      <use
         x="0"
         y="0"
         xlink:href="#text11685"
         id="use40118-1"
         transform="translate(-207.32912,-136.86631)"
         width="308.84375"
         height="170.65625"
         style="fill:#000000;stroke:#000000;stroke-width:4" />
      <use
         style="fill:#000000;stroke:#000000;stroke-width:3;filter:url(#filter40130)"
         height="170.65625"
         width="308.84375"
         transform="translate(-205.32912,-134.86631)"
         id="use40120-1"
         xlink:href="#text11685"
         y="0"
         x="0" />
      <use
         style="fill:url(#linearGradient6097-7);fill-opacity:1;stroke:#ffffff"
         height="170.65625"
         width="308.84375"
         transform="translate(-207.32912,-136.86631)"
         id="use40116-5"
         xlink:href="#text11685"
         y="0"
         x="0" />
    </g>
    <text
       xml:space="preserve"
       style="font-size:17.81859207px;font-style:normal;font-variant:normal;font-weight:bold;font-stretch:normal;fill:#eef4d7;fill-opacity:1;stroke:none;font-family:Ouhod;-inkscape-font-specification:Ouhod Bold"
       x="324.01773"
       y="193.16827"
       id="text3416"><tspan
         sodipodi:role="line"
         id="tspan3418"
         x="324.01773"
         y="193.16827" /></text>
    <path
       inkscape:transform-center-y="-1.4955988"
       inkscape:transform-center-x="-2.9748115"
       transform="translate(17.05128,138.29195)"
       d="M 5.9951896,18.208468 67.82561,59.786947 110.65091,-1.0829316 69.072431,60.747489 129.94231,103.57279 68.11189,61.99431 25.28659,122.86419 66.865069,61.033769 z"
       inkscape:randomized="0"
       inkscape:rounded="0"
       inkscape:flatsided="false"
       sodipodi:arg2="-1.6997697"
       sodipodi:arg1="-2.5384803"
       sodipodi:r2="1.1129248"
       sodipodi:r1="75.249512"
       sodipodi:cy="60.890629"
       sodipodi:cx="67.96875"
       sodipodi:sides="4"
       id="path13568"
       style="opacity:0.4;fill:#ffffff;fill-opacity:1;stroke:none;filter:url(#filter6087)"
       sodipodi:type="star" />
    <text
       sodipodi:linespacing="125%"
       id="text11685"
       y="186.8148"
       x="383.99756"
       style="font-size:48px;font-style:normal;font-variant:normal;font-weight:bold;font-stretch:normal;text-align:start;line-height:125%;letter-spacing:0px;word-spacing:0px;text-anchor:start;fill-opacity:1;display:inline;font-family:MgOpen Cosmetica;-inkscape-font-specification:MgOpen Cosmetica Bold"
       xml:space="preserve"><tspan
         y="186.8148"
         x="383.99756"
         sodipodi:role="line"
         id="tspan3834">#179</tspan></text>
    <g
       transform="matrix(0.30103004,0,0,0.410517,216.64096,250.97265)"
       style="font-size:40px;font-style:normal;font-variant:normal;font-weight:bold;font-stretch:normal;fill:#013397;fill-opacity:1;stroke:none;font-family:Arial Rounded MT Bold;-inkscape-font-specification:'Arial Rounded MT Bold, Bold'"
       id="text5236" />
    <g
       transform="matrix(0.21805306,0,0,0.21805306,193.64539,166.25037)"
       id="layer1-3">
      <path
         transform="translate(-18.5,73.514)"
         d="m 483,326.36 a 187,187 0 1 1 -374,0 187,187 0 1 1 374,0 z"
         id="path4987"
         inkscape:connector-curvature="0"
         style="fill:#212121;stroke:#000000;stroke-width:3.54329991;stroke-linecap:round;stroke-linejoin:round" />
      <path
         d="m 478.27,399.88 c 0,-110.63 -90.14,-200.78 -200.77,-200.78 -110.63,0 -200.78,90.15 -200.78,200.78 0.005,110.62 90.15,200.77 200.78,200.77 110.63,0 200.77,-90.15 200.77,-200.77 z m -36.87,0 c 0,90.67 -73.22,163.9 -163.9,163.9 -90.68,0 -163.9,-73.23 -163.9,-163.9 0,-90.68 73.22,-163.91 163.9,-163.91 90.68,0 163.9,73.23 163.9,163.91 z"
         id="path5514"
         inkscape:connector-curvature="0"
         style="fill:#a3a3a3;stroke:url(#linearGradient5974);stroke-width:3.07249999;stroke-linecap:round;stroke-linejoin:round" />
      <path
         d="m 277.5,168.34 c -127.58,0 -231.54,103.96 -231.54,231.54 10e-4,127.57 103.96,231.54 231.54,231.54 127.58,0 231.54,-103.97 231.54,-231.54 0,-127.58 -103.96,-231.54 -231.54,-231.54 z m 0,42.52 c 104.57,0 189.02,84.45 189.02,189.02 0,104.57 -84.45,189.02 -189.02,189.02 -104.57,0 -189.02,-84.45 -189.02,-189.02 0,-104.57 84.45,-189.02 189.02,-189.02 z"
         id="path4989"
         inkscape:connector-curvature="0"
         style="fill:url(#radialGradient5971)" />
      <path
         transform="matrix(0,-1,1,0,28.138,296.88)"
         d="m 22,249.36 a 125,125 0 1 1 -250,0 125,125 0 1 1 250,0 z"
         id="path5538"
         inkscape:connector-curvature="0"
         style="fill:none;stroke:url(#linearGradient3245);stroke-width:1.77170002;stroke-linecap:round;stroke-linejoin:round" />
      <path
         transform="matrix(0,1,-1,0,523.36,549.38)"
         d="m -96,245.86 a 53.5,51.5 0 1 1 -107,0 53.5,51.5 0 1 1 107,0 z"
         id="path5552"
         inkscape:connector-curvature="0"
         style="fill:none;stroke:url(#linearGradient5993);stroke-width:8.85830021;stroke-linecap:round;stroke-linejoin:round;filter:url(#filter5590)" />
      <path
         transform="matrix(0,1.3049,-1.3555,0,610.78,594.96)"
         d="m -96,245.86 a 53.5,51.5 0 1 1 -107,0 53.5,51.5 0 1 1 107,0 z"
         id="path5594"
         inkscape:connector-curvature="0"
         style="opacity:0.55516998;fill:none;stroke:url(#linearGradient5995);stroke-width:4.79559994;stroke-linecap:round;stroke-linejoin:round" />
      <path
         d="m 277.5,235.74 c -69.05,0 -126.98,47.9 -142.34,112.27 H 419.84 C 404.48,283.64 346.55,235.74 277.5,235.74 z"
         id="path5616"
         inkscape:connector-curvature="0"
         style="fill:url(#linearGradient5965)" />
      <path
         transform="matrix(0,-0.86893,0.86893,0,60.822,310.38)"
         d="m 22,249.36 a 125,125 0 1 1 -250,0 125,125 0 1 1 250,0 z"
         id="path5649"
         inkscape:connector-curvature="0"
         style="fill:none;stroke:url(#linearGradient3247);stroke-width:1.77170002;stroke-linecap:round;stroke-linejoin:round" />
      <path
         d="m 271.5,457.42 c -41.4,0 -75,29.4 -75,65.63 0,6.58 1.13,12.91 3.19,18.9 23.49,12.99 50.51,20.38 79.31,20.38 21.35,0 41.72,-4.05 60.41,-11.44 4.54,-8.45 7.09,-17.89 7.09,-27.84 0,-36.23 -33.6,-65.63 -75,-65.63 z"
         id="path5598"
         inkscape:connector-curvature="0"
         style="opacity:0.34138004;fill:url(#radialGradient5961)" />
      <path
         d="m -114,-68.638 a 39,21 0 1 1 -78,0 39,21 0 1 1 78,0 z"
         transform="translate(430.5,404.51)"
         id="path5660"
         inkscape:connector-curvature="0"
         style="opacity:0.38380001;fill:#5fd3bc" />
      <path
         d="m 300.01,403.61 -46.94,1.16 -9.32,73 c 9.52,4.04 20.63,6.37 32.5,6.37 12.92,0 24.95,-2.77 35,-7.49 l -11.24,-73.04 z"
         id="rect5762"
         inkscape:connector-curvature="0"
         style="opacity:0.92758993;fill:url(#linearGradient5957)" />
      <path
         d="m -114,-68.638 a 39,21 0 1 1 -78,0 39,21 0 1 1 78,0 z"
         transform="matrix(1.6795,0,0,1,535.96,383.51)"
         id="path5779"
         inkscape:connector-curvature="0"
         style="opacity:0.38380001;fill:url(#linearGradient5999)" />
      <path
         d="m 64.548,410.36 1.656,-0.16 c -0.439,0.57 -0.75,1.18 -0.933,1.8 -0.183,0.62 -0.241,1.27 -0.173,1.94 0.134,1.33 0.643,2.3 1.527,2.93 0.88,0.62 2.087,0.85 3.621,0.7 1.528,-0.16 2.664,-0.63 3.406,-1.41 0.738,-0.79 1.039,-1.85 0.906,-3.17 -0.068,-0.68 -0.254,-1.3 -0.558,-1.87 -0.304,-0.58 -0.729,-1.1 -1.275,-1.58 l 1.641,-0.17 c 0.428,0.51 0.767,1.07 1.015,1.67 0.249,0.59 0.407,1.23 0.476,1.91 0.177,1.76 -0.219,3.2 -1.19,4.31 -0.976,1.12 -2.394,1.78 -4.254,1.96 -1.866,0.19 -3.386,-0.16 -4.561,-1.07 -1.179,-0.9 -1.858,-2.23 -2.035,-3.98 -0.07,-0.7 -0.043,-1.36 0.082,-1.99 0.119,-0.64 0.336,-1.24 0.649,-1.82 m 0.277,-6.96 5.896,1.87 -0.196,-4.28 -5.7,2.41 m -1.513,0.96 -0.081,-1.79 11.449,-4.97 0.074,1.64 -2.94,1.2 0.24,5.25 3.038,0.92 0.076,1.67 -11.856,-3.92 m -0.299,-8.59 0.025,-2.13 9.817,-5.06 -9.758,-0.11 0.018,-1.53 11.663,0.13 -0.024,2.13 -9.817,5.06 9.757,0.11 -0.017,1.53 -11.664,-0.13 m 0.261,-12.67 0.152,-2.12 10.103,-4.46 -9.733,-0.7 0.109,-1.53 11.635,0.84 -0.152,2.12 -10.103,4.46 9.733,0.7 -0.11,1.52 -11.634,-0.83 m 2.707,-17.2 c -0.153,1.14 0.149,2.1 0.906,2.88 0.757,0.78 1.866,1.27 3.327,1.46 1.456,0.2 2.652,0.02 3.588,-0.53 0.936,-0.56 1.481,-1.41 1.633,-2.54 0.152,-1.14 -0.151,-2.09 -0.909,-2.87 -0.757,-0.78 -1.863,-1.26 -3.319,-1.46 -1.461,-0.19 -2.659,-0.02 -3.595,0.54 -0.935,0.54 -1.479,1.38 -1.631,2.52 m -1.27,-0.17 c 0.217,-1.62 0.935,-2.84 2.155,-3.67 1.214,-0.82 2.735,-1.11 4.562,-0.87 1.822,0.25 3.213,0.93 4.172,2.04 0.954,1.12 1.322,2.49 1.105,4.11 -0.218,1.62 -0.935,2.85 -2.149,3.68 -1.215,0.83 -2.735,1.12 -4.563,0.87 -1.827,-0.24 -3.218,-0.92 -4.172,-2.04 -0.958,-1.12 -1.328,-2.49 -1.11,-4.12 m 1.477,-8.46 0.412,-2.08 10.575,-3.19 -9.573,-1.89 0.297,-1.5 11.443,2.26 -0.412,2.09 -10.575,3.18 9.572,1.89 -0.296,1.5 -11.443,-2.26 m 3.705,-16.96 2.516,-8.81 1.156,0.33 6.757,9.6 2.075,-7.26 1.277,0.36 -2.615,9.16 -1.157,-0.33 -6.757,-9.6 -1.975,6.92 -1.277,-0.37 m 6.046,-15.94 c -0.379,1.08 -0.277,2.08 0.305,3 0.584,0.92 1.571,1.62 2.962,2.11 1.386,0.48 2.594,0.55 3.622,0.2 1.03,-0.36 1.734,-1.08 2.113,-2.16 0.379,-1.08 0.276,-2.08 -0.31,-2.99 -0.584,-0.91 -1.569,-1.61 -2.955,-2.1 -1.391,-0.49 -2.601,-0.56 -3.629,-0.2 -1.026,0.34 -1.729,1.06 -2.108,2.14 m -1.209,-0.43 c 0.541,-1.54 1.491,-2.59 2.852,-3.15 1.356,-0.56 2.904,-0.54 4.644,0.07 1.735,0.61 2.96,1.55 3.673,2.84 0.708,1.29 0.792,2.7 0.251,4.25 -0.542,1.54 -1.492,2.6 -2.85,3.17 -1.356,0.56 -2.904,0.54 -4.644,-0.07 -1.74,-0.61 -2.964,-1.56 -3.673,-2.84 -0.711,-1.3 -0.796,-2.72 -0.253,-4.27 M 80.714,312 c -0.446,1.06 -0.408,2.06 0.116,3.02 0.525,0.95 1.466,1.71 2.824,2.29 1.353,0.57 2.554,0.71 3.602,0.42 1.05,-0.29 1.799,-0.96 2.245,-2.02 0.445,-1.05 0.405,-2.05 -0.123,-3 -0.525,-0.95 -1.464,-1.71 -2.817,-2.28 -1.358,-0.58 -2.561,-0.72 -3.609,-0.43 -1.046,0.28 -1.792,0.95 -2.238,2 m -1.181,-0.5 c 0.637,-1.5 1.652,-2.49 3.045,-2.97 1.389,-0.47 2.932,-0.35 4.631,0.36 1.693,0.72 2.856,1.74 3.487,3.07 0.626,1.33 0.621,2.75 -0.015,4.25 -0.639,1.51 -1.653,2.51 -3.044,2.99 -1.389,0.48 -2.932,0.36 -4.631,-0.36 -1.698,-0.72 -2.86,-1.74 -3.487,-3.07 -0.629,-1.33 -0.624,-2.76 0.014,-4.27 m 3.652,-7.82 1.055,-2.1 8.429,0.9 -5.751,-6.23 1.055,-2.11 10.424,5.24 -0.69,1.37 -9.154,-4.59 5.8,6.28 -0.711,1.41 -8.499,-0.9 9.153,4.6 -0.687,1.37 -10.424,-5.24 m 9.328,-17.52 0.821,-1.35 8.826,5.37 2.96,-4.85 1.13,0.69 -3.77,6.2 -9.967,-6.06 m 4.977,-8.04 4.13,-6.11 1.1,0.74 -3.246,4.81 2.866,1.93 3.1,-4.61 1.1,0.75 -3.1,4.6 3.5,2.36 3.32,-4.92 1.1,0.75 -4.2,6.23 -9.67,-6.53 m 6.08,-8.88 1.29,-1.69 10.9,1.77 -7.78,-5.89 0.92,-1.22 9.3,7.04 -1.28,1.69 -10.9,-1.77 7.78,5.89 -0.93,1.23 -9.3,-7.05 m 12.53,-15.06 1.17,1 c -0.6,0.27 -1.13,0.56 -1.58,0.88 -0.45,0.31 -0.84,0.66 -1.16,1.04 -0.55,0.65 -0.86,1.27 -0.9,1.84 -0.05,0.57 0.16,1.05 0.63,1.45 0.39,0.33 0.79,0.47 1.19,0.41 0.4,-0.07 0.94,-0.39 1.63,-0.94 l 0.76,-0.6 c 0.93,-0.76 1.8,-1.16 2.59,-1.22 0.79,-0.07 1.55,0.21 2.27,0.82 0.87,0.73 1.27,1.57 1.23,2.53 -0.05,0.95 -0.54,1.99 -1.49,3.11 -0.35,0.42 -0.78,0.83 -1.28,1.22 -0.5,0.39 -1.05,0.76 -1.67,1.12 l -1.24,-1.05 c 0.69,-0.26 1.3,-0.57 1.84,-0.92 0.53,-0.35 0.99,-0.75 1.38,-1.2 0.58,-0.69 0.89,-1.34 0.94,-1.94 0.05,-0.6 -0.18,-1.11 -0.68,-1.54 -0.44,-0.37 -0.9,-0.52 -1.37,-0.46 -0.47,0.06 -1.03,0.34 -1.67,0.85 l -0.77,0.61 c -0.93,0.75 -1.77,1.16 -2.49,1.24 -0.72,0.08 -1.42,-0.17 -2.1,-0.75 -0.79,-0.67 -1.17,-1.47 -1.16,-2.4 0.02,-0.94 0.44,-1.9 1.27,-2.87 0.35,-0.42 0.75,-0.81 1.19,-1.18 0.44,-0.37 0.93,-0.72 1.47,-1.05 m 9.99,-9.21 1.64,7.2 2.79,-2.83 -4.43,-4.37 m -1.27,-0.67 1.39,-1.42 5.42,5.34 1.16,-1.19 0.94,0.92 -1.17,1.19 1.96,1.93 -1.1,1.12 -1.96,-1.93 -3.7,3.75 -1.08,-1.07 -1.86,-8.64 m 12.04,-7.44 0.56,5.27 5.49,1.05 -1.25,1.15 -4.2,-0.8 0.46,4.25 -1.25,1.15 -0.6,-5.67 -5.11,-0.96 1.24,-1.15 3.82,0.72 -0.4,-3.86 1.24,-1.15"
         id="text5869"
         inkscape:connector-curvature="0"
         style="fill:#e6e6e6" />
      <path
         transform="matrix(0.87231,0,0,0.87231,823.57,506.11)"
         d="m -414,-119.64 a 212,212 0 1 1 -424,0 212,212 0 1 1 424,0 z"
         id="path5885"
         inkscape:connector-curvature="0"
         style="opacity:0.67606004;fill:none;stroke:url(#linearGradient3249);stroke-width:0.37937999;stroke-linecap:round;stroke-linejoin:round" />
      <path
         transform="matrix(0.85351,0.077215,-0.077215,0.85351,799.31,555.44)"
         d="m -414,-119.64 a 212,212 0 1 1 -424,0 212,212 0 1 1 424,0 z"
         id="path5895"
         inkscape:connector-curvature="0"
         style="opacity:0.67606004;fill:none;stroke:url(#linearGradient3251);stroke-width:0.37937999;stroke-linecap:round;stroke-linejoin:round" />
      <path
         d="m 275.5,211.84 c -104.57,0 -189.03,84.46 -189.03,189.04 -0.001,104.57 84.46,189.03 189.03,189.03 104.57,0 189.03,-84.46 189.03,-189.03 0,-104.58 -84.46,-189.04 -189.03,-189.04 z"
         id="path5903"
         inkscape:connector-curvature="0"
         style="fill:none;stroke:#000000;stroke-width:3.54329991;stroke-linecap:round;stroke-linejoin:round" />
      <path
         transform="matrix(0.63005,0,0,0.54478,371.29,255.09)"
         d="m -137,243.36 -21.62,9.46 -19,-14 2.62,-23.46 21.62,-9.45 19,14 -2.62,23.45 z"
         id="path5831"
         inkscape:connector-curvature="0"
         style="opacity:0.67606004;fill:#ff7f2a;filter:url(#filter5827)" />
      <path
         transform="matrix(0.7919,0,0,0.7919,414.23,209.03)"
         d="m -137,243.36 -21.62,9.46 -19,-14 2.62,-23.46 21.62,-9.45 19,14 -2.62,23.45 z"
         id="path5789"
         inkscape:connector-curvature="0"
         style="opacity:0.67606004;fill:#636667;filter:url(#filter5827)" />
      <path
         transform="matrix(0.83843,0.12016,-0.12016,0.83843,782.61,582.64)"
         d="m -414,-119.64 a 212,212 0 1 1 -424,0 212,212 0 1 1 424,0 z"
         id="path5987"
         inkscape:connector-curvature="0"
         style="opacity:0.67606004;fill:none;stroke:url(#linearGradient3253);stroke-width:0.37937999;stroke-linecap:round;stroke-linejoin:round" />
    </g>
    <g
       transform="matrix(1.1236604,0,0,0.96882148,1.5206544,-24.766893)"
       id="g5376">
      <use
         style="fill:#000000;stroke:#000000;stroke-width:4"
         height="170.65625"
         width="308.84375"
         transform="translate(0,-120)"
         id="use39596"
         xlink:href="#text3392"
         y="0"
         x="0" />
      <use
         x="0"
         y="0"
         xlink:href="#text3392"
         id="use39598"
         transform="translate(2,-118)"
         width="308.84375"
         height="170.65625"
         style="fill:#000000;stroke:#000000;stroke-width:3;filter:url(#filter40112)" />
      <use
         x="0"
         y="0"
         xlink:href="#text3392"
         id="use39594"
         transform="translate(0,-120)"
         width="308.84375"
         height="170.65625"
         style="fill:url(#linearGradient4330);fill-opacity:1;stroke:#ffffff" />
    </g>
    <path
       sodipodi:type="arc"
       style="fill:#800080;fill-opacity:1;fill-rule:nonzero;stroke:none"
       id="path2453"
       sodipodi:cx="-471.85995"
       sodipodi:cy="-345.79184"
       sodipodi:rx="0"
       sodipodi:ry="22.546209"
       transform="matrix(0.37036554,0,0,0.37036554,632.41344,318.38031)" />
  </g>
</svg>
