<?xml version="1.0" encoding="UTF-8" standalone="no"?>
<!-- Created with Inkscape (http://www.inkscape.org/) -->

<svg
   xmlns:osb="http://www.openswatchbook.org/uri/2009/osb"
   xmlns:dc="http://purl.org/dc/elements/1.1/"
   xmlns:cc="http://creativecommons.org/ns#"
   xmlns:rdf="http://www.w3.org/1999/02/22-rdf-syntax-ns#"
   xmlns:svg="http://www.w3.org/2000/svg"
   xmlns="http://www.w3.org/2000/svg"
   xmlns:xlink="http://www.w3.org/1999/xlink"
   xmlns:sodipodi="http://sodipodi.sourceforge.net/DTD/sodipodi-0.dtd"
   xmlns:inkscape="http://www.inkscape.org/namespaces/inkscape"
   width="308.84375"
   height="170.65625"
   id="svg9857"
   version="1.1"
   inkscape:version="0.48.4 r9939"
   sodipodi:docname="2013-valo128-semantik.svg"
   inkscape:export-filename="/home/pesasa/svnrepos/drawings/www/viikonvalo/valo128-semantik.png"
   inkscape:export-xdpi="58.279999"
   inkscape:export-ydpi="58.279999">
  <sodipodi:namedview
     id="base"
     pagecolor="#ffffff"
     bordercolor="#666666"
     borderopacity="1.0"
     inkscape:pageopacity="0.0"
     inkscape:pageshadow="2"
     inkscape:zoom="3.0041296"
     inkscape:cx="306.51637"
     inkscape:cy="114.10785"
     inkscape:document-units="px"
     inkscape:current-layer="layer1"
     showgrid="false"
     fit-margin-top="0"
     fit-margin-left="0"
     fit-margin-right="0"
     fit-margin-bottom="0"
     inkscape:window-width="1920"
     inkscape:window-height="1114"
     inkscape:window-x="-8"
     inkscape:window-y="-4"
     inkscape:window-maximized="1">
    <inkscape:grid
       snapvisiblegridlinesonly="true"
       enabled="true"
       visible="true"
       empspacing="5"
       id="grid4787"
       type="xygrid" />
  </sodipodi:namedview>
  <defs
     id="defs9859">
    <linearGradient
       id="linearGradient14486">
      <stop
         style="stop-color:#ffffff;stop-opacity:1"
         offset="0"
         id="stop14488" />
      <stop
         style="stop-color:#d2d2d2;stop-opacity:1"
         offset="1"
         id="stop14490" />
    </linearGradient>
    <radialGradient
       r="258.02078"
       fy="479.36584"
       fx="787.22473"
       cy="479.36584"
       cx="787.22473"
       gradientTransform="matrix(0.69719883,1.0793933,-1.1943603,0.77297612,832.93918,-733.53466)"
       gradientUnits="userSpaceOnUse"
       id="radialGradient38317"
       xlink:href="#linearGradient38277"
       inkscape:collect="always" />
    <linearGradient
       id="linearGradient38277">
      <stop
         id="stop38279"
         offset="0"
         style="stop-color:#87aade;stop-opacity:1" />
      <stop
         id="stop38281"
         offset="1"
         style="stop-color:#162d50;stop-opacity:1" />
    </linearGradient>
    <linearGradient
       y2="4.9912353"
       x2="136.37059"
       y1="83.783127"
       x1="161.11934"
       gradientUnits="userSpaceOnUse"
       id="linearGradient38319"
       xlink:href="#linearGradient38300"
       inkscape:collect="always" />
    <linearGradient
       id="linearGradient38300"
       inkscape:collect="always">
      <stop
         id="stop38302"
         offset="0"
         style="stop-color:#ffffff;stop-opacity:1;" />
      <stop
         id="stop38304"
         offset="1"
         style="stop-color:#ffffff;stop-opacity:0" />
    </linearGradient>
    <filter
       id="filter38253"
       inkscape:collect="always"
       color-interpolation-filters="sRGB">
      <feGaussianBlur
         id="feGaussianBlur38255"
         stdDeviation="3.7990597"
         inkscape:collect="always" />
    </filter>
    <linearGradient
       id="linearGradient38257"
       inkscape:collect="always">
      <stop
         id="stop38259"
         offset="0"
         style="stop-color:#ffe680;stop-opacity:1" />
      <stop
         id="stop38261"
         offset="1"
         style="stop-color:#ffcc00;stop-opacity:1" />
    </linearGradient>
    <radialGradient
       r="121.0625"
       fy="111.79336"
       fx="204.84595"
       cy="111.79336"
       cx="204.84595"
       gradientTransform="matrix(-0.51080991,-0.39352661,0.36619486,-0.47533151,176.33119,204.40239)"
       gradientUnits="userSpaceOnUse"
       id="radialGradient39592"
       xlink:href="#linearGradient38257"
       inkscape:collect="always" />
    <filter
       height="1.2054614"
       y="-0.10273071"
       width="1.0626322"
       x="-0.031316078"
       id="filter40112"
       inkscape:collect="always">
      <feGaussianBlur
         id="feGaussianBlur40114"
         stdDeviation="2.401374"
         inkscape:collect="always" />
    </filter>
    <style
       type="text/css"
       id="style6654">
   
    .str1 {stroke:#1F1A17;stroke-width:0.0286362}
    .str0 {stroke:white;stroke-width:0.0286362}
    .fil2 {fill:#1F1A17}
    .fil0 {fill:#EAE342}
    .fil1 {fill:white}
   
  </style>
    <linearGradient
       osb:paint="solid"
       id="linearGradient4165">
      <stop
         id="stop4167"
         offset="0"
         style="stop-color:#4d4d4d;stop-opacity:1;" />
    </linearGradient>
    <linearGradient
       osb:paint="solid"
       id="linearGradient4171">
      <stop
         id="stop4173"
         offset="0"
         style="stop-color:#999999;stop-opacity:1;" />
    </linearGradient>
    <linearGradient
       osb:paint="solid"
       id="linearGradient4177">
      <stop
         id="stop4179"
         offset="0"
         style="stop-color:#000000;stop-opacity:1;" />
    </linearGradient>
    <filter
       id="filter6087"
       inkscape:collect="always">
      <feGaussianBlur
         id="feGaussianBlur6089"
         stdDeviation="0.3098678"
         inkscape:collect="always" />
    </filter>
    <filter
       color-interpolation-filters="sRGB"
       inkscape:collect="always"
       id="filter40130"
       x="-0.051605642"
       width="1.1032113"
       y="-0.11904688"
       height="1.2380939">
      <feGaussianBlur
         inkscape:collect="always"
         stdDeviation="1.9055437"
         id="feGaussianBlur40132" />
    </filter>
    <linearGradient
       inkscape:collect="always"
       xlink:href="#linearGradient6091-4"
       id="linearGradient6097-7"
       x1="502.35776"
       y1="215.35515"
       x2="502.35776"
       y2="247.32196"
       gradientUnits="userSpaceOnUse" />
    <linearGradient
       inkscape:collect="always"
       id="linearGradient6091-4">
      <stop
         style="stop-color:#ffffff;stop-opacity:1"
         offset="0"
         id="stop6093-6" />
      <stop
         style="stop-color:#d2d2d2;stop-opacity:1"
         offset="1"
         id="stop6095-0" />
    </linearGradient>
    <linearGradient
       inkscape:collect="always"
       xlink:href="#linearGradient14486"
       id="linearGradient3377"
       gradientUnits="userSpaceOnUse"
       x1="35.336468"
       y1="395.6817"
       x2="35.336468"
       y2="419.84171" />
    <linearGradient
       id="linearGradient2591">
      <stop
         id="stop2593"
         offset="0.0000000"
         style="stop-color:#7a7a7a;stop-opacity:1.0000000;" />
      <stop
         id="stop2595"
         offset="1.0000000"
         style="stop-color:#000000;stop-opacity:1.0000000;" />
    </linearGradient>
    <linearGradient
       id="linearGradient3301">
      <stop
         style="stop-color:#ffffff;stop-opacity:1.0000000;"
         offset="0.0000000"
         id="stop3303" />
      <stop
         style="stop-color:#cbcbcb;stop-opacity:1.0000000;"
         offset="1.0000000"
         id="stop3305" />
    </linearGradient>
    <linearGradient
       id="linearGradient2230">
      <stop
         id="stop2232"
         offset="0"
         style="stop-color:#eeeeee;stop-opacity:1;" />
      <stop
         id="stop2234"
         offset="1.0000000"
         style="stop-color:#a2a2a2;stop-opacity:1.0000000;" />
    </linearGradient>
    <linearGradient
       id="linearGradient2268">
      <stop
         style="stop-color:#555753;stop-opacity:1;"
         offset="0"
         id="stop2270" />
      <stop
         style="stop-opacity:1.0000000;stop-color:#141514"
         offset="1.0000000"
         id="stop2272" />
    </linearGradient>
    <linearGradient
       id="linearGradient2290">
      <stop
         style="stop-color:#555753;stop-opacity:1;"
         offset="0"
         id="stop2292" />
      <stop
         style="stop-color:#313330;stop-opacity:1.0000000;"
         offset="1.0000000"
         id="stop2294" />
    </linearGradient>
    <linearGradient
       id="linearGradient2304">
      <stop
         style="stop-color:#353633;stop-opacity:1.0000000;"
         offset="0.0000000"
         id="stop2306" />
      <stop
         style="stop-color:#676964;stop-opacity:1.0000000;"
         offset="1.0000000"
         id="stop2308" />
    </linearGradient>
    <linearGradient
       id="linearGradient2615">
      <stop
         style="stop-color:#363d40;stop-opacity:1.0000000;"
         offset="0.0000000"
         id="stop2617-3" />
      <stop
         id="stop2623-5"
         offset="0.50000000"
         style="stop-color:#818f95;stop-opacity:1.0000000;" />
      <stop
         style="stop-color:#31383b;stop-opacity:1.0000000;"
         offset="1.0000000"
         id="stop2619-9" />
    </linearGradient>
    <linearGradient
       id="linearGradient2631">
      <stop
         style="stop-color:#010101;stop-opacity:1.0000000;"
         offset="0.0000000"
         id="stop2633" />
      <stop
         style="stop-color:#959595;stop-opacity:1.0000000;"
         offset="1.0000000"
         id="stop2635" />
    </linearGradient>
    <linearGradient
       id="linearGradient2673">
      <stop
         style="stop-color:#8b8b8b;stop-opacity:1.0000000;"
         offset="0.0000000"
         id="stop2675" />
      <stop
         id="stop2681"
         offset="0.50000000"
         style="stop-color:#d3d9da;stop-opacity:1.0000000;" />
      <stop
         style="stop-color:#828282;stop-opacity:1.0000000;"
         offset="1.0000000"
         id="stop2677" />
    </linearGradient>
    <linearGradient
       id="linearGradient5048-8">
      <stop
         id="stop5050-4"
         offset="0"
         style="stop-color:black;stop-opacity:0;" />
      <stop
         style="stop-color:black;stop-opacity:1;"
         offset="0.5"
         id="stop5056-7" />
      <stop
         id="stop5052-0"
         offset="1"
         style="stop-color:black;stop-opacity:0;" />
    </linearGradient>
    <clipPath
       id="clipPath3271"
       clipPathUnits="userSpaceOnUse">
      <rect
         clip-path="none"
         style="fill:#ffff00;fill-opacity:1;stroke:none;stroke-width:0.74558502;stroke-miterlimit:4;stroke-dasharray:none"
         id="rect3273"
         width="1023.9577"
         height="426.74115"
         x="-152.73926"
         y="126.56609" />
    </clipPath>
    <filter
       height="1.8659058"
       y="-0.43295288"
       width="1.360872"
       x="-0.18043599"
       id="filter3739"
       inkscape:collect="always">
      <feGaussianBlur
         id="feGaussianBlur3741"
         stdDeviation="76.98284"
         inkscape:collect="always" />
    </filter>
    <radialGradient
       r="512.5"
       fy="645.59369"
       fx="49.142845"
       cy="645.59369"
       cx="49.142845"
       gradientTransform="matrix(1.0721778,0,0,0.5564061,12.349261,104.98626)"
       gradientUnits="userSpaceOnUse"
       id="radialGradient2572"
       xlink:href="#linearGradient3325"
       inkscape:collect="always" />
    <linearGradient
       id="linearGradient3325"
       inkscape:collect="always">
      <stop
         id="stop3327"
         offset="0"
         style="stop-color:#ffff00;stop-opacity:1;" />
      <stop
         id="stop3329"
         offset="1"
         style="stop-color:#ffff00;stop-opacity:0;" />
    </linearGradient>
    <linearGradient
       id="linearGradient2600-8">
      <stop
         id="stop2602"
         offset="0.0000000"
         style="stop-color:#000000;stop-opacity:1.0000000;" />
      <stop
         style="stop-color:#424242;stop-opacity:1.0000000;"
         offset="0.50000000"
         id="stop2380" />
      <stop
         id="stop2604"
         offset="1.0000000"
         style="stop-color:#7c7c7c;stop-opacity:1.0000000;" />
    </linearGradient>
    <linearGradient
       id="linearGradient2610">
      <stop
         id="stop2612"
         offset="0.0000000"
         style="stop-color:#3c3c3c;stop-opacity:1.0000000;" />
      <stop
         id="stop2614"
         offset="1.0000000"
         style="stop-color:#585858;stop-opacity:1.0000000;" />
    </linearGradient>
    <linearGradient
       id="linearGradient2831">
      <stop
         id="stop2833"
         offset="0.0000000"
         style="stop-color:#000000;stop-opacity:0.0000000;" />
      <stop
         style="stop-color:#4d4d4d;stop-opacity:0.88165683;"
         offset="0.77570093"
         id="stop2839" />
      <stop
         id="stop2835"
         offset="1.0000000"
         style="stop-color:#595959;stop-opacity:0.0000000;" />
    </linearGradient>
    <linearGradient
       id="linearGradient2384">
      <stop
         style="stop-color:#b6b6b6;stop-opacity:1;"
         offset="0"
         id="stop2386" />
      <stop
         style="stop-color:#6a6a6a;stop-opacity:1.0000000;"
         offset="1.0000000"
         id="stop2388" />
    </linearGradient>
    <linearGradient
       id="linearGradient2563">
      <stop
         style="stop-color:#e7e7e7;stop-opacity:1;"
         offset="0"
         id="stop2565" />
      <stop
         style="stop-color:#a0a0a0;stop-opacity:1.0000000;"
         offset="1.0000000"
         id="stop2567" />
    </linearGradient>
    <linearGradient
       id="linearGradient2571">
      <stop
         style="stop-color:#fff7b1;stop-opacity:1.0000000;"
         offset="0.0000000"
         id="stop2573" />
      <stop
         id="stop2579"
         offset="0.50000000"
         style="stop-color:#ecd300;stop-opacity:1.0000000;" />
      <stop
         style="stop-color:#b5a200;stop-opacity:1.0000000;"
         offset="1.0000000"
         id="stop2575" />
    </linearGradient>
    <linearGradient
       id="linearGradient2633">
      <stop
         style="stop-color:#2a2500;stop-opacity:1.0000000;"
         offset="0.0000000"
         id="stop2635-7" />
      <stop
         style="stop-color:#6e6200;stop-opacity:1.0000000;"
         offset="1.0000000"
         id="stop2637" />
    </linearGradient>
    <linearGradient
       id="linearGradient2641">
      <stop
         style="stop-color:#393939;stop-opacity:1.0000000;"
         offset="0.0000000"
         id="stop2643" />
      <stop
         id="stop2649"
         offset="0.15887851"
         style="stop-color:#747474;stop-opacity:1.0000000;" />
      <stop
         style="stop-color:#000000;stop-opacity:1.0000000;"
         offset="1.0000000"
         id="stop2645" />
    </linearGradient>
    <linearGradient
       id="linearGradient2697">
      <stop
         style="stop-color:#222222;stop-opacity:1;"
         offset="0"
         id="stop2699" />
      <stop
         style="stop-color:#afafaf;stop-opacity:1.0000000;"
         offset="1.0000000"
         id="stop2701" />
    </linearGradient>
    <filter
       color-interpolation-filters="sRGB"
       inkscape:collect="always"
       id="filter3900">
      <feGaussianBlur
         inkscape:collect="always"
         stdDeviation="12.868029"
         id="feGaussianBlur3902" />
    </filter>
    <filter
       color-interpolation-filters="sRGB"
       height="1.7737393"
       y="-0.38686964"
       width="1.262073"
       x="-0.13103649"
       id="filter3845"
       inkscape:collect="always">
      <feGaussianBlur
         id="feGaussianBlur3847"
         stdDeviation="9.6717406"
         inkscape:collect="always" />
    </filter>
    <filter
       color-interpolation-filters="sRGB"
       height="1.2634921"
       y="-0.13174602"
       width="1.0892473"
       x="-0.044623654"
       id="filter3777"
       inkscape:collect="always">
      <feGaussianBlur
         id="feGaussianBlur3779"
         stdDeviation="3.2936507"
         inkscape:collect="always" />
    </filter>
  </defs>
  <metadata
     id="metadata9862">
    <rdf:RDF>
      <cc:Work
         rdf:about="">
        <dc:format>image/svg+xml</dc:format>
        <dc:type
           rdf:resource="http://purl.org/dc/dcmitype/StillImage" />
        <dc:title></dc:title>
      </cc:Work>
    </rdf:RDF>
  </metadata>
  <g
     transform="translate(-17,-144)"
     id="layer1"
     inkscape:groupmode="layer"
     inkscape:label="Layer 1">
    <g
       transform="matrix(1.0213303,0,0,1.0213303,-0.39889826,-3.0840892)"
       id="g38310">
      <rect
         transform="matrix(0.57918184,0,0,0.57857907,-350.1859,-99.789865)"
         style="fill:url(#radialGradient38317);fill-opacity:1;fill-rule:nonzero;stroke:none;display:inline"
         id="rect10983-4"
         width="517.06445"
         height="283.68048"
         x="636.19702"
         y="423.4234"
         ry="21.2132" />
      <path
         style="opacity:0.26440681;fill:url(#linearGradient38319);fill-opacity:1;fill-rule:nonzero;stroke:none;display:inline"
         d="m 13.78204,1.494856 c -6.8066102,0 -12.28125,5.4817236 -12.28125,12.28125 l 0,66.536394 C 144.3017,139.19649 211.44627,40.874351 300.75,81.5 l 0,-67.723894 c 0,-6.7995264 -5.47464,-12.28125 -12.28125,-12.28125 z"
         transform="translate(17,144)"
         id="rect38285"
         inkscape:connector-curvature="0"
         sodipodi:nodetypes="ssccsss" />
      <g
         transform="matrix(0.52762727,0,0,0.52762727,10.932562,71.287425)"
         id="g39588">
        <path
           inkscape:connector-curvature="0"
           style="font-size:84.35607147px;font-style:normal;font-variant:normal;font-weight:bold;font-stretch:normal;text-align:center;line-height:125%;letter-spacing:0px;word-spacing:0px;text-anchor:middle;fill:#000000;fill-opacity:1;stroke:none;filter:url(#filter38253);font-family:MgOpen Cosmetica;-inkscape-font-specification:MgOpen Cosmetica Bold"
           d="m 153.53125,160.03125 0,1.71875 c 0,0.8951 0.11865,4.77976 0.34375,12.03125 0.2808,7.18151 0.40624,12.75964 0.40625,16.71875 -1e-5,0.82337 -0.12506,5.56637 -0.40625,13.9375 l 0,0.0312 c -0.22526,8.32559 -0.34375,14.77114 -0.34375,19.40625 l 0,1.5625 1.59375,-0.0312 6.625,-0.25 0.125,0 6.53125,0.25 1.59375,0.0312 0,-1.5625 c -3e-5,-0.50551 -0.0437,-3.28209 -0.15625,-8.625 -0.0551,-2.61494 -0.0375,-3.69377 -0.0625,-5.5625 0.8589,1.4747 1.50975,2.64814 2.53125,4.375 2.2422,3.69583 4.281,7.18205 6.125,10.53125 l 0.4375,0.8125 0.90625,0 c 0.43898,0 1.3686,-0.0743 3.125,-0.1875 l 0.0312,0 0.0312,0 C 184.67992,225.05347 186.07289,225 187.125,225 c 0.0936,0 1.27291,0.0512 3.0625,0.21875 l 0.0312,0 0.0312,0 c 1.88056,0.11387 3.35815,0.1875 4.46875,0.1875 l 2.71875,0 -1.4375,-2.34375 -5.8125,-9.34375 c -3.53109,-5.68591 -6.5222,-10.73681 -9.15625,-15.375 L 189.4375,190 l 0.0312,0 5.1875,-4.90625 0.875,-0.8125 -0.59375,-1.03125 -0.34375,-0.59375 -0.46875,-0.8125 -0.90625,0.0312 -3.8125,0.1875 c -0.013,0 -0.0491,3e-5 -0.0625,0 -0.62183,-0.001 -1.58757,-0.0388 -2.90625,-0.0937 -1.35368,-0.0563 -2.36246,-0.0937 -3.09375,-0.0937 l -0.78125,0 -0.46875,0.65625 c -2.56694,3.62341 -4.98923,6.75483 -7.25,9.34375 -1.51434,1.73415 -3.36257,3.2887 -5.15625,4.875 l 0,-9.4375 c -2e-5,-2.49433 0.0879,-6.74187 0.3125,-12.6875 0.22531,-5.96521 0.34373,-10.24292 0.34375,-12.875 l 0,-1.6875 -1.6875,0.1875 c -2.13272,0.21858 -4.56788,0.31256 -7.28125,0.3125 -2.31227,6e-5 -4.33994,-0.0963 -6.125,-0.3125 l -1.71875,-0.21875 z m -39.5,0.78125 c -2.18396,9e-5 -4.21927,0.90848 -5.8125,2.5 -0.73813,0.73738 -1.30172,1.56937 -1.71875,2.46875 l -2.1875,0 c -0.69759,7e-5 -1.57031,0.106 -2.8125,0.21875 -1.20554,0.10949 -2.10922,0.12504 -2.65625,0.125 l 0,0.0312 -4.34375,-0.34375 -1.375,-0.125 -0.25,1.375 c -0.269521,1.56141 -0.637392,3.14913 -1.125,4.71875 l -0.03125,0 0,0.0312 c -0.439916,1.53801 -0.956007,3.09759 -1.5625,4.75 l 0,0.0312 -9,24.96875 -9.34375,-24.84375 c -1.1005,-2.85793 -2.118181,-6.11863 -3.0625,-9.7811 l -0.3125,-1.1875 -1.21875,0.0312 -7.625,0.34375 c 0.0095,0 -0.06674,9e-5 -0.0625,0 0.0594,-0.001 -0.315615,-0.008 -0.875,-0.0312 -0.599294,-0.0248 -1.474806,-0.0689 -2.625,-0.125 -2.309061,-0.11242 -3.932852,-0.18744 -4.96875,-0.1875 l -2.21875,0 0.8125,2.09375 16.6875,42.5625 c 0.0057,0.0157 0.02551,0.0156 0.03125,0.0312 1.227605,3.34514 2.177109,6.04549 2.90625,8.0625 0.727416,2.01234 1.389029,3.91846 1.9375,5.78125 l 0.34375,1.09375 1.125,0 c 0.431574,0 0.950286,-0.0733 2.09375,-0.1875 l 0.03125,0 0.03125,0 C 75.983458,225.05624 76.853126,225 77.40625,225 c 0.48381,0 1.060788,0.0239 1.71875,0.125 l 0.03125,0 0.0625,0 c 0.7127,0.0548 1.597008,0.13936 2.59375,0.25 l 1.28125,0.15625 0.34375,-1.28125 c 1.277091,-4.93676 2.8309,-9.53384 4.65625,-13.84375 l 0,-0.0312 11.3125,-28.8125 0,-0.0312 c 1.9568,-4.52305 4.04721,-9.01218 6.28125,-13.53135 l 0.46875,-0.96875 c -0.18699,0.67603 -0.4375,1.34224 -0.4375,2.0625 0,2.22636 0.8899,4.27117 2.5,5.8125 1.60067,1.53246 3.64957,2.37506 5.8125,2.375 2.20818,6e-5 4.23194,-0.85854 5.78125,-2.40625 1.58681,-1.58513 2.49998,-3.59949 2.5,-5.78125 -2e-5,-2.18166 -0.91322,-4.19603 -2.5,-5.78125 -1.58498,-1.58322 -3.59732,-2.49991 -5.78125,-2.5 z m 24.0625,0 c -2.18395,9e-5 -4.21926,0.90849 -5.8125,2.5 -1.5951,1.59349 -2.46875,3.61716 -2.46875,5.78125 0,2.20932 0.85021,4.26308 2.46875,5.8125 1.60069,1.53245 3.64958,2.37506 5.8125,2.375 2.20819,6e-5 4.23195,-0.85853 5.78125,-2.40625 1.58683,-1.58514 2.49998,-3.5995 2.5,-5.78125 -2e-5,-2.18166 -0.91321,-4.19603 -2.5,-5.78125 -1.58497,-1.58322 -3.59731,-2.49991 -5.78125,-2.5 z m 82.125,20.0625 c -7.03533,4e-5 -12.89025,2.00977 -17.25,6.0625 -4.32718,4.01828 -6.5,9.72666 -6.5,16.71875 0,6.82554 2.12787,12.47227 6.375,16.59375 l 0.0312,0 c 4.29373,4.04762 9.98368,6.09375 16.75,6.09375 7.03622,0 12.79338,-2.04775 16.9375,-6.1875 4.1391,-4.13483 6.18745,-9.82866 6.1875,-16.75 -5e-5,-6.58886 -2.08977,-12.13665 -6.25,-16.25 -0.006,-0.006 -0.0256,0.006 -0.0312,0 -4.11703,-4.16336 -9.64679,-6.28121 -16.25,-6.28125 z m 53.90625,0.15625 c -2.7022,4e-5 -5.35814,0.76233 -7.90625,2.15625 -1.36401,0.7462 -2.5998,1.62959 -3.75,2.59375 l 0,-2.375 0,-1.6875 -1.6875,0.1875 c -0.57153,0.0571 -1.40135,0.16498 -2.4375,0.3125 -1.40666,4e-5 -2.84338,4e-5 -4.25,0 -1.23787,4e-5 -2.08749,4e-5 -2.59375,0 -0.54528,-0.0653 -1.57939,-0.15224 -3.34375,-0.3125 L 246.5,181.75 l 0,1.65625 c -1e-5,1.49074 0.11842,4.63554 0.34375,9.53125 0.22465,4.825 0.34376,8.29536 0.34375,10.375 -3e-5,1.01745 -0.11885,4.12634 -0.34375,9.125 -0.22557,4.95725 -0.34376,8.75025 -0.34375,11.4375 l 0,1.53125 1.53125,0 c 0.43899,0 1.36095,-0.0742 3.0625,-0.1875 l 0.0312,0 0.0312,0 c 1.65765,-0.1655 2.9436,-0.21875 3.875,-0.21875 0.0936,0 1.19411,0.0515 2.8125,0.21875 l 0.0312,0 0.0312,0 c 1.71441,0.11419 3.0596,0.1875 4.0625,0.1875 l 1.53125,0 0,-1.53125 c -2e-5,-1.43799 -0.11844,-4.39175 -0.34375,-9.0625 -0.16849,-4.65383 -0.25002,-8.33243 -0.25,-11 -2e-5,-2.04614 0.0182,-3.76468 0.125,-5.21875 6.4e-4,-0.009 -6.4e-4,-0.0226 0,-0.0312 0.15535,-1.37002 0.50012,-2.57425 0.9375,-3.59375 l 0,-0.0312 c 0.41879,-1.02264 0.96128,-1.69743 1.65625,-2.1875 l 0,-0.0312 c 0.75956,-0.54799 1.58345,-0.78123 2.59375,-0.78125 1.50909,2e-5 2.28018,0.4205 3,1.5625 l 0.0312,0.0312 c 0.84282,1.26298 1.24997,2.70457 1.25,4.46875 l 0,0.0937 0.0312,0.0937 c 0.16044,1.28295 0.21872,2.59083 0.21875,3.9375 l 0,1.53125 c -3e-5,1.61507 -0.11906,4.84843 -0.34375,9.5625 -0.16914,4.73097 -0.25003,8.26067 -0.25,10.65625 l 0,1.53125 1.53125,0 c 0.43157,0 1.25894,-0.0745 3.125,-0.1875 1.89399,-0.1113 3.23728,-0.125 3.96875,-0.125 0.73138,0 1.8162,0.0148 3.25,0.125 1.49012,0.11452 2.61412,0.1875 3.40625,0.1875 l 1.53125,0 0,-1.53125 c -4e-5,-2.3982 -0.0866,-5.87302 -0.3125,-10.5 -0.16823,-4.64931 -0.28056,-7.81378 -0.28125,-9.4375 l 0,-0.0312 0.0937,-8.8125 0,-0.0312 c -5e-5,-4.03854 -1.3776,-7.53779 -4.09375,-10.125 -2.69661,-2.56842 -6.21918,-3.90621 -10.25,-3.90625 z m -168.84375,0.6875 0.15625,1.8125 0.65625,7.40625 -0.0312,0 0,25.1875 c 0,1.25857 -0.0171,2.51025 -0.125,3.75 -0.10968,1.20521 -0.26918,2.46731 -0.4375,3.8125 l -0.21875,1.78125 1.78125,-0.0625 6.8125,-0.25 0.125,0 7.03125,0.25 1.75,0.0312 -0.1875,-1.71875 c -0.33404,-3.39228 -0.51358,-6.28041 -0.625,-8.71875 -1.7e-4,-0.007 1.7e-4,-0.024 0,-0.0312 -0.0556,-2.4547 -0.0939,-5.93774 -0.0937,-10.46875 l 0.0937,-13.75 0.71875,-7.1875 0.1875,-1.84375 -1.8125,0.1875 c -1.24271,0.1129 -2.4858,0.23181 -3.71875,0.34375 -1.21563,0.11041 -2.3146,0.15629 -3.3125,0.15625 -0.93776,4e-5 -2.06964,-0.0455 -3.34375,-0.15625 -1.23024,-0.11169 -2.40864,-0.23096 -3.59375,-0.34375 l -1.8125,-0.1875 z m 24.0625,0 0.15625,1.8125 0.65625,7.40625 -0.0312,0 0,25.1875 c -10e-6,1.25858 -0.0171,2.51026 -0.125,3.75 -0.10969,1.20521 -0.26918,2.46731 -0.4375,3.8125 l -0.21875,1.78125 1.78125,-0.0625 6.8125,-0.25 0.125,0 7.0625,0.25 1.75,0.0312 -0.1875,-1.71875 c -0.33493,-3.40135 -0.54517,-6.29299 -0.65625,-8.71875 -1.7e-4,-0.007 1.7e-4,-0.024 0,-0.0312 -0.0556,-2.4547 -0.0939,-5.93774 -0.0937,-10.46875 l 0.0937,-13.75 0.71875,-7.1875 0.1875,-1.84375 -1.8125,0.1875 c -1.24272,0.1129 -2.4858,0.23181 -3.71875,0.34375 -1.21563,0.11041 -2.31459,0.15629 -3.3125,0.15625 -0.93775,4e-5 -2.06963,-0.0455 -3.34375,-0.15625 -1.23023,-0.11169 -2.40862,-0.23095 -3.59375,-0.34375 l -1.8125,-0.1875 z m 90.28125,6.34375 c 1.7502,2e-5 2.82449,0.47172 3.65625,1.46875 0.92431,1.10808 1.58588,2.6397 2,4.65625 0.11138,0.89084 0.27584,2.06425 0.4375,3.625 0.16106,1.55531 0.21872,3.47571 0.21875,5.6875 -3e-5,2.2689 -0.0563,4.22912 -0.21875,5.90625 -0.16186,1.61664 -0.32668,2.83015 -0.4375,3.71875 -0.40952,1.94309 -1.06617,3.4781 -2,4.65625 -0.008,0.0106 -0.0229,0.0207 -0.0312,0.0312 -0.83677,0.98535 -1.86648,1.4375 -3.53125,1.4375 -1.75025,0 -2.92743,-0.49859 -3.875,-1.53125 -0.92985,-1.12915 -1.52013,-2.59662 -1.71875,-4.53125 l 0,-0.0625 0,-0.0625 c -0.54408,-2.93492 -0.81251,-6.06049 -0.8125,-9.40625 -10e-6,-2.94931 0.0652,-5.48093 0.28125,-7.53125 0.20548,-1.95024 0.76832,-3.87509 1.65625,-5.8125 0.004,-0.009 -0.004,-0.0223 0,-0.0312 0.7694,-1.56274 1.94976,-2.21872 4.375,-2.21875 z m -81.4375,50.09375 -0.40625,1.0625 c -1.57432,4.26872 -3.03299,8.2647 -4.4375,11.96875 l -0.0312,0 c -1.34353,3.69088 -3.04629,8.19321 -5.125,13.46875 -2.02172,5.21736 -3.72389,9.41109 -5.0625,12.53125 l -8.4375,19.5625 -1,2.3125 2.53125,-0.21875 2.9375,-0.21875 5.46875,0.25 1.09375,0.0312 0.40625,-1.03125 c 1.90045,-5.11532 3.59747,-10.03357 5.15625,-14.8125 l 4.78125,-0.21875 c 0.0306,8.7e-4 0.0632,-8.8e-4 0.0937,0 1.93096,0.0557 3.9027,0.13191 5.90625,0.1875 1.67622,0.0466 3.28724,0.0595 4.90625,0.0625 l 2.96875,9.15625 1.75,5.5625 0.34375,1.09375 1.125,-0.0312 8.21875,-0.25 0.0625,0 8.03125,0.25 2.34375,0.0625 -0.90625,-2.1875 c -3.64814,-8.69026 -7.21123,-17.76684 -10.75,-27.25 -3.54228,-9.49226 -7.23843,-19.57612 -11.0625,-30.25 l -0.40625,-1.09375 -1.125,0.0937 -4.03125,0.25 -0.1875,0 -4.03125,-0.25 -1.125,-0.0937 z m 104.78125,0.0625 c -10.0016,6e-5 -18.26717,2.68759 -24.59375,8.0625 -6.37363,5.35547 -9.59375,13.1012 -9.59375,22.8125 0,9.84844 2.93757,17.60505 8.8125,22.875 5.89345,5.23319 13.90537,7.84375 23.84375,7.84375 10.22501,0 18.56949,-2.73177 24.6875,-8.25 6.19708,-5.59542 9.28119,-13.63542 9.28125,-23.71875 -6e-5,-9.37217 -3.091,-16.86505 -9.1875,-22 -5.99,-5.09498 -13.81199,-7.62494 -23.25,-7.625 z m -134.03125,0.9375 -0.25,1.375 c -0.26896,1.5582 -0.63576,3.11263 -1.125,4.6875 l -0.0312,0 0,0.0312 c -0.44138,1.54313 -0.9581,3.13455 -1.5625,4.78125 l 0,0.0312 L 97,275 87.625,250.1875 c -1.100499,-2.85823 -2.118179,-6.11877 -3.0625,-9.78125 l -0.3125,-1.1875 -1.21875,0.0312 -7.625,0.3125 c 0.0096,0 -0.06677,9e-5 -0.0625,0 0.05982,-0.001 -0.315613,-0.008 -0.875,-0.0312 -0.599296,-0.0248 -1.4748,-0.0689 -2.625,-0.125 -2.322059,-0.11307 -3.934644,-0.1562 -4.9375,-0.15625 l -2.21875,0 0.8125,2.09375 16.65625,42.53125 c 0.0058,0.0157 0.0255,0.0156 0.03125,0.0312 1.230715,3.35283 2.213037,6.05844 2.9375,8.0625 0.721019,1.99464 1.35221,3.9308 1.90625,5.8125 l 0.34375,1.09375 1.125,0 c 0.431635,0 0.9503,-0.0733 2.09375,-0.1875 l 0.03125,0 0.03125,0 c 1.165661,-0.16627 2.056194,-0.25 2.5625,-0.25 0.427584,0 1.019019,0.0487 1.71875,0.15625 l 0.03125,0 0.0625,0 c 0.712656,0.0548 1.596978,0.13937 2.59375,0.25 L 98.90625,299 99.25,297.71875 c 1.27747,-4.93823 2.83191,-9.56748 4.65625,-13.875 l 0,-0.0312 11.3125,-28.78125 0,-0.0312 c 1.95461,-4.51753 4.07599,-9.00707 6.3125,-13.53125 l 1.0625,-2.21875 -2.4375,0 c -0.64139,6e-5 -1.57401,0.0722 -2.84375,0.1875 -1.20556,0.10948 -2.10928,0.12505 -2.65625,0.125 l 0,0.0312 -4.375,-0.3125 -1.34375,-0.125 z m 63.28125,0.0625 0.15625,1.6875 c 0.44862,5.32178 0.70118,9.76112 0.8125,13.375 l 0,0.0312 c 0.16681,3.55498 0.25,8.49902 0.25,14.78125 0,6.00063 -0.0823,11.16901 -0.25,15.46875 l 0,0.0312 c -0.1115,4.28809 -0.36694,8.47664 -0.8125,12.59375 l -0.1875,1.6875 1.6875,0 c 0.59401,0 2.1656,-0.0435 4.875,-0.15625 l 0.0312,0 0,-0.0312 c 2.69136,-0.16795 4.88361,-0.25 6.5625,-0.25 0.96242,0 4.13386,0.11256 9.3125,0.28125 l 0.0312,0 c 5.24163,0.11261 9.42222,0.15625 12.53125,0.15625 l 1.625,0 -0.125,-1.625 -0.25,-3.6875 0,-0.0937 0,-0.0937 0.25,-3.78125 0.125,-1.8125 L 207.0625,288 c -5.4878,0.61481 -11.02228,0.89012 -16.5625,0.9375 -0.0854,-1.20034 -0.15626,-2.39141 -0.15625,-3.75 -2e-5,-1.96726 -2e-5,-3.90142 0,-5.8125 l 0,-19.5625 c -2e-5,-6.6462 0.25463,-12.91233 0.8125,-18.875 l 0.15625,-1.71875 -1.6875,0.0312 -8.09375,0.25 -0.0937,0 -7.5,-0.25 -1.71875,-0.0312 z m 70.0625,7.46875 c 5.25935,5e-5 8.80674,1.99775 11.28125,6.375 2.56403,4.53589 3.8437,9.72326 3.84375,15.625 -5e-5,6.13458 -1.30399,11.51004 -3.875,16.21875 -2.47576,4.48258 -6.07263,6.53126 -11.5,6.53125 -5.29703,10e-6 -8.83587,-2.03087 -11.3125,-6.4375 -0.007,-0.0121 -0.0247,-0.0192 -0.0312,-0.0312 -2.55437,-4.6403 -3.81252,-9.92533 -3.8125,-15.875 -2e-5,-6.19757 1.25646,-11.50963 3.8125,-16.03125 2.46752,-4.36502 6.09313,-6.37495 11.59375,-6.375 z M 139.5,261.25 c 0.79555,1.94201 1.70129,4.06023 2.28125,5.59375 0.7265,1.92118 1.4593,4.21538 2.1875,6.53125 l -4.5625,0.0937 -0.0625,0 -4.5,-0.0937 c 1.48594,-4.10076 3.03746,-8.12918 4.65625,-12.125 z"
           id="path37479" />
        <path
           id="path37388"
           transform="translate(17,144)"
           d="m 132.53125,12.03125 0,1.71875 c 0,0.8951 0.11865,4.77976 0.34375,12.03125 0.2808,7.18151 0.40624,12.75964 0.40625,16.71875 -1e-5,0.82337 -0.12506,5.56637 -0.40625,13.9375 l 0,0.03125 c -0.22526,8.32559 -0.34375,14.77114 -0.34375,19.40625 l 0,1.5625 1.59375,-0.03125 6.625,-0.25 0.125,0 6.53125,0.25 L 149,77.4375 149,75.875 c -3e-5,-0.50551 -0.0437,-3.28209 -0.15625,-8.625 -0.0551,-2.61494 -0.0375,-3.69377 -0.0625,-5.5625 0.8589,1.4747 1.50975,2.64814 2.53125,4.375 2.2422,3.69583 4.281,7.18205 6.125,10.53125 l 0.4375,0.8125 0.90625,0 c 0.43898,0 1.3686,-0.0743 3.125,-0.1875 l 0.0312,0 0.0312,0 C 163.67992,77.05347 165.07289,77 166.125,77 c 0.0936,0 1.27291,0.0512 3.0625,0.21875 l 0.0312,0 0.0312,0 c 1.88056,0.11387 3.35815,0.1875 4.46875,0.1875 l 2.71875,0 L 175,75.0625 169.1875,65.71875 c -3.53109,-5.68591 -6.5222,-10.73681 -9.15625,-15.375 L 168.4375,42 l 0.0312,0 5.1875,-4.90625 0.875,-0.8125 -0.59375,-1.03125 -0.34375,-0.59375 -0.46875,-0.8125 -0.90625,0.03125 -3.8125,0.1875 c -0.013,0 -0.0491,3e-5 -0.0625,0 -0.62183,-10e-4 -1.58757,-0.03885 -2.90625,-0.09375 -1.35368,-0.0563 -2.36246,-0.09375 -3.09375,-0.09375 l -0.78125,0 -0.46875,0.65625 c -2.56694,3.62341 -4.98923,6.75483 -7.25,9.34375 -1.51434,1.73415 -3.36257,3.2887 -5.15625,4.875 l 0,-9.4375 c -2e-5,-2.49433 0.0879,-6.74187 0.3125,-12.6875 0.22531,-5.96521 0.34373,-10.24292 0.34375,-12.875 l 0,-1.6875 -1.6875,0.1875 c -2.13272,0.21858 -4.56788,0.31256 -7.28125,0.3125 -2.31227,6e-5 -4.33994,-0.0963 -6.125,-0.3125 l -1.71875,-0.21875 z m -39.5,0.78125 c -2.18396,9e-5 -4.21927,0.90848 -5.8125,2.5 -0.73813,0.73738 -1.30172,1.56937 -1.71875,2.46875 l -2.1875,0 c -0.697586,7e-5 -1.570311,0.106 -2.8125,0.21875 -1.205544,0.10949 -2.10922,0.12504 -2.65625,0.125 l 0,0.03125 L 73.5,17.8125 l -1.375,-0.125 -0.25,1.375 c -0.269521,1.56141 -0.637392,3.14913 -1.125,4.71875 l -0.03125,0 0,0.03125 c -0.439916,1.53801 -0.956007,3.09759 -1.5625,4.75 l 0,0.03125 -9,24.96875 L 50.8125,28.71875 C 49.712,25.86067 48.694319,22.59997 47.75,18.9375 l -0.3125,-1.1875 -1.21875,0.03125 -7.625,0.34375 c 0.0095,0 -0.06674,9e-5 -0.0625,0 0.0594,-0.001 -0.315615,-0.0081 -0.875,-0.03125 -0.599294,-0.0248 -1.474806,-0.0689 -2.625,-0.125 -2.309061,-0.11242 -3.932852,-0.18744 -4.96875,-0.1875 l -2.21875,0 0.8125,2.09375 16.6875,42.5625 c 0.0057,0.0157 0.02551,0.01565 0.03125,0.03125 1.227605,3.34514 2.177109,6.04549 2.90625,8.0625 0.727416,2.01234 1.389029,3.91846 1.9375,5.78125 l 0.34375,1.09375 1.125,0 c 0.431574,0 0.950286,-0.0733 2.09375,-0.1875 l 0.03125,0 0.03125,0 C 54.983458,77.05624 55.853126,77 56.40625,77 c 0.48381,0 1.060788,0.0239 1.71875,0.125 l 0.03125,0 0.0625,0 c 0.7127,0.0548 1.597008,0.13936 2.59375,0.25 L 62.09375,77.53125 62.4375,76.25 c 1.277091,-4.93676 2.8309,-9.53384 4.65625,-13.84375 l 0,-0.03125 11.3125,-28.8125 0,-0.03125 C 80.363046,29.0083 82.45346,24.51917 84.6875,20 l 0.46875,-0.96875 c -0.18699,0.67603 -0.4375,1.34224 -0.4375,2.0625 0,2.22636 0.8899,4.27117 2.5,5.8125 1.60067,1.53246 3.64957,2.37506 5.8125,2.375 2.20818,6e-5 4.23194,-0.85854 5.78125,-2.40625 1.58681,-1.58513 2.49998,-3.59949 2.5,-5.78125 -2e-5,-2.18166 -0.91322,-4.19603 -2.5,-5.78125 -1.58498,-1.58322 -3.59732,-2.49991 -5.78125,-2.5 z m 24.0625,0 c -2.18395,9e-5 -4.21926,0.90849 -5.8125,2.5 -1.5951,1.59349 -2.46875,3.61716 -2.46875,5.78125 0,2.20932 0.85021,4.26308 2.46875,5.8125 1.60069,1.53245 3.64958,2.37506 5.8125,2.375 2.20819,6e-5 4.23195,-0.85853 5.78125,-2.40625 1.58683,-1.58514 2.49998,-3.5995 2.5,-5.78125 -2e-5,-2.18166 -0.91321,-4.19603 -2.5,-5.78125 -1.58497,-1.58322 -3.59731,-2.49991 -5.78125,-2.5 z m 82.125,20.0625 c -7.03533,4e-5 -12.89025,2.00977 -17.25,6.0625 -4.32718,4.01828 -6.5,9.72666 -6.5,16.71875 0,6.82554 2.12787,12.47227 6.375,16.59375 l 0.0312,0 c 4.29373,4.04762 9.98368,6.09375 16.75,6.09375 7.03622,0 12.79338,-2.04775 16.9375,-6.1875 4.1391,-4.13483 6.18745,-9.82866 6.1875,-16.75 -5e-5,-6.58886 -2.08977,-12.13665 -6.25,-16.25 -0.006,-0.006 -0.0256,0.006 -0.0312,0 -4.11703,-4.16336 -9.64679,-6.28121 -16.25,-6.28125 z m 53.90625,0.15625 c -2.7022,4e-5 -5.35814,0.76233 -7.90625,2.15625 -1.36401,0.7462 -2.5998,1.62959 -3.75,2.59375 l 0,-2.375 0,-1.6875 -1.6875,0.1875 c -0.57153,0.0571 -1.40135,0.16498 -2.4375,0.3125 -1.40666,4e-5 -2.84338,4e-5 -4.25,0 -1.23787,4e-5 -2.08749,4e-5 -2.59375,0 -0.54528,-0.0653 -1.57939,-0.15224 -3.34375,-0.3125 L 225.5,33.75 l 0,1.65625 c -1e-5,1.49074 0.11842,4.63554 0.34375,9.53125 0.22465,4.825 0.34376,8.29536 0.34375,10.375 -3e-5,1.01745 -0.11885,4.12634 -0.34375,9.125 -0.22557,4.95725 -0.34376,8.75025 -0.34375,11.4375 l 0,1.53125 1.53125,0 c 0.43899,0 1.36095,-0.0742 3.0625,-0.1875 l 0.0312,0 0.0312,0 C 231.8139,77.05325 233.09985,77 234.03125,77 c 0.0936,0 1.19411,0.0515 2.8125,0.21875 l 0.0312,0 0.0312,0 c 1.71441,0.11419 3.0596,0.1875 4.0625,0.1875 l 1.53125,0 0,-1.53125 c -2e-5,-1.43799 -0.11844,-4.39175 -0.34375,-9.0625 -0.16849,-4.65383 -0.25002,-8.33243 -0.25,-11 -2e-5,-2.04614 0.0182,-3.76468 0.125,-5.21875 6.4e-4,-0.009 -6.4e-4,-0.02265 0,-0.03125 0.15535,-1.37002 0.50012,-2.57425 0.9375,-3.59375 l 0,-0.03125 c 0.41879,-1.02264 0.96128,-1.69743 1.65625,-2.1875 l 0,-0.03125 c 0.75956,-0.54799 1.58345,-0.78123 2.59375,-0.78125 1.50909,2e-5 2.28018,0.4205 3,1.5625 l 0.0312,0.03125 c 0.84282,1.26298 1.24997,2.70457 1.25,4.46875 l 0,0.09375 0.0312,0.09375 c 0.16044,1.28295 0.21872,2.59083 0.21875,3.9375 l 0,1.53125 c -3e-5,1.61507 -0.11906,4.84843 -0.34375,9.5625 -0.16914,4.73097 -0.25003,8.26067 -0.25,10.65625 l 0,1.53125 1.53125,0 c 0.43157,0 1.25894,-0.0745 3.125,-0.1875 1.89399,-0.1113 3.23728,-0.125 3.96875,-0.125 0.73138,0 1.8162,0.0148 3.25,0.125 1.49012,0.11452 2.61412,0.1875 3.40625,0.1875 l 1.53125,0 0,-1.53125 c -4e-5,-2.3982 -0.0866,-5.87302 -0.3125,-10.5 -0.16823,-4.64931 -0.28056,-7.81378 -0.28125,-9.4375 l 0,-0.03125 0.0937,-8.8125 0,-0.03125 c -5e-5,-4.03854 -1.3776,-7.53779 -4.09375,-10.125 -2.69661,-2.56842 -6.21918,-3.90621 -10.25,-3.90625 z m -168.84375,0.6875 0.15625,1.8125 0.65625,7.40625 -0.03125,0 0,25.1875 c 0,1.25857 -0.0171,2.51025 -0.125,3.75 -0.10968,1.20521 -0.26918,2.46731 -0.4375,3.8125 l -0.21875,1.78125 1.78125,-0.0625 6.8125,-0.25 0.125,0 7.03125,0.25 1.75,0.03125 -0.1875,-1.71875 c -0.33404,-3.39228 -0.51358,-6.28041 -0.625,-8.71875 -1.7e-4,-0.007 1.7e-4,-0.02395 0,-0.03125 -0.0556,-2.4547 -0.0939,-5.93774 -0.0937,-10.46875 l 0.0937,-13.75 0.71875,-7.1875 0.1875,-1.84375 -1.8125,0.1875 c -1.24271,0.1129 -2.4858,0.23181 -3.71875,0.34375 -1.21563,0.11041 -2.3146,0.15629 -3.3125,0.15625 -0.93776,4e-5 -2.06964,-0.0455 -3.34375,-0.15625 -1.23024,-0.11169 -2.40864,-0.23096 -3.59375,-0.34375 l -1.8125,-0.1875 z m 24.0625,0 0.15625,1.8125 0.65625,7.40625 -0.0312,0 0,25.1875 c -1e-5,1.25858 -0.0171,2.51026 -0.125,3.75 -0.10969,1.20521 -0.26918,2.46731 -0.4375,3.8125 l -0.21875,1.78125 1.78125,-0.0625 6.8125,-0.25 0.125,0 7.0625,0.25 1.75,0.03125 -0.1875,-1.71875 C 125.35257,72.3174 125.14233,69.42576 125.03125,67 c -1.7e-4,-0.007 1.7e-4,-0.02395 0,-0.03125 -0.0556,-2.4547 -0.0939,-5.93774 -0.0937,-10.46875 l 0.0937,-13.75 0.71875,-7.1875 0.1875,-1.84375 -1.8125,0.1875 c -1.24272,0.1129 -2.4858,0.23181 -3.71875,0.34375 -1.21563,0.11041 -2.31459,0.15629 -3.3125,0.15625 -0.93775,4e-5 -2.06963,-0.0455 -3.34375,-0.15625 -1.23023,-0.11169 -2.40862,-0.23095 -3.59375,-0.34375 l -1.8125,-0.1875 z M 198.625,40.0625 c 1.7502,2e-5 2.82449,0.47172 3.65625,1.46875 0.92431,1.10808 1.58588,2.6397 2,4.65625 0.11138,0.89084 0.27584,2.06425 0.4375,3.625 0.16106,1.55531 0.21872,3.47571 0.21875,5.6875 -3e-5,2.2689 -0.0563,4.22912 -0.21875,5.90625 -0.16186,1.61664 -0.32668,2.83015 -0.4375,3.71875 -0.40952,1.94309 -1.06617,3.4781 -2,4.65625 -0.008,0.0106 -0.0229,0.02075 -0.0312,0.03125 -0.83677,0.98535 -1.86648,1.4375 -3.53125,1.4375 -1.75025,0 -2.92743,-0.49859 -3.875,-1.53125 -0.92985,-1.12915 -1.52013,-2.59662 -1.71875,-4.53125 l 0,-0.0625 0,-0.0625 c -0.54408,-2.93492 -0.81251,-6.06049 -0.8125,-9.40625 -10e-6,-2.94931 0.0652,-5.48093 0.28125,-7.53125 0.20548,-1.95024 0.76832,-3.87509 1.65625,-5.8125 0.004,-0.009 -0.004,-0.02225 0,-0.03125 0.7694,-1.56274 1.94976,-2.21872 4.375,-2.21875 z m -81.4375,50.09375 -0.40625,1.0625 c -1.57432,4.26872 -3.03299,8.2647 -4.4375,11.96875 l -0.0312,0 c -1.34353,3.69088 -3.04629,8.19321 -5.125,13.46875 -2.02172,5.21736 -3.72389,9.41109 -5.0625,12.53125 l -8.4375,19.5625 -1,2.3125 2.53125,-0.21875 2.9375,-0.21875 5.46875,0.25 1.09375,0.0312 0.40625,-1.03125 c 1.90045,-5.11532 3.59747,-10.03357 5.15625,-14.8125 l 4.78125,-0.21875 c 0.0306,8.7e-4 0.0631,-8.8e-4 0.0937,0 1.93096,0.0557 3.9027,0.13191 5.90625,0.1875 1.67622,0.0466 3.28724,0.0595 4.90625,0.0625 l 2.96875,9.15625 1.75,5.5625 0.34375,1.09375 1.125,-0.0312 8.21875,-0.25 0.0625,0 8.03125,0.25 2.34375,0.0625 -0.90625,-2.1875 c -3.64814,-8.69026 -7.21123,-17.76684 -10.75,-27.25 -3.54228,-9.49226 -7.23843,-19.57612 -11.0625,-30.25 l -0.40625,-1.09375 -1.125,0.09375 -4.03125,0.25 -0.1875,0 -4.03125,-0.25 -1.125,-0.09375 z m 104.78125,0.0625 c -10.0016,6e-5 -18.26717,2.68759 -24.59375,8.0625 -6.37363,5.35547 -9.59375,13.1012 -9.59375,22.8125 0,9.84844 2.93757,17.60505 8.8125,22.875 5.89345,5.23319 13.90537,7.84375 23.84375,7.84375 10.22501,0 18.56949,-2.73177 24.6875,-8.25 6.19708,-5.59542 9.28119,-13.63542 9.28125,-23.71875 -6e-5,-9.37217 -3.091,-16.86505 -9.1875,-22 -5.99,-5.09498 -13.81199,-7.62494 -23.25,-7.625 z m -134.03125,0.9375 -0.25,1.375 c -0.26896,1.5582 -0.63576,3.11263 -1.125,4.6875 l -0.03125,0 0,0.03125 c -0.44138,1.54313 -0.9581,3.13455 -1.5625,4.78125 l 0,0.0312 L 76,127 66.625,102.1875 C 65.524501,99.32927 64.506821,96.06873 63.5625,92.40625 L 63.25,91.21875 62.03125,91.25 l -7.625,0.3125 c 0.0096,0 -0.06677,9e-5 -0.0625,0 0.05982,-0.001 -0.315613,-0.008 -0.875,-0.03125 -0.599296,-0.0248 -1.4748,-0.0689 -2.625,-0.125 -2.322059,-0.11307 -3.934644,-0.1562 -4.9375,-0.15625 l -2.21875,0 0.8125,2.09375 16.65625,42.53125 c 0.0058,0.0157 0.0255,0.0156 0.03125,0.0312 1.230715,3.35283 2.213037,6.05844 2.9375,8.0625 0.721019,1.99464 1.35221,3.9308 1.90625,5.8125 l 0.34375,1.09375 1.125,0 c 0.431635,0 0.9503,-0.0733 2.09375,-0.1875 l 0.03125,0 0.03125,0 c 1.165661,-0.16627 2.056194,-0.25 2.5625,-0.25 0.427584,0 1.019019,0.0487 1.71875,0.15625 l 0.03125,0 0.0625,0 c 0.712656,0.0548 1.596978,0.13937 2.59375,0.25 L 77.90625,151 78.25,149.71875 c 1.277475,-4.93823 2.831911,-9.56748 4.65625,-13.875 l 0,-0.0312 11.3125,-28.78125 0,-0.0312 c 1.95461,-4.51753 4.07599,-9.00707 6.3125,-13.53125 l 1.0625,-2.21875 -2.4375,0 c -0.64139,6e-5 -1.57401,0.0722 -2.84375,0.1875 -1.20556,0.10948 -2.10928,0.12505 -2.65625,0.125 l 0,0.03125 -4.375,-0.3125 -1.34375,-0.125 z m 63.28125,0.0625 0.15625,1.6875 c 0.44862,5.32178 0.70118,9.76112 0.8125,13.375 l 0,0.0312 c 0.16681,3.55498 0.25,8.49902 0.25,14.78125 0,6.00063 -0.0823,11.16901 -0.25,15.46875 l 0,0.0312 c -0.1115,4.28809 -0.36694,8.47664 -0.8125,12.59375 l -0.1875,1.6875 1.6875,0 c 0.59401,0 2.1656,-0.0435 4.875,-0.15625 l 0.0312,0 0,-0.0312 c 2.69136,-0.16795 4.88361,-0.25 6.5625,-0.25 0.96242,0 4.13386,0.11256 9.3125,0.28125 l 0.0312,0 c 5.24163,0.11261 9.42222,0.15625 12.53125,0.15625 l 1.625,0 -0.125,-1.625 -0.25,-3.6875 0,-0.0937 0,-0.0937 0.25,-3.78125 0.125,-1.8125 L 186.0625,140 c -5.4878,0.61481 -11.02228,0.89012 -16.5625,0.9375 -0.0854,-1.20034 -0.15626,-2.39141 -0.15625,-3.75 -2e-5,-1.96726 -2e-5,-3.90142 0,-5.8125 l 0,-19.5625 c -2e-5,-6.6462 0.25463,-12.91233 0.8125,-18.875 l 0.15625,-1.71875 -1.6875,0.03125 -8.09375,0.25 -0.0937,0 -7.5,-0.25 -1.71875,-0.03125 z m 70.0625,7.46875 c 5.25935,5e-5 8.80674,1.99775 11.28125,6.375 2.56403,4.53589 3.8437,9.72326 3.84375,15.625 -5e-5,6.13458 -1.30399,11.51004 -3.875,16.21875 -2.47576,4.48258 -6.07263,6.53126 -11.5,6.53125 -5.29703,1e-5 -8.83587,-2.03087 -11.3125,-6.4375 -0.007,-0.0121 -0.0247,-0.0192 -0.0312,-0.0312 -2.55437,-4.6403 -3.81252,-9.92533 -3.8125,-15.875 -2e-5,-6.19757 1.25646,-11.50963 3.8125,-16.03125 2.46752,-4.36502 6.09313,-6.37495 11.59375,-6.375 z M 118.5,113.25 c 0.79555,1.94201 1.70129,4.06023 2.28125,5.59375 0.7265,1.92118 1.4593,4.21538 2.1875,6.53125 l -4.5625,0.0937 -0.0625,0 -4.5,-0.0937 c 1.48594,-4.10076 3.03746,-8.12918 4.65625,-12.125 z"
           style="font-size:84.35607147px;font-style:normal;font-variant:normal;font-weight:bold;font-stretch:normal;text-align:center;line-height:125%;letter-spacing:0px;word-spacing:0px;text-anchor:middle;fill:url(#radialGradient39592);fill-opacity:1;stroke:#000000;stroke-width:2;stroke-opacity:1;font-family:MgOpen Cosmetica;-inkscape-font-specification:MgOpen Cosmetica Bold"
           inkscape:connector-curvature="0" />
      </g>
      <rect
         ry="21.2132"
         y="423.95224"
         x="636.59265"
         height="283.65457"
         width="516.98901"
         id="rect38308"
         style="fill:none;stroke:#000000;stroke-width:5.18241787;stroke-opacity:1;display:inline"
         transform="matrix(0.57918184,0,0,0.57857907,-350.1859,-99.789865)" />
    </g>
    <text
       sodipodi:linespacing="125%"
       id="text3392"
       y="423.27911"
       x="26.118309"
       style="font-size:40.25220871px;font-style:normal;font-variant:normal;font-weight:bold;font-stretch:normal;text-align:start;line-height:125%;letter-spacing:0px;word-spacing:0px;text-anchor:start;fill-opacity:1;display:inline;font-family:MgOpen Cosmetica;-inkscape-font-specification:MgOpen Cosmetica Bold"
       xml:space="preserve"><tspan
         style="text-align:start;text-anchor:start"
         y="423.27911"
         x="26.118309"
         sodipodi:role="line"
         id="tspan3740">Semantik</tspan></text>
    <g
       inkscape:label="Layer 1"
       id="layer1-1"
       transform="matrix(1.5048112,0,0,1.5048112,-545.32869,-1750.7841)" />
    <g
       id="layer2-4"
       inkscape:label="Layer"
       style="display:inline"
       transform="matrix(1.5048112,0,0,1.5048112,-545.32869,-919.58335)" />
    <flowRoot
       xml:space="preserve"
       id="flowRoot2499"
       style="font-size:12px;font-style:normal;font-weight:normal;fill:#000000;fill-opacity:1;stroke:none;font-family:Bitstream Vera Sans"
       transform="matrix(0.10955145,0,0,0.10955145,441.87713,158.29436)"><flowRegion
         id="flowRegion2501"><rect
           id="rect2503"
           width="459.375"
           height="68.75"
           x="37.5"
           y="318.125" /></flowRegion><flowPara
         id="flowPara2505" /></flowRoot>    <g
       id="g6251"
       transform="translate(23.281014,143.99161)">
      <use
         x="0"
         y="0"
         xlink:href="#text11685"
         id="use40118-1"
         transform="translate(-207.32912,-136.86631)"
         width="308.84375"
         height="170.65625"
         style="fill:#000000;stroke:#000000;stroke-width:4" />
      <use
         style="fill:#000000;stroke:#000000;stroke-width:3;filter:url(#filter40130)"
         height="170.65625"
         width="308.84375"
         transform="translate(-205.32912,-134.86631)"
         id="use40120-1"
         xlink:href="#text11685"
         y="0"
         x="0" />
      <use
         style="fill:url(#linearGradient6097-7);fill-opacity:1;stroke:#ffffff"
         height="170.65625"
         width="308.84375"
         transform="translate(-207.32912,-136.86631)"
         id="use40116-5"
         xlink:href="#text11685"
         y="0"
         x="0" />
    </g>
    <text
       xml:space="preserve"
       style="font-size:17.81859207px;font-style:normal;font-variant:normal;font-weight:bold;font-stretch:normal;fill:#eef4d7;fill-opacity:1;stroke:none;font-family:Ouhod;-inkscape-font-specification:Ouhod Bold"
       x="324.01773"
       y="193.16827"
       id="text3416"><tspan
         sodipodi:role="line"
         id="tspan3418"
         x="324.01773"
         y="193.16827" /></text>
    <path
       inkscape:transform-center-y="-1.4955988"
       inkscape:transform-center-x="-2.9748115"
       transform="translate(17.05128,138.29195)"
       d="M 5.9951896,18.208468 67.82561,59.786947 110.65091,-1.0829316 69.072431,60.747489 129.94231,103.57279 68.11189,61.99431 25.28659,122.86419 66.865069,61.033769 z"
       inkscape:randomized="0"
       inkscape:rounded="0"
       inkscape:flatsided="false"
       sodipodi:arg2="-1.6997697"
       sodipodi:arg1="-2.5384803"
       sodipodi:r2="1.1129248"
       sodipodi:r1="75.249512"
       sodipodi:cy="60.890629"
       sodipodi:cx="67.96875"
       sodipodi:sides="4"
       id="path13568"
       style="opacity:0.4;fill:#ffffff;fill-opacity:1;stroke:none;filter:url(#filter6087)"
       sodipodi:type="star" />
    <text
       sodipodi:linespacing="125%"
       id="text11685"
       y="186.8148"
       x="383.99756"
       style="font-size:48px;font-style:normal;font-variant:normal;font-weight:bold;font-stretch:normal;text-align:start;line-height:125%;letter-spacing:0px;word-spacing:0px;text-anchor:start;fill-opacity:1;display:inline;font-family:MgOpen Cosmetica;-inkscape-font-specification:MgOpen Cosmetica Bold"
       xml:space="preserve"><tspan
         id="tspan11687"
         y="186.8148"
         x="383.99756"
         sodipodi:role="line">#128</tspan></text>
    <g
       transform="matrix(0.46582378,-0.05208582,0.05208582,0.46582378,202.31657,201.16877)"
       id="layer1-9"
       inkscape:label="Layer 1">
      <g
         transform="translate(-441.45078,-110.71305)"
         id="g4111">
        <path
           style="fill:#1c241f;fill-opacity:1;stroke:none;filter:url(#filter3900)"
           d="m 567.88189,-922.36329 c -0.67373,0 -1.21875,0.0147 -1.21875,0.0312 l 0,163.90625 0,7.3125 0,414.25 c 0,0.0409 0.54502,0.0937 1.21875,0.0937 l 497.56251,0 c 0.6737,0 1.2187,-0.0529 1.2187,-0.0937 l 0,-414.25 0,-7.3125 0,-163.90625 c 0,-0.0166 -0.545,-0.0312 -1.2187,-0.0312 l -497.56251,0 z"
           id="path4150"
           inkscape:connector-curvature="0"
           transform="matrix(0.34017889,0,0,0.34077778,258.93653,441.46157)" />
        <path
           id="rect4152"
           d="m 453.96166,157.21199 160.08829,0 c 0.21676,0 0.39127,0.0106 0.39127,0.0237 l 0,135.6371 c 0,0.0131 -0.17451,0.0237 -0.39127,0.0237 l -160.08829,0 c -0.21675,0 -0.39127,-0.0106 -0.39127,-0.0237 l 0,-135.6371 c 0,-0.0131 0.17452,-0.0237 0.39127,-0.0237 z"
           style="fill:#ffffff;fill-opacity:1;stroke:none"
           inkscape:connector-curvature="0" />
        <path
           id="rect4154"
           d="m 453.96166,127.89916 160.08829,0 c 0.21676,0 0.39127,0.003 0.39127,0.006 l 0,31.69333 c 0,0.003 -0.17451,0.006 -0.39127,0.006 l -160.08829,0 c -0.21675,0 -0.39127,-0.003 -0.39127,-0.006 l 0,-31.69333 c 0,-0.003 0.17452,-0.006 0.39127,-0.006 z"
           style="fill:#aa0000;fill-opacity:1;stroke:none"
           inkscape:connector-curvature="0" />
        <path
           id="rect4162"
           d="m 453.67177,292.90198 160.08829,0 c 0.21676,0 0.39127,0.003 0.39127,0.006 l 0,31.69333 c 0,0.003 -0.17451,0.006 -0.39127,0.006 l -160.08829,0 c -0.21675,0 -0.39127,-0.003 -0.39127,-0.006 l 0,-31.69333 c 0,-0.003 0.17452,-0.006 0.39127,-0.006 z"
           style="fill:#aa0000;fill-opacity:1;stroke:none"
           inkscape:connector-curvature="0" />
        <g
           id="text4164"
           style="font-size:22.32485962px;font-style:normal;font-weight:normal;line-height:125%;letter-spacing:0px;word-spacing:0px;fill:#ffffff;fill-opacity:1;stroke:none;font-family:Sans"
           transform="matrix(0.35088179,0,0,0.29502155,127.43668,446.19467)">
          <path
             id="path5543"
             style="font-size:80.36949158px;font-variant:normal;font-weight:bold;font-stretch:normal;fill:#ffffff;font-family:FreeSerif;-inkscape-font-specification:FreeSerif Bold"
             d="m 1008.2724,-441.89047 0,-39.62216 c 0,-1.82166 -0.4822,-3.10757 -1.4467,-3.85773 -0.9108,-0.75007 -2.6522,-1.25907 -5.224,-1.52702 l 0,-2.00924 24.5127,0 c 9.2692,5e-5 16.5561,2.35756 21.8605,7.07252 5.3043,4.71505 7.9565,11.22497 7.9566,19.52978 -10e-5,8.30487 -2.6523,15.00232 -7.9566,20.09238 -5.3044,5.09007 -12.2966,7.6351 -20.9764,7.6351 l -25.3968,0 0,-2.00924 c 2.3039,-0.0536 3.9917,-0.509 5.0633,-1.36628 1.0716,-0.85727 1.6074,-2.16997 1.6074,-3.93811 m 33.6748,-19.20831 c 0,-4.71497 -0.4823,-8.78702 -1.4467,-12.21616 -0.9644,-3.42905 -2.2503,-6.02767 -3.8577,-7.79584 -1.6074,-1.76808 -3.2952,-3.05399 -5.0633,-3.85773 -1.7146,-0.80365 -3.563,-1.2055 -5.5455,-1.20555 -3.1612,5e-5 -4.7418,0.9377 -4.7418,2.81294 l 0,41.30991 c 0,1.82172 0.3215,3.05405 0.9645,3.697 0.6429,0.64296 1.8752,0.96444 3.697,0.96443 10.6623,10e-6 15.9935,-7.90298 15.9935,-23.709"
             inkscape:connector-curvature="0" />
          <path
             id="path5545"
             style="font-size:80.36949158px;font-variant:normal;font-weight:bold;font-stretch:normal;fill:#ffffff;font-family:FreeSerif;-inkscape-font-specification:FreeSerif Bold"
             d="m 1078.725,-472.59161 c 5.1972,4e-5 9.5104,1.87532 12.9395,5.62586 3.4291,3.69703 5.1436,8.35845 5.1437,13.98429 -10e-5,5.5723 -1.7146,10.23373 -5.1437,13.98429 -3.4291,3.697 -7.7423,5.5455 -12.9395,5.5455 -5.2508,0 -9.5907,-1.8485 -13.0198,-5.5455 -3.4291,-3.75056 -5.1437,-8.49236 -5.1437,-14.2254 0,-5.4651 1.7414,-10.04615 5.224,-13.74318 3.5363,-3.75054 7.8494,-5.62582 12.9395,-5.62586 m 0.08,2.49145 c -2.4647,4e-5 -4.1524,1.28595 -5.0633,3.85774 -0.9109,2.57185 -1.3663,7.39401 -1.3663,14.46651 0,5.89377 0.4554,10.0194 1.3663,12.3769 0.9644,2.30393 2.6254,3.45589 4.9829,3.45589 2.3575,0 3.9917,-1.20554 4.9026,-3.61663 0.9108,-2.46466 1.3662,-6.77782 1.3662,-12.93949 0,-6.59027 -0.4554,-11.17133 -1.3662,-13.74318 -0.9109,-2.57179 -2.5183,-3.8577 -4.8222,-3.85774"
             inkscape:connector-curvature="0" />
          <path
             id="path5547"
             style="font-size:80.36949158px;font-variant:normal;font-weight:bold;font-stretch:normal;fill:#ffffff;font-family:FreeSerif;-inkscape-font-specification:FreeSerif Bold"
             d="m 1131.8493,-443.33712 1.4466,1.44665 c -2.3575,3.00047 -4.7418,5.17044 -7.1529,6.50993 -2.3575,1.28591 -5.0901,1.92887 -8.1977,1.92887 -4.9829,0 -9.1085,-1.79492 -12.3769,-5.38476 -3.2147,-3.58983 -4.8221,-8.14409 -4.8221,-13.66281 0,-5.78658 1.7949,-10.58195 5.3847,-14.38614 3.5898,-3.80412 8.1173,-5.70619 13.5825,-5.70623 3.5362,4e-5 6.4831,0.85731 8.8406,2.57182 2.4111,1.661 3.6166,3.75061 3.6166,6.26882 0,1.55384 -0.4822,2.78617 -1.4466,3.697 -0.9645,0.91088 -2.304,1.3663 -4.0185,1.36628 -2.9469,2e-5 -4.4471,-1.92884 -4.5007,-5.7866 0,-2.25032 -0.134,-3.6166 -0.4018,-4.09885 -0.5358,-1.01798 -1.5271,-1.52698 -2.9737,-1.52702 -2.0896,4e-5 -3.7506,1.20558 -4.9829,3.61663 -1.1788,2.35753 -1.7681,5.5991 -1.7681,9.72471 0,5.46514 1.018,9.83188 3.054,13.10022 2.0896,3.21479 4.8757,4.82218 8.3584,4.82217 1.661,1e-5 3.0808,-0.32147 4.2596,-0.96443 1.2323,-0.69653 2.5986,-1.87528 4.0989,-3.53626"
             inkscape:connector-curvature="0" />
          <path
             id="path5549"
             style="font-size:80.36949158px;font-variant:normal;font-weight:bold;font-stretch:normal;fill:#ffffff;font-family:FreeSerif;-inkscape-font-specification:FreeSerif Bold"
             d="m 1159.5818,-433.53204 0,-5.22402 c -2.3576,2.03603 -4.3668,3.4291 -6.0278,4.17922 -1.661,0.75011 -3.5362,1.12517 -5.6258,1.12517 -3.322,0 -5.9474,-0.99122 -7.8762,-2.97367 -1.8753,-1.98245 -2.813,-4.74179 -2.813,-8.27806 l 0,-20.25311 c 0,-1.66094 -0.2411,-2.78611 -0.7233,-3.37552 -0.4822,-0.58934 -1.5538,-1.04477 -3.2148,-1.36628 l 0,-1.92887 15.1095,0 0,27.24526 c 0,2.03603 0.3215,3.50947 0.9644,4.42032 0.6965,0.85728 1.8753,1.28592 3.5363,1.28591 2.036,10e-6 4.2328,-1.17874 6.5903,-3.53625 l 0,-22.74457 c 0,-1.71452 -0.3483,-2.89327 -1.0448,-3.53626 -0.643,-0.64292 -1.9557,-1.04477 -3.9381,-1.20554 l 0,-1.92887 16.1542,0 0,28.93302 c 0,1.71455 0.2947,2.92009 0.8841,3.61663 0.6429,0.64296 1.8485,0.99122 3.6166,1.0448 l 0,1.8485 -4.9829,0.56258 c -4.4471,0.48222 -7.9834,1.17876 -10.6087,2.08961"
             inkscape:connector-curvature="0" />
          <path
             id="path5551"
             style="font-size:80.36949158px;font-variant:normal;font-weight:bold;font-stretch:normal;fill:#ffffff;font-family:FreeSerif;-inkscape-font-specification:FreeSerif Bold"
             d="m 1199.5957,-467.20686 c -1.4467,4e-5 -2.9469,0.6162 -4.5007,1.8485 -1.5002,1.23236 -2.2503,2.17001 -2.2503,2.81293 l 0,21.45866 c 0,1.55381 0.2679,2.6522 0.8037,3.29515 0.5358,0.64296 1.5002,1.07159 2.8933,1.28591 l 0,1.92887 -19.2887,0 0,-1.92887 c 1.7681,-0.32148 2.9469,-0.7769 3.5363,-1.36628 0.5893,-0.64295 0.884,-1.79492 0.884,-3.45589 l 0,-23.62863 c 0,-1.66094 -0.2947,-2.8129 -0.884,-3.45589 -0.5894,-0.64292 -1.7682,-1.07156 -3.5363,-1.28591 l 0,-1.92887 15.3506,0 0,6.02771 c 2.9468,-4.66139 6.8849,-6.9921 11.8143,-6.99214 2.5182,4e-5 4.5542,0.53583 6.1081,1.60739 1.5537,1.07163 2.9468,2.86654 4.1792,5.38475 2.0895,-2.57179 3.9916,-4.3667 5.7062,-5.38475 1.7681,-1.07156 3.8041,-1.60735 6.1081,-1.60739 3.3219,4e-5 5.9473,1.04484 7.8762,3.13441 1.9824,2.03606 2.9736,4.76862 2.9737,8.19769 l 0,20.17274 c -10e-5,1.71455 0.2678,2.8933 0.8037,3.53626 0.5893,0.58937 1.6609,0.93764 3.2148,1.0448 l 0,1.92887 -19.128,0 0,-1.92887 c 1.5538,-0.10716 2.5986,-0.48222 3.1344,-1.12517 0.5358,-0.64296 0.8037,-1.79492 0.8037,-3.45589 l 0,-19.44942 c 0,-2.35748 -0.3483,-4.04523 -1.0448,-5.06328 -0.643,-1.07156 -1.7146,-1.60735 -3.2148,-1.60739 -1.3931,4e-5 -2.8933,0.64299 -4.5007,1.92887 -1.5538,1.23236 -2.3307,2.14322 -2.3307,2.73256 l 0,21.45866 c 0,1.55381 0.2679,2.67898 0.8037,3.37552 0.5894,0.64295 1.5806,1.0448 2.9737,1.20554 l 0,1.92887 -18.8065,0 0,-1.92887 c 1.5002,-0.10716 2.5183,-0.48222 3.0541,-1.12517 0.5357,-0.64296 0.8036,-1.79492 0.8037,-3.45589 l 0,-19.44942 c -10e-5,-2.41106 -0.3483,-4.1256 -1.0448,-5.14365 -0.643,-1.01798 -1.7414,-1.52698 -3.2952,-1.52702"
             inkscape:connector-curvature="0" />
          <path
             id="path5553"
             style="font-size:80.36949158px;font-variant:normal;font-weight:bold;font-stretch:normal;fill:#ffffff;font-family:FreeSerif;-inkscape-font-specification:FreeSerif Bold"
             d="m 1256.1055,-454.26737 c 0.054,1.44667 0.1607,2.75937 0.3215,3.93811 0.1607,1.12518 0.4286,2.43788 0.8037,3.9381 0.4286,1.44666 0.9644,2.6522 1.6074,3.61663 0.6965,0.96444 1.6073,1.79492 2.7325,2.49145 1.1788,0.69654 2.5451,1.04481 4.0989,1.04481 1.7145,0 3.2683,-0.40185 4.6614,-1.20555 1.3931,-0.80368 2.8933,-2.19675 4.5007,-4.17921 l 1.9289,1.12517 c -2.6255,3.75058 -5.0901,6.37599 -7.394,7.87621 -2.2504,1.44665 -5.0097,2.16998 -8.2781,2.16998 -4.9829,0 -9.0014,-1.76813 -12.0554,-5.30439 -3.0005,-3.58983 -4.5007,-8.30483 -4.5007,-14.14503 0,-5.89374 1.527,-10.63553 4.5811,-14.2254 3.1076,-3.64338 7.1796,-5.46508 12.2161,-5.46512 9.1621,4e-5 14.1718,6.10811 15.0291,18.32424 l -20.2531,0 m 10.3677,-4.17921 c -0.054,-1.71453 -0.1072,-3.02723 -0.1608,-3.93811 -0.054,-0.91082 -0.1875,-1.92884 -0.4018,-3.05404 -0.2143,-1.17872 -0.509,-2.03599 -0.8841,-2.57182 -0.3215,-0.58934 -0.8037,-1.07156 -1.4466,-1.44665 -0.5894,-0.4286 -1.3395,-0.64292 -2.2504,-0.64296 -1.9824,4e-5 -3.4023,0.93768 -4.2596,2.81293 -0.8037,1.87532 -1.2591,5.22405 -1.3662,10.04619 l 10.7695,0 0,-1.20554"
             inkscape:connector-curvature="0" />
          <path
             id="path5555"
             style="font-size:80.36949158px;font-variant:normal;font-weight:bold;font-stretch:normal;fill:#ffffff;font-family:FreeSerif;-inkscape-font-specification:FreeSerif Bold"
             d="m 1300.1455,-467.20686 c -1.5003,4e-5 -3.0273,0.64299 -4.5811,1.92887 -1.5538,1.23236 -2.3307,2.14322 -2.3307,2.73256 l 0,21.45866 c 0,1.50023 0.2679,2.59862 0.8037,3.29515 0.5893,0.64296 1.6341,1.07159 3.1344,1.28591 l 0,1.92887 -19.3691,0 0,-1.92887 c 1.8218,-0.37506 2.9737,-0.85727 3.4559,-1.44665 0.5358,-0.58937 0.8037,-1.71455 0.8037,-3.37552 l 0,-23.62863 c 0,-1.66094 -0.2679,-2.78611 -0.8037,-3.37552 -0.5358,-0.64292 -1.6877,-1.09835 -3.4559,-1.36628 l 0,-1.92887 15.3506,0 0,6.02771 c 2.9469,-4.66139 6.7778,-6.9921 11.4929,-6.99214 3.3219,4e-5 5.9473,1.04484 7.8762,3.13441 1.9824,2.03606 2.9736,4.76862 2.9736,8.19769 l 0,20.17274 c 0,1.71455 0.2679,2.8933 0.8037,3.53626 0.5358,0.58937 1.5806,0.93764 3.1344,1.0448 l 0,1.92887 -18.8868,0 0,-1.92887 c 1.3395,-0.16074 2.3039,-0.58937 2.8933,-1.28591 0.5894,-0.69653 0.8841,-1.79492 0.8841,-3.29515 l 0,-19.44942 c 0,-4.44708 -1.3931,-6.67063 -4.1792,-6.67067"
             inkscape:connector-curvature="0" />
          <path
             id="path5557"
             style="font-size:80.36949158px;font-variant:normal;font-weight:bold;font-stretch:normal;fill:#ffffff;font-family:FreeSerif;-inkscape-font-specification:FreeSerif Bold"
             d="m 1345.3646,-471.62718 0,3.53626 -7.5547,0 0,24.19122 c 0,1.60739 0.2411,2.78614 0.7233,3.53625 0.4822,0.69654 1.2859,1.04481 2.4111,1.04481 1.6074,0 3.1344,-1.39307 4.5811,-4.17922 l 2.0092,0.88407 c -1.661,3.26836 -3.4023,5.59907 -5.224,6.99214 -1.7682,1.33949 -3.9917,2.00924 -6.6707,2.00924 -2.7861,0 -4.9829,-0.75011 -6.5903,-2.25035 -1.6074,-1.50022 -2.4111,-3.56304 -2.4111,-6.18845 l 0,-26.03971 -4.1792,0 0,-2.16998 c 2.6254,-2.19673 4.8758,-4.3667 6.7511,-6.50993 1.9288,-2.14314 4.1256,-4.95607 6.5903,-8.43879 l 2.0092,0 0,13.58244 7.5547,0"
             inkscape:connector-curvature="0" />
        </g>
        <g
           id="g3886"
           transform="matrix(0.2423384,0,0,0.37086352,444.76633,113.32817)">
          <path
             sodipodi:nodetypes="cc"
             inkscape:connector-curvature="0"
             id="path2995"
             d="m 452.66716,311.11865 c 45.93829,0.0941 1.24655,-69.97211 45.01357,-67.5993"
             style="fill:none;stroke:#005544;stroke-width:5;stroke-linecap:butt;stroke-linejoin:miter;stroke-miterlimit:4;stroke-opacity:1;stroke-dasharray:none" />
          <path
             style="fill:none;stroke:#005544;stroke-width:5;stroke-linecap:butt;stroke-linejoin:miter;stroke-miterlimit:4;stroke-opacity:1;stroke-dasharray:none"
             d="m 277.93571,310.04293 c -45.93829,-0.0941 -1.24655,69.97211 -45.01357,67.5993"
             id="path3003"
             inkscape:connector-curvature="0"
             sodipodi:nodetypes="cc" />
          <path
             sodipodi:nodetypes="cc"
             inkscape:connector-curvature="0"
             id="path3005"
             d="m 232.22143,242.77424 c 45.93829,-0.0941 1.24655,69.97211 45.01357,67.5993"
             style="fill:none;stroke:#005544;stroke-width:5;stroke-linecap:butt;stroke-linejoin:miter;stroke-miterlimit:4;stroke-opacity:1;stroke-dasharray:none" />
          <path
             id="rect3007"
             d="m 307.8436,279.5322 117.14285,0 c 16.62,0 30,13.38 30,30 0,16.62 -13.38,30 -30,30 l -117.14285,0 c -16.62,0 -30,-13.38 -30,-30 0,-16.62 13.38,-30 30,-30 z"
             style="fill:#1c2422;fill-opacity:1;stroke:none;filter:url(#filter3777)"
             inkscape:connector-curvature="0" />
          <path
             style="fill:none;stroke:#005544;stroke-width:5;stroke-linecap:butt;stroke-linejoin:miter;stroke-miterlimit:4;stroke-opacity:1;stroke-dasharray:none"
             d="m 494.17715,378.38734 c -45.93829,0.0941 -1.24655,-69.97211 -45.01357,-67.5993"
             id="path2997"
             inkscape:connector-curvature="0"
             sodipodi:nodetypes="cc" />
          <path
             id="rect2989"
             d="m 307.14285,280.93362 117.14286,0 c 16.62,0 30,13.38 30,30 0,16.62 -13.38,30 -30,30 l -117.14286,0 c -16.62,0 -30,-13.38 -30,-30 0,-16.62 13.38,-30 30,-30 z"
             style="fill:#ffe680;fill-opacity:1;stroke:#dbe3de;stroke-width:5;stroke-miterlimit:4;stroke-opacity:1"
             inkscape:connector-curvature="0" />
          <g
             transform="translate(1.7517888,-131.73452)"
             id="g3857">
            <g
               id="g3853">
              <path
                 id="rect3785"
                 d="m -218.40575,-411.60226 147.142856,0 c 8.31,0 15,6.69 15,15 l 0,30 c 0,8.31 -6.69,15 -15,15 l -147.142856,0 c -8.31,0 -15,-6.69 -15,-15 l 0,-30 c 0,-8.31 6.69,-15 15,-15 z"
                 style="fill:#1c241f;fill-opacity:1;stroke:#d5fff6;stroke-opacity:1;filter:url(#filter3845)"
                 transform="matrix(-0.79779091,0,0,-0.79779091,46.522835,71.207366)"
                 inkscape:connector-curvature="0" />
              <path
                 id="rect2999"
                 d="m -220.76495,-399.5799 117.38923,0 c 6.62964,0 11.966861,5.33723 11.966861,11.96687 l 0,23.93373 c 0,6.62964 -5.337221,11.96686 -11.966861,11.96686 l -117.38923,0 c -6.62964,0 -11.96686,-5.33722 -11.96686,-11.96686 l 0,-23.93373 c 0,-6.62964 5.33722,-11.96687 11.96686,-11.96687 z"
                 style="fill:#cdde87;fill-opacity:1;stroke:#d5fff6;stroke-width:0.79779088;stroke-opacity:1"
                 transform="scale(-1,-1)"
                 inkscape:connector-curvature="0" />
            </g>
          </g>
          <g
             id="g3862"
             transform="translate(1.7517888,0.70071316)">
            <g
               id="g3864">
              <path
                 id="rect3866"
                 d="m -218.40575,-411.60226 147.142856,0 c 8.31,0 15,6.69 15,15 l 0,30 c 0,8.31 -6.69,15 -15,15 l -147.142856,0 c -8.31,0 -15,-6.69 -15,-15 l 0,-30 c 0,-8.31 6.69,-15 15,-15 z"
                 style="fill:#1c241f;fill-opacity:1;stroke:#d5fff6;stroke-opacity:1;filter:url(#filter3845)"
                 transform="matrix(-0.79779091,0,0,-0.79779091,46.522835,71.207366)"
                 inkscape:connector-curvature="0" />
              <path
                 id="rect3868"
                 d="m -220.76495,-399.5799 117.38923,0 c 6.62964,0 11.966861,5.33723 11.966861,11.96687 l 0,23.93373 c 0,6.62964 -5.337221,11.96686 -11.966861,11.96686 l -117.38923,0 c -6.62964,0 -11.96686,-5.33722 -11.96686,-11.96686 l 0,-23.93373 c 0,-6.62964 5.33722,-11.96687 11.96686,-11.96687 z"
                 style="fill:#cdde87;fill-opacity:1;stroke:#d5fff6;stroke-width:0.79779088;stroke-opacity:1"
                 transform="scale(-1,-1)"
                 inkscape:connector-curvature="0" />
            </g>
          </g>
          <g
             transform="translate(403.61214,-135.93881)"
             id="g3870">
            <g
               id="g3872">
              <path
                 id="rect3874"
                 d="m -218.40575,-411.60226 147.142856,0 c 8.31,0 15,6.69 15,15 l 0,30 c 0,8.31 -6.69,15 -15,15 l -147.142856,0 c -8.31,0 -15,-6.69 -15,-15 l 0,-30 c 0,-8.31 6.69,-15 15,-15 z"
                 style="fill:#1c241f;fill-opacity:1;stroke:#d5fff6;stroke-opacity:1;filter:url(#filter3845)"
                 transform="matrix(-0.79779091,0,0,-0.79779091,46.522835,71.207366)"
                 inkscape:connector-curvature="0" />
              <path
                 id="rect3876"
                 d="m -220.76495,-399.5799 117.38923,0 c 6.62964,0 11.966861,5.33723 11.966861,11.96687 l 0,23.93373 c 0,6.62964 -5.337221,11.96686 -11.966861,11.96686 l -117.38923,0 c -6.62964,0 -11.96686,-5.33722 -11.96686,-11.96686 l 0,-23.93373 c 0,-6.62964 5.33722,-11.96687 11.96686,-11.96687 z"
                 style="fill:#ffccaa;fill-opacity:1;stroke:#d5fff6;stroke-width:0.79779088;stroke-opacity:1"
                 transform="scale(-1,-1)"
                 inkscape:connector-curvature="0" />
            </g>
          </g>
          <g
             id="g3878"
             transform="translate(403.61214,-3.5035768)">
            <g
               id="g3880">
              <path
                 id="rect3882"
                 d="m -218.40575,-411.60226 147.142856,0 c 8.31,0 15,6.69 15,15 l 0,30 c 0,8.31 -6.69,15 -15,15 l -147.142856,0 c -8.31,0 -15,-6.69 -15,-15 l 0,-30 c 0,-8.31 6.69,-15 15,-15 z"
                 style="fill:#1c241f;fill-opacity:1;stroke:#d5fff6;stroke-opacity:1;filter:url(#filter3845)"
                 transform="matrix(-0.79779091,0,0,-0.79779091,46.522835,71.207366)"
                 inkscape:connector-curvature="0" />
              <path
                 id="rect3884"
                 d="m -220.76495,-399.5799 117.38923,0 c 6.62964,0 11.966861,5.33723 11.966861,11.96687 l 0,23.93373 c 0,6.62964 -5.337221,11.96686 -11.966861,11.96686 l -117.38923,0 c -6.62964,0 -11.96686,-5.33722 -11.96686,-11.96686 l 0,-23.93373 c 0,-6.62964 5.33722,-11.96687 11.96686,-11.96687 z"
                 style="fill:#ffccaa;fill-opacity:1;stroke:#d5fff6;stroke-width:0.79779088;stroke-opacity:1"
                 transform="scale(-1,-1)"
                 inkscape:connector-curvature="0" />
            </g>
          </g>
        </g>
        <g
           id="text4107"
           style="font-size:21.86667442px;font-style:normal;font-weight:normal;line-height:125%;letter-spacing:0px;word-spacing:0px;fill:#dbe3db;fill-opacity:1;stroke:none;font-family:Sans">
          <path
             id="path4162"
             style="font-variant:normal;font-weight:bold;font-stretch:normal;text-align:start;line-height:125%;writing-mode:lr-tb;text-anchor:start;fill:#dbe3db;font-family:DejaVu Serif;-inkscape-font-specification:DejaVu Serif Bold"
             d="m 471.15904,151.47926 0,-1.29192 2.02865,0 0,-13.35704 -2.02865,0 0,-1.29193 6.57709,0 4.54844,10.22865 4.56979,-10.22865 6.56641,0 0,1.29193 -2.03932,0 0,13.35704 2.03932,0 0,1.29192 -8.2,0 0,-1.29192 2.02864,0 0,-12.16121 -4.94349,11.11485 -2.7013,0 -4.92214,-11.11485 0,12.16121 2.02865,0 0,1.29192 -5.55209,0"
             inkscape:connector-curvature="0" />
          <path
             id="path4164"
             style="font-variant:normal;font-weight:bold;font-stretch:normal;text-align:start;line-height:125%;writing-mode:lr-tb;text-anchor:start;fill:#dbe3db;font-family:DejaVu Serif;-inkscape-font-specification:DejaVu Serif Bold"
             d="m 496.46374,136.91572 c 0,-0.57655 0.1993,-1.06058 0.59792,-1.45209 0.39861,-0.39859 0.88619,-0.5979 1.46276,-0.59791 0.56232,1e-5 1.03923,0.19932 1.43073,0.59791 0.3986,0.39151 0.59791,0.87554 0.59791,1.45209 0,0.56234 -0.19931,1.04281 -0.59791,1.4414 -0.3915,0.39151 -0.86841,0.58726 -1.43073,0.58724 -0.57657,2e-5 -1.06415,-0.19573 -1.46276,-0.58724 -0.39862,-0.39148 -0.59792,-0.87194 -0.59792,-1.4414 m 4.13203,13.27162 1.62292,0 0,1.29192 -7.01485,0 0,-1.29192 1.61224,0 0,-8.76589 -1.61224,0 0,-1.29193 5.39193,0 0,10.05782"
             inkscape:connector-curvature="0" />
          <path
             id="path4166"
             style="font-variant:normal;font-weight:bold;font-stretch:normal;text-align:start;line-height:125%;writing-mode:lr-tb;text-anchor:start;fill:#dbe3db;font-family:DejaVu Serif;-inkscape-font-specification:DejaVu Serif Bold"
             d="m 503.53197,151.47926 0,-1.29192 1.61224,0 0,-8.76589 -1.61224,0 0,-1.29193 5.39193,0 0,1.60156 c 0.45555,-0.6762 0.97517,-1.16379 1.55886,-1.46276 0.58367,-0.29895 1.32039,-0.44842 2.21015,-0.44844 1.27412,2e-5 2.23506,0.37727 2.88282,1.13178 0.65484,0.7474 0.98228,1.8507 0.98229,3.30989 l 0,5.92579 1.62292,0 0,1.29192 -6.77995,0 0,-1.29192 1.37734,0 0,-6.03256 c -10e-6,-0.96093 -0.12458,-1.62647 -0.3737,-1.99661 -0.24202,-0.37725 -0.66555,-0.56588 -1.27057,-0.56589 -0.76164,1e-5 -1.32041,0.28117 -1.6763,0.84349 -0.35591,0.55522 -0.53386,1.44141 -0.53386,2.6586 l 0,5.09297 1.38802,0 0,1.29192 -6.77995,0"
             inkscape:connector-curvature="0" />
          <path
             id="path4168"
             style="font-variant:normal;font-weight:bold;font-stretch:normal;text-align:start;line-height:125%;writing-mode:lr-tb;text-anchor:start;fill:#dbe3db;font-family:DejaVu Serif;-inkscape-font-specification:DejaVu Serif Bold"
             d="m 528.05724,146.36494 0,-1.1211 c -10e-6,-1.32395 -0.17084,-2.28132 -0.5125,-2.87213 -0.34167,-0.59079 -0.88621,-0.88619 -1.63359,-0.8862 -0.783,1e-5 -1.33465,0.3132 -1.65495,0.93958 -0.3132,0.61928 -0.4698,1.74393 -0.46979,3.37396 -1e-5,1.63004 0.16015,2.75825 0.48046,3.38464 0.32031,0.62639 0.8684,0.93958 1.64428,0.93958 0.74738,0 1.29192,-0.29539 1.63359,-0.88619 0.34166,-0.5908 0.51249,-1.54818 0.5125,-2.87214 m 3.77969,3.8224 1.61224,0 0,1.29192 -5.39193,0 0,-1.4414 c -0.32032,0.5908 -0.75452,1.03212 -1.3026,1.32396 -0.54098,0.28472 -1.21008,0.42708 -2.0073,0.42708 -1.60868,0 -2.8757,-0.53386 -3.80104,-1.60156 -0.91823,-1.06771 -1.37734,-2.53047 -1.37734,-4.38829 0,-1.86492 0.45911,-3.32768 1.37734,-4.38828 0.92534,-1.06058 2.19236,-1.59087 3.80104,-1.59089 0.79722,2e-5 1.46632,0.14594 2.0073,0.43776 0.54808,0.28474 0.98228,0.7225 1.3026,1.31329 l 0,-5.42396 -1.62292,0 0,-1.28125 5.40261,0 0,15.32162"
             inkscape:connector-curvature="0" />
          <path
             id="path4170"
             style="font-variant:normal;font-weight:bold;font-stretch:normal;text-align:start;line-height:125%;writing-mode:lr-tb;text-anchor:start;fill:#dbe3db;font-family:DejaVu Serif;-inkscape-font-specification:DejaVu Serif Bold"
             d="m 534.8799,151.47926 0,-1.29192 2.02865,0 0,-13.35704 -2.02865,0 0,-1.29193 6.57709,0 4.54843,10.22865 4.5698,-10.22865 6.56641,0 0,1.29193 -2.03933,0 0,13.35704 2.03933,0 0,1.29192 -8.20001,0 0,-1.29192 2.02865,0 0,-12.16121 -4.94349,11.11485 -2.7013,0 -4.92214,-11.11485 0,12.16121 2.02864,0 0,1.29192 -5.55208,0"
             inkscape:connector-curvature="0" />
          <path
             id="path4172"
             style="font-variant:normal;font-weight:bold;font-stretch:normal;text-align:start;line-height:125%;writing-mode:lr-tb;text-anchor:start;fill:#dbe3db;font-family:DejaVu Serif;-inkscape-font-specification:DejaVu Serif Bold"
             d="m 570.22106,144.50713 0,5.68021 1.62292,0 0,1.29192 -5.40261,0 0,-1.4414 c -0.49827,0.59791 -1.05348,1.03923 -1.66562,1.32396 -0.61216,0.28472 -1.30973,0.42708 -2.09271,0.42708 -1.16025,0 -2.05356,-0.30964 -2.67995,-0.92891 -0.61927,-0.62639 -0.92891,-1.5197 -0.92891,-2.67995 0,-1.27412 0.44488,-2.22794 1.33464,-2.86146 0.89687,-0.6335 2.24574,-0.95025 4.04661,-0.95026 l 1.98594,0 0,-0.67265 c -10e-6,-0.91822 -0.21711,-1.59444 -0.6513,-2.02865 -0.43421,-0.44131 -1.10686,-0.66197 -2.01797,-0.66198 -0.75452,1e-5 -1.3382,0.15661 -1.75104,0.46979 -0.40573,0.30609 -0.69402,0.81147 -0.86485,1.51615 l -1.20651,0 0,-2.44505 c 0.67622,-0.24201 1.37734,-0.42352 2.10339,-0.54454 0.72604,-0.12099 1.49123,-0.18149 2.29557,-0.18151 2.02864,2e-5 3.51276,0.37727 4.45235,1.13178 0.94669,0.75452 1.42004,1.93967 1.42005,3.55547 m -3.77969,3.40599 0,-2.27422 -1.42005,0 c -0.70469,0 -1.24567,0.19219 -1.62292,0.57656 -0.37726,0.38438 -0.56589,0.93603 -0.56588,1.65495 -1e-5,0.71892 0.13524,1.25634 0.40573,1.61224 0.2776,0.3559 0.69756,0.53385 1.25989,0.53385 0.58368,0 1.05347,-0.19218 1.40938,-0.57656 0.35589,-0.38437 0.53384,-0.89331 0.53385,-1.52682"
             inkscape:connector-curvature="0" />
          <path
             id="path4174"
             style="font-variant:normal;font-weight:bold;font-stretch:normal;text-align:start;line-height:125%;writing-mode:lr-tb;text-anchor:start;fill:#dbe3db;font-family:DejaVu Serif;-inkscape-font-specification:DejaVu Serif Bold"
             d="m 578.26091,145.24384 0,1.1211 c -10e-6,1.32396 0.16726,2.28134 0.50182,2.87214 0.34166,0.5908 0.88975,0.88619 1.64427,0.88619 0.77586,0 1.32039,-0.31319 1.63359,-0.93958 0.32031,-0.62639 0.48046,-1.7546 0.48047,-3.38464 -1e-5,-1.63003 -0.16016,-2.75468 -0.48047,-3.37396 -0.3132,-0.62638 -0.85773,-0.93957 -1.63359,-0.93958 -0.75452,1e-5 -1.30261,0.29541 -1.64427,0.8862 -0.33456,0.59081 -0.50183,1.54818 -0.50182,2.87213 m -3.77969,-3.82239 -1.62292,0 0,-1.29193 5.40261,0 0,1.44141 c 0.3203,-0.59079 0.75094,-1.02855 1.29192,-1.31329 0.54097,-0.29182 1.21006,-0.43774 2.00729,-0.43776 1.61579,2e-5 2.88637,0.53387 3.81173,1.60157 0.93245,1.0606 1.39868,2.5198 1.39869,4.3776 -10e-6,1.85782 -0.46624,3.32058 -1.39869,4.38829 -0.92536,1.0677 -2.19594,1.60156 -3.81173,1.60156 -0.79723,0 -1.46632,-0.14236 -2.00729,-0.42708 -0.54098,-0.29184 -0.97162,-0.73316 -1.29192,-1.32396 l 0,4.69791 1.75104,0 0,1.29193 -7.15365,0 0,-1.29193 1.62292,0 0,-13.31432"
             inkscape:connector-curvature="0" />
        </g>
      </g>
    </g>
    <g
       transform="matrix(1.1236604,0,0,0.96882148,1.7574633,3.4870813)"
       id="g5376">
      <use
         style="fill:#000000;stroke:#000000;stroke-width:4"
         height="170.65625"
         width="308.84375"
         transform="translate(0,-120)"
         id="use39596"
         xlink:href="#text3392"
         y="0"
         x="0" />
      <use
         x="0"
         y="0"
         xlink:href="#text3392"
         id="use39598"
         transform="translate(2,-118)"
         width="308.84375"
         height="170.65625"
         style="fill:#000000;stroke:#000000;stroke-width:3;filter:url(#filter40112)" />
      <use
         x="0"
         y="0"
         xlink:href="#text3392"
         id="use39594"
         transform="translate(0,-120)"
         width="308.84375"
         height="170.65625"
         style="fill:url(#linearGradient3377);fill-opacity:1;stroke:#ffffff" />
    </g>
  </g>
</svg>
