<?xml version="1.0" encoding="UTF-8" standalone="no"?>
<!-- Created with Inkscape (http://www.inkscape.org/) -->

<svg
   xmlns:osb="http://www.openswatchbook.org/uri/2009/osb"
   xmlns:dc="http://purl.org/dc/elements/1.1/"
   xmlns:cc="http://creativecommons.org/ns#"
   xmlns:rdf="http://www.w3.org/1999/02/22-rdf-syntax-ns#"
   xmlns:svg="http://www.w3.org/2000/svg"
   xmlns="http://www.w3.org/2000/svg"
   xmlns:xlink="http://www.w3.org/1999/xlink"
   xmlns:sodipodi="http://sodipodi.sourceforge.net/DTD/sodipodi-0.dtd"
   xmlns:inkscape="http://www.inkscape.org/namespaces/inkscape"
   width="308.8927"
   height="170.66518"
   id="svg9857"
   version="1.1"
   inkscape:version="0.48.4 r9939"
   sodipodi:docname="2014-valo-186-tails.svg"
   inkscape:export-filename="/home/pesasa/svnrepos/drawings/www/viikonvalo/valo186-tails.png"
   inkscape:export-xdpi="58.27"
   inkscape:export-ydpi="58.27">
  <sodipodi:namedview
     id="base"
     pagecolor="#ffffff"
     bordercolor="#666666"
     borderopacity="1.0"
     inkscape:pageopacity="0.0"
     inkscape:pageshadow="2"
     inkscape:zoom="2.7700819"
     inkscape:cx="230.82239"
     inkscape:cy="14.50316"
     inkscape:document-units="px"
     inkscape:current-layer="layer1"
     showgrid="false"
     fit-margin-top="0"
     fit-margin-left="0"
     fit-margin-right="0"
     fit-margin-bottom="0"
     inkscape:window-width="1920"
     inkscape:window-height="1128"
     inkscape:window-x="-2"
     inkscape:window-y="-3"
     inkscape:window-maximized="1">
    <inkscape:grid
       snapvisiblegridlinesonly="true"
       enabled="true"
       visible="true"
       empspacing="5"
       id="grid4787"
       type="xygrid"
       originx="0.0205684px"
       originy="0.0054835526px" />
  </sodipodi:namedview>
  <defs
     id="defs9859">
    <linearGradient
       id="linearGradient14486">
      <stop
         style="stop-color:#ffffff;stop-opacity:1"
         offset="0"
         id="stop14488" />
      <stop
         style="stop-color:#d2d2d2;stop-opacity:1"
         offset="1"
         id="stop14490" />
    </linearGradient>
    <radialGradient
       r="258.02078"
       fy="479.36584"
       fx="787.22473"
       cy="479.36584"
       cx="787.22473"
       gradientTransform="matrix(0.69719883,1.0793933,-1.1943603,0.77297612,832.93918,-733.53466)"
       gradientUnits="userSpaceOnUse"
       id="radialGradient38317"
       xlink:href="#linearGradient38277"
       inkscape:collect="always" />
    <linearGradient
       id="linearGradient38277">
      <stop
         id="stop38279"
         offset="0"
         style="stop-color:#87aade;stop-opacity:1" />
      <stop
         id="stop38281"
         offset="1"
         style="stop-color:#162d50;stop-opacity:1" />
    </linearGradient>
    <linearGradient
       y2="4.9912353"
       x2="136.37059"
       y1="83.783127"
       x1="161.11934"
       gradientUnits="userSpaceOnUse"
       id="linearGradient38319"
       xlink:href="#linearGradient38300"
       inkscape:collect="always" />
    <linearGradient
       id="linearGradient38300"
       inkscape:collect="always">
      <stop
         id="stop38302"
         offset="0"
         style="stop-color:#ffffff;stop-opacity:1;" />
      <stop
         id="stop38304"
         offset="1"
         style="stop-color:#ffffff;stop-opacity:0" />
    </linearGradient>
    <filter
       id="filter38253"
       inkscape:collect="always"
       color-interpolation-filters="sRGB">
      <feGaussianBlur
         id="feGaussianBlur38255"
         stdDeviation="3.7990597"
         inkscape:collect="always" />
    </filter>
    <linearGradient
       id="linearGradient38257"
       inkscape:collect="always">
      <stop
         id="stop38259"
         offset="0"
         style="stop-color:#ffe680;stop-opacity:1" />
      <stop
         id="stop38261"
         offset="1"
         style="stop-color:#ffcc00;stop-opacity:1" />
    </linearGradient>
    <radialGradient
       r="121.0625"
       fy="111.79336"
       fx="204.84595"
       cy="111.79336"
       cx="204.84595"
       gradientTransform="matrix(-0.51080991,-0.39352661,0.36619486,-0.47533151,176.33119,204.40239)"
       gradientUnits="userSpaceOnUse"
       id="radialGradient39592"
       xlink:href="#linearGradient38257"
       inkscape:collect="always" />
    <filter
       height="1.2054614"
       y="-0.10273071"
       width="1.0626322"
       x="-0.031316079"
       id="filter40112"
       inkscape:collect="always"
       color-interpolation-filters="sRGB">
      <feGaussianBlur
         id="feGaussianBlur40114"
         stdDeviation="2.401374"
         inkscape:collect="always" />
    </filter>
    <style
       type="text/css"
       id="style6654">
   
    .str1 {stroke:#1F1A17;stroke-width:0.0286362}
    .str0 {stroke:white;stroke-width:0.0286362}
    .fil2 {fill:#1F1A17}
    .fil0 {fill:#EAE342}
    .fil1 {fill:white}
   
  </style>
    <linearGradient
       osb:paint="solid"
       id="linearGradient4165">
      <stop
         id="stop4167"
         offset="0"
         style="stop-color:#4d4d4d;stop-opacity:1;" />
    </linearGradient>
    <linearGradient
       osb:paint="solid"
       id="linearGradient4171">
      <stop
         id="stop4173"
         offset="0"
         style="stop-color:#999999;stop-opacity:1;" />
    </linearGradient>
    <linearGradient
       osb:paint="solid"
       id="linearGradient4177">
      <stop
         id="stop4179"
         offset="0"
         style="stop-color:#000000;stop-opacity:1;" />
    </linearGradient>
    <filter
       id="filter6087"
       inkscape:collect="always"
       color-interpolation-filters="sRGB">
      <feGaussianBlur
         id="feGaussianBlur6089"
         stdDeviation="0.3098678"
         inkscape:collect="always" />
    </filter>
    <filter
       color-interpolation-filters="sRGB"
       inkscape:collect="always"
       id="filter40130"
       x="-0.051605642"
       width="1.1032113"
       y="-0.11904688"
       height="1.2380939">
      <feGaussianBlur
         inkscape:collect="always"
         stdDeviation="1.9055437"
         id="feGaussianBlur40132" />
    </filter>
    <linearGradient
       inkscape:collect="always"
       xlink:href="#linearGradient6091-4"
       id="linearGradient6097-7"
       x1="502.35776"
       y1="215.35515"
       x2="502.35776"
       y2="247.32196"
       gradientUnits="userSpaceOnUse" />
    <linearGradient
       inkscape:collect="always"
       id="linearGradient6091-4">
      <stop
         style="stop-color:#ffffff;stop-opacity:1"
         offset="0"
         id="stop6093-6" />
      <stop
         style="stop-color:#d2d2d2;stop-opacity:1"
         offset="1"
         id="stop6095-0" />
    </linearGradient>
    <linearGradient
       inkscape:collect="always"
       xlink:href="#linearGradient14486"
       id="linearGradient4330"
       gradientUnits="userSpaceOnUse"
       x1="35.336468"
       y1="395.6817"
       x2="35.336468"
       y2="419.84171" />
    <filter
       color-interpolation-filters="sRGB"
       x="-.039886"
       y="-.12104"
       width="1.0798"
       height="1.2421"
       id="filter4037">
      <feGaussianBlur
         stdDeviation="11.868751"
         id="feGaussianBlur4039" />
    </filter>
    <linearGradient
       x1="-153"
       x2="-145.56"
       y1="-47.638"
       gradientUnits="userSpaceOnUse"
       y2="-89.638"
       id="linearGradient5999">
      <stop
         offset="0"
         stop-color="#2ad4ff"
         id="stop5783" />
      <stop
         offset="1"
         stop-opacity="0"
         stop-color="#2ad4ff"
         id="stop5785" />
    </linearGradient>
    <linearGradient
       x1="-210.09"
       x2="-164.83"
       y1="245.86"
       gradientUnits="userSpaceOnUse"
       y2="249.55"
       id="linearGradient5995">
      <stop
         offset="0"
         stop-color="#fff"
         id="stop5664" />
      <stop
         offset="1"
         stop-opacity=".053137"
         stop-color="#fff"
         id="stop5666" />
    </linearGradient>
    <linearGradient
       x1="-210.09"
       x2="-149.5"
       y1="245.86"
       gradientUnits="userSpaceOnUse"
       y2="245.86"
       id="linearGradient5993">
      <stop
         offset="0"
         stop-color="#fff"
         id="stop5556" />
      <stop
         offset="1"
         stop-opacity=".037931"
         stop-color="#fff"
         id="stop5558" />
    </linearGradient>
    <linearGradient
       y2="249.36"
       y1="249.36"
       x2="22.886"
       gradientUnits="userSpaceOnUse"
       x1="-228.89"
       id="linearGradient5991">
      <stop
         offset="0"
         stop-color="#aed3ff"
         id="stop5641" />
      <stop
         offset=".21015"
         stop-opacity=".13245"
         stop-color="#d6e9ff"
         id="stop5643" />
      <stop
         offset=".77785"
         stop-opacity=".13245"
         stop-color="#c2deff"
         id="stop5647" />
      <stop
         offset="1"
         stop-color="#aed3ff"
         id="stop5645" />
    </linearGradient>
    <linearGradient
       y2="-191.78"
       x2="-807.77"
       y1="-119.64"
       gradientUnits="userSpaceOnUse"
       spreadMethod="reflect"
       x1="-838.19"
       id="linearGradient5989">
      <stop
         offset="0"
         stop-color="#cdd0ce"
         id="stop5889" />
      <stop
         offset="1"
         stop-opacity="0"
         stop-color="#cdd0ce"
         id="stop5891" />
    </linearGradient>
    <linearGradient
       y2="233.88"
       x2="47.811"
       gradientTransform="matrix(0,1,-1,0,511.38,554.38)"
       y1="233.88"
       gradientUnits="userSpaceOnUse"
       x1="-356.81"
       id="linearGradient5974">
      <stop
         offset="0"
         id="stop5528" />
      <stop
         offset="1"
         stop-opacity=".99608"
         stop-color="#fff"
         id="stop5530" />
    </linearGradient>
    <radialGradient
       r="231.54"
       gradientTransform="matrix(1.5048,0.23121,-0.16112,1.0486,317.46,104.94)"
       cx="81.5"
       cy="127.88"
       gradientUnits="userSpaceOnUse"
       id="radialGradient5971">
      <stop
         offset="0"
         stop-color="#acacac"
         id="stop5506" />
      <stop
         offset="1"
         id="stop5508" />
    </radialGradient>
    <linearGradient
       y2="165.88"
       x2="-175.16"
       gradientTransform="matrix(1.2614,0,0,1.2614,473.02,129.31)"
       y1="76.875"
       gradientUnits="userSpaceOnUse"
       x1="-182.84"
       id="linearGradient5965">
      <stop
         offset="0"
         stop-color="#2a5e89"
         id="stop5623" />
      <stop
         offset="1"
         stop-opacity="0"
         stop-color="#2a5e89"
         id="stop5625" />
    </linearGradient>
    <radialGradient
       r="56"
       gradientTransform="matrix(1.3393,0,0,1.1719,495.16,127.69)"
       cx="-167"
       cy="337.36"
       gradientUnits="userSpaceOnUse"
       id="radialGradient5961">
      <stop
         offset="0"
         stop-color="#042b76"
         id="stop5610" />
      <stop
         offset="1"
         stop-color="#2e75f8"
         id="stop5612" />
    </radialGradient>
    <linearGradient
       y2="305.11"
       x2="-143.59"
       gradientTransform="translate(427.84,138.77)"
       y1="345.38"
       gradientUnits="userSpaceOnUse"
       x1="-150.34"
       id="linearGradient5957">
      <stop
         offset="0"
         stop-color="#89269d"
         id="stop5771" />
      <stop
         offset=".33681"
         stop-color="#a40000"
         id="stop5777" />
      <stop
         offset="1"
         stop-opacity="0"
         stop-color="#89269d"
         id="stop5773" />
    </linearGradient>
    <filter
       id="filter5827">
      <feGaussianBlur
         stdDeviation="1.0174043"
         id="feGaussianBlur5829" />
    </filter>
    <filter
       id="filter5590">
      <feGaussianBlur
         stdDeviation="0.81070223"
         id="feGaussianBlur5592" />
    </filter>
    <linearGradient
       id="linearGradient3442">
      <stop
         offset="0"
         style="stop-color:#000000"
         id="stop3444" />
      <stop
         offset="1"
         style="stop-color:#b3b3b3"
         id="stop3446" />
    </linearGradient>
    <radialGradient
       r="17.500000"
       fy="36.812500"
       fx="25.375000"
       cy="36.812500"
       cx="25.375000"
       gradientTransform="matrix(1.000000,0.000000,0.000000,0.453571,-1.856804e-15,20.11540)"
       gradientUnits="userSpaceOnUse"
       id="radialGradient1417"
       xlink:href="#linearGradient2656"
       inkscape:collect="always" />
    <linearGradient
       id="linearGradient2591">
      <stop
         id="stop2593"
         offset="0.0000000"
         style="stop-color:#7a7a7a;stop-opacity:1.0000000;" />
      <stop
         id="stop2595"
         offset="1.0000000"
         style="stop-color:#000000;stop-opacity:1.0000000;" />
    </linearGradient>
    <linearGradient
       id="linearGradient3301">
      <stop
         style="stop-color:#ffffff;stop-opacity:1.0000000;"
         offset="0.0000000"
         id="stop3303" />
      <stop
         style="stop-color:#cbcbcb;stop-opacity:1.0000000;"
         offset="1.0000000"
         id="stop3305" />
    </linearGradient>
    <linearGradient
       id="linearGradient2230">
      <stop
         id="stop2232"
         offset="0"
         style="stop-color:#eeeeee;stop-opacity:1;" />
      <stop
         id="stop2234"
         offset="1.0000000"
         style="stop-color:#a2a2a2;stop-opacity:1.0000000;" />
    </linearGradient>
    <linearGradient
       id="linearGradient2268">
      <stop
         style="stop-color:#555753;stop-opacity:1;"
         offset="0"
         id="stop2270" />
      <stop
         style="stop-opacity:1.0000000;stop-color:#141514"
         offset="1.0000000"
         id="stop2272" />
    </linearGradient>
    <linearGradient
       id="linearGradient2290">
      <stop
         style="stop-color:#555753;stop-opacity:1;"
         offset="0"
         id="stop2292" />
      <stop
         style="stop-color:#313330;stop-opacity:1.0000000;"
         offset="1.0000000"
         id="stop2294" />
    </linearGradient>
    <linearGradient
       id="linearGradient2304">
      <stop
         style="stop-color:#353633;stop-opacity:1.0000000;"
         offset="0.0000000"
         id="stop2306" />
      <stop
         style="stop-color:#676964;stop-opacity:1.0000000;"
         offset="1.0000000"
         id="stop2308" />
    </linearGradient>
    <linearGradient
       id="linearGradient2615">
      <stop
         style="stop-color:#363d40;stop-opacity:1.0000000;"
         offset="0.0000000"
         id="stop2617" />
      <stop
         id="stop2623"
         offset="0.50000000"
         style="stop-color:#818f95;stop-opacity:1.0000000;" />
      <stop
         style="stop-color:#31383b;stop-opacity:1.0000000;"
         offset="1.0000000"
         id="stop2619" />
    </linearGradient>
    <linearGradient
       id="linearGradient2631">
      <stop
         style="stop-color:#010101;stop-opacity:1.0000000;"
         offset="0.0000000"
         id="stop2633" />
      <stop
         style="stop-color:#959595;stop-opacity:1.0000000;"
         offset="1.0000000"
         id="stop2635" />
    </linearGradient>
    <linearGradient
       inkscape:collect="always"
       id="linearGradient2656">
      <stop
         style="stop-color:#000000;stop-opacity:1;"
         offset="0"
         id="stop2658" />
      <stop
         style="stop-color:#000000;stop-opacity:0;"
         offset="1"
         id="stop2660" />
    </linearGradient>
    <linearGradient
       id="linearGradient2673">
      <stop
         style="stop-color:#8b8b8b;stop-opacity:1.0000000;"
         offset="0.0000000"
         id="stop2675" />
      <stop
         id="stop2681"
         offset="0.50000000"
         style="stop-color:#d3d9da;stop-opacity:1.0000000;" />
      <stop
         style="stop-color:#828282;stop-opacity:1.0000000;"
         offset="1.0000000"
         id="stop2677" />
    </linearGradient>
    <linearGradient
       id="linearGradient5048">
      <stop
         id="stop5050"
         offset="0"
         style="stop-color:black;stop-opacity:0;" />
      <stop
         style="stop-color:black;stop-opacity:1;"
         offset="0.5"
         id="stop5056" />
      <stop
         id="stop5052"
         offset="1"
         style="stop-color:black;stop-opacity:0;" />
    </linearGradient>
    <inkscape:perspective
       id="perspective102"
       inkscape:persp3d-origin="24 : 16 : 1"
       inkscape:vp_z="48 : 24 : 1"
       inkscape:vp_y="0 : 1000 : 0"
       inkscape:vp_x="0 : 24 : 1"
       sodipodi:type="inkscape:persp3d" />
    <radialGradient
       r="478.24"
       gradientTransform="matrix(1.484 -.0054258 .0018657 .51027 -2154 207.9)"
       cx="1380.7"
       cy="604.4"
       gradientUnits="userSpaceOnUse"
       xlink:href="#linearGradient3886"
       id="radialGradient3242" />
    <clipPath
       id="clipPath3238">
      <path
         d="m-15.874 842.76c-11.048-12.05-31.36-21.16-57.055-25.61-20.017-3.47-53.221-5.6-67.191-4.31-44 4.05-82.27 16.64-100.65 33.11l-4.02 3.6-20.89-8.07c-11.5-4.43-36.52-13.48-55.62-20.09-67.07-23.24-103.37-39.08-133.63-58.3-74.76-47.51-110.94-113.04-117.74-213.29-1.61-23.8-1.55-24.97 2.26-43.27 14.13-67.89 46.14-109.19 115.84-149.44 8.91-5.15 28.95-16.06 44.54-24.25 85.13-44.71 118.97-66.44 149.23-95.8 35.62-34.57 51.16-64.03 69.3-131.35 3.8-14.117 4.48-13.408 4.99-15.013 0.71-2.22 6.91 1.308 12.29 12.463 11.42 23.73 32.15 24.85 54.02 28.15 27.775 4.19 47.018-8.67 61.151-26.87 11.727-29.938 7.273-39.291 29.515 9.74 16.821 61.57 33.436 94.37 69.742 120.51 20.385 14.68 36.926 21.48 82.362 33.83 114.3 31.08 197.14 90.92 236.51 170.84 15.17 30.8 22.23 58.98 23.51 93.88 1.63 44.38-5.99 83.19-23.61 120.24-43.48 91.4-160.13 157.24-339.05 191.36-13.289 2.54-25.179 4.85-26.425 5.15-1.2836 0.31-5.346-2.81-9.379-7.21z"
         style="opacity:.7;fill:url(#radialGradient3242)"
         id="path3240" />
    </clipPath>
    <filter
       height="2.7567"
       x="-.16006"
       width="1.3201"
       y="-.87833"
       id="filter3986">
      <feGaussianBlur
         inkscape:collect="always"
         stdDeviation="33.364422"
         id="feGaussianBlur3988" />
    </filter>
    <filter
       id="filter3931">
      <feGaussianBlur
         inkscape:collect="always"
         stdDeviation="2.9191929"
         id="feGaussianBlur3933" />
    </filter>
    <filter
       id="filter3923">
      <feGaussianBlur
         inkscape:collect="always"
         stdDeviation="2.8035997"
         id="feGaussianBlur3925" />
    </filter>
    <clipPath
       id="clipPath3878">
      <rect
         x="-74.247"
         y="-919.81"
         width="1251.4"
         height="1413.6"
         transform="scale(1,-1)"
         style="opacity:.27225;stroke-linejoin:round;stroke:#ffcc00;stroke-linecap:round;stroke-width:16.077;fill:#d40000"
         id="rect3880" />
    </clipPath>
    <linearGradient
       id="linearGradient3886">
      <stop
         offset="0"
         style="stop-color:#daae00;stop-opacity:0"
         id="stop3896" />
      <stop
         offset=".81959"
         style="stop-color:#ebb000;stop-opacity:.49804"
         id="stop3900" />
      <stop
         offset="1"
         style="stop-color:#fdb300"
         id="stop3890" />
    </linearGradient>
    <radialGradient
       inkscape:collect="always"
       xlink:href="#linearGradient3886"
       id="radialGradient3333"
       gradientUnits="userSpaceOnUse"
       gradientTransform="matrix(1.484,-0.0054258,0.0018657,0.51027,-2154,207.9)"
       cx="1380.7"
       cy="604.4"
       r="478.24" />
    <radialGradient
       inkscape:collect="always"
       xlink:href="#linearGradient3886"
       id="radialGradient3335"
       gradientUnits="userSpaceOnUse"
       gradientTransform="matrix(1.484,-0.0054258,0.0018657,0.51027,-2154,207.9)"
       cx="1380.7"
       cy="604.4"
       r="478.24" />
    <linearGradient
       inkscape:collect="always"
       x1="19.004"
       x2="29.02"
       gradientTransform="matrix(1,0,0,1.0001,621.47,253.34)"
       y1="19.002"
       gradientUnits="userSpaceOnUse"
       y2="32.577"
       id="linearGradient13623">
      <stop
         offset="0"
         style="stop-color:#ffffff"
         id="stop4864" />
      <stop
         offset="1"
         style="stop-color:#ffffff;stop-opacity:0"
         id="stop4866" />
    </linearGradient>
    <linearGradient
       inkscape:collect="always"
       x1="21.718"
       x2="21.718"
       gradientTransform="matrix(1.3247,0,0,1.3247,0.044845,-52.929)"
       y1="6.1797"
       gradientUnits="userSpaceOnUse"
       xlink:href="#linearGradient3506"
       y2="10.01"
       id="linearGradient3870" />
    <linearGradient
       inkscape:collect="always"
       x1="20.405"
       x2="20.405"
       gradientTransform="matrix(1.3247,0,0,1.3247,0.044845,-52.929)"
       y1="6.9878"
       gradientUnits="userSpaceOnUse"
       xlink:href="#linearGradient3494"
       y2="9.1187"
       id="linearGradient3868" />
    <linearGradient
       id="linearGradient3506">
      <stop
         offset="0"
         style="stop-color:#555753"
         id="stop3508" />
      <stop
         offset="1"
         style="stop-color:#555753;stop-opacity:.22680"
         id="stop3510" />
    </linearGradient>
    <linearGradient
       inkscape:collect="always"
       x1="21.718"
       x2="21.718"
       gradientTransform="matrix(1.3247,0,0,1.3247,-4.9552,-52.929)"
       y1="6.1797"
       gradientUnits="userSpaceOnUse"
       xlink:href="#linearGradient3506"
       y2="10.01"
       id="linearGradient3876-6" />
    <linearGradient
       id="linearGradient3494">
      <stop
         offset="0"
         style="stop-color:#2e3436;stop-opacity:.82474"
         id="stop3496" />
      <stop
         offset="1"
         style="stop-color:#2e3436;stop-opacity:0"
         id="stop3498" />
    </linearGradient>
    <linearGradient
       inkscape:collect="always"
       x1="20.405"
       x2="20.405"
       gradientTransform="matrix(1.3247,0,0,1.3247,-4.9552,-52.929)"
       y1="6.9878"
       gradientUnits="userSpaceOnUse"
       xlink:href="#linearGradient3494"
       y2="9.1187"
       id="linearGradient3874" />
    <linearGradient
       inkscape:collect="always"
       x1="23.335"
       x2="23.335"
       gradientTransform="matrix(1,0,0,0.9375,3.0396,-28.15)"
       y1="-18.569"
       gradientUnits="userSpaceOnUse"
       y2="-4.1229"
       id="linearGradient3880">
      <stop
         offset="0"
         style="stop-color:#d3d7cf"
         id="stop3163" />
      <stop
         offset="1"
         style="stop-color:#bbc1b5"
         id="stop3165" />
    </linearGradient>
    <filter
       inkscape:collect="always"
       color-interpolation-filters="sRGB"
       id="filter3974">
      <feGaussianBlur
         inkscape:collect="always"
         stdDeviation="0.56874997"
         id="feGaussianBlur3976" />
    </filter>
  </defs>
  <metadata
     id="metadata9862">
    <rdf:RDF>
      <cc:Work
         rdf:about="">
        <dc:format>image/svg+xml</dc:format>
        <dc:type
           rdf:resource="http://purl.org/dc/dcmitype/StillImage" />
        <dc:title></dc:title>
      </cc:Work>
    </rdf:RDF>
  </metadata>
  <g
     transform="translate(-16.979432,-143.99655)"
     id="layer1"
     inkscape:groupmode="layer"
     inkscape:label="Layer 1">
    <g
       transform="matrix(1.0213303,0,0,1.0213303,-0.39889826,-3.0840892)"
       id="g38310">
      <rect
         transform="matrix(0.57918184,0,0,0.57857907,-350.1859,-99.789865)"
         style="fill:url(#radialGradient38317);fill-opacity:1;fill-rule:nonzero;stroke:none;display:inline"
         id="rect10983-4"
         width="517.06445"
         height="283.68048"
         x="636.19702"
         y="423.4234"
         ry="21.2132" />
      <path
         style="opacity:0.26440681;fill:url(#linearGradient38319);fill-opacity:1;fill-rule:nonzero;stroke:none;display:inline"
         d="m 13.78204,1.494856 c -6.8066102,0 -12.28125,5.4817236 -12.28125,12.28125 l 0,66.536394 C 144.3017,139.19649 211.44627,40.874351 300.75,81.5 l 0,-67.723894 c 0,-6.7995264 -5.47464,-12.28125 -12.28125,-12.28125 z"
         transform="translate(17,144)"
         id="rect38285"
         inkscape:connector-curvature="0"
         sodipodi:nodetypes="ssccsss" />
      <g
         transform="matrix(0.52762727,0,0,0.52762727,10.932562,71.287425)"
         id="g39588">
        <path
           inkscape:connector-curvature="0"
           style="font-size:84.35607147px;font-style:normal;font-variant:normal;font-weight:bold;font-stretch:normal;text-align:center;line-height:125%;letter-spacing:0px;word-spacing:0px;text-anchor:middle;fill:#000000;fill-opacity:1;stroke:none;filter:url(#filter38253);font-family:MgOpen Cosmetica;-inkscape-font-specification:MgOpen Cosmetica Bold"
           d="m 153.53125,160.03125 0,1.71875 c 0,0.8951 0.11865,4.77976 0.34375,12.03125 0.2808,7.18151 0.40624,12.75964 0.40625,16.71875 -1e-5,0.82337 -0.12506,5.56637 -0.40625,13.9375 l 0,0.0312 c -0.22526,8.32559 -0.34375,14.77114 -0.34375,19.40625 l 0,1.5625 1.59375,-0.0312 6.625,-0.25 0.125,0 6.53125,0.25 1.59375,0.0312 0,-1.5625 c -3e-5,-0.50551 -0.0437,-3.28209 -0.15625,-8.625 -0.0551,-2.61494 -0.0375,-3.69377 -0.0625,-5.5625 0.8589,1.4747 1.50975,2.64814 2.53125,4.375 2.2422,3.69583 4.281,7.18205 6.125,10.53125 l 0.4375,0.8125 0.90625,0 c 0.43898,0 1.3686,-0.0743 3.125,-0.1875 l 0.0312,0 0.0312,0 C 184.67992,225.05347 186.07289,225 187.125,225 c 0.0936,0 1.27291,0.0512 3.0625,0.21875 l 0.0312,0 0.0312,0 c 1.88056,0.11387 3.35815,0.1875 4.46875,0.1875 l 2.71875,0 -1.4375,-2.34375 -5.8125,-9.34375 c -3.53109,-5.68591 -6.5222,-10.73681 -9.15625,-15.375 L 189.4375,190 l 0.0312,0 5.1875,-4.90625 0.875,-0.8125 -0.59375,-1.03125 -0.34375,-0.59375 -0.46875,-0.8125 -0.90625,0.0312 -3.8125,0.1875 c -0.013,0 -0.0491,3e-5 -0.0625,0 -0.62183,-0.001 -1.58757,-0.0388 -2.90625,-0.0937 -1.35368,-0.0563 -2.36246,-0.0937 -3.09375,-0.0937 l -0.78125,0 -0.46875,0.65625 c -2.56694,3.62341 -4.98923,6.75483 -7.25,9.34375 -1.51434,1.73415 -3.36257,3.2887 -5.15625,4.875 l 0,-9.4375 c -2e-5,-2.49433 0.0879,-6.74187 0.3125,-12.6875 0.22531,-5.96521 0.34373,-10.24292 0.34375,-12.875 l 0,-1.6875 -1.6875,0.1875 c -2.13272,0.21858 -4.56788,0.31256 -7.28125,0.3125 -2.31227,6e-5 -4.33994,-0.0963 -6.125,-0.3125 l -1.71875,-0.21875 z m -39.5,0.78125 c -2.18396,9e-5 -4.21927,0.90848 -5.8125,2.5 -0.73813,0.73738 -1.30172,1.56937 -1.71875,2.46875 l -2.1875,0 c -0.69759,7e-5 -1.57031,0.106 -2.8125,0.21875 -1.20554,0.10949 -2.10922,0.12504 -2.65625,0.125 l 0,0.0312 -4.34375,-0.34375 -1.375,-0.125 -0.25,1.375 c -0.269521,1.56141 -0.637392,3.14913 -1.125,4.71875 l -0.03125,0 0,0.0312 c -0.439916,1.53801 -0.956007,3.09759 -1.5625,4.75 l 0,0.0312 -9,24.96875 -9.34375,-24.84375 c -1.1005,-2.85793 -2.118181,-6.11863 -3.0625,-9.7811 l -0.3125,-1.1875 -1.21875,0.0312 -7.625,0.34375 c 0.0095,0 -0.06674,9e-5 -0.0625,0 0.0594,-0.001 -0.315615,-0.008 -0.875,-0.0312 -0.599294,-0.0248 -1.474806,-0.0689 -2.625,-0.125 -2.309061,-0.11242 -3.932852,-0.18744 -4.96875,-0.1875 l -2.21875,0 0.8125,2.09375 16.6875,42.5625 c 0.0057,0.0157 0.02551,0.0156 0.03125,0.0312 1.227605,3.34514 2.177109,6.04549 2.90625,8.0625 0.727416,2.01234 1.389029,3.91846 1.9375,5.78125 l 0.34375,1.09375 1.125,0 c 0.431574,0 0.950286,-0.0733 2.09375,-0.1875 l 0.03125,0 0.03125,0 C 75.983458,225.05624 76.853126,225 77.40625,225 c 0.48381,0 1.060788,0.0239 1.71875,0.125 l 0.03125,0 0.0625,0 c 0.7127,0.0548 1.597008,0.13936 2.59375,0.25 l 1.28125,0.15625 0.34375,-1.28125 c 1.277091,-4.93676 2.8309,-9.53384 4.65625,-13.84375 l 0,-0.0312 11.3125,-28.8125 0,-0.0312 c 1.9568,-4.52305 4.04721,-9.01218 6.28125,-13.53135 l 0.46875,-0.96875 c -0.18699,0.67603 -0.4375,1.34224 -0.4375,2.0625 0,2.22636 0.8899,4.27117 2.5,5.8125 1.60067,1.53246 3.64957,2.37506 5.8125,2.375 2.20818,6e-5 4.23194,-0.85854 5.78125,-2.40625 1.58681,-1.58513 2.49998,-3.59949 2.5,-5.78125 -2e-5,-2.18166 -0.91322,-4.19603 -2.5,-5.78125 -1.58498,-1.58322 -3.59732,-2.49991 -5.78125,-2.5 z m 24.0625,0 c -2.18395,9e-5 -4.21926,0.90849 -5.8125,2.5 -1.5951,1.59349 -2.46875,3.61716 -2.46875,5.78125 0,2.20932 0.85021,4.26308 2.46875,5.8125 1.60069,1.53245 3.64958,2.37506 5.8125,2.375 2.20819,6e-5 4.23195,-0.85853 5.78125,-2.40625 1.58683,-1.58514 2.49998,-3.5995 2.5,-5.78125 -2e-5,-2.18166 -0.91321,-4.19603 -2.5,-5.78125 -1.58497,-1.58322 -3.59731,-2.49991 -5.78125,-2.5 z m 82.125,20.0625 c -7.03533,4e-5 -12.89025,2.00977 -17.25,6.0625 -4.32718,4.01828 -6.5,9.72666 -6.5,16.71875 0,6.82554 2.12787,12.47227 6.375,16.59375 l 0.0312,0 c 4.29373,4.04762 9.98368,6.09375 16.75,6.09375 7.03622,0 12.79338,-2.04775 16.9375,-6.1875 4.1391,-4.13483 6.18745,-9.82866 6.1875,-16.75 -5e-5,-6.58886 -2.08977,-12.13665 -6.25,-16.25 -0.006,-0.006 -0.0256,0.006 -0.0312,0 -4.11703,-4.16336 -9.64679,-6.28121 -16.25,-6.28125 z m 53.90625,0.15625 c -2.7022,4e-5 -5.35814,0.76233 -7.90625,2.15625 -1.36401,0.7462 -2.5998,1.62959 -3.75,2.59375 l 0,-2.375 0,-1.6875 -1.6875,0.1875 c -0.57153,0.0571 -1.40135,0.16498 -2.4375,0.3125 -1.40666,4e-5 -2.84338,4e-5 -4.25,0 -1.23787,4e-5 -2.08749,4e-5 -2.59375,0 -0.54528,-0.0653 -1.57939,-0.15224 -3.34375,-0.3125 L 246.5,181.75 l 0,1.65625 c -1e-5,1.49074 0.11842,4.63554 0.34375,9.53125 0.22465,4.825 0.34376,8.29536 0.34375,10.375 -3e-5,1.01745 -0.11885,4.12634 -0.34375,9.125 -0.22557,4.95725 -0.34376,8.75025 -0.34375,11.4375 l 0,1.53125 1.53125,0 c 0.43899,0 1.36095,-0.0742 3.0625,-0.1875 l 0.0312,0 0.0312,0 c 1.65765,-0.1655 2.9436,-0.21875 3.875,-0.21875 0.0936,0 1.19411,0.0515 2.8125,0.21875 l 0.0312,0 0.0312,0 c 1.71441,0.11419 3.0596,0.1875 4.0625,0.1875 l 1.53125,0 0,-1.53125 c -2e-5,-1.43799 -0.11844,-4.39175 -0.34375,-9.0625 -0.16849,-4.65383 -0.25002,-8.33243 -0.25,-11 -2e-5,-2.04614 0.0182,-3.76468 0.125,-5.21875 6.4e-4,-0.009 -6.4e-4,-0.0226 0,-0.0312 0.15535,-1.37002 0.50012,-2.57425 0.9375,-3.59375 l 0,-0.0312 c 0.41879,-1.02264 0.96128,-1.69743 1.65625,-2.1875 l 0,-0.0312 c 0.75956,-0.54799 1.58345,-0.78123 2.59375,-0.78125 1.50909,2e-5 2.28018,0.4205 3,1.5625 l 0.0312,0.0312 c 0.84282,1.26298 1.24997,2.70457 1.25,4.46875 l 0,0.0937 0.0312,0.0937 c 0.16044,1.28295 0.21872,2.59083 0.21875,3.9375 l 0,1.53125 c -3e-5,1.61507 -0.11906,4.84843 -0.34375,9.5625 -0.16914,4.73097 -0.25003,8.26067 -0.25,10.65625 l 0,1.53125 1.53125,0 c 0.43157,0 1.25894,-0.0745 3.125,-0.1875 1.89399,-0.1113 3.23728,-0.125 3.96875,-0.125 0.73138,0 1.8162,0.0148 3.25,0.125 1.49012,0.11452 2.61412,0.1875 3.40625,0.1875 l 1.53125,0 0,-1.53125 c -4e-5,-2.3982 -0.0866,-5.87302 -0.3125,-10.5 -0.16823,-4.64931 -0.28056,-7.81378 -0.28125,-9.4375 l 0,-0.0312 0.0937,-8.8125 0,-0.0312 c -5e-5,-4.03854 -1.3776,-7.53779 -4.09375,-10.125 -2.69661,-2.56842 -6.21918,-3.90621 -10.25,-3.90625 z m -168.84375,0.6875 0.15625,1.8125 0.65625,7.40625 -0.0312,0 0,25.1875 c 0,1.25857 -0.0171,2.51025 -0.125,3.75 -0.10968,1.20521 -0.26918,2.46731 -0.4375,3.8125 l -0.21875,1.78125 1.78125,-0.0625 6.8125,-0.25 0.125,0 7.03125,0.25 1.75,0.0312 -0.1875,-1.71875 c -0.33404,-3.39228 -0.51358,-6.28041 -0.625,-8.71875 -1.7e-4,-0.007 1.7e-4,-0.024 0,-0.0312 -0.0556,-2.4547 -0.0939,-5.93774 -0.0937,-10.46875 l 0.0937,-13.75 0.71875,-7.1875 0.1875,-1.84375 -1.8125,0.1875 c -1.24271,0.1129 -2.4858,0.23181 -3.71875,0.34375 -1.21563,0.11041 -2.3146,0.15629 -3.3125,0.15625 -0.93776,4e-5 -2.06964,-0.0455 -3.34375,-0.15625 -1.23024,-0.11169 -2.40864,-0.23096 -3.59375,-0.34375 l -1.8125,-0.1875 z m 24.0625,0 0.15625,1.8125 0.65625,7.40625 -0.0312,0 0,25.1875 c -10e-6,1.25858 -0.0171,2.51026 -0.125,3.75 -0.10969,1.20521 -0.26918,2.46731 -0.4375,3.8125 l -0.21875,1.78125 1.78125,-0.0625 6.8125,-0.25 0.125,0 7.0625,0.25 1.75,0.0312 -0.1875,-1.71875 c -0.33493,-3.40135 -0.54517,-6.29299 -0.65625,-8.71875 -1.7e-4,-0.007 1.7e-4,-0.024 0,-0.0312 -0.0556,-2.4547 -0.0939,-5.93774 -0.0937,-10.46875 l 0.0937,-13.75 0.71875,-7.1875 0.1875,-1.84375 -1.8125,0.1875 c -1.24272,0.1129 -2.4858,0.23181 -3.71875,0.34375 -1.21563,0.11041 -2.31459,0.15629 -3.3125,0.15625 -0.93775,4e-5 -2.06963,-0.0455 -3.34375,-0.15625 -1.23023,-0.11169 -2.40862,-0.23095 -3.59375,-0.34375 l -1.8125,-0.1875 z m 90.28125,6.34375 c 1.7502,2e-5 2.82449,0.47172 3.65625,1.46875 0.92431,1.10808 1.58588,2.6397 2,4.65625 0.11138,0.89084 0.27584,2.06425 0.4375,3.625 0.16106,1.55531 0.21872,3.47571 0.21875,5.6875 -3e-5,2.2689 -0.0563,4.22912 -0.21875,5.90625 -0.16186,1.61664 -0.32668,2.83015 -0.4375,3.71875 -0.40952,1.94309 -1.06617,3.4781 -2,4.65625 -0.008,0.0106 -0.0229,0.0207 -0.0312,0.0312 -0.83677,0.98535 -1.86648,1.4375 -3.53125,1.4375 -1.75025,0 -2.92743,-0.49859 -3.875,-1.53125 -0.92985,-1.12915 -1.52013,-2.59662 -1.71875,-4.53125 l 0,-0.0625 0,-0.0625 c -0.54408,-2.93492 -0.81251,-6.06049 -0.8125,-9.40625 -10e-6,-2.94931 0.0652,-5.48093 0.28125,-7.53125 0.20548,-1.95024 0.76832,-3.87509 1.65625,-5.8125 0.004,-0.009 -0.004,-0.0223 0,-0.0312 0.7694,-1.56274 1.94976,-2.21872 4.375,-2.21875 z m -81.4375,50.09375 -0.40625,1.0625 c -1.57432,4.26872 -3.03299,8.2647 -4.4375,11.96875 l -0.0312,0 c -1.34353,3.69088 -3.04629,8.19321 -5.125,13.46875 -2.02172,5.21736 -3.72389,9.41109 -5.0625,12.53125 l -8.4375,19.5625 -1,2.3125 2.53125,-0.21875 2.9375,-0.21875 5.46875,0.25 1.09375,0.0312 0.40625,-1.03125 c 1.90045,-5.11532 3.59747,-10.03357 5.15625,-14.8125 l 4.78125,-0.21875 c 0.0306,8.7e-4 0.0632,-8.8e-4 0.0937,0 1.93096,0.0557 3.9027,0.13191 5.90625,0.1875 1.67622,0.0466 3.28724,0.0595 4.90625,0.0625 l 2.96875,9.15625 1.75,5.5625 0.34375,1.09375 1.125,-0.0312 8.21875,-0.25 0.0625,0 8.03125,0.25 2.34375,0.0625 -0.90625,-2.1875 c -3.64814,-8.69026 -7.21123,-17.76684 -10.75,-27.25 -3.54228,-9.49226 -7.23843,-19.57612 -11.0625,-30.25 l -0.40625,-1.09375 -1.125,0.0937 -4.03125,0.25 -0.1875,0 -4.03125,-0.25 -1.125,-0.0937 z m 104.78125,0.0625 c -10.0016,6e-5 -18.26717,2.68759 -24.59375,8.0625 -6.37363,5.35547 -9.59375,13.1012 -9.59375,22.8125 0,9.84844 2.93757,17.60505 8.8125,22.875 5.89345,5.23319 13.90537,7.84375 23.84375,7.84375 10.22501,0 18.56949,-2.73177 24.6875,-8.25 6.19708,-5.59542 9.28119,-13.63542 9.28125,-23.71875 -6e-5,-9.37217 -3.091,-16.86505 -9.1875,-22 -5.99,-5.09498 -13.81199,-7.62494 -23.25,-7.625 z m -134.03125,0.9375 -0.25,1.375 c -0.26896,1.5582 -0.63576,3.11263 -1.125,4.6875 l -0.0312,0 0,0.0312 c -0.44138,1.54313 -0.9581,3.13455 -1.5625,4.78125 l 0,0.0312 L 97,275 87.625,250.1875 c -1.100499,-2.85823 -2.118179,-6.11877 -3.0625,-9.78125 l -0.3125,-1.1875 -1.21875,0.0312 -7.625,0.3125 c 0.0096,0 -0.06677,9e-5 -0.0625,0 0.05982,-0.001 -0.315613,-0.008 -0.875,-0.0312 -0.599296,-0.0248 -1.4748,-0.0689 -2.625,-0.125 -2.322059,-0.11307 -3.934644,-0.1562 -4.9375,-0.15625 l -2.21875,0 0.8125,2.09375 16.65625,42.53125 c 0.0058,0.0157 0.0255,0.0156 0.03125,0.0312 1.230715,3.35283 2.213037,6.05844 2.9375,8.0625 0.721019,1.99464 1.35221,3.9308 1.90625,5.8125 l 0.34375,1.09375 1.125,0 c 0.431635,0 0.9503,-0.0733 2.09375,-0.1875 l 0.03125,0 0.03125,0 c 1.165661,-0.16627 2.056194,-0.25 2.5625,-0.25 0.427584,0 1.019019,0.0487 1.71875,0.15625 l 0.03125,0 0.0625,0 c 0.712656,0.0548 1.596978,0.13937 2.59375,0.25 L 98.90625,299 99.25,297.71875 c 1.27747,-4.93823 2.83191,-9.56748 4.65625,-13.875 l 0,-0.0312 11.3125,-28.78125 0,-0.0312 c 1.95461,-4.51753 4.07599,-9.00707 6.3125,-13.53125 l 1.0625,-2.21875 -2.4375,0 c -0.64139,6e-5 -1.57401,0.0722 -2.84375,0.1875 -1.20556,0.10948 -2.10928,0.12505 -2.65625,0.125 l 0,0.0312 -4.375,-0.3125 -1.34375,-0.125 z m 63.28125,0.0625 0.15625,1.6875 c 0.44862,5.32178 0.70118,9.76112 0.8125,13.375 l 0,0.0312 c 0.16681,3.55498 0.25,8.49902 0.25,14.78125 0,6.00063 -0.0823,11.16901 -0.25,15.46875 l 0,0.0312 c -0.1115,4.28809 -0.36694,8.47664 -0.8125,12.59375 l -0.1875,1.6875 1.6875,0 c 0.59401,0 2.1656,-0.0435 4.875,-0.15625 l 0.0312,0 0,-0.0312 c 2.69136,-0.16795 4.88361,-0.25 6.5625,-0.25 0.96242,0 4.13386,0.11256 9.3125,0.28125 l 0.0312,0 c 5.24163,0.11261 9.42222,0.15625 12.53125,0.15625 l 1.625,0 -0.125,-1.625 -0.25,-3.6875 0,-0.0937 0,-0.0937 0.25,-3.78125 0.125,-1.8125 L 207.0625,288 c -5.4878,0.61481 -11.02228,0.89012 -16.5625,0.9375 -0.0854,-1.20034 -0.15626,-2.39141 -0.15625,-3.75 -2e-5,-1.96726 -2e-5,-3.90142 0,-5.8125 l 0,-19.5625 c -2e-5,-6.6462 0.25463,-12.91233 0.8125,-18.875 l 0.15625,-1.71875 -1.6875,0.0312 -8.09375,0.25 -0.0937,0 -7.5,-0.25 -1.71875,-0.0312 z m 70.0625,7.46875 c 5.25935,5e-5 8.80674,1.99775 11.28125,6.375 2.56403,4.53589 3.8437,9.72326 3.84375,15.625 -5e-5,6.13458 -1.30399,11.51004 -3.875,16.21875 -2.47576,4.48258 -6.07263,6.53126 -11.5,6.53125 -5.29703,10e-6 -8.83587,-2.03087 -11.3125,-6.4375 -0.007,-0.0121 -0.0247,-0.0192 -0.0312,-0.0312 -2.55437,-4.6403 -3.81252,-9.92533 -3.8125,-15.875 -2e-5,-6.19757 1.25646,-11.50963 3.8125,-16.03125 2.46752,-4.36502 6.09313,-6.37495 11.59375,-6.375 z M 139.5,261.25 c 0.79555,1.94201 1.70129,4.06023 2.28125,5.59375 0.7265,1.92118 1.4593,4.21538 2.1875,6.53125 l -4.5625,0.0937 -0.0625,0 -4.5,-0.0937 c 1.48594,-4.10076 3.03746,-8.12918 4.65625,-12.125 z"
           id="path37479" />
        <path
           id="path37388"
           transform="translate(17,144)"
           d="m 132.53125,12.03125 0,1.71875 c 0,0.8951 0.11865,4.77976 0.34375,12.03125 0.2808,7.18151 0.40624,12.75964 0.40625,16.71875 -1e-5,0.82337 -0.12506,5.56637 -0.40625,13.9375 l 0,0.03125 c -0.22526,8.32559 -0.34375,14.77114 -0.34375,19.40625 l 0,1.5625 1.59375,-0.03125 6.625,-0.25 0.125,0 6.53125,0.25 L 149,77.4375 149,75.875 c -3e-5,-0.50551 -0.0437,-3.28209 -0.15625,-8.625 -0.0551,-2.61494 -0.0375,-3.69377 -0.0625,-5.5625 0.8589,1.4747 1.50975,2.64814 2.53125,4.375 2.2422,3.69583 4.281,7.18205 6.125,10.53125 l 0.4375,0.8125 0.90625,0 c 0.43898,0 1.3686,-0.0743 3.125,-0.1875 l 0.0312,0 0.0312,0 C 163.67992,77.05347 165.07289,77 166.125,77 c 0.0936,0 1.27291,0.0512 3.0625,0.21875 l 0.0312,0 0.0312,0 c 1.88056,0.11387 3.35815,0.1875 4.46875,0.1875 l 2.71875,0 L 175,75.0625 169.1875,65.71875 c -3.53109,-5.68591 -6.5222,-10.73681 -9.15625,-15.375 L 168.4375,42 l 0.0312,0 5.1875,-4.90625 0.875,-0.8125 -0.59375,-1.03125 -0.34375,-0.59375 -0.46875,-0.8125 -0.90625,0.03125 -3.8125,0.1875 c -0.013,0 -0.0491,3e-5 -0.0625,0 -0.62183,-10e-4 -1.58757,-0.03885 -2.90625,-0.09375 -1.35368,-0.0563 -2.36246,-0.09375 -3.09375,-0.09375 l -0.78125,0 -0.46875,0.65625 c -2.56694,3.62341 -4.98923,6.75483 -7.25,9.34375 -1.51434,1.73415 -3.36257,3.2887 -5.15625,4.875 l 0,-9.4375 c -2e-5,-2.49433 0.0879,-6.74187 0.3125,-12.6875 0.22531,-5.96521 0.34373,-10.24292 0.34375,-12.875 l 0,-1.6875 -1.6875,0.1875 c -2.13272,0.21858 -4.56788,0.31256 -7.28125,0.3125 -2.31227,6e-5 -4.33994,-0.0963 -6.125,-0.3125 l -1.71875,-0.21875 z m -39.5,0.78125 c -2.18396,9e-5 -4.21927,0.90848 -5.8125,2.5 -0.73813,0.73738 -1.30172,1.56937 -1.71875,2.46875 l -2.1875,0 c -0.697586,7e-5 -1.570311,0.106 -2.8125,0.21875 -1.205544,0.10949 -2.10922,0.12504 -2.65625,0.125 l 0,0.03125 L 73.5,17.8125 l -1.375,-0.125 -0.25,1.375 c -0.269521,1.56141 -0.637392,3.14913 -1.125,4.71875 l -0.03125,0 0,0.03125 c -0.439916,1.53801 -0.956007,3.09759 -1.5625,4.75 l 0,0.03125 -9,24.96875 L 50.8125,28.71875 C 49.712,25.86067 48.694319,22.59997 47.75,18.9375 l -0.3125,-1.1875 -1.21875,0.03125 -7.625,0.34375 c 0.0095,0 -0.06674,9e-5 -0.0625,0 0.0594,-0.001 -0.315615,-0.0081 -0.875,-0.03125 -0.599294,-0.0248 -1.474806,-0.0689 -2.625,-0.125 -2.309061,-0.11242 -3.932852,-0.18744 -4.96875,-0.1875 l -2.21875,0 0.8125,2.09375 16.6875,42.5625 c 0.0057,0.0157 0.02551,0.01565 0.03125,0.03125 1.227605,3.34514 2.177109,6.04549 2.90625,8.0625 0.727416,2.01234 1.389029,3.91846 1.9375,5.78125 l 0.34375,1.09375 1.125,0 c 0.431574,0 0.950286,-0.0733 2.09375,-0.1875 l 0.03125,0 0.03125,0 C 54.983458,77.05624 55.853126,77 56.40625,77 c 0.48381,0 1.060788,0.0239 1.71875,0.125 l 0.03125,0 0.0625,0 c 0.7127,0.0548 1.597008,0.13936 2.59375,0.25 L 62.09375,77.53125 62.4375,76.25 c 1.277091,-4.93676 2.8309,-9.53384 4.65625,-13.84375 l 0,-0.03125 11.3125,-28.8125 0,-0.03125 C 80.363046,29.0083 82.45346,24.51917 84.6875,20 l 0.46875,-0.96875 c -0.18699,0.67603 -0.4375,1.34224 -0.4375,2.0625 0,2.22636 0.8899,4.27117 2.5,5.8125 1.60067,1.53246 3.64957,2.37506 5.8125,2.375 2.20818,6e-5 4.23194,-0.85854 5.78125,-2.40625 1.58681,-1.58513 2.49998,-3.59949 2.5,-5.78125 -2e-5,-2.18166 -0.91322,-4.19603 -2.5,-5.78125 -1.58498,-1.58322 -3.59732,-2.49991 -5.78125,-2.5 z m 24.0625,0 c -2.18395,9e-5 -4.21926,0.90849 -5.8125,2.5 -1.5951,1.59349 -2.46875,3.61716 -2.46875,5.78125 0,2.20932 0.85021,4.26308 2.46875,5.8125 1.60069,1.53245 3.64958,2.37506 5.8125,2.375 2.20819,6e-5 4.23195,-0.85853 5.78125,-2.40625 1.58683,-1.58514 2.49998,-3.5995 2.5,-5.78125 -2e-5,-2.18166 -0.91321,-4.19603 -2.5,-5.78125 -1.58497,-1.58322 -3.59731,-2.49991 -5.78125,-2.5 z m 82.125,20.0625 c -7.03533,4e-5 -12.89025,2.00977 -17.25,6.0625 -4.32718,4.01828 -6.5,9.72666 -6.5,16.71875 0,6.82554 2.12787,12.47227 6.375,16.59375 l 0.0312,0 c 4.29373,4.04762 9.98368,6.09375 16.75,6.09375 7.03622,0 12.79338,-2.04775 16.9375,-6.1875 4.1391,-4.13483 6.18745,-9.82866 6.1875,-16.75 -5e-5,-6.58886 -2.08977,-12.13665 -6.25,-16.25 -0.006,-0.006 -0.0256,0.006 -0.0312,0 -4.11703,-4.16336 -9.64679,-6.28121 -16.25,-6.28125 z m 53.90625,0.15625 c -2.7022,4e-5 -5.35814,0.76233 -7.90625,2.15625 -1.36401,0.7462 -2.5998,1.62959 -3.75,2.59375 l 0,-2.375 0,-1.6875 -1.6875,0.1875 c -0.57153,0.0571 -1.40135,0.16498 -2.4375,0.3125 -1.40666,4e-5 -2.84338,4e-5 -4.25,0 -1.23787,4e-5 -2.08749,4e-5 -2.59375,0 -0.54528,-0.0653 -1.57939,-0.15224 -3.34375,-0.3125 L 225.5,33.75 l 0,1.65625 c -1e-5,1.49074 0.11842,4.63554 0.34375,9.53125 0.22465,4.825 0.34376,8.29536 0.34375,10.375 -3e-5,1.01745 -0.11885,4.12634 -0.34375,9.125 -0.22557,4.95725 -0.34376,8.75025 -0.34375,11.4375 l 0,1.53125 1.53125,0 c 0.43899,0 1.36095,-0.0742 3.0625,-0.1875 l 0.0312,0 0.0312,0 C 231.8139,77.05325 233.09985,77 234.03125,77 c 0.0936,0 1.19411,0.0515 2.8125,0.21875 l 0.0312,0 0.0312,0 c 1.71441,0.11419 3.0596,0.1875 4.0625,0.1875 l 1.53125,0 0,-1.53125 c -2e-5,-1.43799 -0.11844,-4.39175 -0.34375,-9.0625 -0.16849,-4.65383 -0.25002,-8.33243 -0.25,-11 -2e-5,-2.04614 0.0182,-3.76468 0.125,-5.21875 6.4e-4,-0.009 -6.4e-4,-0.02265 0,-0.03125 0.15535,-1.37002 0.50012,-2.57425 0.9375,-3.59375 l 0,-0.03125 c 0.41879,-1.02264 0.96128,-1.69743 1.65625,-2.1875 l 0,-0.03125 c 0.75956,-0.54799 1.58345,-0.78123 2.59375,-0.78125 1.50909,2e-5 2.28018,0.4205 3,1.5625 l 0.0312,0.03125 c 0.84282,1.26298 1.24997,2.70457 1.25,4.46875 l 0,0.09375 0.0312,0.09375 c 0.16044,1.28295 0.21872,2.59083 0.21875,3.9375 l 0,1.53125 c -3e-5,1.61507 -0.11906,4.84843 -0.34375,9.5625 -0.16914,4.73097 -0.25003,8.26067 -0.25,10.65625 l 0,1.53125 1.53125,0 c 0.43157,0 1.25894,-0.0745 3.125,-0.1875 1.89399,-0.1113 3.23728,-0.125 3.96875,-0.125 0.73138,0 1.8162,0.0148 3.25,0.125 1.49012,0.11452 2.61412,0.1875 3.40625,0.1875 l 1.53125,0 0,-1.53125 c -4e-5,-2.3982 -0.0866,-5.87302 -0.3125,-10.5 -0.16823,-4.64931 -0.28056,-7.81378 -0.28125,-9.4375 l 0,-0.03125 0.0937,-8.8125 0,-0.03125 c -5e-5,-4.03854 -1.3776,-7.53779 -4.09375,-10.125 -2.69661,-2.56842 -6.21918,-3.90621 -10.25,-3.90625 z m -168.84375,0.6875 0.15625,1.8125 0.65625,7.40625 -0.03125,0 0,25.1875 c 0,1.25857 -0.0171,2.51025 -0.125,3.75 -0.10968,1.20521 -0.26918,2.46731 -0.4375,3.8125 l -0.21875,1.78125 1.78125,-0.0625 6.8125,-0.25 0.125,0 7.03125,0.25 1.75,0.03125 -0.1875,-1.71875 c -0.33404,-3.39228 -0.51358,-6.28041 -0.625,-8.71875 -1.7e-4,-0.007 1.7e-4,-0.02395 0,-0.03125 -0.0556,-2.4547 -0.0939,-5.93774 -0.0937,-10.46875 l 0.0937,-13.75 0.71875,-7.1875 0.1875,-1.84375 -1.8125,0.1875 c -1.24271,0.1129 -2.4858,0.23181 -3.71875,0.34375 -1.21563,0.11041 -2.3146,0.15629 -3.3125,0.15625 -0.93776,4e-5 -2.06964,-0.0455 -3.34375,-0.15625 -1.23024,-0.11169 -2.40864,-0.23096 -3.59375,-0.34375 l -1.8125,-0.1875 z m 24.0625,0 0.15625,1.8125 0.65625,7.40625 -0.0312,0 0,25.1875 c -1e-5,1.25858 -0.0171,2.51026 -0.125,3.75 -0.10969,1.20521 -0.26918,2.46731 -0.4375,3.8125 l -0.21875,1.78125 1.78125,-0.0625 6.8125,-0.25 0.125,0 7.0625,0.25 1.75,0.03125 -0.1875,-1.71875 C 125.35257,72.3174 125.14233,69.42576 125.03125,67 c -1.7e-4,-0.007 1.7e-4,-0.02395 0,-0.03125 -0.0556,-2.4547 -0.0939,-5.93774 -0.0937,-10.46875 l 0.0937,-13.75 0.71875,-7.1875 0.1875,-1.84375 -1.8125,0.1875 c -1.24272,0.1129 -2.4858,0.23181 -3.71875,0.34375 -1.21563,0.11041 -2.31459,0.15629 -3.3125,0.15625 -0.93775,4e-5 -2.06963,-0.0455 -3.34375,-0.15625 -1.23023,-0.11169 -2.40862,-0.23095 -3.59375,-0.34375 l -1.8125,-0.1875 z M 198.625,40.0625 c 1.7502,2e-5 2.82449,0.47172 3.65625,1.46875 0.92431,1.10808 1.58588,2.6397 2,4.65625 0.11138,0.89084 0.27584,2.06425 0.4375,3.625 0.16106,1.55531 0.21872,3.47571 0.21875,5.6875 -3e-5,2.2689 -0.0563,4.22912 -0.21875,5.90625 -0.16186,1.61664 -0.32668,2.83015 -0.4375,3.71875 -0.40952,1.94309 -1.06617,3.4781 -2,4.65625 -0.008,0.0106 -0.0229,0.02075 -0.0312,0.03125 -0.83677,0.98535 -1.86648,1.4375 -3.53125,1.4375 -1.75025,0 -2.92743,-0.49859 -3.875,-1.53125 -0.92985,-1.12915 -1.52013,-2.59662 -1.71875,-4.53125 l 0,-0.0625 0,-0.0625 c -0.54408,-2.93492 -0.81251,-6.06049 -0.8125,-9.40625 -10e-6,-2.94931 0.0652,-5.48093 0.28125,-7.53125 0.20548,-1.95024 0.76832,-3.87509 1.65625,-5.8125 0.004,-0.009 -0.004,-0.02225 0,-0.03125 0.7694,-1.56274 1.94976,-2.21872 4.375,-2.21875 z m -81.4375,50.09375 -0.40625,1.0625 c -1.57432,4.26872 -3.03299,8.2647 -4.4375,11.96875 l -0.0312,0 c -1.34353,3.69088 -3.04629,8.19321 -5.125,13.46875 -2.02172,5.21736 -3.72389,9.41109 -5.0625,12.53125 l -8.4375,19.5625 -1,2.3125 2.53125,-0.21875 2.9375,-0.21875 5.46875,0.25 1.09375,0.0312 0.40625,-1.03125 c 1.90045,-5.11532 3.59747,-10.03357 5.15625,-14.8125 l 4.78125,-0.21875 c 0.0306,8.7e-4 0.0631,-8.8e-4 0.0937,0 1.93096,0.0557 3.9027,0.13191 5.90625,0.1875 1.67622,0.0466 3.28724,0.0595 4.90625,0.0625 l 2.96875,9.15625 1.75,5.5625 0.34375,1.09375 1.125,-0.0312 8.21875,-0.25 0.0625,0 8.03125,0.25 2.34375,0.0625 -0.90625,-2.1875 c -3.64814,-8.69026 -7.21123,-17.76684 -10.75,-27.25 -3.54228,-9.49226 -7.23843,-19.57612 -11.0625,-30.25 l -0.40625,-1.09375 -1.125,0.09375 -4.03125,0.25 -0.1875,0 -4.03125,-0.25 -1.125,-0.09375 z m 104.78125,0.0625 c -10.0016,6e-5 -18.26717,2.68759 -24.59375,8.0625 -6.37363,5.35547 -9.59375,13.1012 -9.59375,22.8125 0,9.84844 2.93757,17.60505 8.8125,22.875 5.89345,5.23319 13.90537,7.84375 23.84375,7.84375 10.22501,0 18.56949,-2.73177 24.6875,-8.25 6.19708,-5.59542 9.28119,-13.63542 9.28125,-23.71875 -6e-5,-9.37217 -3.091,-16.86505 -9.1875,-22 -5.99,-5.09498 -13.81199,-7.62494 -23.25,-7.625 z m -134.03125,0.9375 -0.25,1.375 c -0.26896,1.5582 -0.63576,3.11263 -1.125,4.6875 l -0.03125,0 0,0.03125 c -0.44138,1.54313 -0.9581,3.13455 -1.5625,4.78125 l 0,0.0312 L 76,127 66.625,102.1875 C 65.524501,99.32927 64.506821,96.06873 63.5625,92.40625 L 63.25,91.21875 62.03125,91.25 l -7.625,0.3125 c 0.0096,0 -0.06677,9e-5 -0.0625,0 0.05982,-0.001 -0.315613,-0.008 -0.875,-0.03125 -0.599296,-0.0248 -1.4748,-0.0689 -2.625,-0.125 -2.322059,-0.11307 -3.934644,-0.1562 -4.9375,-0.15625 l -2.21875,0 0.8125,2.09375 16.65625,42.53125 c 0.0058,0.0157 0.0255,0.0156 0.03125,0.0312 1.230715,3.35283 2.213037,6.05844 2.9375,8.0625 0.721019,1.99464 1.35221,3.9308 1.90625,5.8125 l 0.34375,1.09375 1.125,0 c 0.431635,0 0.9503,-0.0733 2.09375,-0.1875 l 0.03125,0 0.03125,0 c 1.165661,-0.16627 2.056194,-0.25 2.5625,-0.25 0.427584,0 1.019019,0.0487 1.71875,0.15625 l 0.03125,0 0.0625,0 c 0.712656,0.0548 1.596978,0.13937 2.59375,0.25 L 77.90625,151 78.25,149.71875 c 1.277475,-4.93823 2.831911,-9.56748 4.65625,-13.875 l 0,-0.0312 11.3125,-28.78125 0,-0.0312 c 1.95461,-4.51753 4.07599,-9.00707 6.3125,-13.53125 l 1.0625,-2.21875 -2.4375,0 c -0.64139,6e-5 -1.57401,0.0722 -2.84375,0.1875 -1.20556,0.10948 -2.10928,0.12505 -2.65625,0.125 l 0,0.03125 -4.375,-0.3125 -1.34375,-0.125 z m 63.28125,0.0625 0.15625,1.6875 c 0.44862,5.32178 0.70118,9.76112 0.8125,13.375 l 0,0.0312 c 0.16681,3.55498 0.25,8.49902 0.25,14.78125 0,6.00063 -0.0823,11.16901 -0.25,15.46875 l 0,0.0312 c -0.1115,4.28809 -0.36694,8.47664 -0.8125,12.59375 l -0.1875,1.6875 1.6875,0 c 0.59401,0 2.1656,-0.0435 4.875,-0.15625 l 0.0312,0 0,-0.0312 c 2.69136,-0.16795 4.88361,-0.25 6.5625,-0.25 0.96242,0 4.13386,0.11256 9.3125,0.28125 l 0.0312,0 c 5.24163,0.11261 9.42222,0.15625 12.53125,0.15625 l 1.625,0 -0.125,-1.625 -0.25,-3.6875 0,-0.0937 0,-0.0937 0.25,-3.78125 0.125,-1.8125 L 186.0625,140 c -5.4878,0.61481 -11.02228,0.89012 -16.5625,0.9375 -0.0854,-1.20034 -0.15626,-2.39141 -0.15625,-3.75 -2e-5,-1.96726 -2e-5,-3.90142 0,-5.8125 l 0,-19.5625 c -2e-5,-6.6462 0.25463,-12.91233 0.8125,-18.875 l 0.15625,-1.71875 -1.6875,0.03125 -8.09375,0.25 -0.0937,0 -7.5,-0.25 -1.71875,-0.03125 z m 70.0625,7.46875 c 5.25935,5e-5 8.80674,1.99775 11.28125,6.375 2.56403,4.53589 3.8437,9.72326 3.84375,15.625 -5e-5,6.13458 -1.30399,11.51004 -3.875,16.21875 -2.47576,4.48258 -6.07263,6.53126 -11.5,6.53125 -5.29703,1e-5 -8.83587,-2.03087 -11.3125,-6.4375 -0.007,-0.0121 -0.0247,-0.0192 -0.0312,-0.0312 -2.55437,-4.6403 -3.81252,-9.92533 -3.8125,-15.875 -2e-5,-6.19757 1.25646,-11.50963 3.8125,-16.03125 2.46752,-4.36502 6.09313,-6.37495 11.59375,-6.375 z M 118.5,113.25 c 0.79555,1.94201 1.70129,4.06023 2.28125,5.59375 0.7265,1.92118 1.4593,4.21538 2.1875,6.53125 l -4.5625,0.0937 -0.0625,0 -4.5,-0.0937 c 1.48594,-4.10076 3.03746,-8.12918 4.65625,-12.125 z"
           style="font-size:84.35607147px;font-style:normal;font-variant:normal;font-weight:bold;font-stretch:normal;text-align:center;line-height:125%;letter-spacing:0px;word-spacing:0px;text-anchor:middle;fill:url(#radialGradient39592);fill-opacity:1;stroke:#000000;stroke-width:2;stroke-opacity:1;font-family:MgOpen Cosmetica;-inkscape-font-specification:MgOpen Cosmetica Bold"
           inkscape:connector-curvature="0" />
      </g>
      <rect
         ry="21.2132"
         y="423.95224"
         x="636.59265"
         height="283.65457"
         width="516.98901"
         id="rect38308"
         style="fill:none;stroke:#000000;stroke-width:5.18241787;stroke-opacity:1;display:inline"
         transform="matrix(0.57918184,0,0,0.57857907,-350.1859,-99.789865)" />
    </g>
    <text
       sodipodi:linespacing="125%"
       id="text3392"
       y="445.28836"
       x="24.876366"
       style="font-size:49.48949432px;font-style:normal;font-variant:normal;font-weight:bold;font-stretch:normal;text-align:start;line-height:125%;letter-spacing:0px;word-spacing:0px;text-anchor:start;fill-opacity:1;display:inline;font-family:MgOpen Cosmetica;-inkscape-font-specification:MgOpen Cosmetica Bold"
       xml:space="preserve"><tspan
         style="text-align:start;text-anchor:start"
         y="445.28836"
         x="24.876366"
         sodipodi:role="line"
         id="tspan3846">Tails</tspan></text>
    <g
       inkscape:label="Layer 1"
       id="layer1-1"
       transform="matrix(1.5048112,0,0,1.5048112,-545.32869,-1750.7841)" />
    <g
       id="layer2-4"
       inkscape:label="Layer"
       style="display:inline"
       transform="matrix(1.5048112,0,0,1.5048112,-545.32869,-919.58335)" />
    <flowRoot
       xml:space="preserve"
       id="flowRoot2499"
       style="font-size:12px;font-style:normal;font-weight:normal;fill:#000000;fill-opacity:1;stroke:none;font-family:Bitstream Vera Sans"
       transform="matrix(0.10955145,0,0,0.10955145,441.87713,158.29436)"><flowRegion
         id="flowRegion2501"><rect
           id="rect2503"
           width="459.375"
           height="68.75"
           x="37.5"
           y="318.125" /></flowRegion><flowPara
         id="flowPara2505" /></flowRoot>    <g
       transform="matrix(0.06818129,0,0,0.06818129,272.95936,240.54725)"
       id="layer1-0">
      <g
         id="g47664">
        <g
           transform="matrix(1,0,0,1.0055,-2.8698,1.853)"
           id="g2444">
          <path
             style="fill:none;stroke:#ffcc00;stroke-width:16;filter:url(#filter3931)"
             sodipodi:nodetypes="csssssscc"
             d="m -47.57,79.588 c 1.443,0 14.112,11.275 21.504,39.132 15.915,59.98 38.393,98.19 72.743,123.65 19.288,14.3 34.938,20.92 77.923,32.95 108.15,30.27 186.53,88.56 223.78,166.41 14.35,30 21.03,57.46 22.24,91.45 1.55,43.23 -5.66,81.04 -22.34,117.13 -41.13,89.03 -151.51,153.16 -320.79,186.4 -12.571,2.46 -40.427,-8.73 -31.15,1.96"
             id="path3785"
             inkscape:connector-curvature="0" />
          <path
             style="fill:none;stroke:#ffcc00;stroke-width:16;filter:url(#filter3923)"
             sodipodi:nodetypes="ccssssssssc"
             d="m -238.88,839.37 -31.45,-7.24 c -10.88,-4.32 -34.56,-13.13 -52.63,-19.58 -63.46,-22.63 -97.8,-38.06 -126.43,-56.79 -70.73,-46.27 -104.96,-110.11 -111.4,-207.76 -1.52,-23.18 -1.47,-24.32 2.14,-42.14 13.37,-66.13 43.66,-106.36 109.6,-145.58 8.43,-5.01 27.4,-15.64 42.14,-23.61 80.54,-43.55 112.57,-64.72 141.2,-93.32 33.7,-33.68 54.12,-56.65 71.28,-122.23 3.6,-13.75 11.23,-31.996 11.71,-33.559"
             id="path3789"
             inkscape:connector-curvature="0" />
        </g>
        <path
           d="M 158.54,-808.93 C -25.88,-347.46 -0.45,-162.51 -58.98,87.89 c -4.398,18.81 -22.395,29.88 -29.729,47.71 -9.226,-2.55 -29.231,-18.9 -11.851,-112.5 57.873,-285.09 122.25,-573.45 259.1,-832.03 z m -251.39,208.55 c -52.453,136.69 -34.073,276.28 -30.143,419.76 4.37,154.22 7.93,290.1 7.94,301.97 0.02,24.05 15.117,26.67 12.49,3.26 -8.2,-72.983 23.118,-119.85 2.04,-296.69 -5.06,-56.64 -25.85,-281.47 7.673,-428.3 z m -240.05,243.74 c -1.87,0 3.9,8.79 12.87,19.52 59.72,71.46 96.82,176.94 133.61,379.96 l 8.04,44.439 23.08,27.001 c 12.69,14.85 23.64,26.35 24.35,25.53 0.7,-0.82 -1.87,-28.8 -5.71,-62.168 -16.23,-141.09 -71.4,-294.29 -136.15,-378.01 -15.88,-20.53 -54.03,-56.27 -60.09,-56.27 z m 32.67,-474.5 c -1.7,1.98 7.85,50.81 38.23,195.29 76.45,363.57 99.58,495.13 123.04,699.82 9.59,83.69 7.34,77.66 26.72,71.28 8.45,-2.79 8.37,-5.63 -3.36,-113.93 -20.33,-187.72 -43.98,-331.31 -76.66,-465.34 -15.93,-65.33 -106.24,-389.12 -107.97,-387.12 z"
           style="fill:#008000;stroke:#008000;stroke-width:4.72510004"
           id="path3664"
           inkscape:connector-curvature="0" />
        <path
           d="M -60.481,-102.12 C -84.588,5.5 -126.44,61.01 -183.631,71.5 l -4.51,0.005 c 0.14,0.219 0.26,0.438 0.39,0.656 -1.82,0.264 -3.67,0.482 -5.53,0.657 l 5.92,-0.032 c 19.11,31.024 14.6,55.984 65.75,57.344 58.422,-1.56 62.81,-38.747 72.837,-58.094 l 2.874,-0.031 c 5.658,-48.996 1.573,-115.75 -14.582,-174.12 z"
           style="opacity:0.8;fill:#ffffff"
           id="path2811"
           inkscape:connector-curvature="0" />
        <path
           inkscape:original-d="m 478.57143,215.84487 c -79.0714,247.70793 29.43661,925.08553 40,1184.28573 M 752.89852,-24.88033 C 586.77423,310.13614 521.86683,636.21169 491.26893,995.13313 c -23.7811,278.95777 3.9964,545.28317 2.7493,777.94517 M 758.18422,-27.02319 C 590.63133,310.85043 545.00973,636.21169 507.26893,995.13313 c -29.2775,278.43457 3.9964,545.28317 2.7493,777.94517 M 750.46992,-19.88033 C 574.34563,315.13614 505.86683,636.21169 475.26893,995.13313 c -23.78108,278.95777 3.9964,545.28317 2.7493,777.94517 M 233.80636,462.88619 c 102.68466,72.02019 176.40755,468.09579 204.97898,591.53011 M 217.42858,460.13058 C 386.05865,589.48495 400.95082,850.47545 464.57143,992.98772 M 257.34735,-31.39952 C 418.41102,482.85541 486.61204,888.2156 482.57143,1584.4163 M 251.42857,-21.29799 c 139.34539,495.5671 218.81654,859.61512 217.14286,1605.71429"
           transform="translate(-569.73,-833.51)"
           clip-path="url(#clipPath3878)"
           d="m 478.57,215.84 c -11.51,36.08 -17.38,73.73 -21.41,111.38 -5.05,47.05 -6.82,94.4 -7.18,141.72 -0.42,54.06 1.14,108.13 3.71,162.13 2.75,57.6 6.68,115.13 11.27,172.61 8.97,112.44 20.52,224.62 31.79,336.92 4.83,48.1 9.62,96.2 13.83,144.4 3.34,38.3 6.42,76.7 7.99,115.1 M 752.9,-24.9 c -79.09,159.49 -139.67,328.04 -181.64,501.04 -41.3,170.27 -65.11,344.4 -79.99,518.97 -11.51,135.07 -11.04,270.87 -7.08,406.37 3.62,123.8 10.49,247.7 9.83,371.6 M 758.18,-27.02 c -79.05,159.41 -135.89,329.4 -174.13,503.18 -37.61,170.88 -58.48,344.96 -76.78,518.97 -14.17,134.77 -13.81,270.67 -9.14,406.17 4.27,123.9 12.55,247.8 11.89,371.8 m 240.45,-1793 c -42.5,80.848 -80.38,164.14 -113,249.46 -31.13,81.42 -57.46,164.66 -79.17,249.08 -43.49,169.07 -68.2,342.53 -83.03,516.47 -11.51,135.07 -11.04,270.87 -7.08,406.37 3.62,123.8 10.49,247.7 9.83,371.6 M 233.81,462.88 c 6.98,4.89 13.21,10.81 18.91,17.15 6.69,7.45 12.67,15.53 18.2,23.88 13.45,20.29 24.36,42.16 34.22,64.42 11.7,26.4 21.81,53.48 31.12,80.81 10.14,29.8 19.28,59.93 27.83,90.22 16.86,59.74 31.41,120.12 45.05,180.67 5.74,25.47 11.3,50.97 16.85,76.47 4.19,19.29 8.34,38.69 12.79,57.89 M 217.43,460.12 c 20.73,15.9 39.59,34.21 56.42,54.19 16.68,19.8 31.38,41.22 44.39,63.6 26.28,45.2 45.75,94.06 62.14,143.7 15.9,48.19 28.82,97.3 42.45,146.18 11.83,42.41 23.79,84.98 41.74,125.19 M 257.35,-31.42 c 38.43,122.72 73.8,246.45 103.71,371.52 29.07,121.58 52.85,244.44 70.81,368.16 19.37,133.39 32.07,267.71 39.86,402.32 9.15,157.7 11.76,315.8 10.84,473.8 M 251.43,-21.32 c 33.12,117.78 65.07,235.91 92.95,355.04 27.38,117.02 50.61,235.03 68.5,353.87 20.01,132.89 33.48,266.73 42.06,400.79 10.57,165.1 14,330.6 13.63,496"
           style="opacity:0.1;fill:#ffffff"
           id="path3818"
           inkscape:connector-curvature="0" />
        <path
           d="m -235.89,852.36 c 19.14,-26.22 75.37,-36.27 109.71,-38.12 33.602,3.34 88.081,2.77 107.55,38.12 -88,-20.37 -153.61,-11.46 -217.26,0 z"
           style="opacity:0.36649002;fill:#ffffff"
           id="path2836"
           inkscape:connector-curvature="0" />
        <path
           d="m -235.89,852.36 c 19.14,-26.22 75.37,-36.27 109.71,-38.12 33.602,3.34 88.081,2.77 107.55,38.12 m -37.144,-780 c -9.007,19.192 -12.466,57.078 -64.386,58.648 -45.67,-1.38 -40.93,-27.03 -58.59,-58.648 -21.19,32.898 -12.86,123.81 -101.43,191.43 -130.34,97.83 -253.46,98.37 -275.66,263.87 1.93,258.54 201.97,269.26 319.95,324.7 m 217.26,0 C 298.9,796 362.86,666.53 362.86,542.81 362.86,440.32 291.69,318.84 101.47,268.69 -48.53,236.78 -27.38,73.66 -55.77,72.36"
           style="opacity:0.36649002;fill:none"
           id="path62"
           inkscape:connector-curvature="0" />
        <path
           transform="translate(-563.04,-851.98)"
           style="fill:#ffeeaa;stroke:#ffeeaa;stroke-width:16"
           d="m 541.63,1689.4 c -10.46,-11.7 -29.67,-20.6 -53.98,-25 -18.94,-3.3 -50.36,-5.4 -63.58,-4.2 -41.62,4 -77.84,16.3 -95.23,32.3 l -3.8,3.5 -19.77,-7.8 c -10.87,-4.4 -34.55,-13.2 -52.62,-19.6 -63.46,-22.7 -97.81,-38.1 -126.43,-56.8 C 55.479,1565.5 21.25,1501.7 14.82,1404 c -1.53,-23.2 -1.472,-24.3 2.131,-42.1 13.373,-66.1 43.66,-106.4 109.6,-145.6 8.44,-5 27.4,-15.6 42.14,-23.6 80.55,-43.6 112.57,-64.7 141.2,-93.3 33.7,-33.7 48.4,-62.4 65.57,-127.97 3.6,-13.75 6.94,-26.28 7.43,-27.84 0.67,-2.17 2.48,0.57 7.56,11.44 10.82,23.11 19.61,30.46 40.3,33.68 26.28,4.09 50.57,-4.27 63.95,-22 5.58,-7.4 14.37,-24.39 14.37,-27.78 0,-0.98 0.62,-1.79 1.37,-1.79 1.45,0 4.11,8.42 11.51,36.28 15.91,59.98 38.39,98.18 72.74,123.68 19.29,14.3 34.94,20.9 77.93,32.9 108.14,30.3 186.52,88.6 223.77,166.4 14.35,30 21.03,57.5 22.25,91.5 1.54,43.2 -5.67,81 -22.35,117.1 -41.13,89 -151.5,153.2 -320.79,186.4 -12.57,2.5 -23.82,4.7 -25,5 -1.21,0.3 -5.06,-2.7 -8.87,-7 z"
           id="path3627"
           inkscape:connector-curvature="0" />
        <path
           style="opacity:0.7;fill:url(#radialGradient3333)"
           sodipodi:nodetypes="csscccsssssssssssccssssscsccc"
           d="m -15.874,842.76 c -11.048,-12.05 -35.05,-11.94 -60.745,-16.39 -20.017,-3.46 -56.911,-6.21 -70.881,-4.92 -44,4.05 -74.89,8.03 -93.27,24.5 l -4.02,3.6 -20.89,-8.07 c -11.5,-4.43 -36.52,-13.48 -55.62,-20.09 -67.07,-23.24 -103.37,-39.08 -133.63,-58.3 -74.76,-47.51 -110.94,-113.04 -117.74,-213.29 -1.61,-23.8 -1.55,-24.97 2.26,-43.27 14.13,-67.89 46.14,-109.19 115.84,-149.44 8.91,-5.15 28.95,-16.06 44.54,-24.25 85.13,-44.71 118.97,-66.44 149.23,-95.8 35.62,-34.57 51.16,-64.03 69.3,-131.35 3.8,-14.117 4.48,-13.408 4.99,-15.013 0.71,-2.22 6.91,1.308 12.29,12.463 11.42,23.73 32.15,24.85 54.02,28.15 27.775,4.19 47.018,-8.67 61.151,-26.87 11.727,-29.938 7.273,-39.291 29.515,9.74 16.821,61.57 33.436,94.37 69.742,120.51 20.385,14.68 36.926,21.48 82.362,33.83 114.3,31.08 197.14,90.92 236.51,170.84 15.17,30.8 22.23,58.98 23.51,93.88 1.63,44.38 -5.99,83.19 -23.61,120.24 -43.48,91.4 -160.13,157.24 -339.05,191.36 -13.289,2.54 -25.179,4.85 -26.425,5.15 -1.2836,0.31 -5.346,-2.81 -9.379,-7.21 z"
           id="path3882"
           inkscape:connector-curvature="0" />
        <path
           style="opacity:0.25;fill:#ffffff"
           inkscape:original-d="m -82.104929,113.89292 c 2.689593,170.09743 -46.063791,232.27964 -7.278408,380.15398 30.40508,117.26351 -46.811513,227.7524 -46.811513,316.05922 m -5.95868,-683.58375 c -91.59612,332.95457 -268.43582,180.6183 -277.30093,422.9814 15.2528,126.35489 200.28208,197.29553 200.28208,285.60235 m 94.55184,-702.3807 c -37.04789,242.04084 -169.44088,209.91271 -176.28568,395.70727 1.11066,120.29397 105.01955,208.65233 105.01955,296.95915 m 89.53808,-696.34664 c 2.68959,170.09743 -134.95721,255.51316 -96.17183,403.3875 30.40508,117.26351 38.06233,195.08089 38.06233,283.38771 M -158.8591,99.045205 C -250.45522,431.99977 -557.60461,356.43509 -497.77934,602.8388 c 35.45585,110.19244 261.17839,159.67479 261.17839,247.98161"
           d="m -82.105,113.89 c 0.583,36.86 -1.359,73.74 -5.457,110.37 -3.291,29.42 -7.997,58.67 -11.718,88.04 -3.52,27.82 -5.84,55.86 -4.95,83.88 1.04,33.05 6.458,65.88 14.847,97.87 7.286,28.1 8.543,57.56 5.513,86.43 -2.938,27.98 -9.662,55.44 -17.52,82.46 -7.48,25.74 -16.11,51.16 -23.21,77.02 -3.27,11.89 -6.21,23.88 -8.34,36.02 -1.97,11.27 -3.26,22.68 -3.26,34.13 m -5.95,-683.59 c -9.79,35.57 -21.8,70.62 -37.85,103.83 -11.77,24.35 -25.8,47.68 -42.88,68.65 -13.23,16.24 -28.35,30.95 -44.93,43.77 -13.94,10.78 -28.88,20.19 -44.02,29.21 -13.54,8.07 -27.27,15.88 -40.14,24.97 -6.17,4.36 -12.12,9.02 -17.69,14.12 -5.67,5.19 -10.92,10.83 -15.61,16.92 -5.05,6.55 -9.43,13.62 -13.15,21.01 -4.25,8.46 -7.63,17.33 -10.33,26.4 -7.15,23.98 -9.79,49.1 -10.7,74.1 1.87,15.54 6.45,30.71 12.98,44.93 6.62,14.43 15.17,27.92 24.74,40.59 9.9,13.1 20.89,25.34 32.35,37.09 11.56,11.86 23.63,23.21 35.79,34.46 22.45,20.78 45.65,40.95 65.27,64.43 8.16,9.76 15.67,20.18 21.17,31.66 2.46,5.16 4.5,10.53 5.9,16.07 1.34,5.35 2.08,10.86 2.08,16.38 m 94.55,-702.39 c -4.08,26.68 -9.78,53.15 -17.93,78.88 -6.43,20.28 -14.43,40.08 -24.28,58.94 -8.17,15.62 -17.62,30.56 -28.04,44.77 h -0.01 c -9.2,12.54 -19.14,24.51 -29.21,36.36 -9.43,11.11 -18.95,22.15 -27.8,33.73 -8.89,11.64 -17.05,23.86 -23.79,36.86 -7.52,14.5 -13.24,29.91 -17.21,45.75 -4.94,19.75 -7.27,40.08 -8.02,60.42 0.14,14.67 1.83,29.32 4.83,43.68 2.93,13.97 7.07,27.67 12.05,41.05 9.77,26.23 22.71,51.15 36.05,75.75 12.46,22.98 25.47,45.74 35.84,69.74 4.71,10.9 8.84,22.07 11.79,33.56 2.77,10.84 4.46,21.99 4.46,33.18 m 89.54,-696.35 c 0.32,20.14 -1.35,40.3 -4.95,60.11 -3.32,18.31 -8.28,36.31 -14.4,53.89 -11.5,33.05 -27.17,64.46 -42.27,96.03 -7.19,15.03 -14.24,30.14 -20.46,45.59 -6.06,15.07 -11.33,30.48 -15.05,46.28 -3.75,15.95 -5.89,32.3 -5.93,48.68 -0.05,17.8 2.37,35.59 6.89,52.81 13.02,50.23 23.92,101.08 30.43,152.55 5.49,43.38 7.63,87.12 7.63,130.84 m 5.6,-716.78 c -10.24,37.235 -24.37,73.485 -43.31,107.14 -15.73,27.94 -34.81,53.98 -56.7,77.4 -19.29,20.63 -40.71,39.2 -63.25,56.22 -20.39,15.38 -41.7,29.49 -62.98,43.6 -19.03,12.61 -38.12,25.21 -55.88,39.54 -8.11,6.54 -15.92,13.45 -23.15,20.93 -6.92,7.15 -13.3,14.84 -18.81,23.12 -5.5,8.26 -10.11,17.11 -13.63,26.39 -3.74,9.89 -6.23,20.24 -7.58,30.72 -1.54,11.97 -1.62,24.1 -0.69,36.13 1.12,14.37 3.66,28.61 7.06,42.61 4.54,14.1 12.2,27.06 21.4,38.67 10.05,12.68 21.88,23.87 34.37,34.15 27.37,22.52 57.87,40.9 88.12,59.38 14.77,9.02 29.56,18.02 44,27.56 v 0.01 c 12.97,8.56 25.71,17.54 37.47,27.71 9.86,8.53 19.15,17.94 26.05,29.01 3,4.82 5.51,9.95 7.23,15.36 1.65,5.21 2.54,10.67 2.54,16.13"
           id="path3759"
           inkscape:connector-curvature="0" />
        <path
           style="opacity:0.25;fill:#ffffff"
           inkscape:original-d="M -16.724582,846.51366 C 37.154371,706.72081 343.78593,717.74386 340.05641,545.40539 329.11724,290.3749 -29.116141,355.11909 -53.752108,87.621061 m 4.988934,736.115969 C -51.452764,683.94418 238.84091,645.62926 185.91339,497.75492 159.54893,414.83659 -49.119973,296.39646 -57.201192,90.911953 M -74.649905,815.3302 C -77.339495,675.53735 147.10354,640.93744 94.176017,493.0631 67.811548,410.14477 -52.783337,305.89882 -60.864557,100.41431 M -23.79565,838.43244 C -26.48524,698.63959 264.69455,719.5437 286.51832,541.36478 304.60056,389.75608 -37.50301,347.3273 -55.685755,91.335167 M -107.36708,811.28959 C -110.05667,671.49674 56.529218,601.18254 3.6017029,453.3082 -22.762766,370.38987 -60.715879,315.33682 -68.7971,109.85231"
           d="m -16.725,846.51 c 3.331,-8.64 7.713,-16.87 12.927,-24.52 5.2706,-7.74 11.377,-14.89 18.026,-21.48 14.22,-14.1 30.789,-25.64 48.049,-35.79 18.846,-11.07 38.603,-20.52 58.543,-29.47 20.71,-9.29 41.66,-18 62.45,-27.09 20.24,-8.84 40.36,-18.02 59.74,-28.61 17.85,-9.74 35.14,-20.68 50.45,-34.05 7.1,-6.2 13.76,-12.94 19.67,-20.29 5.76,-7.15 10.81,-14.89 14.88,-23.12 4.14,-8.39 7.25,-17.29 9.25,-26.44 2.16,-9.91 3.02,-20.1 2.8,-30.25 -0.64,-14.88 -2.52,-29.73 -5.96,-44.22 -3.08,-12.97 -7.42,-25.64 -13.1,-37.7 -5.31,-11.3 -11.79,-22.06 -19.24,-32.1 -7.3,-9.85 -15.53,-19 -24.39,-27.48 -18.12,-17.34 -38.8,-31.84 -60.23,-44.88 C 194.77,345.4 171.5,333.32 148.29,321.19 124.83,308.93 101.35,296.63 78.793,282.78 56.68,269.19 35.407,254.06 16.636,236.14 -2.292,218.07 -18.495,197.03 -30.206,173.63 -36.541,160.97 -41.59,147.68 -45.39,134.04 -49.616,118.88 -52.308,103.3 -53.752,87.621 m 4.989,736.12 c -0.162,-8.43 0.761,-16.89 2.774,-25.08 1.961,-7.98 4.946,-15.69 8.708,-23 7.927,-15.4 19.144,-28.9 31.494,-41.04 h 3e-4 c 13.608,-13.37 28.653,-25.2 44.051,-36.47 16.134,-11.81 32.724,-22.97 49.15,-34.37 15.966,-11.08 31.836,-22.35 46.796,-34.76 13.57,-11.25 26.48,-23.46 36.99,-37.6 4.8,-6.47 9.07,-13.35 12.48,-20.65 3.32,-7.09 5.81,-14.59 7.24,-22.29 1.47,-7.97 1.8,-16.15 1.05,-24.23 -0.84,-9.05 -3,-17.94 -6.06,-26.49 -1.76,-5.55 -4.2,-10.87 -6.98,-15.98 -3.19,-5.86 -6.83,-11.46 -10.7,-16.88 -9.22,-12.95 -19.65,-24.99 -30.29,-36.8 -12.59,-13.97 -25.56,-27.6 -38.405,-41.33 -14.269,-15.26 -28.414,-30.64 -42.035,-46.47 -29.397,-34.18 -56.492,-70.65 -77.013,-110.79 -10.713,-20.96 -19.591,-42.88 -26.003,-65.52 -6.736,-23.79 -10.714,-48.37 -11.685,-73.078 m -17.449,724.42 c -0.314,-16.34 2.647,-32.72 8.653,-47.92 5.803,-14.68 14.273,-28.21 24.034,-40.61 10.127,-12.88 21.615,-24.62 33.504,-35.88 12.121,-11.48 24.697,-22.47 37.061,-33.69 12.011,-10.9 23.865,-22.01 34.706,-34.07 10.162,-11.31 19.458,-23.51 26.44,-37.02 6.82,-13.19 11.232,-27.69 12.262,-42.51 1.19,-17.14 -2.044,-34.39 -7.834,-50.57 -3.551,-11.17 -8.479,-21.86 -13.9,-32.25 -6.265,-12.01 -13.221,-23.64 -20.311,-35.18 -16.913,-27.53 -34.492,-54.67 -50.166,-82.93 h 4e-4 c -18.748,-33.8 -34.903,-69.11 -46.737,-105.91 -14.176,-44.07 -22.107,-90.11 -23.927,-136.38 m 37.069,738.02 c -0.158,-8.21 0.712,-16.47 2.802,-24.41 1.952,-7.43 4.969,-14.56 8.865,-21.18 3.9384,-6.69 8.7517,-12.84 14.102,-18.46 -10e-5,0 -10e-5,0 0,0 5.6712,-5.96 11.937,-11.34 18.514,-16.28 14.606,-10.98 30.655,-19.89 46.966,-28.11 17.992,-9.08 36.407,-17.29 54.717,-25.7 18.86,-8.66 37.67,-17.49 55.86,-27.49 17.71,-9.73 34.89,-20.57 50.42,-33.51 14.96,-12.47 28.34,-27.03 38.36,-43.74 5.12,-8.54 9.35,-17.61 12.6,-27.02 3.47,-10.09 5.81,-20.57 7.11,-31.17 1.08,-9.04 0.9,-18.25 -0.66,-27.22 -1.52,-8.7 -4.33,-17.16 -8.11,-25.14 -8.24,-17.39 -20.79,-32.42 -34.52,-45.91 -16.13,-15.86 -34.05,-29.8 -52.25,-43.24 -20.43,-15.1 -41.35,-29.52 -61.96,-44.36 -21.79,-15.67 -43.286,-31.79 -63.672,-49.24 -20.667,-17.7 -40.212,-36.79 -57.351,-57.92 -17.376,-21.42 -32.204,-45 -43.017,-70.38 -11.689,-27.43 -18.553,-56.87 -20.666,-86.615 m -51.684,719.96 c -0.32,-16.67 1.84,-33.36 6.17,-49.45 4.16,-15.47 10.265,-30.37 17.48,-44.66 7.233,-14.34 15.562,-28.09 24.238,-41.6 8.674,-13.51 17.709,-26.78 26.438,-40.25 8.566,-13.22 16.854,-26.64 24.084,-40.63 7.0601,-13.66 13.095,-27.9 17.173,-42.73 4.162,-15.13 6.201,-30.87 5.706,-46.56 -0.56,-17.77 -4.3263,-35.36 -10.317,-52.1 h -4e-4 c -6.4075,-20.15 -13.978,-39.91 -21.299,-59.75 -8.023,-21.74 -15.572,-43.68 -21.757,-66.02 -8.088,-29.21 -13.996,-59 -18.329,-88.99 -6.158,-42.64 -9.321,-85.66 -11.014,-128.7"
           id="path3781"
           inkscape:connector-curvature="0" />
        <path
           clip-path="url(#clipPath3238)"
           style="opacity:0.8;fill:#d4aa00;filter:url(#filter3986)"
           d="m 164.8,288.28 c 0,43.45 -112,78.68 -250.15,78.68 -138.15,0 -250.15,-35.23 -250.15,-78.68 0,-30.5 58.55,12.31 139.16,28.9 33.16,6.82 69.82,-5.58 110.99,-5.58 69.076,0 105.41,8.8 151.77,-14.05 44.87,-22.12 98.38,-31 98.38,-9.27 z"
           id="path3935"
           inkscape:connector-curvature="0" />
        <path
           d="m -15.259,843.99 c -11.048,-12.05 -31.36,-21.16 -57.055,-25.61 -20.017,-3.47 -53.216,-5.6 -67.186,-4.31 -44,4.05 -82.28,16.64 -100.66,33.11 l -4.02,3.6 c 57.32,9.47 55.82,7.61 120.82,9.01 64.995,1.39 62.912,6.01 117.48,-8.59 -1.2836,0.31 -5.346,-2.81 -9.379,-7.21 z"
           style="fill:#ececec"
           sodipodi:nodetypes="csscczcccc"
           id="path3265"
           inkscape:connector-curvature="0" />
        <path
           style="opacity:0.89772997;fill:url(#radialGradient3335)"
           sodipodi:nodetypes="csscccsssssssssssccssssscsccc"
           d="m -15.874,842.76 c -11.048,-12.05 -34.435,-10.71 -60.13,-15.16 -20.017,-3.46 -55.676,-8.67 -69.646,-7.38 -44,4.05 -76.74,9.26 -95.12,25.73 l -4.02,3.6 -20.89,-8.07 c -11.5,-4.43 -36.52,-13.48 -55.62,-20.09 -67.07,-23.24 -103.37,-39.08 -133.63,-58.3 -74.76,-47.51 -110.94,-113.04 -117.74,-213.29 -1.61,-23.8 -1.55,-24.97 2.26,-43.27 14.13,-67.89 46.14,-109.19 115.84,-149.44 8.91,-5.15 28.95,-16.06 44.54,-24.25 85.13,-44.71 118.97,-66.44 149.23,-95.8 35.62,-34.57 51.16,-64.03 69.3,-131.35 3.8,-14.117 4.48,-13.408 4.99,-15.013 0.71,-2.22 6.91,1.308 12.29,12.463 11.42,23.73 32.15,24.85 54.02,28.15 27.775,4.19 47.018,-8.67 61.151,-26.87 11.727,-29.938 7.273,-39.291 29.515,9.74 16.821,61.57 33.436,94.37 69.742,120.51 20.385,14.68 36.926,21.48 82.362,33.83 114.3,31.08 197.14,90.92 236.51,170.84 15.17,30.8 22.23,58.98 23.51,93.88 1.63,44.38 -5.99,83.19 -23.61,120.24 -43.48,91.4 -160.13,157.24 -339.05,191.36 -13.289,2.54 -25.179,4.85 -26.425,5.15 -1.2836,0.31 -5.346,-2.81 -9.379,-7.21 z"
           id="path3250"
           inkscape:connector-curvature="0" />
        <path
           d="m -153.56,824.66 c -7.96,0.32 -15.92,0.82 -23.81,1.84 -3.78,0.49 -7.54,1.09 -11.25,1.97 -8.24,1.82 -16.31,4.4 -24.05,7.79 -3.8,1.61 -7.66,3.35 -10.77,6.15 -1.01,1.03 -0.4,2.87 0.88,3.37 3.27,1.39 6.78,2.13 10.29,2.65 6.7,1.05 13.48,1.39 20.21,2.21 17.47,1.59 34.97,2.73 52.47,3.93 7.43,0.49 14.89,0.84 22.34,0.59 8.39,-0.17 16.77,-0.64 25.153,-1.01 9.816,-0.52 19.633,-1.09 29.409,-2.14 5.68,-0.56 11.379,-1.01 16.997,-2.06 4.101,-0.65 8.116,-1.78 12.033,-3.14 1.605,-0.66 3.447,-1.14 4.596,-2.53 0.492,-0.83 0.202,-1.98 -0.638,-2.46 -1.753,-1.52 -4.012,-2.27 -6.141,-3.11 -5.579,-1.99 -11.348,-3.39 -17.107,-4.75 -8.174,-1.8 -16.419,-3.29 -24.715,-4.39 -6.146,-0.78 -12.328,-1.3 -18.525,-1.38 1.476,0.45 3.044,0.59 4.557,0.92 7.394,1.31 14.843,2.32 22.222,3.72 5.242,0.97 10.434,2.2 15.522,3.8 4.165,1.26 8.334,2.7 12.063,4.98 0.75,0.56 1.638,1.35 1.23,2.36 -0.782,1.31 -2.441,1.51 -3.738,2.05 -3.248,1.03 -6.625,1.55 -9.97,2.15 -5.688,0.94 -11.432,1.53 -17.193,1.75 -10.94,0.7 -21.859,1.78 -32.815,2.15 -8.84,0.24 -17.67,-0.14 -26.5,-0.21 -7.58,-0.14 -15.17,-0.32 -22.71,-1.16 -2.8,-0.34 -5.58,-0.8 -8.39,-1.14 -0.67,0.43 -2.47,-0.43 -1.31,-1 1.04,-0.25 2.06,0.22 3.11,0.12 11.62,0.4 23.24,1.13 34.87,1.34 5.6,0.12 11.22,0.22 16.82,0.08 6.71,-0.24 13.406,-0.69 20.102,-1.14 6.84,-0.53 13.682,-1.17 20.45,-2.32 3.709,-0.74 7.473,-1.35 11.024,-2.7 0.931,-0.45 1.443,-1.9 0.489,-2.59 -1.714,-1.43 -3.907,-2.1 -5.926,-2.98 -8.008,-3.04 -16.542,-4.36 -25.031,-5.18 -5.345,-0.49 -10.715,-0.56 -16.068,-1 -12.45,-0.95 -24.91,-1.91 -37.38,-2.64 -7.17,-0.37 -14.39,-0.37 -21.54,0.33 -6.74,0.74 -13.5,1.59 -20.05,3.38 -4.24,1.29 -8.36,3.19 -11.81,5.99 -0.69,0.55 -1.02,1.54 -0.5,2.32 0.49,0.95 1.67,0.92 2.55,1.29 3.41,0.96 6.87,1.69 10.29,2.6 1.95,0.48 3.88,1.03 5.82,1.54 0.26,1.05 -1.1,1.7 -1.97,1.44 -8.36,-0.52 -16.79,-0.58 -25.03,-2.21 -2.57,-0.53 -5.11,-1.23 -7.47,-2.39 -1.33,-1.01 -0.65,-3.3 0.85,-3.75 3.58,-2.46 7.64,-4.07 11.61,-5.78 9.62,-3.9 19.89,-6.22 30.26,-6.77 8.32,-0.43 16.65,-0.08 24.98,-0.04 14.61,0.22 29.22,0.45 43.832,0.59 -11.942,-1.14 -23.892,-2.25 -35.872,-2.88 -6.24,-0.29 -12.5,-0.69 -18.75,-0.55 z m 18.78,8.03 c 9.92,0.16 19.85,0.22 29.76,0.86 7.923,0.5 15.815,1.57 23.546,3.39 3.911,0.95 8.066,1.64 11.412,4.03 0.816,0.83 0.083,2.3 -1.024,2.35 -5.842,1.2 -11.747,2.08 -17.692,2.57 -9.743,0.96 -19.542,1.21 -29.332,1.07 -8.91,-0.02 -17.83,-0.4 -26.71,-1.26 -8.32,-0.86 -16.58,-2.29 -24.79,-3.89 -2.95,-0.59 -5.9,-1.18 -8.86,-1.78 -0.97,-0.45 -0.86,-2.11 0.16,-2.44 1.74,-1.1 3.75,-1.67 5.71,-2.29 6.16,-1.67 12.58,-1.78 18.91,-2.21 6.3,-0.34 12.6,-0.42 18.91,-0.4 z m -9.34,3.56 c -3.6,0.25 -7.16,0.9 -10.66,1.78 -1.08,0.53 -0.46,2.41 0.69,2.31 6.18,1.38 12.48,2.22 18.8,2.68 6.3,0.48 12.63,0.67 18.94,0.86 8.03,0.16 16.08,-0.24 24.013,-1.54 1.098,-0.21 2.243,-0.3 3.306,-0.62 0.867,-0.71 0.152,-2.25 -0.931,-2.16 -7.808,-1.33 -15.698,-2.11 -23.598,-2.58 -10.18,-0.56 -20.37,-0.85 -30.56,-0.73 z"
           style="opacity:0.5;fill:#b3b3b3;fill-rule:evenodd;stroke:#b3b3b3;stroke-width:0.77438998px"
           id="path47630"
           inkscape:connector-curvature="0" />
      </g>
    </g>
    <g
       id="g6251"
       transform="translate(23.281014,143.99161)">
      <use
         x="0"
         y="0"
         xlink:href="#text11685"
         id="use40118-1"
         transform="translate(-207.32912,-136.86631)"
         width="308.84375"
         height="170.65625"
         style="fill:#000000;stroke:#000000;stroke-width:4" />
      <use
         style="fill:#000000;stroke:#000000;stroke-width:3;filter:url(#filter40130)"
         height="170.65625"
         width="308.84375"
         transform="translate(-205.32912,-134.86631)"
         id="use40120-1"
         xlink:href="#text11685"
         y="0"
         x="0" />
      <use
         style="fill:url(#linearGradient6097-7);fill-opacity:1;stroke:#ffffff"
         height="170.65625"
         width="308.84375"
         transform="translate(-207.32912,-136.86631)"
         id="use40116-5"
         xlink:href="#text11685"
         y="0"
         x="0" />
    </g>
    <text
       xml:space="preserve"
       style="font-size:17.81859207px;font-style:normal;font-variant:normal;font-weight:bold;font-stretch:normal;fill:#eef4d7;fill-opacity:1;stroke:none;font-family:Ouhod;-inkscape-font-specification:Ouhod Bold"
       x="324.01773"
       y="193.16827"
       id="text3416"><tspan
         sodipodi:role="line"
         id="tspan3418"
         x="324.01773"
         y="193.16827" /></text>
    <path
       inkscape:transform-center-y="-1.4955988"
       inkscape:transform-center-x="-2.9748115"
       transform="translate(17.05128,138.29195)"
       d="M 5.9951896,18.208468 67.82561,59.786947 110.65091,-1.0829316 69.072431,60.747489 129.94231,103.57279 68.11189,61.99431 25.28659,122.86419 66.865069,61.033769 z"
       inkscape:randomized="0"
       inkscape:rounded="0"
       inkscape:flatsided="false"
       sodipodi:arg2="-1.6997697"
       sodipodi:arg1="-2.5384803"
       sodipodi:r2="1.1129248"
       sodipodi:r1="75.249512"
       sodipodi:cy="60.890629"
       sodipodi:cx="67.96875"
       sodipodi:sides="4"
       id="path13568"
       style="opacity:0.4;fill:#ffffff;fill-opacity:1;stroke:none;filter:url(#filter6087)"
       sodipodi:type="star" />
    <text
       sodipodi:linespacing="125%"
       id="text11685"
       y="186.8148"
       x="383.99756"
       style="font-size:48px;font-style:normal;font-variant:normal;font-weight:bold;font-stretch:normal;text-align:start;line-height:125%;letter-spacing:0px;word-spacing:0px;text-anchor:start;fill-opacity:1;display:inline;font-family:MgOpen Cosmetica;-inkscape-font-specification:MgOpen Cosmetica Bold"
       xml:space="preserve"><tspan
         y="186.8148"
         x="383.99756"
         sodipodi:role="line"
         id="tspan3834">#186</tspan></text>
    <g
       transform="matrix(0.30103004,0,0,0.410517,216.64096,250.97265)"
       style="font-size:40px;font-style:normal;font-variant:normal;font-weight:bold;font-stretch:normal;fill:#013397;fill-opacity:1;stroke:none;font-family:Arial Rounded MT Bold;-inkscape-font-specification:'Arial Rounded MT Bold, Bold'"
       id="text5236" />
    <g
       transform="matrix(0.97830086,0,0,0.84349229,4.9314758,18.849775)"
       id="g5376">
      <use
         style="fill:#000000;stroke:#000000;stroke-width:4"
         height="170.65625"
         width="308.84375"
         transform="translate(0,-120)"
         id="use39596"
         xlink:href="#text3392"
         y="0"
         x="0" />
      <use
         x="0"
         y="0"
         xlink:href="#text3392"
         id="use39598"
         transform="translate(2,-118)"
         width="308.84375"
         height="170.65625"
         style="fill:#000000;stroke:#000000;stroke-width:3;filter:url(#filter40112)" />
      <use
         x="0"
         y="0"
         xlink:href="#text3392"
         id="use39594"
         transform="translate(0,-120)"
         width="308.84375"
         height="170.65625"
         style="fill:url(#linearGradient4330);fill-opacity:1;stroke:#ffffff" />
    </g>
    <path
       sodipodi:type="arc"
       style="fill:#800080;fill-opacity:1;fill-rule:nonzero;stroke:none"
       id="path2453"
       sodipodi:cx="-471.85995"
       sodipodi:cy="-345.79184"
       sodipodi:rx="0"
       sodipodi:ry="22.546209"
       transform="matrix(0.37036554,0,0,0.37036554,632.41344,318.38031)" />
    <g
       transform="matrix(1.9310763,0,0,1.9310763,-213.51406,-294.43448)"
       inkscape:label="Layer 1"
       id="layer1-07">
      <g
         transform="translate(-431.71,6.1786)"
         id="g13344">
        <rect
           inkscape:export-filename="/home/christian/graphics/usb-icons.png"
           x="6.5"
           y="2.0302999"
           inkscape:export-xdpi="90"
           width="14.5"
           height="7.9696999"
           ry="0.55615002"
           rx="0.55624002"
           inkscape:export-ydpi="90"
           transform="matrix(1.1292,0,0,0.35758,630.44,296.5)"
           style="opacity:0.19262001;fill:#000000;stroke:#000000;stroke-width:0.98492998;filter:url(#filter3974)"
           id="rect3891" />
        <g
           transform="translate(621.47,253.35)"
           id="g3883">
          <rect
             x="18.959999"
             y="35.054001"
             width="11.325"
             height="9.5293999"
             ry="0.625"
             rx="0.625"
             style="fill:#ffffff"
             id="rect4383" />
          <rect
             x="17.540001"
             y="-46.431"
             inkscape:export-ydpi="90"
             inkscape:export-xdpi="90"
             width="13.96"
             height="14.931"
             ry="0.56471002"
             rx="0.56471002"
             inkscape:export-filename="/home/christian/graphics/usb-icons.png"
             transform="scale(1,-1)"
             style="fill:url(#linearGradient3880);stroke:#555753"
             id="rect3448" />
          <path
             inkscape:export-xdpi="90"
             inkscape:connector-curvature="0"
             inkscape:export-filename="/home/christian/graphics/usb-icons.png"
             sodipodi:nodetypes="ccccc"
             inkscape:export-ydpi="90"
             d="m 19.04,44.931 h 11 v -4.0792 l -11,-0.85179 v 4.9309 z"
             style="opacity:0.36280003;fill:#eeeeec"
             id="path3562" />
          <rect
             x="20.5"
             y="-43.403999"
             inkscape:export-xdpi="90"
             width="3.0787001"
             height="3.1133001"
             transform="scale(1,-1)"
             inkscape:export-filename="/home/christian/graphics/usb-icons.png"
             inkscape:export-ydpi="90"
             style="opacity:0.88172003;fill:url(#linearGradient3874);stroke:url(#linearGradient3876-6);stroke-width:0.92000002"
             id="rect3450" />
          <rect
             x="18.540001"
             y="-45.431"
             inkscape:export-xdpi="90"
             width="11.96"
             height="13.035"
             transform="scale(1,-1)"
             inkscape:export-filename="/home/christian/graphics/usb-icons.png"
             inkscape:export-ydpi="90"
             style="opacity:0.71504971;fill:none;stroke:#eeeeec"
             id="rect3458" />
          <rect
             x="25.5"
             y="-43.403999"
             inkscape:export-xdpi="90"
             width="3.0787001"
             height="3.1133001"
             transform="scale(1,-1)"
             inkscape:export-filename="/home/christian/graphics/usb-icons.png"
             inkscape:export-ydpi="90"
             style="opacity:0.88172003;fill:url(#linearGradient3868);stroke:url(#linearGradient3870);stroke-width:0.92000002"
             id="rect2874" />
        </g>
        <rect
           x="636.02002"
           y="254.85001"
           width="19.954"
           height="35.983002"
           ry="1.6208"
           rx="1.625"
           style="fill:#bc0000;stroke:#2e3436;stroke-linecap:round;stroke-linejoin:round"
           id="rect5391" />
        <rect
           x="636.96997"
           y="255.85001"
           width="18.044001"
           height="34"
           ry="0.62440997"
           rx="0.625"
           style="fill:none;stroke:#ef2929;stroke-linecap:round;stroke-linejoin:round"
           id="rect5433" />
        <rect
           x="637.28003"
           y="256.22"
           width="17.312"
           height="3.125"
           ry="0.73891997"
           rx="0.77181"
           style="opacity:0.7;fill:#ffffff"
           id="rect2425" />
        <rect
           x="649.20001"
           y="256.76999"
           width="0.048827998"
           height="0.3418"
           ry="0.3418"
           rx="1.1828001"
           style="fill:#ffffff"
           id="rect3312" />
        <path
           inkscape:export-xdpi="90"
           inkscape:connector-curvature="0"
           inkscape:export-filename="/home/christian/graphics/usb-icons.png"
           sodipodi:nodetypes="ccssssssssscccccccssccccccsccccscc"
           inkscape:export-ydpi="90"
           d="m 644.07,283.54 c 0,-1.2693 0.4293,-1.5986 0.95515,-2.0418 0.42215,-0.20026 0.48961,-0.33698 0.48406,-0.98102 -0.006,-0.71173 -0.0755,-0.63043 -1.4178,-1.7755 -2.0496,-1.7483 -2.3252,-2.1699 -2.5659,-3.9243 -0.17752,-1.2939 -0.053,-1.0093 -0.56259,-1.507 -0.93794,-0.91607 -0.77725,-2.2595 0.33931,-2.8369 1.0059,-0.52016 2.1975,0.0331 2.5649,1.1908 0.18111,0.57061 -0.25308,1.556 -0.8361,1.8976 -0.53352,0.31255 -0.75487,-0.20854 -0.63286,0.94358 0.0675,0.63766 0.23208,1.371 0.36567,1.6296 0.22945,0.44421 2.4762,2.5353 2.7206,2.5353 v -12.353 h -1.2454 c 0.57609,-0.98232 1.1374,-1.9802 1.6955,-2.9684 l 1.7773,2.9684 h -1.2106 v 8.3665 c 0.16837,0 1.8191,-1.6462 2.3745,-2.3874 0.23998,-0.32023 0.38562,-0.77493 0.38562,-1.204 0,-0.6471 0.21716,-0.78316 -0.2851,-0.78316 h -0.5351 v -3.0322 h 3.0322 v 3.0322 h -0.49051 c -0.43766,0.0504 -0.75049,0.26957 -0.83311,0.9871 -0.12323,1.0701 -0.5896,1.7724 -2.3059,3.4725 l -1.3426,1.4228 v 5.074 l 0.39676,0.23269 c 0.26978,0.12798 0.64133,0.54152 0.82567,0.91899 0.65696,1.3452 -0.25607,2.7919 -1.7621,2.7919 -1.0914,-0.0393 -1.8916,-0.59003 -1.8916,-1.6691 z"
           style="opacity:0.95;fill:#eeeeec"
           id="path3690" />
        <path
           d="m 636.47,256.27 c -0.01,-0.46578 0.59246,-0.90122 1.0975,-0.91605 0.57922,-0.0181 16.208,0.0255 16.208,0.0255 0,0 1.823,-0.19744 1.6872,1.0008 -4.2604,2.6873 -11.247,10.748 -10.71,15.641 1.1712,10.567 -8.2733,17.328 -8.2733,17.328 0,0 0.0119,-31.502 -0.009,-33.08 z"
           style="opacity:0.5;fill:url(#linearGradient13623)"
           sodipodi:nodetypes="ccccscc"
           inkscape:connector-curvature="0"
           id="path6765" />
      </g>
    </g>
  </g>
</svg>
