<?xml version="1.0" encoding="UTF-8" standalone="no"?>
<!-- Created with Inkscape (http://www.inkscape.org/) -->

<svg
   xmlns:osb="http://www.openswatchbook.org/uri/2009/osb"
   xmlns:dc="http://purl.org/dc/elements/1.1/"
   xmlns:cc="http://creativecommons.org/ns#"
   xmlns:rdf="http://www.w3.org/1999/02/22-rdf-syntax-ns#"
   xmlns:svg="http://www.w3.org/2000/svg"
   xmlns="http://www.w3.org/2000/svg"
   xmlns:xlink="http://www.w3.org/1999/xlink"
   xmlns:sodipodi="http://sodipodi.sourceforge.net/DTD/sodipodi-0.dtd"
   xmlns:inkscape="http://www.inkscape.org/namespaces/inkscape"
   width="308.8927"
   height="170.66518"
   id="svg9857"
   version="1.1"
   inkscape:version="0.48.4 r9939"
   sodipodi:docname="2014-valo-182-scratch.svg"
   inkscape:export-filename="/home/pesasa/svnrepos/drawings/www/viikonvalo/valo182-scratch.png"
   inkscape:export-xdpi="58.27"
   inkscape:export-ydpi="58.27">
  <sodipodi:namedview
     id="base"
     pagecolor="#ffffff"
     bordercolor="#666666"
     borderopacity="1.0"
     inkscape:pageopacity="0.0"
     inkscape:pageshadow="2"
     inkscape:zoom="1.4498598"
     inkscape:cx="303.74971"
     inkscape:cy="45.629825"
     inkscape:document-units="px"
     inkscape:current-layer="layer1"
     showgrid="false"
     fit-margin-top="0"
     fit-margin-left="0"
     fit-margin-right="0"
     fit-margin-bottom="0"
     inkscape:window-width="1920"
     inkscape:window-height="1128"
     inkscape:window-x="-2"
     inkscape:window-y="-3"
     inkscape:window-maximized="1">
    <inkscape:grid
       snapvisiblegridlinesonly="true"
       enabled="true"
       visible="true"
       empspacing="5"
       id="grid4787"
       type="xygrid"
       originx="0.0205684px"
       originy="0.0054835526px" />
  </sodipodi:namedview>
  <defs
     id="defs9859">
    <linearGradient
       id="linearGradient14486">
      <stop
         style="stop-color:#ffffff;stop-opacity:1"
         offset="0"
         id="stop14488" />
      <stop
         style="stop-color:#d2d2d2;stop-opacity:1"
         offset="1"
         id="stop14490" />
    </linearGradient>
    <radialGradient
       r="258.02078"
       fy="479.36584"
       fx="787.22473"
       cy="479.36584"
       cx="787.22473"
       gradientTransform="matrix(0.69719883,1.0793933,-1.1943603,0.77297612,832.93918,-733.53466)"
       gradientUnits="userSpaceOnUse"
       id="radialGradient38317"
       xlink:href="#linearGradient38277"
       inkscape:collect="always" />
    <linearGradient
       id="linearGradient38277">
      <stop
         id="stop38279"
         offset="0"
         style="stop-color:#87aade;stop-opacity:1" />
      <stop
         id="stop38281"
         offset="1"
         style="stop-color:#162d50;stop-opacity:1" />
    </linearGradient>
    <linearGradient
       y2="4.9912353"
       x2="136.37059"
       y1="83.783127"
       x1="161.11934"
       gradientUnits="userSpaceOnUse"
       id="linearGradient38319"
       xlink:href="#linearGradient38300"
       inkscape:collect="always" />
    <linearGradient
       id="linearGradient38300"
       inkscape:collect="always">
      <stop
         id="stop38302"
         offset="0"
         style="stop-color:#ffffff;stop-opacity:1;" />
      <stop
         id="stop38304"
         offset="1"
         style="stop-color:#ffffff;stop-opacity:0" />
    </linearGradient>
    <filter
       id="filter38253"
       inkscape:collect="always"
       color-interpolation-filters="sRGB">
      <feGaussianBlur
         id="feGaussianBlur38255"
         stdDeviation="3.7990597"
         inkscape:collect="always" />
    </filter>
    <linearGradient
       id="linearGradient38257"
       inkscape:collect="always">
      <stop
         id="stop38259"
         offset="0"
         style="stop-color:#ffe680;stop-opacity:1" />
      <stop
         id="stop38261"
         offset="1"
         style="stop-color:#ffcc00;stop-opacity:1" />
    </linearGradient>
    <radialGradient
       r="121.0625"
       fy="111.79336"
       fx="204.84595"
       cy="111.79336"
       cx="204.84595"
       gradientTransform="matrix(-0.51080991,-0.39352661,0.36619486,-0.47533151,176.33119,204.40239)"
       gradientUnits="userSpaceOnUse"
       id="radialGradient39592"
       xlink:href="#linearGradient38257"
       inkscape:collect="always" />
    <filter
       height="1.2054614"
       y="-0.10273071"
       width="1.0626322"
       x="-0.031316079"
       id="filter40112"
       inkscape:collect="always"
       color-interpolation-filters="sRGB">
      <feGaussianBlur
         id="feGaussianBlur40114"
         stdDeviation="2.401374"
         inkscape:collect="always" />
    </filter>
    <style
       type="text/css"
       id="style6654">
   
    .str1 {stroke:#1F1A17;stroke-width:0.0286362}
    .str0 {stroke:white;stroke-width:0.0286362}
    .fil2 {fill:#1F1A17}
    .fil0 {fill:#EAE342}
    .fil1 {fill:white}
   
  </style>
    <linearGradient
       osb:paint="solid"
       id="linearGradient4165">
      <stop
         id="stop4167"
         offset="0"
         style="stop-color:#4d4d4d;stop-opacity:1;" />
    </linearGradient>
    <linearGradient
       osb:paint="solid"
       id="linearGradient4171">
      <stop
         id="stop4173"
         offset="0"
         style="stop-color:#999999;stop-opacity:1;" />
    </linearGradient>
    <linearGradient
       osb:paint="solid"
       id="linearGradient4177">
      <stop
         id="stop4179"
         offset="0"
         style="stop-color:#000000;stop-opacity:1;" />
    </linearGradient>
    <filter
       id="filter6087"
       inkscape:collect="always"
       color-interpolation-filters="sRGB">
      <feGaussianBlur
         id="feGaussianBlur6089"
         stdDeviation="0.3098678"
         inkscape:collect="always" />
    </filter>
    <filter
       color-interpolation-filters="sRGB"
       inkscape:collect="always"
       id="filter40130"
       x="-0.051605642"
       width="1.1032113"
       y="-0.11904688"
       height="1.2380939">
      <feGaussianBlur
         inkscape:collect="always"
         stdDeviation="1.9055437"
         id="feGaussianBlur40132" />
    </filter>
    <linearGradient
       inkscape:collect="always"
       xlink:href="#linearGradient6091-4"
       id="linearGradient6097-7"
       x1="502.35776"
       y1="215.35515"
       x2="502.35776"
       y2="247.32196"
       gradientUnits="userSpaceOnUse" />
    <linearGradient
       inkscape:collect="always"
       id="linearGradient6091-4">
      <stop
         style="stop-color:#ffffff;stop-opacity:1"
         offset="0"
         id="stop6093-6" />
      <stop
         style="stop-color:#d2d2d2;stop-opacity:1"
         offset="1"
         id="stop6095-0" />
    </linearGradient>
    <linearGradient
       inkscape:collect="always"
       xlink:href="#linearGradient14486"
       id="linearGradient4330"
       gradientUnits="userSpaceOnUse"
       x1="35.336468"
       y1="395.6817"
       x2="35.336468"
       y2="419.84171" />
    <filter
       color-interpolation-filters="sRGB"
       x="-.039886"
       y="-.12104"
       width="1.0798"
       height="1.2421"
       id="filter4037">
      <feGaussianBlur
         stdDeviation="11.868751"
         id="feGaussianBlur4039" />
    </filter>
    <linearGradient
       x1="-153"
       x2="-145.56"
       y1="-47.638"
       gradientUnits="userSpaceOnUse"
       y2="-89.638"
       id="linearGradient5999">
      <stop
         offset="0"
         stop-color="#2ad4ff"
         id="stop5783" />
      <stop
         offset="1"
         stop-opacity="0"
         stop-color="#2ad4ff"
         id="stop5785" />
    </linearGradient>
    <linearGradient
       x1="-210.09"
       x2="-164.83"
       y1="245.86"
       gradientUnits="userSpaceOnUse"
       y2="249.55"
       id="linearGradient5995">
      <stop
         offset="0"
         stop-color="#fff"
         id="stop5664" />
      <stop
         offset="1"
         stop-opacity=".053137"
         stop-color="#fff"
         id="stop5666" />
    </linearGradient>
    <linearGradient
       x1="-210.09"
       x2="-149.5"
       y1="245.86"
       gradientUnits="userSpaceOnUse"
       y2="245.86"
       id="linearGradient5993">
      <stop
         offset="0"
         stop-color="#fff"
         id="stop5556" />
      <stop
         offset="1"
         stop-opacity=".037931"
         stop-color="#fff"
         id="stop5558" />
    </linearGradient>
    <linearGradient
       y2="249.36"
       y1="249.36"
       x2="22.886"
       gradientUnits="userSpaceOnUse"
       x1="-228.89"
       id="linearGradient5991">
      <stop
         offset="0"
         stop-color="#aed3ff"
         id="stop5641" />
      <stop
         offset=".21015"
         stop-opacity=".13245"
         stop-color="#d6e9ff"
         id="stop5643" />
      <stop
         offset=".77785"
         stop-opacity=".13245"
         stop-color="#c2deff"
         id="stop5647" />
      <stop
         offset="1"
         stop-color="#aed3ff"
         id="stop5645" />
    </linearGradient>
    <linearGradient
       y2="-191.78"
       x2="-807.77"
       y1="-119.64"
       gradientUnits="userSpaceOnUse"
       spreadMethod="reflect"
       x1="-838.19"
       id="linearGradient5989">
      <stop
         offset="0"
         stop-color="#cdd0ce"
         id="stop5889" />
      <stop
         offset="1"
         stop-opacity="0"
         stop-color="#cdd0ce"
         id="stop5891" />
    </linearGradient>
    <linearGradient
       y2="233.88"
       x2="47.811"
       gradientTransform="matrix(0,1,-1,0,511.38,554.38)"
       y1="233.88"
       gradientUnits="userSpaceOnUse"
       x1="-356.81"
       id="linearGradient5974">
      <stop
         offset="0"
         id="stop5528" />
      <stop
         offset="1"
         stop-opacity=".99608"
         stop-color="#fff"
         id="stop5530" />
    </linearGradient>
    <radialGradient
       r="231.54"
       gradientTransform="matrix(1.5048,0.23121,-0.16112,1.0486,317.46,104.94)"
       cx="81.5"
       cy="127.88"
       gradientUnits="userSpaceOnUse"
       id="radialGradient5971">
      <stop
         offset="0"
         stop-color="#acacac"
         id="stop5506" />
      <stop
         offset="1"
         id="stop5508" />
    </radialGradient>
    <linearGradient
       y2="165.88"
       x2="-175.16"
       gradientTransform="matrix(1.2614,0,0,1.2614,473.02,129.31)"
       y1="76.875"
       gradientUnits="userSpaceOnUse"
       x1="-182.84"
       id="linearGradient5965">
      <stop
         offset="0"
         stop-color="#2a5e89"
         id="stop5623" />
      <stop
         offset="1"
         stop-opacity="0"
         stop-color="#2a5e89"
         id="stop5625" />
    </linearGradient>
    <radialGradient
       r="56"
       gradientTransform="matrix(1.3393,0,0,1.1719,495.16,127.69)"
       cx="-167"
       cy="337.36"
       gradientUnits="userSpaceOnUse"
       id="radialGradient5961">
      <stop
         offset="0"
         stop-color="#042b76"
         id="stop5610" />
      <stop
         offset="1"
         stop-color="#2e75f8"
         id="stop5612" />
    </radialGradient>
    <linearGradient
       y2="305.11"
       x2="-143.59"
       gradientTransform="translate(427.84,138.77)"
       y1="345.38"
       gradientUnits="userSpaceOnUse"
       x1="-150.34"
       id="linearGradient5957">
      <stop
         offset="0"
         stop-color="#89269d"
         id="stop5771" />
      <stop
         offset=".33681"
         stop-color="#a40000"
         id="stop5777" />
      <stop
         offset="1"
         stop-opacity="0"
         stop-color="#89269d"
         id="stop5773" />
    </linearGradient>
    <filter
       id="filter5827">
      <feGaussianBlur
         stdDeviation="1.0174043"
         id="feGaussianBlur5829" />
    </filter>
    <filter
       id="filter5590">
      <feGaussianBlur
         stdDeviation="0.81070223"
         id="feGaussianBlur5592" />
    </filter>
  </defs>
  <metadata
     id="metadata9862">
    <rdf:RDF>
      <cc:Work
         rdf:about="">
        <dc:format>image/svg+xml</dc:format>
        <dc:type
           rdf:resource="http://purl.org/dc/dcmitype/StillImage" />
        <dc:title></dc:title>
      </cc:Work>
    </rdf:RDF>
  </metadata>
  <g
     transform="translate(-16.979432,-143.99655)"
     id="layer1"
     inkscape:groupmode="layer"
     inkscape:label="Layer 1">
    <g
       transform="matrix(1.0213303,0,0,1.0213303,-0.39889826,-3.0840892)"
       id="g38310">
      <rect
         transform="matrix(0.57918184,0,0,0.57857907,-350.1859,-99.789865)"
         style="fill:url(#radialGradient38317);fill-opacity:1;fill-rule:nonzero;stroke:none;display:inline"
         id="rect10983-4"
         width="517.06445"
         height="283.68048"
         x="636.19702"
         y="423.4234"
         ry="21.2132" />
      <path
         style="opacity:0.26440681;fill:url(#linearGradient38319);fill-opacity:1;fill-rule:nonzero;stroke:none;display:inline"
         d="m 13.78204,1.494856 c -6.8066102,0 -12.28125,5.4817236 -12.28125,12.28125 l 0,66.536394 C 144.3017,139.19649 211.44627,40.874351 300.75,81.5 l 0,-67.723894 c 0,-6.7995264 -5.47464,-12.28125 -12.28125,-12.28125 z"
         transform="translate(17,144)"
         id="rect38285"
         inkscape:connector-curvature="0"
         sodipodi:nodetypes="ssccsss" />
      <g
         transform="matrix(0.52762727,0,0,0.52762727,10.932562,71.287425)"
         id="g39588">
        <path
           inkscape:connector-curvature="0"
           style="font-size:84.35607147px;font-style:normal;font-variant:normal;font-weight:bold;font-stretch:normal;text-align:center;line-height:125%;letter-spacing:0px;word-spacing:0px;text-anchor:middle;fill:#000000;fill-opacity:1;stroke:none;filter:url(#filter38253);font-family:MgOpen Cosmetica;-inkscape-font-specification:MgOpen Cosmetica Bold"
           d="m 153.53125,160.03125 0,1.71875 c 0,0.8951 0.11865,4.77976 0.34375,12.03125 0.2808,7.18151 0.40624,12.75964 0.40625,16.71875 -1e-5,0.82337 -0.12506,5.56637 -0.40625,13.9375 l 0,0.0312 c -0.22526,8.32559 -0.34375,14.77114 -0.34375,19.40625 l 0,1.5625 1.59375,-0.0312 6.625,-0.25 0.125,0 6.53125,0.25 1.59375,0.0312 0,-1.5625 c -3e-5,-0.50551 -0.0437,-3.28209 -0.15625,-8.625 -0.0551,-2.61494 -0.0375,-3.69377 -0.0625,-5.5625 0.8589,1.4747 1.50975,2.64814 2.53125,4.375 2.2422,3.69583 4.281,7.18205 6.125,10.53125 l 0.4375,0.8125 0.90625,0 c 0.43898,0 1.3686,-0.0743 3.125,-0.1875 l 0.0312,0 0.0312,0 C 184.67992,225.05347 186.07289,225 187.125,225 c 0.0936,0 1.27291,0.0512 3.0625,0.21875 l 0.0312,0 0.0312,0 c 1.88056,0.11387 3.35815,0.1875 4.46875,0.1875 l 2.71875,0 -1.4375,-2.34375 -5.8125,-9.34375 c -3.53109,-5.68591 -6.5222,-10.73681 -9.15625,-15.375 L 189.4375,190 l 0.0312,0 5.1875,-4.90625 0.875,-0.8125 -0.59375,-1.03125 -0.34375,-0.59375 -0.46875,-0.8125 -0.90625,0.0312 -3.8125,0.1875 c -0.013,0 -0.0491,3e-5 -0.0625,0 -0.62183,-0.001 -1.58757,-0.0388 -2.90625,-0.0937 -1.35368,-0.0563 -2.36246,-0.0937 -3.09375,-0.0937 l -0.78125,0 -0.46875,0.65625 c -2.56694,3.62341 -4.98923,6.75483 -7.25,9.34375 -1.51434,1.73415 -3.36257,3.2887 -5.15625,4.875 l 0,-9.4375 c -2e-5,-2.49433 0.0879,-6.74187 0.3125,-12.6875 0.22531,-5.96521 0.34373,-10.24292 0.34375,-12.875 l 0,-1.6875 -1.6875,0.1875 c -2.13272,0.21858 -4.56788,0.31256 -7.28125,0.3125 -2.31227,6e-5 -4.33994,-0.0963 -6.125,-0.3125 l -1.71875,-0.21875 z m -39.5,0.78125 c -2.18396,9e-5 -4.21927,0.90848 -5.8125,2.5 -0.73813,0.73738 -1.30172,1.56937 -1.71875,2.46875 l -2.1875,0 c -0.69759,7e-5 -1.57031,0.106 -2.8125,0.21875 -1.20554,0.10949 -2.10922,0.12504 -2.65625,0.125 l 0,0.0312 -4.34375,-0.34375 -1.375,-0.125 -0.25,1.375 c -0.269521,1.56141 -0.637392,3.14913 -1.125,4.71875 l -0.03125,0 0,0.0312 c -0.439916,1.53801 -0.956007,3.09759 -1.5625,4.75 l 0,0.0312 -9,24.96875 -9.34375,-24.84375 c -1.1005,-2.85793 -2.118181,-6.11863 -3.0625,-9.7811 l -0.3125,-1.1875 -1.21875,0.0312 -7.625,0.34375 c 0.0095,0 -0.06674,9e-5 -0.0625,0 0.0594,-0.001 -0.315615,-0.008 -0.875,-0.0312 -0.599294,-0.0248 -1.474806,-0.0689 -2.625,-0.125 -2.309061,-0.11242 -3.932852,-0.18744 -4.96875,-0.1875 l -2.21875,0 0.8125,2.09375 16.6875,42.5625 c 0.0057,0.0157 0.02551,0.0156 0.03125,0.0312 1.227605,3.34514 2.177109,6.04549 2.90625,8.0625 0.727416,2.01234 1.389029,3.91846 1.9375,5.78125 l 0.34375,1.09375 1.125,0 c 0.431574,0 0.950286,-0.0733 2.09375,-0.1875 l 0.03125,0 0.03125,0 C 75.983458,225.05624 76.853126,225 77.40625,225 c 0.48381,0 1.060788,0.0239 1.71875,0.125 l 0.03125,0 0.0625,0 c 0.7127,0.0548 1.597008,0.13936 2.59375,0.25 l 1.28125,0.15625 0.34375,-1.28125 c 1.277091,-4.93676 2.8309,-9.53384 4.65625,-13.84375 l 0,-0.0312 11.3125,-28.8125 0,-0.0312 c 1.9568,-4.52305 4.04721,-9.01218 6.28125,-13.53135 l 0.46875,-0.96875 c -0.18699,0.67603 -0.4375,1.34224 -0.4375,2.0625 0,2.22636 0.8899,4.27117 2.5,5.8125 1.60067,1.53246 3.64957,2.37506 5.8125,2.375 2.20818,6e-5 4.23194,-0.85854 5.78125,-2.40625 1.58681,-1.58513 2.49998,-3.59949 2.5,-5.78125 -2e-5,-2.18166 -0.91322,-4.19603 -2.5,-5.78125 -1.58498,-1.58322 -3.59732,-2.49991 -5.78125,-2.5 z m 24.0625,0 c -2.18395,9e-5 -4.21926,0.90849 -5.8125,2.5 -1.5951,1.59349 -2.46875,3.61716 -2.46875,5.78125 0,2.20932 0.85021,4.26308 2.46875,5.8125 1.60069,1.53245 3.64958,2.37506 5.8125,2.375 2.20819,6e-5 4.23195,-0.85853 5.78125,-2.40625 1.58683,-1.58514 2.49998,-3.5995 2.5,-5.78125 -2e-5,-2.18166 -0.91321,-4.19603 -2.5,-5.78125 -1.58497,-1.58322 -3.59731,-2.49991 -5.78125,-2.5 z m 82.125,20.0625 c -7.03533,4e-5 -12.89025,2.00977 -17.25,6.0625 -4.32718,4.01828 -6.5,9.72666 -6.5,16.71875 0,6.82554 2.12787,12.47227 6.375,16.59375 l 0.0312,0 c 4.29373,4.04762 9.98368,6.09375 16.75,6.09375 7.03622,0 12.79338,-2.04775 16.9375,-6.1875 4.1391,-4.13483 6.18745,-9.82866 6.1875,-16.75 -5e-5,-6.58886 -2.08977,-12.13665 -6.25,-16.25 -0.006,-0.006 -0.0256,0.006 -0.0312,0 -4.11703,-4.16336 -9.64679,-6.28121 -16.25,-6.28125 z m 53.90625,0.15625 c -2.7022,4e-5 -5.35814,0.76233 -7.90625,2.15625 -1.36401,0.7462 -2.5998,1.62959 -3.75,2.59375 l 0,-2.375 0,-1.6875 -1.6875,0.1875 c -0.57153,0.0571 -1.40135,0.16498 -2.4375,0.3125 -1.40666,4e-5 -2.84338,4e-5 -4.25,0 -1.23787,4e-5 -2.08749,4e-5 -2.59375,0 -0.54528,-0.0653 -1.57939,-0.15224 -3.34375,-0.3125 L 246.5,181.75 l 0,1.65625 c -1e-5,1.49074 0.11842,4.63554 0.34375,9.53125 0.22465,4.825 0.34376,8.29536 0.34375,10.375 -3e-5,1.01745 -0.11885,4.12634 -0.34375,9.125 -0.22557,4.95725 -0.34376,8.75025 -0.34375,11.4375 l 0,1.53125 1.53125,0 c 0.43899,0 1.36095,-0.0742 3.0625,-0.1875 l 0.0312,0 0.0312,0 c 1.65765,-0.1655 2.9436,-0.21875 3.875,-0.21875 0.0936,0 1.19411,0.0515 2.8125,0.21875 l 0.0312,0 0.0312,0 c 1.71441,0.11419 3.0596,0.1875 4.0625,0.1875 l 1.53125,0 0,-1.53125 c -2e-5,-1.43799 -0.11844,-4.39175 -0.34375,-9.0625 -0.16849,-4.65383 -0.25002,-8.33243 -0.25,-11 -2e-5,-2.04614 0.0182,-3.76468 0.125,-5.21875 6.4e-4,-0.009 -6.4e-4,-0.0226 0,-0.0312 0.15535,-1.37002 0.50012,-2.57425 0.9375,-3.59375 l 0,-0.0312 c 0.41879,-1.02264 0.96128,-1.69743 1.65625,-2.1875 l 0,-0.0312 c 0.75956,-0.54799 1.58345,-0.78123 2.59375,-0.78125 1.50909,2e-5 2.28018,0.4205 3,1.5625 l 0.0312,0.0312 c 0.84282,1.26298 1.24997,2.70457 1.25,4.46875 l 0,0.0937 0.0312,0.0937 c 0.16044,1.28295 0.21872,2.59083 0.21875,3.9375 l 0,1.53125 c -3e-5,1.61507 -0.11906,4.84843 -0.34375,9.5625 -0.16914,4.73097 -0.25003,8.26067 -0.25,10.65625 l 0,1.53125 1.53125,0 c 0.43157,0 1.25894,-0.0745 3.125,-0.1875 1.89399,-0.1113 3.23728,-0.125 3.96875,-0.125 0.73138,0 1.8162,0.0148 3.25,0.125 1.49012,0.11452 2.61412,0.1875 3.40625,0.1875 l 1.53125,0 0,-1.53125 c -4e-5,-2.3982 -0.0866,-5.87302 -0.3125,-10.5 -0.16823,-4.64931 -0.28056,-7.81378 -0.28125,-9.4375 l 0,-0.0312 0.0937,-8.8125 0,-0.0312 c -5e-5,-4.03854 -1.3776,-7.53779 -4.09375,-10.125 -2.69661,-2.56842 -6.21918,-3.90621 -10.25,-3.90625 z m -168.84375,0.6875 0.15625,1.8125 0.65625,7.40625 -0.0312,0 0,25.1875 c 0,1.25857 -0.0171,2.51025 -0.125,3.75 -0.10968,1.20521 -0.26918,2.46731 -0.4375,3.8125 l -0.21875,1.78125 1.78125,-0.0625 6.8125,-0.25 0.125,0 7.03125,0.25 1.75,0.0312 -0.1875,-1.71875 c -0.33404,-3.39228 -0.51358,-6.28041 -0.625,-8.71875 -1.7e-4,-0.007 1.7e-4,-0.024 0,-0.0312 -0.0556,-2.4547 -0.0939,-5.93774 -0.0937,-10.46875 l 0.0937,-13.75 0.71875,-7.1875 0.1875,-1.84375 -1.8125,0.1875 c -1.24271,0.1129 -2.4858,0.23181 -3.71875,0.34375 -1.21563,0.11041 -2.3146,0.15629 -3.3125,0.15625 -0.93776,4e-5 -2.06964,-0.0455 -3.34375,-0.15625 -1.23024,-0.11169 -2.40864,-0.23096 -3.59375,-0.34375 l -1.8125,-0.1875 z m 24.0625,0 0.15625,1.8125 0.65625,7.40625 -0.0312,0 0,25.1875 c -10e-6,1.25858 -0.0171,2.51026 -0.125,3.75 -0.10969,1.20521 -0.26918,2.46731 -0.4375,3.8125 l -0.21875,1.78125 1.78125,-0.0625 6.8125,-0.25 0.125,0 7.0625,0.25 1.75,0.0312 -0.1875,-1.71875 c -0.33493,-3.40135 -0.54517,-6.29299 -0.65625,-8.71875 -1.7e-4,-0.007 1.7e-4,-0.024 0,-0.0312 -0.0556,-2.4547 -0.0939,-5.93774 -0.0937,-10.46875 l 0.0937,-13.75 0.71875,-7.1875 0.1875,-1.84375 -1.8125,0.1875 c -1.24272,0.1129 -2.4858,0.23181 -3.71875,0.34375 -1.21563,0.11041 -2.31459,0.15629 -3.3125,0.15625 -0.93775,4e-5 -2.06963,-0.0455 -3.34375,-0.15625 -1.23023,-0.11169 -2.40862,-0.23095 -3.59375,-0.34375 l -1.8125,-0.1875 z m 90.28125,6.34375 c 1.7502,2e-5 2.82449,0.47172 3.65625,1.46875 0.92431,1.10808 1.58588,2.6397 2,4.65625 0.11138,0.89084 0.27584,2.06425 0.4375,3.625 0.16106,1.55531 0.21872,3.47571 0.21875,5.6875 -3e-5,2.2689 -0.0563,4.22912 -0.21875,5.90625 -0.16186,1.61664 -0.32668,2.83015 -0.4375,3.71875 -0.40952,1.94309 -1.06617,3.4781 -2,4.65625 -0.008,0.0106 -0.0229,0.0207 -0.0312,0.0312 -0.83677,0.98535 -1.86648,1.4375 -3.53125,1.4375 -1.75025,0 -2.92743,-0.49859 -3.875,-1.53125 -0.92985,-1.12915 -1.52013,-2.59662 -1.71875,-4.53125 l 0,-0.0625 0,-0.0625 c -0.54408,-2.93492 -0.81251,-6.06049 -0.8125,-9.40625 -10e-6,-2.94931 0.0652,-5.48093 0.28125,-7.53125 0.20548,-1.95024 0.76832,-3.87509 1.65625,-5.8125 0.004,-0.009 -0.004,-0.0223 0,-0.0312 0.7694,-1.56274 1.94976,-2.21872 4.375,-2.21875 z m -81.4375,50.09375 -0.40625,1.0625 c -1.57432,4.26872 -3.03299,8.2647 -4.4375,11.96875 l -0.0312,0 c -1.34353,3.69088 -3.04629,8.19321 -5.125,13.46875 -2.02172,5.21736 -3.72389,9.41109 -5.0625,12.53125 l -8.4375,19.5625 -1,2.3125 2.53125,-0.21875 2.9375,-0.21875 5.46875,0.25 1.09375,0.0312 0.40625,-1.03125 c 1.90045,-5.11532 3.59747,-10.03357 5.15625,-14.8125 l 4.78125,-0.21875 c 0.0306,8.7e-4 0.0632,-8.8e-4 0.0937,0 1.93096,0.0557 3.9027,0.13191 5.90625,0.1875 1.67622,0.0466 3.28724,0.0595 4.90625,0.0625 l 2.96875,9.15625 1.75,5.5625 0.34375,1.09375 1.125,-0.0312 8.21875,-0.25 0.0625,0 8.03125,0.25 2.34375,0.0625 -0.90625,-2.1875 c -3.64814,-8.69026 -7.21123,-17.76684 -10.75,-27.25 -3.54228,-9.49226 -7.23843,-19.57612 -11.0625,-30.25 l -0.40625,-1.09375 -1.125,0.0937 -4.03125,0.25 -0.1875,0 -4.03125,-0.25 -1.125,-0.0937 z m 104.78125,0.0625 c -10.0016,6e-5 -18.26717,2.68759 -24.59375,8.0625 -6.37363,5.35547 -9.59375,13.1012 -9.59375,22.8125 0,9.84844 2.93757,17.60505 8.8125,22.875 5.89345,5.23319 13.90537,7.84375 23.84375,7.84375 10.22501,0 18.56949,-2.73177 24.6875,-8.25 6.19708,-5.59542 9.28119,-13.63542 9.28125,-23.71875 -6e-5,-9.37217 -3.091,-16.86505 -9.1875,-22 -5.99,-5.09498 -13.81199,-7.62494 -23.25,-7.625 z m -134.03125,0.9375 -0.25,1.375 c -0.26896,1.5582 -0.63576,3.11263 -1.125,4.6875 l -0.0312,0 0,0.0312 c -0.44138,1.54313 -0.9581,3.13455 -1.5625,4.78125 l 0,0.0312 L 97,275 87.625,250.1875 c -1.100499,-2.85823 -2.118179,-6.11877 -3.0625,-9.78125 l -0.3125,-1.1875 -1.21875,0.0312 -7.625,0.3125 c 0.0096,0 -0.06677,9e-5 -0.0625,0 0.05982,-0.001 -0.315613,-0.008 -0.875,-0.0312 -0.599296,-0.0248 -1.4748,-0.0689 -2.625,-0.125 -2.322059,-0.11307 -3.934644,-0.1562 -4.9375,-0.15625 l -2.21875,0 0.8125,2.09375 16.65625,42.53125 c 0.0058,0.0157 0.0255,0.0156 0.03125,0.0312 1.230715,3.35283 2.213037,6.05844 2.9375,8.0625 0.721019,1.99464 1.35221,3.9308 1.90625,5.8125 l 0.34375,1.09375 1.125,0 c 0.431635,0 0.9503,-0.0733 2.09375,-0.1875 l 0.03125,0 0.03125,0 c 1.165661,-0.16627 2.056194,-0.25 2.5625,-0.25 0.427584,0 1.019019,0.0487 1.71875,0.15625 l 0.03125,0 0.0625,0 c 0.712656,0.0548 1.596978,0.13937 2.59375,0.25 L 98.90625,299 99.25,297.71875 c 1.27747,-4.93823 2.83191,-9.56748 4.65625,-13.875 l 0,-0.0312 11.3125,-28.78125 0,-0.0312 c 1.95461,-4.51753 4.07599,-9.00707 6.3125,-13.53125 l 1.0625,-2.21875 -2.4375,0 c -0.64139,6e-5 -1.57401,0.0722 -2.84375,0.1875 -1.20556,0.10948 -2.10928,0.12505 -2.65625,0.125 l 0,0.0312 -4.375,-0.3125 -1.34375,-0.125 z m 63.28125,0.0625 0.15625,1.6875 c 0.44862,5.32178 0.70118,9.76112 0.8125,13.375 l 0,0.0312 c 0.16681,3.55498 0.25,8.49902 0.25,14.78125 0,6.00063 -0.0823,11.16901 -0.25,15.46875 l 0,0.0312 c -0.1115,4.28809 -0.36694,8.47664 -0.8125,12.59375 l -0.1875,1.6875 1.6875,0 c 0.59401,0 2.1656,-0.0435 4.875,-0.15625 l 0.0312,0 0,-0.0312 c 2.69136,-0.16795 4.88361,-0.25 6.5625,-0.25 0.96242,0 4.13386,0.11256 9.3125,0.28125 l 0.0312,0 c 5.24163,0.11261 9.42222,0.15625 12.53125,0.15625 l 1.625,0 -0.125,-1.625 -0.25,-3.6875 0,-0.0937 0,-0.0937 0.25,-3.78125 0.125,-1.8125 L 207.0625,288 c -5.4878,0.61481 -11.02228,0.89012 -16.5625,0.9375 -0.0854,-1.20034 -0.15626,-2.39141 -0.15625,-3.75 -2e-5,-1.96726 -2e-5,-3.90142 0,-5.8125 l 0,-19.5625 c -2e-5,-6.6462 0.25463,-12.91233 0.8125,-18.875 l 0.15625,-1.71875 -1.6875,0.0312 -8.09375,0.25 -0.0937,0 -7.5,-0.25 -1.71875,-0.0312 z m 70.0625,7.46875 c 5.25935,5e-5 8.80674,1.99775 11.28125,6.375 2.56403,4.53589 3.8437,9.72326 3.84375,15.625 -5e-5,6.13458 -1.30399,11.51004 -3.875,16.21875 -2.47576,4.48258 -6.07263,6.53126 -11.5,6.53125 -5.29703,10e-6 -8.83587,-2.03087 -11.3125,-6.4375 -0.007,-0.0121 -0.0247,-0.0192 -0.0312,-0.0312 -2.55437,-4.6403 -3.81252,-9.92533 -3.8125,-15.875 -2e-5,-6.19757 1.25646,-11.50963 3.8125,-16.03125 2.46752,-4.36502 6.09313,-6.37495 11.59375,-6.375 z M 139.5,261.25 c 0.79555,1.94201 1.70129,4.06023 2.28125,5.59375 0.7265,1.92118 1.4593,4.21538 2.1875,6.53125 l -4.5625,0.0937 -0.0625,0 -4.5,-0.0937 c 1.48594,-4.10076 3.03746,-8.12918 4.65625,-12.125 z"
           id="path37479" />
        <path
           id="path37388"
           transform="translate(17,144)"
           d="m 132.53125,12.03125 0,1.71875 c 0,0.8951 0.11865,4.77976 0.34375,12.03125 0.2808,7.18151 0.40624,12.75964 0.40625,16.71875 -1e-5,0.82337 -0.12506,5.56637 -0.40625,13.9375 l 0,0.03125 c -0.22526,8.32559 -0.34375,14.77114 -0.34375,19.40625 l 0,1.5625 1.59375,-0.03125 6.625,-0.25 0.125,0 6.53125,0.25 L 149,77.4375 149,75.875 c -3e-5,-0.50551 -0.0437,-3.28209 -0.15625,-8.625 -0.0551,-2.61494 -0.0375,-3.69377 -0.0625,-5.5625 0.8589,1.4747 1.50975,2.64814 2.53125,4.375 2.2422,3.69583 4.281,7.18205 6.125,10.53125 l 0.4375,0.8125 0.90625,0 c 0.43898,0 1.3686,-0.0743 3.125,-0.1875 l 0.0312,0 0.0312,0 C 163.67992,77.05347 165.07289,77 166.125,77 c 0.0936,0 1.27291,0.0512 3.0625,0.21875 l 0.0312,0 0.0312,0 c 1.88056,0.11387 3.35815,0.1875 4.46875,0.1875 l 2.71875,0 L 175,75.0625 169.1875,65.71875 c -3.53109,-5.68591 -6.5222,-10.73681 -9.15625,-15.375 L 168.4375,42 l 0.0312,0 5.1875,-4.90625 0.875,-0.8125 -0.59375,-1.03125 -0.34375,-0.59375 -0.46875,-0.8125 -0.90625,0.03125 -3.8125,0.1875 c -0.013,0 -0.0491,3e-5 -0.0625,0 -0.62183,-10e-4 -1.58757,-0.03885 -2.90625,-0.09375 -1.35368,-0.0563 -2.36246,-0.09375 -3.09375,-0.09375 l -0.78125,0 -0.46875,0.65625 c -2.56694,3.62341 -4.98923,6.75483 -7.25,9.34375 -1.51434,1.73415 -3.36257,3.2887 -5.15625,4.875 l 0,-9.4375 c -2e-5,-2.49433 0.0879,-6.74187 0.3125,-12.6875 0.22531,-5.96521 0.34373,-10.24292 0.34375,-12.875 l 0,-1.6875 -1.6875,0.1875 c -2.13272,0.21858 -4.56788,0.31256 -7.28125,0.3125 -2.31227,6e-5 -4.33994,-0.0963 -6.125,-0.3125 l -1.71875,-0.21875 z m -39.5,0.78125 c -2.18396,9e-5 -4.21927,0.90848 -5.8125,2.5 -0.73813,0.73738 -1.30172,1.56937 -1.71875,2.46875 l -2.1875,0 c -0.697586,7e-5 -1.570311,0.106 -2.8125,0.21875 -1.205544,0.10949 -2.10922,0.12504 -2.65625,0.125 l 0,0.03125 L 73.5,17.8125 l -1.375,-0.125 -0.25,1.375 c -0.269521,1.56141 -0.637392,3.14913 -1.125,4.71875 l -0.03125,0 0,0.03125 c -0.439916,1.53801 -0.956007,3.09759 -1.5625,4.75 l 0,0.03125 -9,24.96875 L 50.8125,28.71875 C 49.712,25.86067 48.694319,22.59997 47.75,18.9375 l -0.3125,-1.1875 -1.21875,0.03125 -7.625,0.34375 c 0.0095,0 -0.06674,9e-5 -0.0625,0 0.0594,-0.001 -0.315615,-0.0081 -0.875,-0.03125 -0.599294,-0.0248 -1.474806,-0.0689 -2.625,-0.125 -2.309061,-0.11242 -3.932852,-0.18744 -4.96875,-0.1875 l -2.21875,0 0.8125,2.09375 16.6875,42.5625 c 0.0057,0.0157 0.02551,0.01565 0.03125,0.03125 1.227605,3.34514 2.177109,6.04549 2.90625,8.0625 0.727416,2.01234 1.389029,3.91846 1.9375,5.78125 l 0.34375,1.09375 1.125,0 c 0.431574,0 0.950286,-0.0733 2.09375,-0.1875 l 0.03125,0 0.03125,0 C 54.983458,77.05624 55.853126,77 56.40625,77 c 0.48381,0 1.060788,0.0239 1.71875,0.125 l 0.03125,0 0.0625,0 c 0.7127,0.0548 1.597008,0.13936 2.59375,0.25 L 62.09375,77.53125 62.4375,76.25 c 1.277091,-4.93676 2.8309,-9.53384 4.65625,-13.84375 l 0,-0.03125 11.3125,-28.8125 0,-0.03125 C 80.363046,29.0083 82.45346,24.51917 84.6875,20 l 0.46875,-0.96875 c -0.18699,0.67603 -0.4375,1.34224 -0.4375,2.0625 0,2.22636 0.8899,4.27117 2.5,5.8125 1.60067,1.53246 3.64957,2.37506 5.8125,2.375 2.20818,6e-5 4.23194,-0.85854 5.78125,-2.40625 1.58681,-1.58513 2.49998,-3.59949 2.5,-5.78125 -2e-5,-2.18166 -0.91322,-4.19603 -2.5,-5.78125 -1.58498,-1.58322 -3.59732,-2.49991 -5.78125,-2.5 z m 24.0625,0 c -2.18395,9e-5 -4.21926,0.90849 -5.8125,2.5 -1.5951,1.59349 -2.46875,3.61716 -2.46875,5.78125 0,2.20932 0.85021,4.26308 2.46875,5.8125 1.60069,1.53245 3.64958,2.37506 5.8125,2.375 2.20819,6e-5 4.23195,-0.85853 5.78125,-2.40625 1.58683,-1.58514 2.49998,-3.5995 2.5,-5.78125 -2e-5,-2.18166 -0.91321,-4.19603 -2.5,-5.78125 -1.58497,-1.58322 -3.59731,-2.49991 -5.78125,-2.5 z m 82.125,20.0625 c -7.03533,4e-5 -12.89025,2.00977 -17.25,6.0625 -4.32718,4.01828 -6.5,9.72666 -6.5,16.71875 0,6.82554 2.12787,12.47227 6.375,16.59375 l 0.0312,0 c 4.29373,4.04762 9.98368,6.09375 16.75,6.09375 7.03622,0 12.79338,-2.04775 16.9375,-6.1875 4.1391,-4.13483 6.18745,-9.82866 6.1875,-16.75 -5e-5,-6.58886 -2.08977,-12.13665 -6.25,-16.25 -0.006,-0.006 -0.0256,0.006 -0.0312,0 -4.11703,-4.16336 -9.64679,-6.28121 -16.25,-6.28125 z m 53.90625,0.15625 c -2.7022,4e-5 -5.35814,0.76233 -7.90625,2.15625 -1.36401,0.7462 -2.5998,1.62959 -3.75,2.59375 l 0,-2.375 0,-1.6875 -1.6875,0.1875 c -0.57153,0.0571 -1.40135,0.16498 -2.4375,0.3125 -1.40666,4e-5 -2.84338,4e-5 -4.25,0 -1.23787,4e-5 -2.08749,4e-5 -2.59375,0 -0.54528,-0.0653 -1.57939,-0.15224 -3.34375,-0.3125 L 225.5,33.75 l 0,1.65625 c -1e-5,1.49074 0.11842,4.63554 0.34375,9.53125 0.22465,4.825 0.34376,8.29536 0.34375,10.375 -3e-5,1.01745 -0.11885,4.12634 -0.34375,9.125 -0.22557,4.95725 -0.34376,8.75025 -0.34375,11.4375 l 0,1.53125 1.53125,0 c 0.43899,0 1.36095,-0.0742 3.0625,-0.1875 l 0.0312,0 0.0312,0 C 231.8139,77.05325 233.09985,77 234.03125,77 c 0.0936,0 1.19411,0.0515 2.8125,0.21875 l 0.0312,0 0.0312,0 c 1.71441,0.11419 3.0596,0.1875 4.0625,0.1875 l 1.53125,0 0,-1.53125 c -2e-5,-1.43799 -0.11844,-4.39175 -0.34375,-9.0625 -0.16849,-4.65383 -0.25002,-8.33243 -0.25,-11 -2e-5,-2.04614 0.0182,-3.76468 0.125,-5.21875 6.4e-4,-0.009 -6.4e-4,-0.02265 0,-0.03125 0.15535,-1.37002 0.50012,-2.57425 0.9375,-3.59375 l 0,-0.03125 c 0.41879,-1.02264 0.96128,-1.69743 1.65625,-2.1875 l 0,-0.03125 c 0.75956,-0.54799 1.58345,-0.78123 2.59375,-0.78125 1.50909,2e-5 2.28018,0.4205 3,1.5625 l 0.0312,0.03125 c 0.84282,1.26298 1.24997,2.70457 1.25,4.46875 l 0,0.09375 0.0312,0.09375 c 0.16044,1.28295 0.21872,2.59083 0.21875,3.9375 l 0,1.53125 c -3e-5,1.61507 -0.11906,4.84843 -0.34375,9.5625 -0.16914,4.73097 -0.25003,8.26067 -0.25,10.65625 l 0,1.53125 1.53125,0 c 0.43157,0 1.25894,-0.0745 3.125,-0.1875 1.89399,-0.1113 3.23728,-0.125 3.96875,-0.125 0.73138,0 1.8162,0.0148 3.25,0.125 1.49012,0.11452 2.61412,0.1875 3.40625,0.1875 l 1.53125,0 0,-1.53125 c -4e-5,-2.3982 -0.0866,-5.87302 -0.3125,-10.5 -0.16823,-4.64931 -0.28056,-7.81378 -0.28125,-9.4375 l 0,-0.03125 0.0937,-8.8125 0,-0.03125 c -5e-5,-4.03854 -1.3776,-7.53779 -4.09375,-10.125 -2.69661,-2.56842 -6.21918,-3.90621 -10.25,-3.90625 z m -168.84375,0.6875 0.15625,1.8125 0.65625,7.40625 -0.03125,0 0,25.1875 c 0,1.25857 -0.0171,2.51025 -0.125,3.75 -0.10968,1.20521 -0.26918,2.46731 -0.4375,3.8125 l -0.21875,1.78125 1.78125,-0.0625 6.8125,-0.25 0.125,0 7.03125,0.25 1.75,0.03125 -0.1875,-1.71875 c -0.33404,-3.39228 -0.51358,-6.28041 -0.625,-8.71875 -1.7e-4,-0.007 1.7e-4,-0.02395 0,-0.03125 -0.0556,-2.4547 -0.0939,-5.93774 -0.0937,-10.46875 l 0.0937,-13.75 0.71875,-7.1875 0.1875,-1.84375 -1.8125,0.1875 c -1.24271,0.1129 -2.4858,0.23181 -3.71875,0.34375 -1.21563,0.11041 -2.3146,0.15629 -3.3125,0.15625 -0.93776,4e-5 -2.06964,-0.0455 -3.34375,-0.15625 -1.23024,-0.11169 -2.40864,-0.23096 -3.59375,-0.34375 l -1.8125,-0.1875 z m 24.0625,0 0.15625,1.8125 0.65625,7.40625 -0.0312,0 0,25.1875 c -1e-5,1.25858 -0.0171,2.51026 -0.125,3.75 -0.10969,1.20521 -0.26918,2.46731 -0.4375,3.8125 l -0.21875,1.78125 1.78125,-0.0625 6.8125,-0.25 0.125,0 7.0625,0.25 1.75,0.03125 -0.1875,-1.71875 C 125.35257,72.3174 125.14233,69.42576 125.03125,67 c -1.7e-4,-0.007 1.7e-4,-0.02395 0,-0.03125 -0.0556,-2.4547 -0.0939,-5.93774 -0.0937,-10.46875 l 0.0937,-13.75 0.71875,-7.1875 0.1875,-1.84375 -1.8125,0.1875 c -1.24272,0.1129 -2.4858,0.23181 -3.71875,0.34375 -1.21563,0.11041 -2.31459,0.15629 -3.3125,0.15625 -0.93775,4e-5 -2.06963,-0.0455 -3.34375,-0.15625 -1.23023,-0.11169 -2.40862,-0.23095 -3.59375,-0.34375 l -1.8125,-0.1875 z M 198.625,40.0625 c 1.7502,2e-5 2.82449,0.47172 3.65625,1.46875 0.92431,1.10808 1.58588,2.6397 2,4.65625 0.11138,0.89084 0.27584,2.06425 0.4375,3.625 0.16106,1.55531 0.21872,3.47571 0.21875,5.6875 -3e-5,2.2689 -0.0563,4.22912 -0.21875,5.90625 -0.16186,1.61664 -0.32668,2.83015 -0.4375,3.71875 -0.40952,1.94309 -1.06617,3.4781 -2,4.65625 -0.008,0.0106 -0.0229,0.02075 -0.0312,0.03125 -0.83677,0.98535 -1.86648,1.4375 -3.53125,1.4375 -1.75025,0 -2.92743,-0.49859 -3.875,-1.53125 -0.92985,-1.12915 -1.52013,-2.59662 -1.71875,-4.53125 l 0,-0.0625 0,-0.0625 c -0.54408,-2.93492 -0.81251,-6.06049 -0.8125,-9.40625 -10e-6,-2.94931 0.0652,-5.48093 0.28125,-7.53125 0.20548,-1.95024 0.76832,-3.87509 1.65625,-5.8125 0.004,-0.009 -0.004,-0.02225 0,-0.03125 0.7694,-1.56274 1.94976,-2.21872 4.375,-2.21875 z m -81.4375,50.09375 -0.40625,1.0625 c -1.57432,4.26872 -3.03299,8.2647 -4.4375,11.96875 l -0.0312,0 c -1.34353,3.69088 -3.04629,8.19321 -5.125,13.46875 -2.02172,5.21736 -3.72389,9.41109 -5.0625,12.53125 l -8.4375,19.5625 -1,2.3125 2.53125,-0.21875 2.9375,-0.21875 5.46875,0.25 1.09375,0.0312 0.40625,-1.03125 c 1.90045,-5.11532 3.59747,-10.03357 5.15625,-14.8125 l 4.78125,-0.21875 c 0.0306,8.7e-4 0.0631,-8.8e-4 0.0937,0 1.93096,0.0557 3.9027,0.13191 5.90625,0.1875 1.67622,0.0466 3.28724,0.0595 4.90625,0.0625 l 2.96875,9.15625 1.75,5.5625 0.34375,1.09375 1.125,-0.0312 8.21875,-0.25 0.0625,0 8.03125,0.25 2.34375,0.0625 -0.90625,-2.1875 c -3.64814,-8.69026 -7.21123,-17.76684 -10.75,-27.25 -3.54228,-9.49226 -7.23843,-19.57612 -11.0625,-30.25 l -0.40625,-1.09375 -1.125,0.09375 -4.03125,0.25 -0.1875,0 -4.03125,-0.25 -1.125,-0.09375 z m 104.78125,0.0625 c -10.0016,6e-5 -18.26717,2.68759 -24.59375,8.0625 -6.37363,5.35547 -9.59375,13.1012 -9.59375,22.8125 0,9.84844 2.93757,17.60505 8.8125,22.875 5.89345,5.23319 13.90537,7.84375 23.84375,7.84375 10.22501,0 18.56949,-2.73177 24.6875,-8.25 6.19708,-5.59542 9.28119,-13.63542 9.28125,-23.71875 -6e-5,-9.37217 -3.091,-16.86505 -9.1875,-22 -5.99,-5.09498 -13.81199,-7.62494 -23.25,-7.625 z m -134.03125,0.9375 -0.25,1.375 c -0.26896,1.5582 -0.63576,3.11263 -1.125,4.6875 l -0.03125,0 0,0.03125 c -0.44138,1.54313 -0.9581,3.13455 -1.5625,4.78125 l 0,0.0312 L 76,127 66.625,102.1875 C 65.524501,99.32927 64.506821,96.06873 63.5625,92.40625 L 63.25,91.21875 62.03125,91.25 l -7.625,0.3125 c 0.0096,0 -0.06677,9e-5 -0.0625,0 0.05982,-0.001 -0.315613,-0.008 -0.875,-0.03125 -0.599296,-0.0248 -1.4748,-0.0689 -2.625,-0.125 -2.322059,-0.11307 -3.934644,-0.1562 -4.9375,-0.15625 l -2.21875,0 0.8125,2.09375 16.65625,42.53125 c 0.0058,0.0157 0.0255,0.0156 0.03125,0.0312 1.230715,3.35283 2.213037,6.05844 2.9375,8.0625 0.721019,1.99464 1.35221,3.9308 1.90625,5.8125 l 0.34375,1.09375 1.125,0 c 0.431635,0 0.9503,-0.0733 2.09375,-0.1875 l 0.03125,0 0.03125,0 c 1.165661,-0.16627 2.056194,-0.25 2.5625,-0.25 0.427584,0 1.019019,0.0487 1.71875,0.15625 l 0.03125,0 0.0625,0 c 0.712656,0.0548 1.596978,0.13937 2.59375,0.25 L 77.90625,151 78.25,149.71875 c 1.277475,-4.93823 2.831911,-9.56748 4.65625,-13.875 l 0,-0.0312 11.3125,-28.78125 0,-0.0312 c 1.95461,-4.51753 4.07599,-9.00707 6.3125,-13.53125 l 1.0625,-2.21875 -2.4375,0 c -0.64139,6e-5 -1.57401,0.0722 -2.84375,0.1875 -1.20556,0.10948 -2.10928,0.12505 -2.65625,0.125 l 0,0.03125 -4.375,-0.3125 -1.34375,-0.125 z m 63.28125,0.0625 0.15625,1.6875 c 0.44862,5.32178 0.70118,9.76112 0.8125,13.375 l 0,0.0312 c 0.16681,3.55498 0.25,8.49902 0.25,14.78125 0,6.00063 -0.0823,11.16901 -0.25,15.46875 l 0,0.0312 c -0.1115,4.28809 -0.36694,8.47664 -0.8125,12.59375 l -0.1875,1.6875 1.6875,0 c 0.59401,0 2.1656,-0.0435 4.875,-0.15625 l 0.0312,0 0,-0.0312 c 2.69136,-0.16795 4.88361,-0.25 6.5625,-0.25 0.96242,0 4.13386,0.11256 9.3125,0.28125 l 0.0312,0 c 5.24163,0.11261 9.42222,0.15625 12.53125,0.15625 l 1.625,0 -0.125,-1.625 -0.25,-3.6875 0,-0.0937 0,-0.0937 0.25,-3.78125 0.125,-1.8125 L 186.0625,140 c -5.4878,0.61481 -11.02228,0.89012 -16.5625,0.9375 -0.0854,-1.20034 -0.15626,-2.39141 -0.15625,-3.75 -2e-5,-1.96726 -2e-5,-3.90142 0,-5.8125 l 0,-19.5625 c -2e-5,-6.6462 0.25463,-12.91233 0.8125,-18.875 l 0.15625,-1.71875 -1.6875,0.03125 -8.09375,0.25 -0.0937,0 -7.5,-0.25 -1.71875,-0.03125 z m 70.0625,7.46875 c 5.25935,5e-5 8.80674,1.99775 11.28125,6.375 2.56403,4.53589 3.8437,9.72326 3.84375,15.625 -5e-5,6.13458 -1.30399,11.51004 -3.875,16.21875 -2.47576,4.48258 -6.07263,6.53126 -11.5,6.53125 -5.29703,1e-5 -8.83587,-2.03087 -11.3125,-6.4375 -0.007,-0.0121 -0.0247,-0.0192 -0.0312,-0.0312 -2.55437,-4.6403 -3.81252,-9.92533 -3.8125,-15.875 -2e-5,-6.19757 1.25646,-11.50963 3.8125,-16.03125 2.46752,-4.36502 6.09313,-6.37495 11.59375,-6.375 z M 118.5,113.25 c 0.79555,1.94201 1.70129,4.06023 2.28125,5.59375 0.7265,1.92118 1.4593,4.21538 2.1875,6.53125 l -4.5625,0.0937 -0.0625,0 -4.5,-0.0937 c 1.48594,-4.10076 3.03746,-8.12918 4.65625,-12.125 z"
           style="font-size:84.35607147px;font-style:normal;font-variant:normal;font-weight:bold;font-stretch:normal;text-align:center;line-height:125%;letter-spacing:0px;word-spacing:0px;text-anchor:middle;fill:url(#radialGradient39592);fill-opacity:1;stroke:#000000;stroke-width:2;stroke-opacity:1;font-family:MgOpen Cosmetica;-inkscape-font-specification:MgOpen Cosmetica Bold"
           inkscape:connector-curvature="0" />
      </g>
      <rect
         ry="21.2132"
         y="423.95224"
         x="636.59265"
         height="283.65457"
         width="516.98901"
         id="rect38308"
         style="fill:none;stroke:#000000;stroke-width:5.18241787;stroke-opacity:1;display:inline"
         transform="matrix(0.57918184,0,0,0.57857907,-350.1859,-99.789865)" />
    </g>
    <text
       sodipodi:linespacing="125%"
       id="text3392"
       y="447.28586"
       x="25.381094"
       style="font-size:55.02466965px;font-style:normal;font-variant:normal;font-weight:bold;font-stretch:normal;text-align:start;line-height:125%;letter-spacing:0px;word-spacing:0px;text-anchor:start;fill-opacity:1;display:inline;font-family:MgOpen Cosmetica;-inkscape-font-specification:MgOpen Cosmetica Bold"
       xml:space="preserve"><tspan
         style="text-align:start;text-anchor:start"
         y="447.28586"
         x="25.381094"
         sodipodi:role="line"
         id="tspan3846">Scratch</tspan></text>
    <g
       inkscape:label="Layer 1"
       id="layer1-1"
       transform="matrix(1.5048112,0,0,1.5048112,-545.32869,-1750.7841)" />
    <g
       id="layer2-4"
       inkscape:label="Layer"
       style="display:inline"
       transform="matrix(1.5048112,0,0,1.5048112,-545.32869,-919.58335)" />
    <flowRoot
       xml:space="preserve"
       id="flowRoot2499"
       style="font-size:12px;font-style:normal;font-weight:normal;fill:#000000;fill-opacity:1;stroke:none;font-family:Bitstream Vera Sans"
       transform="matrix(0.10955145,0,0,0.10955145,441.87713,158.29436)"><flowRegion
         id="flowRegion2501"><rect
           id="rect2503"
           width="459.375"
           height="68.75"
           x="37.5"
           y="318.125" /></flowRegion><flowPara
         id="flowPara2505" /></flowRoot>    <g
       id="g6251"
       transform="translate(23.281014,143.99161)">
      <use
         x="0"
         y="0"
         xlink:href="#text11685"
         id="use40118-1"
         transform="translate(-207.32912,-136.86631)"
         width="308.84375"
         height="170.65625"
         style="fill:#000000;stroke:#000000;stroke-width:4" />
      <use
         style="fill:#000000;stroke:#000000;stroke-width:3;filter:url(#filter40130)"
         height="170.65625"
         width="308.84375"
         transform="translate(-205.32912,-134.86631)"
         id="use40120-1"
         xlink:href="#text11685"
         y="0"
         x="0" />
      <use
         style="fill:url(#linearGradient6097-7);fill-opacity:1;stroke:#ffffff"
         height="170.65625"
         width="308.84375"
         transform="translate(-207.32912,-136.86631)"
         id="use40116-5"
         xlink:href="#text11685"
         y="0"
         x="0" />
    </g>
    <text
       xml:space="preserve"
       style="font-size:17.81859207px;font-style:normal;font-variant:normal;font-weight:bold;font-stretch:normal;fill:#eef4d7;fill-opacity:1;stroke:none;font-family:Ouhod;-inkscape-font-specification:Ouhod Bold"
       x="324.01773"
       y="193.16827"
       id="text3416"><tspan
         sodipodi:role="line"
         id="tspan3418"
         x="324.01773"
         y="193.16827" /></text>
    <path
       inkscape:transform-center-y="-1.4955988"
       inkscape:transform-center-x="-2.9748115"
       transform="translate(17.05128,138.29195)"
       d="M 5.9951896,18.208468 67.82561,59.786947 110.65091,-1.0829316 69.072431,60.747489 129.94231,103.57279 68.11189,61.99431 25.28659,122.86419 66.865069,61.033769 z"
       inkscape:randomized="0"
       inkscape:rounded="0"
       inkscape:flatsided="false"
       sodipodi:arg2="-1.6997697"
       sodipodi:arg1="-2.5384803"
       sodipodi:r2="1.1129248"
       sodipodi:r1="75.249512"
       sodipodi:cy="60.890629"
       sodipodi:cx="67.96875"
       sodipodi:sides="4"
       id="path13568"
       style="opacity:0.4;fill:#ffffff;fill-opacity:1;stroke:none;filter:url(#filter6087)"
       sodipodi:type="star" />
    <text
       sodipodi:linespacing="125%"
       id="text11685"
       y="186.8148"
       x="383.99756"
       style="font-size:48px;font-style:normal;font-variant:normal;font-weight:bold;font-stretch:normal;text-align:start;line-height:125%;letter-spacing:0px;word-spacing:0px;text-anchor:start;fill-opacity:1;display:inline;font-family:MgOpen Cosmetica;-inkscape-font-specification:MgOpen Cosmetica Bold"
       xml:space="preserve"><tspan
         y="186.8148"
         x="383.99756"
         sodipodi:role="line"
         id="tspan3834">#182</tspan></text>
    <g
       transform="matrix(0.30103004,0,0,0.410517,216.64096,250.97265)"
       style="font-size:40px;font-style:normal;font-variant:normal;font-weight:bold;font-stretch:normal;fill:#013397;fill-opacity:1;stroke:none;font-family:Arial Rounded MT Bold;-inkscape-font-specification:'Arial Rounded MT Bold, Bold'"
       id="text5236" />
    <g
       transform="matrix(0.97830086,0,0,0.84349229,4.9314758,18.849775)"
       id="g5376">
      <use
         style="fill:#000000;stroke:#000000;stroke-width:4"
         height="170.65625"
         width="308.84375"
         transform="translate(0,-120)"
         id="use39596"
         xlink:href="#text3392"
         y="0"
         x="0" />
      <use
         x="0"
         y="0"
         xlink:href="#text3392"
         id="use39598"
         transform="translate(2,-118)"
         width="308.84375"
         height="170.65625"
         style="fill:#000000;stroke:#000000;stroke-width:3;filter:url(#filter40112)" />
      <use
         x="0"
         y="0"
         xlink:href="#text3392"
         id="use39594"
         transform="translate(0,-120)"
         width="308.84375"
         height="170.65625"
         style="fill:url(#linearGradient4330);fill-opacity:1;stroke:#ffffff" />
    </g>
    <path
       sodipodi:type="arc"
       style="fill:#800080;fill-opacity:1;fill-rule:nonzero;stroke:none"
       id="path2453"
       sodipodi:cx="-471.85995"
       sodipodi:cy="-345.79184"
       sodipodi:rx="0"
       sodipodi:ry="22.546209"
       transform="matrix(0.37036554,0,0,0.37036554,632.41344,318.38031)" />
    <g
       id="layer1-5"
       transform="matrix(0.17056212,0,0,0.17056212,200.47061,158.12572)">
      <path
         style="fill:#ffffff;fill-opacity:1;fill-rule:nonzero;stroke:none"
         id="path3921"
         d="m 135.99928,423.41695 c 0.1325,0.02 13.105,3.2875 36.0575,14.45625 20.665,10.04375 33.98625,20.68625 34.12,20.79125 l 3.03875,-3.80125 c -0.54625,-0.44625 -13.85625,-11.0575 -35.02625,-21.3775 -23.4675,-11.4175 -36.475,-14.675 -37.01125,-14.8 l -1.17875,4.73125"
         inkscape:connector-curvature="0" />
      <path
         style="fill:#ffffff;fill-opacity:1;fill-rule:nonzero;stroke:none"
         id="path3925"
         d="m 139.14553,481.25945 c 0.97875,0.11375 23.9625,3.02375 34.805,2.81875 l 32.04,-2.26 -0.45375,-4.85125 -31.68375,2.245 c -10.48625,0.21125 -33.85375,-2.75875 -34.06375,-2.78375 l -0.64375,4.83125"
         inkscape:connector-curvature="0" />
      <path
         style="fill:#ffffff;fill-opacity:1;fill-rule:nonzero;stroke:none"
         id="path3929"
         d="m 589.75678,452.17695 c -13.175,4.0725 -39.2825,7.37 -39.54125,7.4 l 0.61875,4.82625 c 1.0675,-0.13625 26.76125,-3.38875 40.3675,-7.59375 16.09625,-4.98125 27.09625,-13.8225 27.55375,-14.1975 l -3.0575,-3.77625 c -0.12,0.085 -10.775,8.6525 -25.94125,13.34125"
         inkscape:connector-curvature="0" />
      <path
         style="fill:#ffffff;fill-opacity:1;fill-rule:nonzero;stroke:none"
         id="path3933"
         d="m 550.93303,498.6732 c 0.64875,0.275 16.01,7.11625 32.325,9.3625 16.0175,2.15 26.80625,1.62625 27.275,1.59 l -0.25875,-4.85375 c -0.115,0 -10.85,0.5325 -26.36875,-1.56625 -15.5975,-2.1475 -30.815,-8.90875 -30.975,-8.9725 l -1.9975,4.44"
         inkscape:connector-curvature="0" />
      <path
         style="fill:#ffffff;fill-opacity:1;fill-rule:nonzero;stroke:none"
         id="path3937"
         d="m 582.21053,475.4907 c -3.93375,-21.825 -20.24875,-36.07625 -33.26375,-44.17 -5.11875,-3.23875 -9.81,-5.57875 -13.3025,-7.16125 -0.89375,-9.96 -4.325,-31.40125 -17.8675,-56.36 -9.6075,-17.78625 -37.92,-41.8475 -46.275,-48.78375 -1.105,-5.27125 -16.435,-78.54125 -16.435,-78.54125 0,0 -0.54875,0.49375 -0.59125,0.51875 -0.0163,-0.1375 -0.22625,-1.06 -0.22625,-1.06 0,0 -50.6675,45.5875 -53.7025,48.2775 -3.35125,0.7525 -20.4175,4.595 -22.5925,5.09125 -9.58,-1.08 -18.3625,-1.5875 -26.735,-1.49625 -22.325,0.26625 -43.8925,5.18125 -52.48625,7.3825 -5.83125,-4.06875 -68.97125,-47.98875 -68.97125,-47.98875 0.0575,0.0875 -0.7225,-0.4375 -0.7225,-0.4375 l -14.56375,-10.305 c 0,0 9.635,118.11875 10.14125,124.21875 -8.87375,11.56625 -36.7625,51.445 -36.7625,96.53375 0,16.1075 3.59875,32.92875 12.94875,49.28 12.4025,21.76625 29.6975,40.15375 51.40875,54.785 -11.94625,3.69375 -22.0425,12.015 -32.54625,20.74125 l -10.735,8.66375 c -2.50625,1.95875 -5.4275,3.73625 -8.44625,5.62875 -9.42125,5.82375 -21.85375,13.52625 -21.85375,29.325 0,2.635 0.35,5.475 1.0975,8.5775 0.90375,3.7075 2.94875,11.2425 6.3875,20.1475 -9.00625,-3.57625 -16.89375,-8.58125 -23.52,-15.00375 -11.3625,-11.00125 -19.6425,-24.88875 -26.9075,-37.1825 -5.91125,-10.015 -11.04875,-18.64375 -17.055,-24.53125 -10.3875,-10.145 -20.45,-8.35375 -27.05375,-5.085 -11.70375,5.795 -18.90625,21.82625 -18.90625,41.53125 0,1.40625 0.05,2.82375 0.1225,4.27 1.47625,28.7225 19.03375,65.39375 63.8075,82.08125 11.35,4.26 22.2375,6.68 32.56875,8.1725 -5.14875,1.75125 -9.67,3.11375 -12.57125,3.93625 -6.40375,-3.2975 -20.04375,-8.0725 -34.91,0.85375 -12.70875,7.635 -13.98375,25.7925 -3.5925,49.845 12.5525,29.03 43.6775,68.45375 70.5025,60.85 12.2025,-3.41375 20.06125,-9.7 23.3825,-18.62625 1.1925,-3.15875 1.68875,-6.4175 1.68875,-9.67 0,-11.09375 -5.825,-22.235 -10.9625,-30.5275 36.935,-10.73 73.27875,-31.7225 86.64,-39.92125 9.27625,9.05625 18.4025,18.2175 27.03,27.375 26.8525,28.58125 66.30125,62.89875 67.97125,64.33875 l 1.8175,1.5925 2.37375,0.355 c 1.6175,0.215 39.36,5.9525 71.51625,7.23 34.04125,1.35125 48.28125,-2.4 50.88625,-13.5175 3.145,-13.2875 1.2275,-24.62875 -5.615,-33.63375 -9.68375,-12.7075 -28.53625,-19.71375 -56.11,-20.81125 -11.75,-0.46875 -22.0525,0.30375 -27.42375,0.81375 -15.88875,-14.60125 -28.19375,-26.01375 -34.755,-32.19 -7.49,-7.08125 -19.375,-19.23125 -35.31375,-36.05625 5.66,-5.29125 11.7025,-12.51 19.22125,-22.92375 1.5075,-2.0775 3.12375,-4.575 4.795,-7.395 3.61875,2.69875 9.40875,7.665 17.85875,16.775 10.515,11.28125 21.2475,16.64125 32.90125,16.4225 9.7525,-0.165 18.635,-4.2025 27.27625,-8.10875 l 0.73875,-0.37 c 10.84,-4.95 46.2675,-22.78125 50.2775,-45.6125 1.02,-5.8925 0.43,-14.705 -8.29625,-23.2925 -6.77,-6.58125 -13.52875,-10.10375 -20.66875,-10.7475 -11.35125,-1.02375 -20.6675,5.6425 -28.89625,11.54125 -5.28875,3.83625 -10.31125,7.42 -15.51875,9.10125 -1.62625,0.5 -3.16375,0.76375 -4.58,0.76375 -6.57875,0 -11.34875,-5.98375 -17.89375,-15.11 -2.4,-3.2775 -4.825,-6.735 -7.515,-9.605 -1.4075,-1.50625 -2.855,-2.90875 -4.2425,-4.27625 15.46125,-0.47 31.16875,-1.94625 46.95625,-4.44625 72.03375,-11.65625 106.2775,-41.10625 122.34125,-63.72125 10.855,-15.30375 16.63875,-32.25375 16.63875,-47.92125 0,-3.53875 -0.28125,-7.0325 -0.91,-10.43"
         inkscape:connector-curvature="0" />
      <path
         style="fill:#221e1f;fill-opacity:1;fill-rule:nonzero;stroke:none"
         id="path3941"
         d="m 582.21053,475.4907 c -3.93375,-21.825 -20.24875,-36.07625 -33.26375,-44.17 -5.11875,-3.23875 -9.81,-5.57875 -13.3025,-7.16125 -0.89375,-9.96 -4.325,-31.40125 -17.8675,-56.36 -9.6075,-17.78625 -37.92,-41.8475 -46.275,-48.78375 -1.105,-5.27125 -16.435,-78.54125 -16.435,-78.54125 0,0 -0.54875,0.49375 -0.59125,0.51875 -0.0163,-0.1375 -0.22625,-1.06 -0.22625,-1.06 0,0 -50.6675,45.5875 -53.7025,48.2775 -3.35125,0.7525 -20.4175,4.595 -22.5925,5.09125 -9.58,-1.08 -18.3625,-1.5875 -26.735,-1.49625 -22.325,0.26625 -43.8925,5.18125 -52.48625,7.3825 -5.83125,-4.06875 -68.97125,-47.98875 -68.97125,-47.98875 0.0575,0.0875 -0.7225,-0.4375 -0.7225,-0.4375 l -14.56375,-10.305 c 0,0 9.635,118.11875 10.14125,124.21875 -8.87375,11.56625 -36.7625,51.445 -36.7625,96.53375 0,16.1075 3.59875,32.92875 12.94875,49.28 12.4025,21.76625 29.6975,40.15375 51.40875,54.785 -11.94625,3.69375 -22.0425,12.015 -32.54625,20.74125 l -10.735,8.66375 c -2.50625,1.95875 -5.4275,3.73625 -8.44625,5.62875 -9.42125,5.82375 -21.85375,13.52625 -21.85375,29.325 0,2.635 0.35,5.475 1.0975,8.5775 0.90375,3.7075 2.94875,11.2425 6.3875,20.1475 -9.00625,-3.57625 -16.89375,-8.58125 -23.52,-15.00375 -11.3625,-11.00125 -19.6425,-24.88875 -26.9075,-37.1825 -5.91125,-10.015 -11.04875,-18.64375 -17.055,-24.53125 -10.3875,-10.145 -20.45,-8.35375 -27.05375,-5.085 -11.70375,5.795 -18.90625,21.82625 -18.90625,41.53125 0,1.40625 0.05,2.82375 0.1225,4.27 1.47625,28.7225 19.03375,65.39375 63.8075,82.08125 11.35,4.26 22.2375,6.68 32.56875,8.1725 -5.14875,1.75125 -9.67,3.11375 -12.57125,3.93625 -6.40375,-3.2975 -20.04375,-8.0725 -34.91,0.85375 -12.70875,7.635 -13.98375,25.7925 -3.5925,49.845 12.5525,29.03 43.6775,68.45375 70.5025,60.85 12.2025,-3.41375 20.06125,-9.7 23.3825,-18.62625 1.1925,-3.15875 1.68875,-6.4175 1.68875,-9.67 0,-11.09375 -5.825,-22.235 -10.9625,-30.5275 36.935,-10.73 73.27875,-31.7225 86.64,-39.92125 9.27625,9.05625 18.4025,18.2175 27.03,27.375 26.8525,28.58125 66.30125,62.89875 67.97125,64.33875 l 1.8175,1.5925 2.37375,0.355 c 1.6175,0.215 39.36,5.9525 71.51625,7.23 34.04125,1.35125 48.28125,-2.4 50.88625,-13.5175 3.145,-13.2875 1.2275,-24.62875 -5.615,-33.63375 -9.68375,-12.7075 -28.53625,-19.71375 -56.11,-20.81125 -11.75,-0.46875 -22.0525,0.30375 -27.42375,0.81375 -15.88875,-14.60125 -28.19375,-26.01375 -34.755,-32.19 -7.49,-7.08125 -19.375,-19.23125 -35.31375,-36.05625 5.66,-5.29125 11.7025,-12.51 19.22125,-22.92375 1.5075,-2.0775 3.12375,-4.575 4.795,-7.395 3.61875,2.69875 9.40875,7.665 17.85875,16.775 10.515,11.28125 21.2475,16.64125 32.90125,16.4225 9.7525,-0.165 18.635,-4.2025 27.27625,-8.10875 l 0.73875,-0.37 c 10.84,-4.95 46.2675,-22.78125 50.2775,-45.6125 1.02,-5.8925 0.43,-14.705 -8.29625,-23.2925 -6.77,-6.58125 -13.52875,-10.10375 -20.66875,-10.7475 -11.35125,-1.02375 -20.6675,5.6425 -28.89625,11.54125 -5.28875,3.83625 -10.31125,7.42 -15.51875,9.10125 -1.62625,0.5 -3.16375,0.76375 -4.58,0.76375 -6.57875,0 -11.34875,-5.98375 -17.89375,-15.11 -2.4,-3.2775 -4.825,-6.735 -7.515,-9.605 -1.4075,-1.50625 -2.855,-2.90875 -4.2425,-4.27625 15.46125,-0.47 31.16875,-1.94625 46.95625,-4.44625 72.03375,-11.65625 106.2775,-41.10625 122.34125,-63.72125 10.855,-15.30375 16.63875,-32.25375 16.63875,-47.92125 0,-3.53875 -0.28125,-7.0325 -0.91,-10.43"
         inkscape:connector-curvature="0" />
      <path
         style="fill:#f8a31f;fill-opacity:1;fill-rule:nonzero;stroke:none"
         id="path3945"
         d="m 442.83678,589.28945 c 109.065,-17.5675 137.12875,-79.07375 131.18,-112.30625 -5.9975,-33.2225 -46.43,-46.935 -46.43,-46.935 0,0 0.41875,-25.87375 -17.14,-58.2575 -10.42125,-19.25875 -46.52125,-48.16625 -46.52125,-48.16625 l -14.09125,-67.31125 -44.495,40.065 -24.98875,5.61875 c -8.8525,-1.15125 -18.8325,-1.97625 -29.0525,-1.85875 -27.34375,0.32625 -54.1425,8.0875 -54.1425,8.0875 l -72.16875,-50.18 8.94,109.69375 c 3.93375,-4.43875 -63.59,71.725 -25.115,139.1225 18.02375,31.64625 46.74375,55.4925 83.25125,70.1925 l -2.6875,2.26125 c -2.0125,-1.5225 -4.4925,-2.935 -7.69125,-4.1975 -28.72125,-11.46625 -43.68625,7.68 -67.5475,26.13875 -12.88,9.94375 -31.2,14.48 -26.2575,34.95625 1.97625,8.03 6.28,21.7325 13.21625,34.4675 l -0.73125,0.41875 c -13.85,-2.69 -30.05625,-8.7025 -43.59125,-21.73625 -30.44375,-29.465 -38.82625,-76.58875 -61.5,-65.3575 -22.7125,11.26375 -25.015,86.81875 44.25,112.58625 23.81875,8.92875 45.86625,9.74625 63.74,9.91625 l -0.03,-0.575 14.84125,-6.94125 c -3.875,2.385 -9.69625,5.7 -17.895,9.72 l -20.28875,7.76125 -0.63375,1.43625 c -12.0975,4.51 -23.81875,7.66 -23.81875,7.66 0,0 -13.915,-10.34875 -29.43625,-1.01875 -25.42375,15.27875 29.18125,104.32875 60.3125,95.52125 37.735,-10.6525 8.5775,-46.73375 3.18875,-55.96 48.14,-10.96875 100.60875,-45.04 100.60875,-45.04 l -0.815,0.315 1.215,-0.61 c 9.34625,8.95125 20.345,19.855 32.04125,32.26125 26.88875,28.54125 67.31125,63.725 67.31125,63.725 0,0 109.105,16.60125 112.98875,0.035 13.14125,-56.1125 -83.9075,-42.96625 -83.9075,-42.96625 0,0 -25.77625,-23.6525 -37.61875,-34.87625 -10.5375,-9.97875 -27.8475,-28.06875 -41.5475,-42.61375 l 1.085,-1.27625 c 6.8925,-5.045 14.09625,-13.27375 23.3275,-26.02125 3.04375,-4.20375 6.2625,-9.86625 9.0025,-15.26625 l -0.0113,1.6125 c 0,0 7.0725,1.2325 26.59625,22.225 19.515,20.97625 34.39125,13.74125 51.33125,6.0375 16.8925,-7.74375 62.11,-33.17375 39.51,-55.32875 -22.6175,-22.155 -36.1025,5.30125 -56.6,11.8575 -20.5175,6.53 -28.68125,-15.425 -38.71125,-26.19125 -8.5425,-9.25375 -17.605,-15.01125 -20.03,-16.4925 l 0.24,-1.79125 c 21.2075,0.7275 43.71125,-0.585 67.3175,-4.4175"
         inkscape:connector-curvature="0" />
      <path
         style="fill:#ffffff;fill-opacity:1;fill-rule:nonzero;stroke:none"
         id="path3949"
         d="m 97.641783,584.30945 c -13.87125,2.56 -20.15625,28.6875 -15.00125,49.48125 5.10625,20.7575 11.4675,34.71375 21.486247,42.4225 9.995,7.70125 -1.8175,-17.68375 10.7975,-27.54875 12.595,-9.85 34,-4.17625 34,-4.17625 0,0 -16.3,-24.10625 -25.56125,-38.65625 -9.29875,-14.55625 -12.4,-23.9925 -25.721247,-21.5225"
         inkscape:connector-curvature="0" />
      <path
         style="fill:#ffffff;fill-opacity:1;fill-rule:nonzero;stroke:none"
         id="path3953"
         d="m 368.66428,659.5232 c 0,0 14.81,-14.84625 -13.15375,-31.2075 -27.98125,-16.41125 -41.6575,-1.63125 -50.7725,6.9475 -15.85875,14.75375 17.135,42.35375 17.135,42.35375 l 18.40625,14.99375 c 0,0 11.00375,-8.4675 15.67,-15.9575 4.67125,-7.535 12.715,-17.13 12.715,-17.13"
         inkscape:connector-curvature="0" />
      <path
         style="fill:#ffffff;fill-opacity:1;fill-rule:nonzero;stroke:none"
         id="path3957"
         d="m 319.44053,456.5132 c 0,0 -48.89625,3.59375 -51.7125,33.26875 -7.05375,74.45 115.965,104.15875 115.965,104.15875 0,0 58.06125,4.30125 111.66875,-21.2375 53.67625,-25.4975 85.0325,-57.4625 77.88125,-94.99125 -7.19125,-37.52 -52.96875,-46.88625 -52.96875,-46.88625 l -11.55625,-14.67375 -53.2,13.4375 c 0,0 -0.69875,19.765 -26.12875,24.32375 -25.4425,4.5725 -64.26875,-15.49625 -64.26875,-15.49625 l -45.68,18.09625"
         inkscape:connector-curvature="0" />
      <path
         style="fill:none;stroke:#42291b;stroke-width:1.25;stroke-linecap:butt;stroke-linejoin:miter;stroke-miterlimit:4;stroke-opacity:1;stroke-dasharray:none"
         id="path3961"
         d="m 404.54428,295.86445 44.55625,-40.06125 14.075,67.32 c 0,0 36.10625,28.8775 46.52625,48.16375 17.57,32.37 17.12375,58.2775 17.12375,58.2775 0,0 40.45625,13.65125 46.43375,46.925 5.95625,33.24125 -22.11625,94.7175 -131.215,112.31625 -109.04625,17.585 -195.51375,-14.98875 -233.99125,-82.4275 -38.48125,-67.40875 29.03625,-143.5475 25.1325,-139.1575 l -8.9675,-109.63 84.86125,59.8425"
         inkscape:connector-curvature="0" />
      <path
         style="fill:none;stroke:#42291b;stroke-width:1.25;stroke-linecap:butt;stroke-linejoin:miter;stroke-miterlimit:4;stroke-opacity:1;stroke-dasharray:none"
         id="path3965"
         d="m 411.29803,307.5932 c 0,0 -29.48125,-8.29125 -60.76875,-7.9475 -27.32875,0.2925 -54.1425,8.0925 -54.1425,8.0925"
         inkscape:connector-curvature="0" />
      <path
         style="fill:#ffffff;fill-opacity:1;fill-rule:nonzero;stroke:none"
         id="path3969"
         d="m 357.90053,385.34945 c 15.94375,26.46 13.0725,57.49375 -6.44375,69.23875 -19.49625,11.76125 -48.25375,-0.18 -64.20625,-26.66625 -16.0025,-26.48625 -13.09625,-57.4775 6.405,-69.235 19.53,-11.76375 48.29625,0.16625 64.245,26.6625"
         inkscape:connector-curvature="0" />
      <path
         style="fill:none;stroke:#42291b;stroke-width:5.05000019;stroke-linecap:butt;stroke-linejoin:miter;stroke-miterlimit:4;stroke-opacity:1;stroke-dasharray:none"
         id="path3973"
         d="m 357.90053,385.34945 c 15.94375,26.46 13.0725,57.49375 -6.44375,69.23875 -19.49625,11.76125 -48.25375,-0.18 -64.20625,-26.66625 -16.0025,-26.48625 -13.09625,-57.4775 6.405,-69.235 19.53,-11.76375 48.29625,0.16625 64.245,26.6625 z"
         inkscape:connector-curvature="0" />
      <path
         style="fill:#ffffff;fill-opacity:1;fill-rule:nonzero;stroke:none"
         id="path3977"
         d="m 497.00803,371.57195 c 15.9625,26.45125 15.505,56.01625 -0.97875,65.95625 -16.52125,9.965 -42.78875,-3.46875 -58.765,-29.94 -15.98875,-26.48625 -15.57,-56.01 0.9775,-65.97875 16.4875,-9.92 42.82375,3.4675 58.76625,29.9625"
         inkscape:connector-curvature="0" />
      <path
         style="fill:none;stroke:#42291b;stroke-width:5.05000019;stroke-linecap:butt;stroke-linejoin:miter;stroke-miterlimit:4;stroke-opacity:1;stroke-dasharray:none"
         id="path3981"
         d="m 497.00803,371.57195 c 15.9625,26.45125 15.505,56.01625 -0.97875,65.95625 -16.52125,9.965 -42.78875,-3.46875 -58.765,-29.94 -15.98875,-26.48625 -15.57,-56.01 0.9775,-65.97875 16.4875,-9.92 42.82375,3.4675 58.76625,29.9625 z"
         inkscape:connector-curvature="0" />
      <path
         style="fill:#221e1f;fill-opacity:1;fill-rule:nonzero;stroke:none"
         id="path3985"
         d="m 340.79803,422.68695 c -0.1325,4.84625 -3.87125,8.58875 -8.30125,8.41875 -4.42875,-0.145 -7.86,-4.19625 -7.65875,-8.9975 0.1675,-4.78 3.89125,-8.5325 8.2975,-8.3575 4.42,0.135 7.82375,4.1625 7.6625,8.93625"
         inkscape:connector-curvature="0" />
      <path
         style="fill:#221e1f;fill-opacity:1;fill-rule:nonzero;stroke:none"
         id="path3989"
         d="m 487.58178,409.19445 c -0.19,4.79625 -3.8825,8.5875 -8.31625,8.42375 -4.38375,-0.17625 -7.87125,-4.1825 -7.69,-8.9725 0.19,-4.82 3.93,-8.58125 8.3425,-8.4125 4.43,0.14375 7.8425,4.17125 7.66375,8.96125"
         inkscape:connector-curvature="0" />
      <path
         style="fill:#604b44;fill-opacity:1;fill-rule:nonzero;stroke:none"
         id="path3993"
         d="m 424.64928,441.56945 c 10.7375,0.40375 26.4275,-0.66875 27.035,4.26125 0.64,4.975 -10.75,23.91625 -18.1725,24.49125 -7.425,0.5375 -34.87875,-14.865 -34.94875,-23.9225 -0.085,-9.05625 16.23625,-5.17375 26.08625,-4.83"
         inkscape:connector-curvature="0" />
      <path
         style="fill:none;stroke:#42291b;stroke-width:0.98500001;stroke-linecap:butt;stroke-linejoin:miter;stroke-miterlimit:4;stroke-opacity:1;stroke-dasharray:none"
         id="path3997"
         d="m 424.64928,441.56945 c 10.7375,0.40375 26.4275,-0.66875 27.035,4.26125 0.64,4.975 -10.75,23.91625 -18.1725,24.49125 -7.425,0.5375 -34.87875,-14.865 -34.94875,-23.9225 -0.085,-9.05625 16.23625,-5.17375 26.08625,-4.83 z"
         inkscape:connector-curvature="0" />
      <path
         style="fill:none;stroke:#42291b;stroke-width:5.05000019;stroke-linecap:butt;stroke-linejoin:miter;stroke-miterlimit:4;stroke-opacity:1;stroke-dasharray:none"
         id="path4001"
         d="m 207.69178,456.77445 c 0,0 -13.395,-10.79375 -34.5675,-21.10375 -23.525,-11.42625 -36.52125,-14.63375 -36.52125,-14.63375"
         inkscape:connector-curvature="0" />
      <path
         style="fill:none;stroke:#42291b;stroke-width:5.05000019;stroke-linecap:butt;stroke-linejoin:miter;stroke-miterlimit:4;stroke-opacity:1;stroke-dasharray:none"
         id="path4005"
         d="m 139.44803,478.84445 c 0,0 23.66,3.01375 34.4525,2.81 10.795,-0.22625 31.87125,-2.265 31.87125,-2.265"
         inkscape:connector-curvature="0" />
      <path
         style="fill:none;stroke:#42291b;stroke-width:5.05000019;stroke-linecap:butt;stroke-linejoin:miter;stroke-miterlimit:4;stroke-opacity:1;stroke-dasharray:none"
         id="path4009"
         d="m 243.38928,640.30695 c 0,0 15.99875,-11.38375 30.38125,-21.25625 14.42625,-9.895 36.56125,-32.53 7.83,-43.9775 -28.7225,-11.42125 -43.68,7.725 -67.51625,26.18375 -12.86625,9.94375 -31.26,14.48 -26.28375,34.95625 5.04375,20.48 25.28375,78.42875 65.97375,61.1775 40.68875,-17.245 -8.46625,-53.3425 -15.35,-65.0375"
         inkscape:connector-curvature="0" />
      <path
         style="fill:none;stroke:#42291b;stroke-width:0.98500001;stroke-linecap:butt;stroke-linejoin:miter;stroke-miterlimit:4;stroke-opacity:1;stroke-dasharray:none"
         id="path4013"
         d="m 374.55678,595.11445 c 0,0 10.7175,6.10125 20.6875,16.85375 10.0325,10.78875 18.1975,32.74375 38.70625,26.21375 20.525,-6.55625 33.97125,-34.0125 56.615,-11.8575 22.59625,22.155 -22.64375,47.585 -39.54875,55.32875 -16.93625,7.70375 -31.74625,14.93875 -51.2775,-6.0375 -19.54875,-20.9925 -26.63375,-22.225 -26.63375,-22.225"
         inkscape:connector-curvature="0" />
      <path
         style="fill:none;stroke:#42291b;stroke-width:1.25;stroke-linecap:butt;stroke-linejoin:miter;stroke-miterlimit:4;stroke-opacity:1;stroke-dasharray:none"
         id="path4017"
         d="m 380.87803,635.39695 c 0,0 -8.87125,20.7725 -16.74,31.6475 -9.4425,12.9925 -16.75125,21.35 -23.805,26.38"
         inkscape:connector-curvature="0" />
      <path
         style="fill:none;stroke:#42291b;stroke-width:1.25;stroke-linecap:butt;stroke-linejoin:miter;stroke-miterlimit:4;stroke-opacity:1;stroke-dasharray:none"
         id="path4021"
         d="m 319.25053,672.40695 c 0,0 42.5575,46.19625 61.9775,64.54875 11.88625,11.2125 37.62375,34.87625 37.62375,34.87625 0,0 97.03375,-13.14625 83.905,42.96625 -3.8775,16.56625 -112.93625,-0.035 -112.93625,-0.035 0,0 -40.4675,-35.18375 -67.32875,-63.725 -32.66875,-34.72125 -60.17125,-57.9125 -60.17125,-57.9125"
         inkscape:connector-curvature="0" />
      <path
         style="fill:none;stroke:#42291b;stroke-width:0.98500001;stroke-linecap:butt;stroke-linejoin:miter;stroke-miterlimit:4;stroke-opacity:1;stroke-dasharray:none"
         id="path4025"
         d="m 188.61553,762.20945 c -0.1625,3.7975 39.04,46.14625 -2.33875,57.8625 -31.19625,8.8075 -85.74,-80.2425 -60.36625,-95.52125 15.56625,-9.33 29.46,1.01875 29.46,1.01875 0,0 20.29375,-5.49375 35.16625,-12.295 25.28875,-11.6075 34.1025,-18.7125 34.1025,-18.7125"
         inkscape:connector-curvature="0" />
      <path
         style="fill:none;stroke:#42291b;stroke-width:0.98500001;stroke-linecap:butt;stroke-linejoin:miter;stroke-miterlimit:4;stroke-opacity:1;stroke-dasharray:none"
         id="path4029"
         d="m 290.04303,719.07195 c 0,0 -59.93375,38.875 -110.41875,46.96"
         inkscape:connector-curvature="0" />
      <path
         style="fill:none;stroke:#42291b;stroke-width:0.98500001;stroke-linecap:butt;stroke-linejoin:miter;stroke-miterlimit:4;stroke-opacity:1;stroke-dasharray:none"
         id="path4033"
         d="m 200.70553,671.20945 c -13.95125,-2.65375 -30.36875,-8.70125 -44.0025,-21.84625 -30.46625,-29.505 -38.805,-76.58875 -61.51875,-65.3575 -22.71375,11.26375 -24.97875,86.81875 44.24625,112.58625 23.83875,8.92875 45.87625,9.74625 63.7625,9.91625"
         inkscape:connector-curvature="0" />
      <path
         style="fill:none;stroke:#42291b;stroke-width:5.05000019;stroke-linecap:butt;stroke-linejoin:miter;stroke-miterlimit:4;stroke-opacity:1;stroke-dasharray:none"
         id="path4037"
         d="m 550.51553,461.9882 c 0,0 26.42625,-3.30875 39.96875,-7.49625 15.83625,-4.90875 26.73875,-13.76125 26.73875,-13.76125"
         inkscape:connector-curvature="0" />
      <path
         style="fill:none;stroke:#42291b;stroke-width:5.05000019;stroke-linecap:butt;stroke-linejoin:miter;stroke-miterlimit:4;stroke-opacity:1;stroke-dasharray:none"
         id="path4041"
         d="m 551.94053,496.4432 c 0,0 15.49,6.95125 31.64625,9.17625 15.96875,2.15125 26.82625,1.59125 26.82625,1.59125"
         inkscape:connector-curvature="0" />
      <path
         style="fill:none;stroke:#42291b;stroke-width:5.05000019;stroke-linecap:butt;stroke-linejoin:miter;stroke-miterlimit:4;stroke-opacity:1;stroke-dasharray:none"
         id="path4045"
         d="m 348.12053,481.07445 c 0,0 59.115,19.8 81.31375,25.4825 22.145,5.63375 62.27625,11.98125 62.27625,11.98125 0,0 -48.25875,57.50375 -101.64,40.52375 -53.3825,-16.97125 -51.1825,-50.8975 -41.95,-77.9875 z"
         inkscape:connector-curvature="0" />
      <path
         style="fill:#42291b;fill-opacity:1;fill-rule:nonzero;stroke:none"
         id="path4049"
         d="m 561.91178,560.7682 c 0.01,0 0.01,0 0.01,0 0,0 0,0 -0.01,0"
         inkscape:connector-curvature="0" />
    </g>
  </g>
</svg>
