<?xml version="1.0" encoding="UTF-8" standalone="no"?>
<!-- Created with Inkscape (http://www.inkscape.org/) -->

<svg
   xmlns:osb="http://www.openswatchbook.org/uri/2009/osb"
   xmlns:dc="http://purl.org/dc/elements/1.1/"
   xmlns:cc="http://creativecommons.org/ns#"
   xmlns:rdf="http://www.w3.org/1999/02/22-rdf-syntax-ns#"
   xmlns:svg="http://www.w3.org/2000/svg"
   xmlns="http://www.w3.org/2000/svg"
   xmlns:xlink="http://www.w3.org/1999/xlink"
   xmlns:sodipodi="http://sodipodi.sourceforge.net/DTD/sodipodi-0.dtd"
   xmlns:inkscape="http://www.inkscape.org/namespaces/inkscape"
   width="308.8927"
   height="170.66518"
   id="svg9857"
   version="1.1"
   inkscape:version="0.48.4 r9939"
   sodipodi:docname="2014-valo-185-gwenview.svg"
   inkscape:export-filename="/home/pesasa/svnrepos/drawings/www/viikonvalo/valo185-gwenview-iso.png"
   inkscape:export-xdpi="116.55"
   inkscape:export-ydpi="116.55">
  <sodipodi:namedview
     id="base"
     pagecolor="#ffffff"
     bordercolor="#666666"
     borderopacity="1.0"
     inkscape:pageopacity="0.0"
     inkscape:pageshadow="2"
     inkscape:zoom="2.7700819"
     inkscape:cx="239.28551"
     inkscape:cy="15.385318"
     inkscape:document-units="px"
     inkscape:current-layer="layer1"
     showgrid="false"
     fit-margin-top="0"
     fit-margin-left="0"
     fit-margin-right="0"
     fit-margin-bottom="0"
     inkscape:window-width="1920"
     inkscape:window-height="1128"
     inkscape:window-x="-2"
     inkscape:window-y="-3"
     inkscape:window-maximized="1">
    <inkscape:grid
       snapvisiblegridlinesonly="true"
       enabled="true"
       visible="true"
       empspacing="5"
       id="grid4787"
       type="xygrid"
       originx="0.0205684px"
       originy="0.0054835526px" />
  </sodipodi:namedview>
  <defs
     id="defs9859">
    <linearGradient
       id="linearGradient14486">
      <stop
         style="stop-color:#ffffff;stop-opacity:1"
         offset="0"
         id="stop14488" />
      <stop
         style="stop-color:#d2d2d2;stop-opacity:1"
         offset="1"
         id="stop14490" />
    </linearGradient>
    <radialGradient
       r="258.02078"
       fy="479.36584"
       fx="787.22473"
       cy="479.36584"
       cx="787.22473"
       gradientTransform="matrix(0.69719883,1.0793933,-1.1943603,0.77297612,832.93918,-733.53466)"
       gradientUnits="userSpaceOnUse"
       id="radialGradient38317"
       xlink:href="#linearGradient38277"
       inkscape:collect="always" />
    <linearGradient
       id="linearGradient38277">
      <stop
         id="stop38279"
         offset="0"
         style="stop-color:#87aade;stop-opacity:1" />
      <stop
         id="stop38281"
         offset="1"
         style="stop-color:#162d50;stop-opacity:1" />
    </linearGradient>
    <linearGradient
       y2="4.9912353"
       x2="136.37059"
       y1="83.783127"
       x1="161.11934"
       gradientUnits="userSpaceOnUse"
       id="linearGradient38319"
       xlink:href="#linearGradient38300"
       inkscape:collect="always" />
    <linearGradient
       id="linearGradient38300"
       inkscape:collect="always">
      <stop
         id="stop38302"
         offset="0"
         style="stop-color:#ffffff;stop-opacity:1;" />
      <stop
         id="stop38304"
         offset="1"
         style="stop-color:#ffffff;stop-opacity:0" />
    </linearGradient>
    <filter
       id="filter38253"
       inkscape:collect="always"
       color-interpolation-filters="sRGB">
      <feGaussianBlur
         id="feGaussianBlur38255"
         stdDeviation="3.7990597"
         inkscape:collect="always" />
    </filter>
    <linearGradient
       id="linearGradient38257"
       inkscape:collect="always">
      <stop
         id="stop38259"
         offset="0"
         style="stop-color:#ffe680;stop-opacity:1" />
      <stop
         id="stop38261"
         offset="1"
         style="stop-color:#ffcc00;stop-opacity:1" />
    </linearGradient>
    <radialGradient
       r="121.0625"
       fy="111.79336"
       fx="204.84595"
       cy="111.79336"
       cx="204.84595"
       gradientTransform="matrix(-0.51080991,-0.39352661,0.36619486,-0.47533151,176.33119,204.40239)"
       gradientUnits="userSpaceOnUse"
       id="radialGradient39592"
       xlink:href="#linearGradient38257"
       inkscape:collect="always" />
    <filter
       height="1.2054614"
       y="-0.10273071"
       width="1.0626322"
       x="-0.031316079"
       id="filter40112"
       inkscape:collect="always"
       color-interpolation-filters="sRGB">
      <feGaussianBlur
         id="feGaussianBlur40114"
         stdDeviation="2.401374"
         inkscape:collect="always" />
    </filter>
    <style
       type="text/css"
       id="style6654">
   
    .str1 {stroke:#1F1A17;stroke-width:0.0286362}
    .str0 {stroke:white;stroke-width:0.0286362}
    .fil2 {fill:#1F1A17}
    .fil0 {fill:#EAE342}
    .fil1 {fill:white}
   
  </style>
    <linearGradient
       osb:paint="solid"
       id="linearGradient4165">
      <stop
         id="stop4167"
         offset="0"
         style="stop-color:#4d4d4d;stop-opacity:1;" />
    </linearGradient>
    <linearGradient
       osb:paint="solid"
       id="linearGradient4171">
      <stop
         id="stop4173"
         offset="0"
         style="stop-color:#999999;stop-opacity:1;" />
    </linearGradient>
    <linearGradient
       osb:paint="solid"
       id="linearGradient4177">
      <stop
         id="stop4179"
         offset="0"
         style="stop-color:#000000;stop-opacity:1;" />
    </linearGradient>
    <filter
       id="filter6087"
       inkscape:collect="always"
       color-interpolation-filters="sRGB">
      <feGaussianBlur
         id="feGaussianBlur6089"
         stdDeviation="0.3098678"
         inkscape:collect="always" />
    </filter>
    <filter
       color-interpolation-filters="sRGB"
       inkscape:collect="always"
       id="filter40130"
       x="-0.051605642"
       width="1.1032113"
       y="-0.11904688"
       height="1.2380939">
      <feGaussianBlur
         inkscape:collect="always"
         stdDeviation="1.9055437"
         id="feGaussianBlur40132" />
    </filter>
    <linearGradient
       inkscape:collect="always"
       xlink:href="#linearGradient6091-4"
       id="linearGradient6097-7"
       x1="502.35776"
       y1="215.35515"
       x2="502.35776"
       y2="247.32196"
       gradientUnits="userSpaceOnUse" />
    <linearGradient
       inkscape:collect="always"
       id="linearGradient6091-4">
      <stop
         style="stop-color:#ffffff;stop-opacity:1"
         offset="0"
         id="stop6093-6" />
      <stop
         style="stop-color:#d2d2d2;stop-opacity:1"
         offset="1"
         id="stop6095-0" />
    </linearGradient>
    <linearGradient
       inkscape:collect="always"
       xlink:href="#linearGradient14486"
       id="linearGradient4330"
       gradientUnits="userSpaceOnUse"
       x1="35.336468"
       y1="395.6817"
       x2="35.336468"
       y2="419.84171" />
    <filter
       color-interpolation-filters="sRGB"
       x="-.039886"
       y="-.12104"
       width="1.0798"
       height="1.2421"
       id="filter4037">
      <feGaussianBlur
         stdDeviation="11.868751"
         id="feGaussianBlur4039" />
    </filter>
    <linearGradient
       x1="-153"
       x2="-145.56"
       y1="-47.638"
       gradientUnits="userSpaceOnUse"
       y2="-89.638"
       id="linearGradient5999">
      <stop
         offset="0"
         stop-color="#2ad4ff"
         id="stop5783" />
      <stop
         offset="1"
         stop-opacity="0"
         stop-color="#2ad4ff"
         id="stop5785" />
    </linearGradient>
    <linearGradient
       x1="-210.09"
       x2="-164.83"
       y1="245.86"
       gradientUnits="userSpaceOnUse"
       y2="249.55"
       id="linearGradient5995">
      <stop
         offset="0"
         stop-color="#fff"
         id="stop5664" />
      <stop
         offset="1"
         stop-opacity=".053137"
         stop-color="#fff"
         id="stop5666" />
    </linearGradient>
    <linearGradient
       x1="-210.09"
       x2="-149.5"
       y1="245.86"
       gradientUnits="userSpaceOnUse"
       y2="245.86"
       id="linearGradient5993">
      <stop
         offset="0"
         stop-color="#fff"
         id="stop5556" />
      <stop
         offset="1"
         stop-opacity=".037931"
         stop-color="#fff"
         id="stop5558" />
    </linearGradient>
    <linearGradient
       y2="249.36"
       y1="249.36"
       x2="22.886"
       gradientUnits="userSpaceOnUse"
       x1="-228.89"
       id="linearGradient5991">
      <stop
         offset="0"
         stop-color="#aed3ff"
         id="stop5641" />
      <stop
         offset=".21015"
         stop-opacity=".13245"
         stop-color="#d6e9ff"
         id="stop5643" />
      <stop
         offset=".77785"
         stop-opacity=".13245"
         stop-color="#c2deff"
         id="stop5647" />
      <stop
         offset="1"
         stop-color="#aed3ff"
         id="stop5645" />
    </linearGradient>
    <linearGradient
       y2="-191.78"
       x2="-807.77"
       y1="-119.64"
       gradientUnits="userSpaceOnUse"
       spreadMethod="reflect"
       x1="-838.19"
       id="linearGradient5989">
      <stop
         offset="0"
         stop-color="#cdd0ce"
         id="stop5889" />
      <stop
         offset="1"
         stop-opacity="0"
         stop-color="#cdd0ce"
         id="stop5891" />
    </linearGradient>
    <linearGradient
       y2="233.88"
       x2="47.811"
       gradientTransform="matrix(0,1,-1,0,511.38,554.38)"
       y1="233.88"
       gradientUnits="userSpaceOnUse"
       x1="-356.81"
       id="linearGradient5974">
      <stop
         offset="0"
         id="stop5528" />
      <stop
         offset="1"
         stop-opacity=".99608"
         stop-color="#fff"
         id="stop5530" />
    </linearGradient>
    <radialGradient
       r="231.54"
       gradientTransform="matrix(1.5048,0.23121,-0.16112,1.0486,317.46,104.94)"
       cx="81.5"
       cy="127.88"
       gradientUnits="userSpaceOnUse"
       id="radialGradient5971">
      <stop
         offset="0"
         stop-color="#acacac"
         id="stop5506" />
      <stop
         offset="1"
         id="stop5508" />
    </radialGradient>
    <linearGradient
       y2="165.88"
       x2="-175.16"
       gradientTransform="matrix(1.2614,0,0,1.2614,473.02,129.31)"
       y1="76.875"
       gradientUnits="userSpaceOnUse"
       x1="-182.84"
       id="linearGradient5965">
      <stop
         offset="0"
         stop-color="#2a5e89"
         id="stop5623" />
      <stop
         offset="1"
         stop-opacity="0"
         stop-color="#2a5e89"
         id="stop5625" />
    </linearGradient>
    <radialGradient
       r="56"
       gradientTransform="matrix(1.3393,0,0,1.1719,495.16,127.69)"
       cx="-167"
       cy="337.36"
       gradientUnits="userSpaceOnUse"
       id="radialGradient5961">
      <stop
         offset="0"
         stop-color="#042b76"
         id="stop5610" />
      <stop
         offset="1"
         stop-color="#2e75f8"
         id="stop5612" />
    </radialGradient>
    <linearGradient
       y2="305.11"
       x2="-143.59"
       gradientTransform="translate(427.84,138.77)"
       y1="345.38"
       gradientUnits="userSpaceOnUse"
       x1="-150.34"
       id="linearGradient5957">
      <stop
         offset="0"
         stop-color="#89269d"
         id="stop5771" />
      <stop
         offset=".33681"
         stop-color="#a40000"
         id="stop5777" />
      <stop
         offset="1"
         stop-opacity="0"
         stop-color="#89269d"
         id="stop5773" />
    </linearGradient>
    <filter
       id="filter5827">
      <feGaussianBlur
         stdDeviation="1.0174043"
         id="feGaussianBlur5829" />
    </filter>
    <filter
       id="filter5590">
      <feGaussianBlur
         stdDeviation="0.81070223"
         id="feGaussianBlur5592" />
    </filter>
    <radialGradient
       inkscape:collect="always"
       r="222.86"
       gradientTransform="matrix(-7.9868e-7,1.1859,-1.1241,-7.3017e-7,2300.6,-1896.2)"
       cx="2e3"
       cy="297.49"
       gradientUnits="userSpaceOnUse"
       id="radialGradient8269">
      <stop
         offset="0"
         style="stop-color:#ffffff"
         id="stop3466" />
      <stop
         offset="1"
         style="stop-color:#057200"
         id="stop3468" />
    </radialGradient>
    <radialGradient
       inkscape:collect="always"
       r="250.31"
       gradientTransform="matrix(0.018667,1.2887,-1.0847,0.015712,2319,-2040.2)"
       cx="2002.1"
       cy="365.12"
       gradientUnits="userSpaceOnUse"
       xlink:href="#linearGradient3442"
       id="radialGradient8267" />
    <radialGradient
       inkscape:collect="always"
       r="222.86"
       gradientTransform="matrix(-7.9868e-7,1.1859,-1.1241,-7.3017e-7,2340.3,-2069.6)"
       cx="2000.1"
       cy="302.64"
       gradientUnits="userSpaceOnUse"
       id="radialGradient8265">
      <stop
         offset="0"
         style="stop-color:#ffffff"
         id="stop3379" />
      <stop
         offset="1"
         style="stop-color:#000080"
         id="stop3381" />
    </radialGradient>
    <radialGradient
       inkscape:collect="always"
       r="250.31"
       gradientTransform="matrix(-0.0062739,1.4496,-1.3184,-0.0057074,2494.1,-2527.7)"
       cx="2002.1"
       cy="365.12"
       gradientUnits="userSpaceOnUse"
       id="radialGradient8263">
      <stop
         offset="0"
         style="stop-color:#000000"
         id="stop3389" />
      <stop
         offset="1"
         style="stop-color:#f2f2f2"
         id="stop3391" />
    </radialGradient>
    <radialGradient
       inkscape:collect="always"
       r="222.86"
       gradientTransform="matrix(-4.7828e-7,0.71016,-0.67316,-4.3725e-7,1789,-2870.4)"
       cx="2e3"
       cy="297.49"
       gradientUnits="userSpaceOnUse"
       id="radialGradient8261">
      <stop
         offset="0"
         style="stop-color:#ffffff"
         id="stop3536" />
      <stop
         offset="1"
         style="stop-color:#aa0000"
         id="stop3538" />
    </radialGradient>
    <radialGradient
       inkscape:collect="always"
       r="250.31"
       gradientTransform="matrix(0.011179,0.77174,-0.64956,0.0094086,1800,-2956.6)"
       cx="2002.1"
       cy="365.12"
       gradientUnits="userSpaceOnUse"
       xlink:href="#linearGradient3442"
       id="radialGradient8259" />
    <linearGradient
       id="linearGradient3442">
      <stop
         offset="0"
         style="stop-color:#000000"
         id="stop3444" />
      <stop
         offset="1"
         style="stop-color:#b3b3b3"
         id="stop3446" />
    </linearGradient>
    <radialGradient
       gradientUnits="userSpaceOnUse"
       gradientTransform="matrix(1,0,0,1.035714,0,-0.810268)"
       r="1.75"
       fy="22.6875"
       fx="14.75"
       cy="22.6875"
       cx="14.75"
       id="radialGradient2824"
       xlink:href="#linearGradient2818"
       inkscape:collect="always" />
    <linearGradient
       y2="29.718750"
       x2="14.843750"
       y1="29.718750"
       x1="7.8705277"
       gradientTransform="matrix(1.035758,0,0,1,-0.162473,0.20203)"
       gradientUnits="userSpaceOnUse"
       id="linearGradient1485"
       xlink:href="#linearGradient2290"
       inkscape:collect="always" />
    <linearGradient
       y2="26.093410"
       x2="30.130077"
       y1="26.093410"
       x1="16.353432"
       gradientUnits="userSpaceOnUse"
       id="linearGradient1482"
       xlink:href="#linearGradient2304"
       inkscape:collect="always" />
    <linearGradient
       y2="29.718750"
       x2="14.843750"
       y1="29.718750"
       x1="7.8705277"
       gradientTransform="matrix(1.024993,0,0,1,-0.06795098,0)"
       gradientUnits="userSpaceOnUse"
       id="linearGradient1475"
       xlink:href="#linearGradient2290"
       inkscape:collect="always" />
    <linearGradient
       y2="57.124992"
       x2="35.888493"
       y1="16.124990"
       x1="16.666620"
       gradientUnits="userSpaceOnUse"
       id="linearGradient1469"
       xlink:href="#linearGradient2690"
       inkscape:collect="always" />
    <linearGradient
       y2="12.846690"
       x2="29.395439"
       y1="9.4121714"
       x1="29.395439"
       gradientUnits="userSpaceOnUse"
       id="linearGradient1461"
       xlink:href="#linearGradient2268"
       inkscape:collect="always" />
    <linearGradient
       y2="24.700985"
       x2="7.9151335"
       y1="30.816841"
       x1="7.9151335"
       gradientTransform="matrix(1.318423,0,0,0.773191,18.70736,-14.22023)"
       gradientUnits="userSpaceOnUse"
       id="linearGradient1458"
       xlink:href="#linearGradient2230"
       inkscape:collect="always" />
    <linearGradient
       y2="30.191154"
       x2="6.5595827"
       y1="29.373810"
       x1="6.5595827"
       gradientTransform="matrix(1.477785,0,0,1.982181,18.56747,-51.60768)"
       gradientUnits="userSpaceOnUse"
       id="linearGradient1456"
       xlink:href="#linearGradient3301"
       inkscape:collect="always" />
    <linearGradient
       y2="30.191154"
       x2="6.5595827"
       y1="29.373810"
       x1="6.5595827"
       gradientTransform="matrix(0.655244,0,0,1.898477,14.94194,-35.5518)"
       gradientUnits="userSpaceOnUse"
       id="linearGradient1451"
       xlink:href="#linearGradient3301"
       inkscape:collect="always" />
    <linearGradient
       y2="27.072878"
       x2="18.422049"
       y1="18.849401"
       x1="12.835793"
       gradientUnits="userSpaceOnUse"
       id="linearGradient1433"
       xlink:href="#linearGradient2631"
       inkscape:collect="always" />
    <radialGradient
       r="4.6250000"
       fy="23.672499"
       fx="16.875000"
       cy="23.672499"
       cx="16.875000"
       gradientTransform="matrix(1,0,0,1.013514,0,-0.304899)"
       gradientUnits="userSpaceOnUse"
       id="radialGradient1431"
       xlink:href="#linearGradient2591"
       inkscape:collect="always" />
    <linearGradient
       y2="30.916578"
       x2="33.904015"
       y1="35.302856"
       x1="23.660564"
       gradientUnits="userSpaceOnUse"
       id="linearGradient1425"
       xlink:href="#linearGradient2673"
       inkscape:collect="always" />
    <linearGradient
       y2="30.566227"
       x2="38.416191"
       y1="39.051506"
       x1="22.549892"
       gradientUnits="userSpaceOnUse"
       id="linearGradient1423"
       xlink:href="#linearGradient2615"
       inkscape:collect="always" />
    <radialGradient
       r="17.500000"
       fy="36.812500"
       fx="25.375000"
       cy="36.812500"
       cx="25.375000"
       gradientTransform="matrix(1.000000,0.000000,0.000000,0.453571,-1.856804e-15,20.11540)"
       gradientUnits="userSpaceOnUse"
       id="radialGradient1417"
       xlink:href="#linearGradient2656"
       inkscape:collect="always" />
    <radialGradient
       r="17.500000"
       fy="36.812500"
       fx="25.375000"
       cy="36.812500"
       cx="25.375000"
       gradientTransform="matrix(1,0,0,0.453571,0,20.1154)"
       gradientUnits="userSpaceOnUse"
       id="radialGradient1415"
       xlink:href="#linearGradient2656"
       inkscape:collect="always" />
    <linearGradient
       id="linearGradient2591">
      <stop
         id="stop2593"
         offset="0.0000000"
         style="stop-color:#7a7a7a;stop-opacity:1.0000000;" />
      <stop
         id="stop2595"
         offset="1.0000000"
         style="stop-color:#000000;stop-opacity:1.0000000;" />
    </linearGradient>
    <linearGradient
       id="linearGradient3301">
      <stop
         style="stop-color:#ffffff;stop-opacity:1.0000000;"
         offset="0.0000000"
         id="stop3303" />
      <stop
         style="stop-color:#cbcbcb;stop-opacity:1.0000000;"
         offset="1.0000000"
         id="stop3305" />
    </linearGradient>
    <linearGradient
       id="linearGradient2230">
      <stop
         id="stop2232"
         offset="0"
         style="stop-color:#eeeeee;stop-opacity:1;" />
      <stop
         id="stop2234"
         offset="1.0000000"
         style="stop-color:#a2a2a2;stop-opacity:1.0000000;" />
    </linearGradient>
    <linearGradient
       id="linearGradient2268">
      <stop
         style="stop-color:#555753;stop-opacity:1;"
         offset="0"
         id="stop2270" />
      <stop
         style="stop-opacity:1.0000000;stop-color:#141514"
         offset="1.0000000"
         id="stop2272" />
    </linearGradient>
    <linearGradient
       id="linearGradient2290">
      <stop
         style="stop-color:#555753;stop-opacity:1;"
         offset="0"
         id="stop2292" />
      <stop
         style="stop-color:#313330;stop-opacity:1.0000000;"
         offset="1.0000000"
         id="stop2294" />
    </linearGradient>
    <linearGradient
       id="linearGradient2304">
      <stop
         style="stop-color:#353633;stop-opacity:1.0000000;"
         offset="0.0000000"
         id="stop2306" />
      <stop
         style="stop-color:#676964;stop-opacity:1.0000000;"
         offset="1.0000000"
         id="stop2308" />
    </linearGradient>
    <linearGradient
       id="linearGradient2615">
      <stop
         style="stop-color:#363d40;stop-opacity:1.0000000;"
         offset="0.0000000"
         id="stop2617" />
      <stop
         id="stop2623"
         offset="0.50000000"
         style="stop-color:#818f95;stop-opacity:1.0000000;" />
      <stop
         style="stop-color:#31383b;stop-opacity:1.0000000;"
         offset="1.0000000"
         id="stop2619" />
    </linearGradient>
    <linearGradient
       id="linearGradient2631">
      <stop
         style="stop-color:#010101;stop-opacity:1.0000000;"
         offset="0.0000000"
         id="stop2633" />
      <stop
         style="stop-color:#959595;stop-opacity:1.0000000;"
         offset="1.0000000"
         id="stop2635" />
    </linearGradient>
    <linearGradient
       inkscape:collect="always"
       id="linearGradient2656">
      <stop
         style="stop-color:#000000;stop-opacity:1;"
         offset="0"
         id="stop2658" />
      <stop
         style="stop-color:#000000;stop-opacity:0;"
         offset="1"
         id="stop2660" />
    </linearGradient>
    <linearGradient
       id="linearGradient2673">
      <stop
         style="stop-color:#8b8b8b;stop-opacity:1.0000000;"
         offset="0.0000000"
         id="stop2675" />
      <stop
         id="stop2681"
         offset="0.50000000"
         style="stop-color:#d3d9da;stop-opacity:1.0000000;" />
      <stop
         style="stop-color:#828282;stop-opacity:1.0000000;"
         offset="1.0000000"
         id="stop2677" />
    </linearGradient>
    <linearGradient
       inkscape:collect="always"
       id="linearGradient2690">
      <stop
         style="stop-color:#ffffff;stop-opacity:1;"
         offset="0"
         id="stop2692" />
      <stop
         style="stop-color:#ffffff;stop-opacity:0;"
         offset="1"
         id="stop2694" />
    </linearGradient>
    <linearGradient
       id="linearGradient2818"
       inkscape:collect="always">
      <stop
         id="stop2820"
         offset="0"
         style="stop-color:#ffffff;stop-opacity:1;" />
      <stop
         id="stop2822"
         offset="1"
         style="stop-color:#ffffff;stop-opacity:0;" />
    </linearGradient>
    <linearGradient
       y2="609.50507"
       x2="302.85715"
       y1="366.64789"
       x1="302.85715"
       gradientTransform="matrix(2.774389,0,0,1.969706,-1892.179,-872.8854)"
       gradientUnits="userSpaceOnUse"
       id="linearGradient6715"
       xlink:href="#linearGradient5048"
       inkscape:collect="always" />
    <linearGradient
       id="linearGradient5048">
      <stop
         id="stop5050"
         offset="0"
         style="stop-color:black;stop-opacity:0;" />
      <stop
         style="stop-color:black;stop-opacity:1;"
         offset="0.5"
         id="stop5056" />
      <stop
         id="stop5052"
         offset="1"
         style="stop-color:black;stop-opacity:0;" />
    </linearGradient>
    <radialGradient
       r="117.14286"
       fy="486.64789"
       fx="605.71429"
       cy="486.64789"
       cx="605.71429"
       gradientTransform="matrix(2.774389,0,0,1.969706,-1891.633,-872.8854)"
       gradientUnits="userSpaceOnUse"
       id="radialGradient6717"
       xlink:href="#linearGradient5060"
       inkscape:collect="always" />
    <linearGradient
       id="linearGradient5060"
       inkscape:collect="always">
      <stop
         id="stop5062"
         offset="0"
         style="stop-color:black;stop-opacity:1;" />
      <stop
         id="stop5064"
         offset="1"
         style="stop-color:black;stop-opacity:0;" />
    </linearGradient>
    <radialGradient
       r="117.14286"
       fy="486.64789"
       fx="605.71429"
       cy="486.64789"
       cx="605.71429"
       gradientTransform="matrix(-2.774389,0,0,1.969706,112.7623,-872.8854)"
       gradientUnits="userSpaceOnUse"
       id="radialGradient6719"
       xlink:href="#linearGradient5060"
       inkscape:collect="always" />
    <inkscape:perspective
       id="perspective102"
       inkscape:persp3d-origin="24 : 16 : 1"
       inkscape:vp_z="48 : 24 : 1"
       inkscape:vp_y="0 : 1000 : 0"
       inkscape:vp_x="0 : 24 : 1"
       sodipodi:type="inkscape:persp3d" />
  </defs>
  <metadata
     id="metadata9862">
    <rdf:RDF>
      <cc:Work
         rdf:about="">
        <dc:format>image/svg+xml</dc:format>
        <dc:type
           rdf:resource="http://purl.org/dc/dcmitype/StillImage" />
        <dc:title></dc:title>
      </cc:Work>
    </rdf:RDF>
  </metadata>
  <g
     transform="translate(-16.979432,-143.99655)"
     id="layer1"
     inkscape:groupmode="layer"
     inkscape:label="Layer 1">
    <g
       transform="matrix(1.0213303,0,0,1.0213303,-0.39889826,-3.0840892)"
       id="g38310">
      <rect
         transform="matrix(0.57918184,0,0,0.57857907,-350.1859,-99.789865)"
         style="fill:url(#radialGradient38317);fill-opacity:1;fill-rule:nonzero;stroke:none;display:inline"
         id="rect10983-4"
         width="517.06445"
         height="283.68048"
         x="636.19702"
         y="423.4234"
         ry="21.2132" />
      <path
         style="opacity:0.26440681;fill:url(#linearGradient38319);fill-opacity:1;fill-rule:nonzero;stroke:none;display:inline"
         d="m 13.78204,1.494856 c -6.8066102,0 -12.28125,5.4817236 -12.28125,12.28125 l 0,66.536394 C 144.3017,139.19649 211.44627,40.874351 300.75,81.5 l 0,-67.723894 c 0,-6.7995264 -5.47464,-12.28125 -12.28125,-12.28125 z"
         transform="translate(17,144)"
         id="rect38285"
         inkscape:connector-curvature="0"
         sodipodi:nodetypes="ssccsss" />
      <g
         transform="matrix(0.52762727,0,0,0.52762727,10.932562,71.287425)"
         id="g39588">
        <path
           inkscape:connector-curvature="0"
           style="font-size:84.35607147px;font-style:normal;font-variant:normal;font-weight:bold;font-stretch:normal;text-align:center;line-height:125%;letter-spacing:0px;word-spacing:0px;text-anchor:middle;fill:#000000;fill-opacity:1;stroke:none;filter:url(#filter38253);font-family:MgOpen Cosmetica;-inkscape-font-specification:MgOpen Cosmetica Bold"
           d="m 153.53125,160.03125 0,1.71875 c 0,0.8951 0.11865,4.77976 0.34375,12.03125 0.2808,7.18151 0.40624,12.75964 0.40625,16.71875 -1e-5,0.82337 -0.12506,5.56637 -0.40625,13.9375 l 0,0.0312 c -0.22526,8.32559 -0.34375,14.77114 -0.34375,19.40625 l 0,1.5625 1.59375,-0.0312 6.625,-0.25 0.125,0 6.53125,0.25 1.59375,0.0312 0,-1.5625 c -3e-5,-0.50551 -0.0437,-3.28209 -0.15625,-8.625 -0.0551,-2.61494 -0.0375,-3.69377 -0.0625,-5.5625 0.8589,1.4747 1.50975,2.64814 2.53125,4.375 2.2422,3.69583 4.281,7.18205 6.125,10.53125 l 0.4375,0.8125 0.90625,0 c 0.43898,0 1.3686,-0.0743 3.125,-0.1875 l 0.0312,0 0.0312,0 C 184.67992,225.05347 186.07289,225 187.125,225 c 0.0936,0 1.27291,0.0512 3.0625,0.21875 l 0.0312,0 0.0312,0 c 1.88056,0.11387 3.35815,0.1875 4.46875,0.1875 l 2.71875,0 -1.4375,-2.34375 -5.8125,-9.34375 c -3.53109,-5.68591 -6.5222,-10.73681 -9.15625,-15.375 L 189.4375,190 l 0.0312,0 5.1875,-4.90625 0.875,-0.8125 -0.59375,-1.03125 -0.34375,-0.59375 -0.46875,-0.8125 -0.90625,0.0312 -3.8125,0.1875 c -0.013,0 -0.0491,3e-5 -0.0625,0 -0.62183,-0.001 -1.58757,-0.0388 -2.90625,-0.0937 -1.35368,-0.0563 -2.36246,-0.0937 -3.09375,-0.0937 l -0.78125,0 -0.46875,0.65625 c -2.56694,3.62341 -4.98923,6.75483 -7.25,9.34375 -1.51434,1.73415 -3.36257,3.2887 -5.15625,4.875 l 0,-9.4375 c -2e-5,-2.49433 0.0879,-6.74187 0.3125,-12.6875 0.22531,-5.96521 0.34373,-10.24292 0.34375,-12.875 l 0,-1.6875 -1.6875,0.1875 c -2.13272,0.21858 -4.56788,0.31256 -7.28125,0.3125 -2.31227,6e-5 -4.33994,-0.0963 -6.125,-0.3125 l -1.71875,-0.21875 z m -39.5,0.78125 c -2.18396,9e-5 -4.21927,0.90848 -5.8125,2.5 -0.73813,0.73738 -1.30172,1.56937 -1.71875,2.46875 l -2.1875,0 c -0.69759,7e-5 -1.57031,0.106 -2.8125,0.21875 -1.20554,0.10949 -2.10922,0.12504 -2.65625,0.125 l 0,0.0312 -4.34375,-0.34375 -1.375,-0.125 -0.25,1.375 c -0.269521,1.56141 -0.637392,3.14913 -1.125,4.71875 l -0.03125,0 0,0.0312 c -0.439916,1.53801 -0.956007,3.09759 -1.5625,4.75 l 0,0.0312 -9,24.96875 -9.34375,-24.84375 c -1.1005,-2.85793 -2.118181,-6.11863 -3.0625,-9.7811 l -0.3125,-1.1875 -1.21875,0.0312 -7.625,0.34375 c 0.0095,0 -0.06674,9e-5 -0.0625,0 0.0594,-0.001 -0.315615,-0.008 -0.875,-0.0312 -0.599294,-0.0248 -1.474806,-0.0689 -2.625,-0.125 -2.309061,-0.11242 -3.932852,-0.18744 -4.96875,-0.1875 l -2.21875,0 0.8125,2.09375 16.6875,42.5625 c 0.0057,0.0157 0.02551,0.0156 0.03125,0.0312 1.227605,3.34514 2.177109,6.04549 2.90625,8.0625 0.727416,2.01234 1.389029,3.91846 1.9375,5.78125 l 0.34375,1.09375 1.125,0 c 0.431574,0 0.950286,-0.0733 2.09375,-0.1875 l 0.03125,0 0.03125,0 C 75.983458,225.05624 76.853126,225 77.40625,225 c 0.48381,0 1.060788,0.0239 1.71875,0.125 l 0.03125,0 0.0625,0 c 0.7127,0.0548 1.597008,0.13936 2.59375,0.25 l 1.28125,0.15625 0.34375,-1.28125 c 1.277091,-4.93676 2.8309,-9.53384 4.65625,-13.84375 l 0,-0.0312 11.3125,-28.8125 0,-0.0312 c 1.9568,-4.52305 4.04721,-9.01218 6.28125,-13.53135 l 0.46875,-0.96875 c -0.18699,0.67603 -0.4375,1.34224 -0.4375,2.0625 0,2.22636 0.8899,4.27117 2.5,5.8125 1.60067,1.53246 3.64957,2.37506 5.8125,2.375 2.20818,6e-5 4.23194,-0.85854 5.78125,-2.40625 1.58681,-1.58513 2.49998,-3.59949 2.5,-5.78125 -2e-5,-2.18166 -0.91322,-4.19603 -2.5,-5.78125 -1.58498,-1.58322 -3.59732,-2.49991 -5.78125,-2.5 z m 24.0625,0 c -2.18395,9e-5 -4.21926,0.90849 -5.8125,2.5 -1.5951,1.59349 -2.46875,3.61716 -2.46875,5.78125 0,2.20932 0.85021,4.26308 2.46875,5.8125 1.60069,1.53245 3.64958,2.37506 5.8125,2.375 2.20819,6e-5 4.23195,-0.85853 5.78125,-2.40625 1.58683,-1.58514 2.49998,-3.5995 2.5,-5.78125 -2e-5,-2.18166 -0.91321,-4.19603 -2.5,-5.78125 -1.58497,-1.58322 -3.59731,-2.49991 -5.78125,-2.5 z m 82.125,20.0625 c -7.03533,4e-5 -12.89025,2.00977 -17.25,6.0625 -4.32718,4.01828 -6.5,9.72666 -6.5,16.71875 0,6.82554 2.12787,12.47227 6.375,16.59375 l 0.0312,0 c 4.29373,4.04762 9.98368,6.09375 16.75,6.09375 7.03622,0 12.79338,-2.04775 16.9375,-6.1875 4.1391,-4.13483 6.18745,-9.82866 6.1875,-16.75 -5e-5,-6.58886 -2.08977,-12.13665 -6.25,-16.25 -0.006,-0.006 -0.0256,0.006 -0.0312,0 -4.11703,-4.16336 -9.64679,-6.28121 -16.25,-6.28125 z m 53.90625,0.15625 c -2.7022,4e-5 -5.35814,0.76233 -7.90625,2.15625 -1.36401,0.7462 -2.5998,1.62959 -3.75,2.59375 l 0,-2.375 0,-1.6875 -1.6875,0.1875 c -0.57153,0.0571 -1.40135,0.16498 -2.4375,0.3125 -1.40666,4e-5 -2.84338,4e-5 -4.25,0 -1.23787,4e-5 -2.08749,4e-5 -2.59375,0 -0.54528,-0.0653 -1.57939,-0.15224 -3.34375,-0.3125 L 246.5,181.75 l 0,1.65625 c -1e-5,1.49074 0.11842,4.63554 0.34375,9.53125 0.22465,4.825 0.34376,8.29536 0.34375,10.375 -3e-5,1.01745 -0.11885,4.12634 -0.34375,9.125 -0.22557,4.95725 -0.34376,8.75025 -0.34375,11.4375 l 0,1.53125 1.53125,0 c 0.43899,0 1.36095,-0.0742 3.0625,-0.1875 l 0.0312,0 0.0312,0 c 1.65765,-0.1655 2.9436,-0.21875 3.875,-0.21875 0.0936,0 1.19411,0.0515 2.8125,0.21875 l 0.0312,0 0.0312,0 c 1.71441,0.11419 3.0596,0.1875 4.0625,0.1875 l 1.53125,0 0,-1.53125 c -2e-5,-1.43799 -0.11844,-4.39175 -0.34375,-9.0625 -0.16849,-4.65383 -0.25002,-8.33243 -0.25,-11 -2e-5,-2.04614 0.0182,-3.76468 0.125,-5.21875 6.4e-4,-0.009 -6.4e-4,-0.0226 0,-0.0312 0.15535,-1.37002 0.50012,-2.57425 0.9375,-3.59375 l 0,-0.0312 c 0.41879,-1.02264 0.96128,-1.69743 1.65625,-2.1875 l 0,-0.0312 c 0.75956,-0.54799 1.58345,-0.78123 2.59375,-0.78125 1.50909,2e-5 2.28018,0.4205 3,1.5625 l 0.0312,0.0312 c 0.84282,1.26298 1.24997,2.70457 1.25,4.46875 l 0,0.0937 0.0312,0.0937 c 0.16044,1.28295 0.21872,2.59083 0.21875,3.9375 l 0,1.53125 c -3e-5,1.61507 -0.11906,4.84843 -0.34375,9.5625 -0.16914,4.73097 -0.25003,8.26067 -0.25,10.65625 l 0,1.53125 1.53125,0 c 0.43157,0 1.25894,-0.0745 3.125,-0.1875 1.89399,-0.1113 3.23728,-0.125 3.96875,-0.125 0.73138,0 1.8162,0.0148 3.25,0.125 1.49012,0.11452 2.61412,0.1875 3.40625,0.1875 l 1.53125,0 0,-1.53125 c -4e-5,-2.3982 -0.0866,-5.87302 -0.3125,-10.5 -0.16823,-4.64931 -0.28056,-7.81378 -0.28125,-9.4375 l 0,-0.0312 0.0937,-8.8125 0,-0.0312 c -5e-5,-4.03854 -1.3776,-7.53779 -4.09375,-10.125 -2.69661,-2.56842 -6.21918,-3.90621 -10.25,-3.90625 z m -168.84375,0.6875 0.15625,1.8125 0.65625,7.40625 -0.0312,0 0,25.1875 c 0,1.25857 -0.0171,2.51025 -0.125,3.75 -0.10968,1.20521 -0.26918,2.46731 -0.4375,3.8125 l -0.21875,1.78125 1.78125,-0.0625 6.8125,-0.25 0.125,0 7.03125,0.25 1.75,0.0312 -0.1875,-1.71875 c -0.33404,-3.39228 -0.51358,-6.28041 -0.625,-8.71875 -1.7e-4,-0.007 1.7e-4,-0.024 0,-0.0312 -0.0556,-2.4547 -0.0939,-5.93774 -0.0937,-10.46875 l 0.0937,-13.75 0.71875,-7.1875 0.1875,-1.84375 -1.8125,0.1875 c -1.24271,0.1129 -2.4858,0.23181 -3.71875,0.34375 -1.21563,0.11041 -2.3146,0.15629 -3.3125,0.15625 -0.93776,4e-5 -2.06964,-0.0455 -3.34375,-0.15625 -1.23024,-0.11169 -2.40864,-0.23096 -3.59375,-0.34375 l -1.8125,-0.1875 z m 24.0625,0 0.15625,1.8125 0.65625,7.40625 -0.0312,0 0,25.1875 c -10e-6,1.25858 -0.0171,2.51026 -0.125,3.75 -0.10969,1.20521 -0.26918,2.46731 -0.4375,3.8125 l -0.21875,1.78125 1.78125,-0.0625 6.8125,-0.25 0.125,0 7.0625,0.25 1.75,0.0312 -0.1875,-1.71875 c -0.33493,-3.40135 -0.54517,-6.29299 -0.65625,-8.71875 -1.7e-4,-0.007 1.7e-4,-0.024 0,-0.0312 -0.0556,-2.4547 -0.0939,-5.93774 -0.0937,-10.46875 l 0.0937,-13.75 0.71875,-7.1875 0.1875,-1.84375 -1.8125,0.1875 c -1.24272,0.1129 -2.4858,0.23181 -3.71875,0.34375 -1.21563,0.11041 -2.31459,0.15629 -3.3125,0.15625 -0.93775,4e-5 -2.06963,-0.0455 -3.34375,-0.15625 -1.23023,-0.11169 -2.40862,-0.23095 -3.59375,-0.34375 l -1.8125,-0.1875 z m 90.28125,6.34375 c 1.7502,2e-5 2.82449,0.47172 3.65625,1.46875 0.92431,1.10808 1.58588,2.6397 2,4.65625 0.11138,0.89084 0.27584,2.06425 0.4375,3.625 0.16106,1.55531 0.21872,3.47571 0.21875,5.6875 -3e-5,2.2689 -0.0563,4.22912 -0.21875,5.90625 -0.16186,1.61664 -0.32668,2.83015 -0.4375,3.71875 -0.40952,1.94309 -1.06617,3.4781 -2,4.65625 -0.008,0.0106 -0.0229,0.0207 -0.0312,0.0312 -0.83677,0.98535 -1.86648,1.4375 -3.53125,1.4375 -1.75025,0 -2.92743,-0.49859 -3.875,-1.53125 -0.92985,-1.12915 -1.52013,-2.59662 -1.71875,-4.53125 l 0,-0.0625 0,-0.0625 c -0.54408,-2.93492 -0.81251,-6.06049 -0.8125,-9.40625 -10e-6,-2.94931 0.0652,-5.48093 0.28125,-7.53125 0.20548,-1.95024 0.76832,-3.87509 1.65625,-5.8125 0.004,-0.009 -0.004,-0.0223 0,-0.0312 0.7694,-1.56274 1.94976,-2.21872 4.375,-2.21875 z m -81.4375,50.09375 -0.40625,1.0625 c -1.57432,4.26872 -3.03299,8.2647 -4.4375,11.96875 l -0.0312,0 c -1.34353,3.69088 -3.04629,8.19321 -5.125,13.46875 -2.02172,5.21736 -3.72389,9.41109 -5.0625,12.53125 l -8.4375,19.5625 -1,2.3125 2.53125,-0.21875 2.9375,-0.21875 5.46875,0.25 1.09375,0.0312 0.40625,-1.03125 c 1.90045,-5.11532 3.59747,-10.03357 5.15625,-14.8125 l 4.78125,-0.21875 c 0.0306,8.7e-4 0.0632,-8.8e-4 0.0937,0 1.93096,0.0557 3.9027,0.13191 5.90625,0.1875 1.67622,0.0466 3.28724,0.0595 4.90625,0.0625 l 2.96875,9.15625 1.75,5.5625 0.34375,1.09375 1.125,-0.0312 8.21875,-0.25 0.0625,0 8.03125,0.25 2.34375,0.0625 -0.90625,-2.1875 c -3.64814,-8.69026 -7.21123,-17.76684 -10.75,-27.25 -3.54228,-9.49226 -7.23843,-19.57612 -11.0625,-30.25 l -0.40625,-1.09375 -1.125,0.0937 -4.03125,0.25 -0.1875,0 -4.03125,-0.25 -1.125,-0.0937 z m 104.78125,0.0625 c -10.0016,6e-5 -18.26717,2.68759 -24.59375,8.0625 -6.37363,5.35547 -9.59375,13.1012 -9.59375,22.8125 0,9.84844 2.93757,17.60505 8.8125,22.875 5.89345,5.23319 13.90537,7.84375 23.84375,7.84375 10.22501,0 18.56949,-2.73177 24.6875,-8.25 6.19708,-5.59542 9.28119,-13.63542 9.28125,-23.71875 -6e-5,-9.37217 -3.091,-16.86505 -9.1875,-22 -5.99,-5.09498 -13.81199,-7.62494 -23.25,-7.625 z m -134.03125,0.9375 -0.25,1.375 c -0.26896,1.5582 -0.63576,3.11263 -1.125,4.6875 l -0.0312,0 0,0.0312 c -0.44138,1.54313 -0.9581,3.13455 -1.5625,4.78125 l 0,0.0312 L 97,275 87.625,250.1875 c -1.100499,-2.85823 -2.118179,-6.11877 -3.0625,-9.78125 l -0.3125,-1.1875 -1.21875,0.0312 -7.625,0.3125 c 0.0096,0 -0.06677,9e-5 -0.0625,0 0.05982,-0.001 -0.315613,-0.008 -0.875,-0.0312 -0.599296,-0.0248 -1.4748,-0.0689 -2.625,-0.125 -2.322059,-0.11307 -3.934644,-0.1562 -4.9375,-0.15625 l -2.21875,0 0.8125,2.09375 16.65625,42.53125 c 0.0058,0.0157 0.0255,0.0156 0.03125,0.0312 1.230715,3.35283 2.213037,6.05844 2.9375,8.0625 0.721019,1.99464 1.35221,3.9308 1.90625,5.8125 l 0.34375,1.09375 1.125,0 c 0.431635,0 0.9503,-0.0733 2.09375,-0.1875 l 0.03125,0 0.03125,0 c 1.165661,-0.16627 2.056194,-0.25 2.5625,-0.25 0.427584,0 1.019019,0.0487 1.71875,0.15625 l 0.03125,0 0.0625,0 c 0.712656,0.0548 1.596978,0.13937 2.59375,0.25 L 98.90625,299 99.25,297.71875 c 1.27747,-4.93823 2.83191,-9.56748 4.65625,-13.875 l 0,-0.0312 11.3125,-28.78125 0,-0.0312 c 1.95461,-4.51753 4.07599,-9.00707 6.3125,-13.53125 l 1.0625,-2.21875 -2.4375,0 c -0.64139,6e-5 -1.57401,0.0722 -2.84375,0.1875 -1.20556,0.10948 -2.10928,0.12505 -2.65625,0.125 l 0,0.0312 -4.375,-0.3125 -1.34375,-0.125 z m 63.28125,0.0625 0.15625,1.6875 c 0.44862,5.32178 0.70118,9.76112 0.8125,13.375 l 0,0.0312 c 0.16681,3.55498 0.25,8.49902 0.25,14.78125 0,6.00063 -0.0823,11.16901 -0.25,15.46875 l 0,0.0312 c -0.1115,4.28809 -0.36694,8.47664 -0.8125,12.59375 l -0.1875,1.6875 1.6875,0 c 0.59401,0 2.1656,-0.0435 4.875,-0.15625 l 0.0312,0 0,-0.0312 c 2.69136,-0.16795 4.88361,-0.25 6.5625,-0.25 0.96242,0 4.13386,0.11256 9.3125,0.28125 l 0.0312,0 c 5.24163,0.11261 9.42222,0.15625 12.53125,0.15625 l 1.625,0 -0.125,-1.625 -0.25,-3.6875 0,-0.0937 0,-0.0937 0.25,-3.78125 0.125,-1.8125 L 207.0625,288 c -5.4878,0.61481 -11.02228,0.89012 -16.5625,0.9375 -0.0854,-1.20034 -0.15626,-2.39141 -0.15625,-3.75 -2e-5,-1.96726 -2e-5,-3.90142 0,-5.8125 l 0,-19.5625 c -2e-5,-6.6462 0.25463,-12.91233 0.8125,-18.875 l 0.15625,-1.71875 -1.6875,0.0312 -8.09375,0.25 -0.0937,0 -7.5,-0.25 -1.71875,-0.0312 z m 70.0625,7.46875 c 5.25935,5e-5 8.80674,1.99775 11.28125,6.375 2.56403,4.53589 3.8437,9.72326 3.84375,15.625 -5e-5,6.13458 -1.30399,11.51004 -3.875,16.21875 -2.47576,4.48258 -6.07263,6.53126 -11.5,6.53125 -5.29703,10e-6 -8.83587,-2.03087 -11.3125,-6.4375 -0.007,-0.0121 -0.0247,-0.0192 -0.0312,-0.0312 -2.55437,-4.6403 -3.81252,-9.92533 -3.8125,-15.875 -2e-5,-6.19757 1.25646,-11.50963 3.8125,-16.03125 2.46752,-4.36502 6.09313,-6.37495 11.59375,-6.375 z M 139.5,261.25 c 0.79555,1.94201 1.70129,4.06023 2.28125,5.59375 0.7265,1.92118 1.4593,4.21538 2.1875,6.53125 l -4.5625,0.0937 -0.0625,0 -4.5,-0.0937 c 1.48594,-4.10076 3.03746,-8.12918 4.65625,-12.125 z"
           id="path37479" />
        <path
           id="path37388"
           transform="translate(17,144)"
           d="m 132.53125,12.03125 0,1.71875 c 0,0.8951 0.11865,4.77976 0.34375,12.03125 0.2808,7.18151 0.40624,12.75964 0.40625,16.71875 -1e-5,0.82337 -0.12506,5.56637 -0.40625,13.9375 l 0,0.03125 c -0.22526,8.32559 -0.34375,14.77114 -0.34375,19.40625 l 0,1.5625 1.59375,-0.03125 6.625,-0.25 0.125,0 6.53125,0.25 L 149,77.4375 149,75.875 c -3e-5,-0.50551 -0.0437,-3.28209 -0.15625,-8.625 -0.0551,-2.61494 -0.0375,-3.69377 -0.0625,-5.5625 0.8589,1.4747 1.50975,2.64814 2.53125,4.375 2.2422,3.69583 4.281,7.18205 6.125,10.53125 l 0.4375,0.8125 0.90625,0 c 0.43898,0 1.3686,-0.0743 3.125,-0.1875 l 0.0312,0 0.0312,0 C 163.67992,77.05347 165.07289,77 166.125,77 c 0.0936,0 1.27291,0.0512 3.0625,0.21875 l 0.0312,0 0.0312,0 c 1.88056,0.11387 3.35815,0.1875 4.46875,0.1875 l 2.71875,0 L 175,75.0625 169.1875,65.71875 c -3.53109,-5.68591 -6.5222,-10.73681 -9.15625,-15.375 L 168.4375,42 l 0.0312,0 5.1875,-4.90625 0.875,-0.8125 -0.59375,-1.03125 -0.34375,-0.59375 -0.46875,-0.8125 -0.90625,0.03125 -3.8125,0.1875 c -0.013,0 -0.0491,3e-5 -0.0625,0 -0.62183,-10e-4 -1.58757,-0.03885 -2.90625,-0.09375 -1.35368,-0.0563 -2.36246,-0.09375 -3.09375,-0.09375 l -0.78125,0 -0.46875,0.65625 c -2.56694,3.62341 -4.98923,6.75483 -7.25,9.34375 -1.51434,1.73415 -3.36257,3.2887 -5.15625,4.875 l 0,-9.4375 c -2e-5,-2.49433 0.0879,-6.74187 0.3125,-12.6875 0.22531,-5.96521 0.34373,-10.24292 0.34375,-12.875 l 0,-1.6875 -1.6875,0.1875 c -2.13272,0.21858 -4.56788,0.31256 -7.28125,0.3125 -2.31227,6e-5 -4.33994,-0.0963 -6.125,-0.3125 l -1.71875,-0.21875 z m -39.5,0.78125 c -2.18396,9e-5 -4.21927,0.90848 -5.8125,2.5 -0.73813,0.73738 -1.30172,1.56937 -1.71875,2.46875 l -2.1875,0 c -0.697586,7e-5 -1.570311,0.106 -2.8125,0.21875 -1.205544,0.10949 -2.10922,0.12504 -2.65625,0.125 l 0,0.03125 L 73.5,17.8125 l -1.375,-0.125 -0.25,1.375 c -0.269521,1.56141 -0.637392,3.14913 -1.125,4.71875 l -0.03125,0 0,0.03125 c -0.439916,1.53801 -0.956007,3.09759 -1.5625,4.75 l 0,0.03125 -9,24.96875 L 50.8125,28.71875 C 49.712,25.86067 48.694319,22.59997 47.75,18.9375 l -0.3125,-1.1875 -1.21875,0.03125 -7.625,0.34375 c 0.0095,0 -0.06674,9e-5 -0.0625,0 0.0594,-0.001 -0.315615,-0.0081 -0.875,-0.03125 -0.599294,-0.0248 -1.474806,-0.0689 -2.625,-0.125 -2.309061,-0.11242 -3.932852,-0.18744 -4.96875,-0.1875 l -2.21875,0 0.8125,2.09375 16.6875,42.5625 c 0.0057,0.0157 0.02551,0.01565 0.03125,0.03125 1.227605,3.34514 2.177109,6.04549 2.90625,8.0625 0.727416,2.01234 1.389029,3.91846 1.9375,5.78125 l 0.34375,1.09375 1.125,0 c 0.431574,0 0.950286,-0.0733 2.09375,-0.1875 l 0.03125,0 0.03125,0 C 54.983458,77.05624 55.853126,77 56.40625,77 c 0.48381,0 1.060788,0.0239 1.71875,0.125 l 0.03125,0 0.0625,0 c 0.7127,0.0548 1.597008,0.13936 2.59375,0.25 L 62.09375,77.53125 62.4375,76.25 c 1.277091,-4.93676 2.8309,-9.53384 4.65625,-13.84375 l 0,-0.03125 11.3125,-28.8125 0,-0.03125 C 80.363046,29.0083 82.45346,24.51917 84.6875,20 l 0.46875,-0.96875 c -0.18699,0.67603 -0.4375,1.34224 -0.4375,2.0625 0,2.22636 0.8899,4.27117 2.5,5.8125 1.60067,1.53246 3.64957,2.37506 5.8125,2.375 2.20818,6e-5 4.23194,-0.85854 5.78125,-2.40625 1.58681,-1.58513 2.49998,-3.59949 2.5,-5.78125 -2e-5,-2.18166 -0.91322,-4.19603 -2.5,-5.78125 -1.58498,-1.58322 -3.59732,-2.49991 -5.78125,-2.5 z m 24.0625,0 c -2.18395,9e-5 -4.21926,0.90849 -5.8125,2.5 -1.5951,1.59349 -2.46875,3.61716 -2.46875,5.78125 0,2.20932 0.85021,4.26308 2.46875,5.8125 1.60069,1.53245 3.64958,2.37506 5.8125,2.375 2.20819,6e-5 4.23195,-0.85853 5.78125,-2.40625 1.58683,-1.58514 2.49998,-3.5995 2.5,-5.78125 -2e-5,-2.18166 -0.91321,-4.19603 -2.5,-5.78125 -1.58497,-1.58322 -3.59731,-2.49991 -5.78125,-2.5 z m 82.125,20.0625 c -7.03533,4e-5 -12.89025,2.00977 -17.25,6.0625 -4.32718,4.01828 -6.5,9.72666 -6.5,16.71875 0,6.82554 2.12787,12.47227 6.375,16.59375 l 0.0312,0 c 4.29373,4.04762 9.98368,6.09375 16.75,6.09375 7.03622,0 12.79338,-2.04775 16.9375,-6.1875 4.1391,-4.13483 6.18745,-9.82866 6.1875,-16.75 -5e-5,-6.58886 -2.08977,-12.13665 -6.25,-16.25 -0.006,-0.006 -0.0256,0.006 -0.0312,0 -4.11703,-4.16336 -9.64679,-6.28121 -16.25,-6.28125 z m 53.90625,0.15625 c -2.7022,4e-5 -5.35814,0.76233 -7.90625,2.15625 -1.36401,0.7462 -2.5998,1.62959 -3.75,2.59375 l 0,-2.375 0,-1.6875 -1.6875,0.1875 c -0.57153,0.0571 -1.40135,0.16498 -2.4375,0.3125 -1.40666,4e-5 -2.84338,4e-5 -4.25,0 -1.23787,4e-5 -2.08749,4e-5 -2.59375,0 -0.54528,-0.0653 -1.57939,-0.15224 -3.34375,-0.3125 L 225.5,33.75 l 0,1.65625 c -1e-5,1.49074 0.11842,4.63554 0.34375,9.53125 0.22465,4.825 0.34376,8.29536 0.34375,10.375 -3e-5,1.01745 -0.11885,4.12634 -0.34375,9.125 -0.22557,4.95725 -0.34376,8.75025 -0.34375,11.4375 l 0,1.53125 1.53125,0 c 0.43899,0 1.36095,-0.0742 3.0625,-0.1875 l 0.0312,0 0.0312,0 C 231.8139,77.05325 233.09985,77 234.03125,77 c 0.0936,0 1.19411,0.0515 2.8125,0.21875 l 0.0312,0 0.0312,0 c 1.71441,0.11419 3.0596,0.1875 4.0625,0.1875 l 1.53125,0 0,-1.53125 c -2e-5,-1.43799 -0.11844,-4.39175 -0.34375,-9.0625 -0.16849,-4.65383 -0.25002,-8.33243 -0.25,-11 -2e-5,-2.04614 0.0182,-3.76468 0.125,-5.21875 6.4e-4,-0.009 -6.4e-4,-0.02265 0,-0.03125 0.15535,-1.37002 0.50012,-2.57425 0.9375,-3.59375 l 0,-0.03125 c 0.41879,-1.02264 0.96128,-1.69743 1.65625,-2.1875 l 0,-0.03125 c 0.75956,-0.54799 1.58345,-0.78123 2.59375,-0.78125 1.50909,2e-5 2.28018,0.4205 3,1.5625 l 0.0312,0.03125 c 0.84282,1.26298 1.24997,2.70457 1.25,4.46875 l 0,0.09375 0.0312,0.09375 c 0.16044,1.28295 0.21872,2.59083 0.21875,3.9375 l 0,1.53125 c -3e-5,1.61507 -0.11906,4.84843 -0.34375,9.5625 -0.16914,4.73097 -0.25003,8.26067 -0.25,10.65625 l 0,1.53125 1.53125,0 c 0.43157,0 1.25894,-0.0745 3.125,-0.1875 1.89399,-0.1113 3.23728,-0.125 3.96875,-0.125 0.73138,0 1.8162,0.0148 3.25,0.125 1.49012,0.11452 2.61412,0.1875 3.40625,0.1875 l 1.53125,0 0,-1.53125 c -4e-5,-2.3982 -0.0866,-5.87302 -0.3125,-10.5 -0.16823,-4.64931 -0.28056,-7.81378 -0.28125,-9.4375 l 0,-0.03125 0.0937,-8.8125 0,-0.03125 c -5e-5,-4.03854 -1.3776,-7.53779 -4.09375,-10.125 -2.69661,-2.56842 -6.21918,-3.90621 -10.25,-3.90625 z m -168.84375,0.6875 0.15625,1.8125 0.65625,7.40625 -0.03125,0 0,25.1875 c 0,1.25857 -0.0171,2.51025 -0.125,3.75 -0.10968,1.20521 -0.26918,2.46731 -0.4375,3.8125 l -0.21875,1.78125 1.78125,-0.0625 6.8125,-0.25 0.125,0 7.03125,0.25 1.75,0.03125 -0.1875,-1.71875 c -0.33404,-3.39228 -0.51358,-6.28041 -0.625,-8.71875 -1.7e-4,-0.007 1.7e-4,-0.02395 0,-0.03125 -0.0556,-2.4547 -0.0939,-5.93774 -0.0937,-10.46875 l 0.0937,-13.75 0.71875,-7.1875 0.1875,-1.84375 -1.8125,0.1875 c -1.24271,0.1129 -2.4858,0.23181 -3.71875,0.34375 -1.21563,0.11041 -2.3146,0.15629 -3.3125,0.15625 -0.93776,4e-5 -2.06964,-0.0455 -3.34375,-0.15625 -1.23024,-0.11169 -2.40864,-0.23096 -3.59375,-0.34375 l -1.8125,-0.1875 z m 24.0625,0 0.15625,1.8125 0.65625,7.40625 -0.0312,0 0,25.1875 c -1e-5,1.25858 -0.0171,2.51026 -0.125,3.75 -0.10969,1.20521 -0.26918,2.46731 -0.4375,3.8125 l -0.21875,1.78125 1.78125,-0.0625 6.8125,-0.25 0.125,0 7.0625,0.25 1.75,0.03125 -0.1875,-1.71875 C 125.35257,72.3174 125.14233,69.42576 125.03125,67 c -1.7e-4,-0.007 1.7e-4,-0.02395 0,-0.03125 -0.0556,-2.4547 -0.0939,-5.93774 -0.0937,-10.46875 l 0.0937,-13.75 0.71875,-7.1875 0.1875,-1.84375 -1.8125,0.1875 c -1.24272,0.1129 -2.4858,0.23181 -3.71875,0.34375 -1.21563,0.11041 -2.31459,0.15629 -3.3125,0.15625 -0.93775,4e-5 -2.06963,-0.0455 -3.34375,-0.15625 -1.23023,-0.11169 -2.40862,-0.23095 -3.59375,-0.34375 l -1.8125,-0.1875 z M 198.625,40.0625 c 1.7502,2e-5 2.82449,0.47172 3.65625,1.46875 0.92431,1.10808 1.58588,2.6397 2,4.65625 0.11138,0.89084 0.27584,2.06425 0.4375,3.625 0.16106,1.55531 0.21872,3.47571 0.21875,5.6875 -3e-5,2.2689 -0.0563,4.22912 -0.21875,5.90625 -0.16186,1.61664 -0.32668,2.83015 -0.4375,3.71875 -0.40952,1.94309 -1.06617,3.4781 -2,4.65625 -0.008,0.0106 -0.0229,0.02075 -0.0312,0.03125 -0.83677,0.98535 -1.86648,1.4375 -3.53125,1.4375 -1.75025,0 -2.92743,-0.49859 -3.875,-1.53125 -0.92985,-1.12915 -1.52013,-2.59662 -1.71875,-4.53125 l 0,-0.0625 0,-0.0625 c -0.54408,-2.93492 -0.81251,-6.06049 -0.8125,-9.40625 -10e-6,-2.94931 0.0652,-5.48093 0.28125,-7.53125 0.20548,-1.95024 0.76832,-3.87509 1.65625,-5.8125 0.004,-0.009 -0.004,-0.02225 0,-0.03125 0.7694,-1.56274 1.94976,-2.21872 4.375,-2.21875 z m -81.4375,50.09375 -0.40625,1.0625 c -1.57432,4.26872 -3.03299,8.2647 -4.4375,11.96875 l -0.0312,0 c -1.34353,3.69088 -3.04629,8.19321 -5.125,13.46875 -2.02172,5.21736 -3.72389,9.41109 -5.0625,12.53125 l -8.4375,19.5625 -1,2.3125 2.53125,-0.21875 2.9375,-0.21875 5.46875,0.25 1.09375,0.0312 0.40625,-1.03125 c 1.90045,-5.11532 3.59747,-10.03357 5.15625,-14.8125 l 4.78125,-0.21875 c 0.0306,8.7e-4 0.0631,-8.8e-4 0.0937,0 1.93096,0.0557 3.9027,0.13191 5.90625,0.1875 1.67622,0.0466 3.28724,0.0595 4.90625,0.0625 l 2.96875,9.15625 1.75,5.5625 0.34375,1.09375 1.125,-0.0312 8.21875,-0.25 0.0625,0 8.03125,0.25 2.34375,0.0625 -0.90625,-2.1875 c -3.64814,-8.69026 -7.21123,-17.76684 -10.75,-27.25 -3.54228,-9.49226 -7.23843,-19.57612 -11.0625,-30.25 l -0.40625,-1.09375 -1.125,0.09375 -4.03125,0.25 -0.1875,0 -4.03125,-0.25 -1.125,-0.09375 z m 104.78125,0.0625 c -10.0016,6e-5 -18.26717,2.68759 -24.59375,8.0625 -6.37363,5.35547 -9.59375,13.1012 -9.59375,22.8125 0,9.84844 2.93757,17.60505 8.8125,22.875 5.89345,5.23319 13.90537,7.84375 23.84375,7.84375 10.22501,0 18.56949,-2.73177 24.6875,-8.25 6.19708,-5.59542 9.28119,-13.63542 9.28125,-23.71875 -6e-5,-9.37217 -3.091,-16.86505 -9.1875,-22 -5.99,-5.09498 -13.81199,-7.62494 -23.25,-7.625 z m -134.03125,0.9375 -0.25,1.375 c -0.26896,1.5582 -0.63576,3.11263 -1.125,4.6875 l -0.03125,0 0,0.03125 c -0.44138,1.54313 -0.9581,3.13455 -1.5625,4.78125 l 0,0.0312 L 76,127 66.625,102.1875 C 65.524501,99.32927 64.506821,96.06873 63.5625,92.40625 L 63.25,91.21875 62.03125,91.25 l -7.625,0.3125 c 0.0096,0 -0.06677,9e-5 -0.0625,0 0.05982,-0.001 -0.315613,-0.008 -0.875,-0.03125 -0.599296,-0.0248 -1.4748,-0.0689 -2.625,-0.125 -2.322059,-0.11307 -3.934644,-0.1562 -4.9375,-0.15625 l -2.21875,0 0.8125,2.09375 16.65625,42.53125 c 0.0058,0.0157 0.0255,0.0156 0.03125,0.0312 1.230715,3.35283 2.213037,6.05844 2.9375,8.0625 0.721019,1.99464 1.35221,3.9308 1.90625,5.8125 l 0.34375,1.09375 1.125,0 c 0.431635,0 0.9503,-0.0733 2.09375,-0.1875 l 0.03125,0 0.03125,0 c 1.165661,-0.16627 2.056194,-0.25 2.5625,-0.25 0.427584,0 1.019019,0.0487 1.71875,0.15625 l 0.03125,0 0.0625,0 c 0.712656,0.0548 1.596978,0.13937 2.59375,0.25 L 77.90625,151 78.25,149.71875 c 1.277475,-4.93823 2.831911,-9.56748 4.65625,-13.875 l 0,-0.0312 11.3125,-28.78125 0,-0.0312 c 1.95461,-4.51753 4.07599,-9.00707 6.3125,-13.53125 l 1.0625,-2.21875 -2.4375,0 c -0.64139,6e-5 -1.57401,0.0722 -2.84375,0.1875 -1.20556,0.10948 -2.10928,0.12505 -2.65625,0.125 l 0,0.03125 -4.375,-0.3125 -1.34375,-0.125 z m 63.28125,0.0625 0.15625,1.6875 c 0.44862,5.32178 0.70118,9.76112 0.8125,13.375 l 0,0.0312 c 0.16681,3.55498 0.25,8.49902 0.25,14.78125 0,6.00063 -0.0823,11.16901 -0.25,15.46875 l 0,0.0312 c -0.1115,4.28809 -0.36694,8.47664 -0.8125,12.59375 l -0.1875,1.6875 1.6875,0 c 0.59401,0 2.1656,-0.0435 4.875,-0.15625 l 0.0312,0 0,-0.0312 c 2.69136,-0.16795 4.88361,-0.25 6.5625,-0.25 0.96242,0 4.13386,0.11256 9.3125,0.28125 l 0.0312,0 c 5.24163,0.11261 9.42222,0.15625 12.53125,0.15625 l 1.625,0 -0.125,-1.625 -0.25,-3.6875 0,-0.0937 0,-0.0937 0.25,-3.78125 0.125,-1.8125 L 186.0625,140 c -5.4878,0.61481 -11.02228,0.89012 -16.5625,0.9375 -0.0854,-1.20034 -0.15626,-2.39141 -0.15625,-3.75 -2e-5,-1.96726 -2e-5,-3.90142 0,-5.8125 l 0,-19.5625 c -2e-5,-6.6462 0.25463,-12.91233 0.8125,-18.875 l 0.15625,-1.71875 -1.6875,0.03125 -8.09375,0.25 -0.0937,0 -7.5,-0.25 -1.71875,-0.03125 z m 70.0625,7.46875 c 5.25935,5e-5 8.80674,1.99775 11.28125,6.375 2.56403,4.53589 3.8437,9.72326 3.84375,15.625 -5e-5,6.13458 -1.30399,11.51004 -3.875,16.21875 -2.47576,4.48258 -6.07263,6.53126 -11.5,6.53125 -5.29703,1e-5 -8.83587,-2.03087 -11.3125,-6.4375 -0.007,-0.0121 -0.0247,-0.0192 -0.0312,-0.0312 -2.55437,-4.6403 -3.81252,-9.92533 -3.8125,-15.875 -2e-5,-6.19757 1.25646,-11.50963 3.8125,-16.03125 2.46752,-4.36502 6.09313,-6.37495 11.59375,-6.375 z M 118.5,113.25 c 0.79555,1.94201 1.70129,4.06023 2.28125,5.59375 0.7265,1.92118 1.4593,4.21538 2.1875,6.53125 l -4.5625,0.0937 -0.0625,0 -4.5,-0.0937 c 1.48594,-4.10076 3.03746,-8.12918 4.65625,-12.125 z"
           style="font-size:84.35607147px;font-style:normal;font-variant:normal;font-weight:bold;font-stretch:normal;text-align:center;line-height:125%;letter-spacing:0px;word-spacing:0px;text-anchor:middle;fill:url(#radialGradient39592);fill-opacity:1;stroke:#000000;stroke-width:2;stroke-opacity:1;font-family:MgOpen Cosmetica;-inkscape-font-specification:MgOpen Cosmetica Bold"
           inkscape:connector-curvature="0" />
      </g>
      <rect
         ry="21.2132"
         y="423.95224"
         x="636.59265"
         height="283.65457"
         width="516.98901"
         id="rect38308"
         style="fill:none;stroke:#000000;stroke-width:5.18241787;stroke-opacity:1;display:inline"
         transform="matrix(0.57918184,0,0,0.57857907,-350.1859,-99.789865)" />
    </g>
    <text
       sodipodi:linespacing="125%"
       id="text3392"
       y="445.28836"
       x="24.876366"
       style="font-size:49.48949432px;font-style:normal;font-variant:normal;font-weight:bold;font-stretch:normal;text-align:start;line-height:125%;letter-spacing:0px;word-spacing:0px;text-anchor:start;fill-opacity:1;display:inline;font-family:MgOpen Cosmetica;-inkscape-font-specification:MgOpen Cosmetica Bold"
       xml:space="preserve"><tspan
         style="text-align:start;text-anchor:start"
         y="445.28836"
         x="24.876366"
         sodipodi:role="line"
         id="tspan3846">Gwenview</tspan></text>
    <g
       inkscape:label="Layer 1"
       id="layer1-1"
       transform="matrix(1.5048112,0,0,1.5048112,-545.32869,-1750.7841)" />
    <g
       id="layer2-4"
       inkscape:label="Layer"
       style="display:inline"
       transform="matrix(1.5048112,0,0,1.5048112,-545.32869,-919.58335)" />
    <flowRoot
       xml:space="preserve"
       id="flowRoot2499"
       style="font-size:12px;font-style:normal;font-weight:normal;fill:#000000;fill-opacity:1;stroke:none;font-family:Bitstream Vera Sans"
       transform="matrix(0.10955145,0,0,0.10955145,441.87713,158.29436)"><flowRegion
         id="flowRegion2501"><rect
           id="rect2503"
           width="459.375"
           height="68.75"
           x="37.5"
           y="318.125" /></flowRegion><flowPara
         id="flowPara2505" /></flowRoot>    <g
       transform="matrix(0.18438127,0,0,0.18438127,191.55621,195.48432)"
       id="g8240">
      <g
         transform="translate(-1075.7,1275.6)"
         id="g3549">
        <g
           transform="matrix(0.98481,0.17365,-0.17365,0.98481,-302.41,191.87)"
           id="g3540">
          <rect
             x="1441.4"
             y="-1593.7"
             width="299.79001"
             height="372.98999"
             ry="20.531"
             rx="16.254"
             transform="matrix(0.99619,-0.087156,0.087156,0.99619,0,0)"
             style="opacity:0.75;fill:url(#radialGradient8259)"
             id="rect3507" />
          <rect
             x="1435.5"
             y="-1599.7"
             width="299.79001"
             height="372.98999"
             ry="20.531"
             rx="16.254"
             transform="matrix(0.99619,-0.087156,0.087156,0.99619,0,0)"
             style="fill:#ffffff;stroke:#000000;stroke-width:0.59882998"
             id="rect3509" />
          <rect
             x="1451.9"
             y="-1582.6"
             width="266.91"
             height="275.64001"
             ry="0"
             rx="0"
             transform="matrix(0.99619,-0.087156,0.087156,0.99619,0,0)"
             style="fill:url(#radialGradient8261)"
             id="rect3511" />
        </g>
        <g
           id="g3517">
          <g
             transform="matrix(0.57843,0.15499,-0.15499,0.57843,377.34,-1493.4)"
             id="g3404">
            <rect
               x="1760"
               y="62.362"
               width="500.62"
               height="622.85999"
               ry="34.285999"
               rx="27.143"
               style="fill:url(#radialGradient8263)"
               id="rect3406" />
            <rect
               x="1750"
               y="52.362"
               width="500.62"
               height="622.85999"
               ry="34.285999"
               rx="27.143"
               style="fill:#ffffff;stroke:#000000"
               id="rect3408" />
            <rect
               x="1777.5"
               y="80.933998"
               width="445.70999"
               height="460.29001"
               ry="0"
               rx="0"
               style="fill:url(#radialGradient8265)"
               id="rect3410" />
          </g>
          <g
             transform="matrix(0.59883,0,0,0.59883,137.32,-1202.5)"
             id="g3470">
            <rect
               x="1720.2"
               y="235.71001"
               width="500.62"
               height="622.85999"
               ry="34.285999"
               rx="27.143"
               transform="matrix(0.99619,-0.087156,0.087156,0.99619,0,0)"
               style="opacity:0.75;fill:url(#radialGradient8267)"
               id="rect3385" />
            <rect
               x="1710.2"
               y="225.71001"
               width="500.62"
               height="622.85999"
               ry="34.285999"
               rx="27.143"
               transform="matrix(0.99619,-0.087156,0.087156,0.99619,0,0)"
               style="fill:#ffffff;stroke:#000000"
               id="rect3373" />
            <rect
               x="1737.7"
               y="254.28"
               width="445.70999"
               height="460.29001"
               ry="0"
               rx="0"
               transform="matrix(0.99619,-0.087156,0.087156,0.99619,0,0)"
               style="fill:url(#radialGradient8269)"
               id="rect3375" />
          </g>
        </g>
      </g>
    </g>
    <g
       id="g6251"
       transform="translate(23.281014,143.99161)">
      <use
         x="0"
         y="0"
         xlink:href="#text11685"
         id="use40118-1"
         transform="translate(-207.32912,-136.86631)"
         width="308.84375"
         height="170.65625"
         style="fill:#000000;stroke:#000000;stroke-width:4" />
      <use
         style="fill:#000000;stroke:#000000;stroke-width:3;filter:url(#filter40130)"
         height="170.65625"
         width="308.84375"
         transform="translate(-205.32912,-134.86631)"
         id="use40120-1"
         xlink:href="#text11685"
         y="0"
         x="0" />
      <use
         style="fill:url(#linearGradient6097-7);fill-opacity:1;stroke:#ffffff"
         height="170.65625"
         width="308.84375"
         transform="translate(-207.32912,-136.86631)"
         id="use40116-5"
         xlink:href="#text11685"
         y="0"
         x="0" />
    </g>
    <text
       xml:space="preserve"
       style="font-size:17.81859207px;font-style:normal;font-variant:normal;font-weight:bold;font-stretch:normal;fill:#eef4d7;fill-opacity:1;stroke:none;font-family:Ouhod;-inkscape-font-specification:Ouhod Bold"
       x="324.01773"
       y="193.16827"
       id="text3416"><tspan
         sodipodi:role="line"
         id="tspan3418"
         x="324.01773"
         y="193.16827" /></text>
    <path
       inkscape:transform-center-y="-1.4955988"
       inkscape:transform-center-x="-2.9748115"
       transform="translate(17.05128,138.29195)"
       d="M 5.9951896,18.208468 67.82561,59.786947 110.65091,-1.0829316 69.072431,60.747489 129.94231,103.57279 68.11189,61.99431 25.28659,122.86419 66.865069,61.033769 z"
       inkscape:randomized="0"
       inkscape:rounded="0"
       inkscape:flatsided="false"
       sodipodi:arg2="-1.6997697"
       sodipodi:arg1="-2.5384803"
       sodipodi:r2="1.1129248"
       sodipodi:r1="75.249512"
       sodipodi:cy="60.890629"
       sodipodi:cx="67.96875"
       sodipodi:sides="4"
       id="path13568"
       style="opacity:0.4;fill:#ffffff;fill-opacity:1;stroke:none;filter:url(#filter6087)"
       sodipodi:type="star" />
    <text
       sodipodi:linespacing="125%"
       id="text11685"
       y="186.8148"
       x="383.99756"
       style="font-size:48px;font-style:normal;font-variant:normal;font-weight:bold;font-stretch:normal;text-align:start;line-height:125%;letter-spacing:0px;word-spacing:0px;text-anchor:start;fill-opacity:1;display:inline;font-family:MgOpen Cosmetica;-inkscape-font-specification:MgOpen Cosmetica Bold"
       xml:space="preserve"><tspan
         y="186.8148"
         x="383.99756"
         sodipodi:role="line"
         id="tspan3834">#185</tspan></text>
    <g
       transform="matrix(0.30103004,0,0,0.410517,216.64096,250.97265)"
       style="font-size:40px;font-style:normal;font-variant:normal;font-weight:bold;font-stretch:normal;fill:#013397;fill-opacity:1;stroke:none;font-family:Arial Rounded MT Bold;-inkscape-font-specification:'Arial Rounded MT Bold, Bold'"
       id="text5236" />
    <g
       id="layer1-2"
       inkscape:label="Layer 1"
       transform="matrix(1.466056,0,0,1.466056,161.01987,204.84632)">
      <g
         id="g6707"
         transform="matrix(0.0245274,0,0,0.02086758,45.15006,37.31476)">
        <rect
           y="-150.69685"
           x="-1559.2523"
           height="478.35718"
           width="1339.6335"
           id="rect6709"
           style="opacity:0.40206185;color:#000000;fill:url(#linearGradient6715);fill-opacity:1;fill-rule:nonzero;stroke:none;stroke-width:1;marker:none;visibility:visible;display:inline;overflow:visible" />
        <path
           sodipodi:nodetypes="cccc"
           id="path6711"
           d="m -219.61876,-150.68038 c 0,0 0,478.33079 0,478.33079 142.874166,0.90045 345.40022,-107.16966 345.40014,-239.196175 0,-132.026537 -159.436816,-239.134595 -345.40014,-239.134615 z"
           style="opacity:0.40206185;color:#000000;fill:url(#radialGradient6717);fill-opacity:1;fill-rule:nonzero;stroke:none;stroke-width:1;marker:none;visibility:visible;display:inline;overflow:visible"
           inkscape:connector-curvature="0" />
        <path
           style="opacity:0.40206185;color:#000000;fill:url(#radialGradient6719);fill-opacity:1;fill-rule:nonzero;stroke:none;stroke-width:1;marker:none;visibility:visible;display:inline;overflow:visible"
           d="m -1559.2523,-150.68038 c 0,0 0,478.33079 0,478.33079 -142.8742,0.90045 -345.4002,-107.16966 -345.4002,-239.196175 0,-132.026537 159.4368,-239.134595 345.4002,-239.134615 z"
           id="path6713"
           sodipodi:nodetypes="cccc"
           inkscape:connector-curvature="0" />
      </g>
      <path
         transform="matrix(0.693194,0,0,0.811023,13.91019,9.95669)"
         d="m 42.875,36.8125 c 0,4.38376 -7.835017,7.9375 -17.5,7.9375 -9.664983,0 -17.5,-3.55374 -17.5,-7.9375 0,-4.38376 7.835017,-7.9375 17.5,-7.9375 9.664983,0 17.5,3.55374 17.5,7.9375 z"
         sodipodi:ry="7.9375"
         sodipodi:rx="17.5"
         sodipodi:cy="36.8125"
         sodipodi:cx="25.375"
         id="path2664"
         style="opacity:0.39873418;color:#000000;fill:url(#radialGradient1415);fill-opacity:1;fill-rule:nonzero;stroke:none;stroke-width:1;marker:none;visibility:visible;display:block;overflow:visible"
         sodipodi:type="arc" />
      <path
         sodipodi:nodetypes="csscssscssc"
         id="path2608"
         d="m 8.9327762,18.92078 c -3.4712691,0 -6.2792829,1.12 -6.2792829,2.5 0,0.156792 0.1570095,0.288682 0.2265721,0.4375 -0.010187,0.04943 -0.097102,0.04118 -0.097102,0.09375 0,0 -0.1294698,16.311958 -0.1294698,16.46875 0,1.38 2.8080138,2.5 6.2792829,2.5 3.4712695,0 6.2792825,-1.12 6.2792825,-2.5 L 15.08259,21.95203 c 0,-0.05257 -0.08692,-0.04432 -0.0971,-0.09375 0.06956,-0.148818 0.226572,-0.280708 0.226572,-0.4375 0,-1.38 -2.808013,-2.5 -6.2792828,-2.5 z"
         style="color:#000000;fill:url(#linearGradient1485);fill-opacity:1;fill-rule:nonzero;stroke:#282828;stroke-width:2.00000024;stroke-linecap:butt;stroke-linejoin:miter;stroke-miterlimit:4;stroke-opacity:1;stroke-dasharray:none;stroke-dashoffset:0;marker:none;visibility:visible;display:block;overflow:visible"
         inkscape:connector-curvature="0" />
      <path
         style="color:#000000;fill:url(#linearGradient1482);fill-opacity:1;fill-rule:nonzero;stroke:#282828;stroke-width:1;stroke-linecap:butt;stroke-linejoin:miter;stroke-miterlimit:4;stroke-opacity:1;stroke-dasharray:none;stroke-dashoffset:0;marker:none;visibility:visible;display:block;overflow:visible"
         d="m 2.1428571,38.647933 40.1428569,0 c 1.111168,0.101015 2.219362,-1.150036 2.219362,-1.857143 l 0,-17.647933 c -0.101015,-1.111168 -3.96897,-2.423755 -4.878107,-2.52477 l -2.432118,0 -2.923525,-3.084962 -10.55704,0 -3.435468,3.031407 c 0,0 -6.726815,0.211654 -11.9411093,1.167085 C 3.1234141,18.687048 2,20.318891 2,21.531074 l 0.1428571,17.116859 z"
         id="path8417"
         sodipodi:nodetypes="ccccccccczcc"
         inkscape:connector-curvature="0" />
      <path
         style="color:#000000;fill:#3f413e;fill-opacity:1;fill-rule:nonzero;stroke:none;stroke-width:1;marker:none;visibility:visible;display:block;overflow:visible"
         d="m 33.890618,13.907352 1.363706,3.788072 1.868782,-0.454569 -3.232488,-3.333503 z"
         id="path2300"
         sodipodi:nodetypes="cccc"
         inkscape:connector-curvature="0" />
      <path
         sodipodi:type="arc"
         style="color:#000000;fill:#585b57;fill-opacity:1;fill-rule:nonzero;stroke:#a7a7a7;stroke-width:0.79559946;stroke-linecap:butt;stroke-linejoin:miter;stroke-miterlimit:4;stroke-opacity:1;stroke-dasharray:none;stroke-dashoffset:0;marker:none;visibility:visible;display:block;overflow:visible"
         id="path2302"
         sodipodi:cx="41.163715"
         sodipodi:cy="33.908371"
         sodipodi:rx="1.9697975"
         sodipodi:ry="1.9697975"
         d="m 43.133513,33.908371 c 0,1.087889 -0.881909,1.969797 -1.969798,1.969797 -1.087889,0 -1.969797,-0.881908 -1.969797,-1.969797 0,-1.087889 0.881908,-1.969798 1.969797,-1.969798 1.087889,0 1.969798,0.881909 1.969798,1.969798 z"
         transform="matrix(1.256914,0,0,1.256914,-11.68675,-10.02479)" />
      <path
         sodipodi:type="arc"
         style="color:#000000;fill:url(#linearGradient1423);fill-opacity:1;fill-rule:nonzero;stroke:none;stroke-width:1;marker:none;visibility:visible;display:block;overflow:visible"
         id="path2280"
         sodipodi:cx="30.571428"
         sodipodi:cy="33.57143"
         sodipodi:rx="10.142858"
         sodipodi:ry="10.142858"
         d="m 40.714286,33.57143 c 0,5.601746 -4.541112,10.142858 -10.142858,10.142858 -5.601745,0 -10.142857,-4.541112 -10.142857,-10.142858 0,-5.601745 4.541112,-10.142857 10.142857,-10.142857 5.601746,0 10.142858,4.541112 10.142858,10.142857 z"
         transform="matrix(1.082923,0,0,1.082923,-3.320501,-4.385684)" />
      <path
         transform="matrix(1.082923,0,0,1.082923,-3.155039,-2.49593)"
         d="m 40.714286,33.57143 c 0,5.601746 -4.541112,10.142858 -10.142858,10.142858 -5.601745,0 -10.142857,-4.541112 -10.142857,-10.142858 0,-5.601745 4.541112,-10.142857 10.142857,-10.142857 5.601746,0 10.142858,4.541112 10.142858,10.142857 z"
         sodipodi:ry="10.142858"
         sodipodi:rx="10.142858"
         sodipodi:cy="33.57143"
         sodipodi:cx="30.571428"
         id="path2278"
         style="color:#000000;fill:url(#linearGradient1425);fill-opacity:1;fill-rule:nonzero;stroke:none;stroke-width:1;marker:none;visibility:visible;display:block;overflow:visible"
         sodipodi:type="arc" />
      <path
         style="color:#000000;fill:url(#linearGradient1475);fill-opacity:1;fill-rule:nonzero;stroke:none;stroke-width:1;marker:none;visibility:visible;display:block;overflow:visible"
         d="m 8.9327729,18.71875 c -3.4351925,0 -6.2140229,1.12 -6.2140229,2.5 0,0.156792 0.1553777,0.288682 0.2242173,0.4375 -0.010081,0.04943 -0.096093,0.04118 -0.096093,0.09375 0,0 -0.1281242,16.311958 -0.1281242,16.46875 0,1.38 2.7788304,2.5 6.2140229,2.5 3.435193,0 6.214023,-1.12 6.214023,-2.5 L 15.018672,21.75 c 0,-0.05257 -0.08601,-0.04432 -0.09609,-0.09375 0.06884,-0.148818 0.224218,-0.280708 0.224218,-0.4375 0,-1.38 -2.77883,-2.5 -6.2140231,-2.5 z"
         id="path7949"
         sodipodi:nodetypes="csscssscssc"
         inkscape:connector-curvature="0" />
      <path
         style="color:#000000;fill:#7b7e79;fill-opacity:1;fill-rule:nonzero;stroke:none;stroke-width:1;marker:none;visibility:visible;display:block;overflow:visible"
         d="m 24.243661,14.15989 -0.757614,3.636549 -0.353554,1.212183 -2.77792,-2.070813 3.889088,-2.777919 z"
         id="path2298"
         sodipodi:nodetypes="ccccc"
         inkscape:connector-curvature="0" />
      <path
         style="color:#000000;fill:#a7aba7;fill-opacity:1;fill-rule:nonzero;stroke:none;stroke-width:1;marker:none;visibility:visible;display:block;overflow:visible"
         d="m 19.030081,27.9953 4.910534,-8.582617 11.212694,0 4.838579,7.115358 -4.737564,-8.731602 -11.818785,0 -4.405458,10.198861 z"
         id="path2276"
         sodipodi:nodetypes="ccccccc"
         inkscape:connector-curvature="0" />
      <path
         style="color:#000000;fill:#888a85;fill-opacity:1;fill-rule:nonzero;stroke:none;stroke-width:1;marker:none;visibility:visible;display:block;overflow:visible"
         d="m 20.3125,16.875 c 0,0 -12.145896,0.638063 -16.15625,2.75 -0.8520399,0.448702 -1.4880076,0.840607 -1.4880076,1.442227 0,1.38 2.824079,3.026523 6.1755076,3.026523 3.351429,0 6,-1.495 6,-2.875 0,-0.314339 -0.179931,-0.629054 -0.4375,-0.90625 L 23.03125,18.5 20.3125,16.875 z"
         id="path7953"
         sodipodi:nodetypes="cssssccc"
         inkscape:connector-curvature="0" />
      <path
         style="opacity:0.4177215;color:#000000;fill:none;stroke:url(#linearGradient1469);stroke-width:1;stroke-linecap:butt;stroke-linejoin:miter;stroke-miterlimit:4;stroke-opacity:1;stroke-dasharray:none;stroke-dashoffset:0;marker:none;visibility:visible;display:block;overflow:visible"
         d="m 24.553211,14.482118 -3.917302,2.792985 c 0,10e-7 -6.444742,0.435034 -11.2491768,1.315365 C 4.582297,19.4708 3.16662,20.423893 3.04162,21.603294 l 0.226119,16.591424 c 0.2959617,1.161082 3.2300568,2.073143 6.228573,2.073143 2.998516,0 5.501388,-1.599561 5.79735,-2.760643 l 26.487981,0.125 c 1.461328,0.03057 1.731849,-0.701093 1.731849,-1.352619 l 0,-16.677122 c 0,-0.711984 -2.841634,-1.864212 -3.67931,-1.957287 l -2.933405,0.0625 -3.24031,-3.225572 -9.107256,0 z"
         id="path2683"
         sodipodi:nodetypes="ccsccscccccccc"
         inkscape:connector-curvature="0" />
      <path
         sodipodi:type="arc"
         style="color:#000000;fill:#2e3436;fill-opacity:1;fill-rule:nonzero;stroke:none;stroke-width:1;marker:none;visibility:visible;display:block;overflow:visible"
         id="path8415"
         sodipodi:cx="30.571428"
         sodipodi:cy="33.57143"
         sodipodi:rx="10.142858"
         sodipodi:ry="10.142858"
         d="m 40.714286,33.57143 c 0,5.601746 -4.541112,10.142858 -10.142858,10.142858 -5.601745,0 -10.142857,-4.541112 -10.142857,-10.142858 0,-5.601745 4.541112,-10.142857 10.142857,-10.142857 5.601746,0 10.142858,4.541112 10.142858,10.142857 z"
         transform="matrix(1.082923,0,0,1.082923,-3.050891,-1.56885)" />
      <path
         transform="matrix(1.676984,0,0,1.676984,3.488419,-3.050526)"
         d="m 19.875,22.5625 c 0,2.312692 -1.846825,4.1875 -4.125,4.1875 -2.278175,0 -4.125,-1.874808 -4.125,-4.1875 0,-2.312692 1.846825,-4.1875 4.125,-4.1875 2.278175,0 4.125,1.874808 4.125,4.1875 z"
         sodipodi:ry="4.1875"
         sodipodi:rx="4.125"
         sodipodi:cy="22.5625"
         sodipodi:cx="15.75"
         id="path2589"
         style="color:#000000;fill:url(#radialGradient1431);fill-opacity:1;fill-rule:nonzero;stroke:url(#linearGradient1433);stroke-width:0.59630877;stroke-linecap:butt;stroke-linejoin:miter;stroke-miterlimit:4;stroke-opacity:1;stroke-dashoffset:0;marker:none;visibility:visible;display:inline;overflow:visible;font-family:Bitstream Vera Sans"
         sodipodi:type="arc" />
      <path
         transform="matrix(1.676984,0,0,1.676984,5.499948,-3.195174)"
         d="M 16.5,22.6875 C 16.5,23.688516 15.716498,24.5 14.75,24.5 13.783502,24.5 13,23.688516 13,22.6875 c 0,-1.001016 0.783502,-1.8125 1.75,-1.8125 0.966498,0 1.75,0.811484 1.75,1.8125 z"
         sodipodi:ry="1.8125"
         sodipodi:rx="1.75"
         sodipodi:cy="22.6875"
         sodipodi:cx="14.75"
         id="path2599"
         style="opacity:0.60759499;color:#000000;fill:#ffffff;fill-opacity:0.52866247;fill-rule:nonzero;stroke:none;stroke-width:1;marker:none;visibility:visible;display:inline;overflow:visible;font-family:Bitstream Vera Sans"
         sodipodi:type="arc" />
      <path
         sodipodi:type="arc"
         style="opacity:0.37341769;color:#000000;fill:#ffffff;fill-opacity:1;fill-rule:nonzero;stroke:none;stroke-width:1;marker:none;visibility:visible;display:inline;overflow:visible;font-family:Bitstream Vera Sans"
         id="path2601"
         sodipodi:cx="14.75"
         sodipodi:cy="22.6875"
         sodipodi:rx="1.75"
         sodipodi:ry="1.8125"
         d="M 16.5,22.6875 C 16.5,23.688516 15.716498,24.5 14.75,24.5 13.783502,24.5 13,23.688516 13,22.6875 c 0,-1.001016 0.783502,-1.8125 1.75,-1.8125 0.966498,0 1.75,0.811484 1.75,1.8125 z"
         transform="matrix(1.673245,0,0,1.673245,3.33394,-5.000547)" />
      <path
         transform="matrix(0.41273,0,0,0.41273,27.45136,28.98197)"
         d="M 16.5,22.6875 C 16.5,23.688516 15.716498,24.5 14.75,24.5 13.783502,24.5 13,23.688516 13,22.6875 c 0,-1.001016 0.783502,-1.8125 1.75,-1.8125 0.966498,0 1.75,0.811484 1.75,1.8125 z"
         sodipodi:ry="1.8125"
         sodipodi:rx="1.75"
         sodipodi:cy="22.6875"
         sodipodi:cx="14.75"
         id="path8405"
         style="color:#000000;fill:url(#radialGradient2824);fill-opacity:1;fill-rule:nonzero;stroke:none;stroke-width:1;marker:none;visibility:visible;display:inline;overflow:visible;font-family:Bitstream Vera Sans"
         sodipodi:type="arc" />
      <path
         style="color:#000000;fill:url(#linearGradient1461);fill-opacity:1;fill-rule:nonzero;stroke:none;stroke-width:1;marker:none;visibility:visible;display:block;overflow:visible"
         d="m 22.223356,15.574103 2.929442,-2.12132 0.909137,-2.424366 6.363961,0 1.313199,2.929443 2.828427,2.424365 -2.525381,-10.9096472 -9.899495,0 -1.91929,10.1015252 z"
         id="path1507"
         sodipodi:nodetypes="ccccccccc"
         inkscape:connector-curvature="0" />
      <rect
         style="color:#000000;fill:url(#linearGradient1456);fill-opacity:1;fill-rule:nonzero;stroke:url(#linearGradient1458);stroke-width:1.00000036;stroke-linecap:butt;stroke-linejoin:miter;stroke-miterlimit:4;stroke-opacity:1;stroke-dashoffset:0;marker:none;visibility:visible;display:inline;overflow:visible;font-family:Bitstream Vera Sans"
         id="rect3297"
         width="9.328516"
         height="4.5837932"
         x="24.478594"
         y="4.6366777"
         rx="1.5035444"
         ry="1.5035454" />
      <path
         d="m 14.857143,38.214287 c 0,1.380712 -2.718271,2.5 -6.0714289,2.5 -3.3531575,0 -6.0714287,-1.119288 -6.0714287,-2.5 0,-1.380712 2.7182712,-2.5 6.0714287,-2.5 3.3531579,0 6.0714289,1.119288 6.0714289,2.5 z"
         sodipodi:ry="2.5"
         sodipodi:rx="6.0714288"
         sodipodi:cy="38.214287"
         sodipodi:cx="8.7857141"
         id="path2288"
         style="color:#000000;fill:#2f302e;fill-opacity:1;fill-rule:nonzero;stroke:none;stroke-width:1;marker:none;visibility:visible;display:block;overflow:visible"
         sodipodi:type="arc"
         transform="matrix(0.359444,0,0,0.554344,7.698551,0.07305544)" />
      <path
         style="color:#000000;fill:#c4c6c3;fill-opacity:1;fill-rule:nonzero;stroke:none;stroke-width:1;marker:none;visibility:visible;display:block;overflow:visible"
         d="m 2.7034271,21.250564 c -0.1355518,1.785664 2.4438455,3.880204 6.1953695,3.881473 3.8140244,0.0013 5.8494304,-2.18382 6.0514604,-4.10311 l 4.545687,-1.717259 -5.151778,1.010152 c 0.101016,1.91929 -1.701837,3.830458 -5.4402931,3.771004 -4.0863664,-0.06598 -5.5754458,-1.65476 -6.2004458,-2.84226 z"
         id="path2312"
         sodipodi:nodetypes="czcccsc"
         inkscape:connector-curvature="0" />
      <rect
         ry="0.69542354"
         rx="0.69542336"
         y="18.317474"
         x="17.562916"
         height="4.3902278"
         width="4.1362314"
         id="rect2282"
         style="color:#000000;fill:url(#linearGradient1451);fill-opacity:1;fill-rule:nonzero;stroke:#464646;stroke-width:0.9999997;stroke-linecap:butt;stroke-linejoin:miter;stroke-miterlimit:4;stroke-opacity:1;stroke-dashoffset:0;marker:none;visibility:visible;display:inline;overflow:visible;font-family:Bitstream Vera Sans" />
      <path
         transform="matrix(0.389835,0,0,0.389835,4.452477,12.38659)"
         d="M 16.5,22.6875 C 16.5,23.688516 15.716498,24.5 14.75,24.5 13.783502,24.5 13,23.688516 13,22.6875 c 0,-1.001016 0.783502,-1.8125 1.75,-1.8125 0.966498,0 1.75,0.811484 1.75,1.8125 z"
         sodipodi:ry="1.8125"
         sodipodi:rx="1.75"
         sodipodi:cy="22.6875"
         sodipodi:cx="14.75"
         id="path2612"
         style="opacity:0.43037971;color:#000000;fill:#ffffff;fill-opacity:1;fill-rule:nonzero;stroke:none;stroke-width:1;marker:none;visibility:visible;display:inline;overflow:visible;font-family:Bitstream Vera Sans"
         sodipodi:type="arc" />
      <path
         sodipodi:type="arc"
         style="color:#000000;fill:#ffffff;fill-opacity:1;fill-rule:nonzero;stroke:none;stroke-width:1;marker:none;visibility:visible;display:inline;overflow:visible;font-family:Bitstream Vera Sans"
         id="path2629"
         sodipodi:cx="14.75"
         sodipodi:cy="22.6875"
         sodipodi:rx="1.75"
         sodipodi:ry="1.8125"
         d="M 16.5,22.6875 C 16.5,23.688516 15.716498,24.5 14.75,24.5 13.783502,24.5 13,23.688516 13,22.6875 c 0,-1.001016 0.783502,-1.8125 1.75,-1.8125 0.966498,0 1.75,0.811484 1.75,1.8125 z"
         transform="matrix(0.45611,0,0,0.45611,20.30269,21.39326)" />
      <path
         transform="matrix(1.038462,0,0,1.636364,-1.1875,-12.71023)"
         d="m 42.25,20.5625 c 0,0.379696 -0.727537,0.6875 -1.625,0.6875 -0.897463,0 -1.625,-0.307804 -1.625,-0.6875 0,-0.379696 0.727537,-0.6875 1.625,-0.6875 0.897463,0 1.625,0.307804 1.625,0.6875 z"
         sodipodi:ry="0.6875"
         sodipodi:rx="1.625"
         sodipodi:cy="20.5625"
         sodipodi:cx="40.625"
         id="path2641"
         style="color:#000000;fill:#c5c5c5;fill-opacity:0.52866247;fill-rule:nonzero;stroke:none;stroke-width:2;marker:none;visibility:visible;display:block;overflow:visible"
         sodipodi:type="arc" />
      <path
         sodipodi:type="arc"
         style="color:#000000;fill:#565656;fill-opacity:1;fill-rule:nonzero;stroke:none;stroke-width:2;marker:none;visibility:visible;display:block;overflow:visible"
         id="path2639"
         sodipodi:cx="40.625"
         sodipodi:cy="20.5625"
         sodipodi:rx="1.625"
         sodipodi:ry="0.6875"
         d="m 42.25,20.5625 c 0,0.379696 -0.727537,0.6875 -1.625,0.6875 -0.897463,0 -1.625,-0.307804 -1.625,-0.6875 0,-0.379696 0.727537,-0.6875 1.625,-0.6875 0.897463,0 1.625,0.307804 1.625,0.6875 z"
         transform="matrix(1.038462,0,0,1.636364,-1.125,-12.33523)" />
      <path
         style="color:#000000;fill:none;stroke:#777777;stroke-width:1.00000072;stroke-linecap:butt;stroke-linejoin:miter;stroke-miterlimit:4;stroke-opacity:1;stroke-dasharray:none;stroke-dashoffset:0;marker:none;visibility:visible;display:block;overflow:visible"
         d="m 23.271357,28.422173 c 2.602739,-3.367642 8.755661,-4.192713 12.274919,-1.041239"
         id="path2650"
         sodipodi:nodetypes="cs"
         inkscape:connector-curvature="0" />
      <path
         style="opacity:0.67088611;color:#000000;fill:#ffffff;fill-opacity:1;fill-rule:nonzero;stroke:none;stroke-width:1;marker:none;visibility:visible;display:inline;overflow:visible;font-family:Bitstream Vera Sans"
         d="m 30.219981,31.818049 c -1.619967,0 -2.910355,1.367899 -2.910355,3.045722 0,0.383845 0.246717,0.643162 0.372255,0.981399 0.12668,0.01735 0.207178,0.135365 0.338413,0.135365 1.616354,0 2.910355,-1.337799 2.910355,-3.01188 0,-0.39361 -0.27415,-0.670063 -0.406095,-1.01524 -0.11496,-0.01419 -0.185943,-0.135366 -0.304573,-0.135366 z"
         id="path2668"
         inkscape:connector-curvature="0" />
    </g>
    <g
       transform="matrix(0.97830086,0,0,0.84349229,4.9314758,18.849775)"
       id="g5376">
      <use
         style="fill:#000000;stroke:#000000;stroke-width:4"
         height="170.65625"
         width="308.84375"
         transform="translate(0,-120)"
         id="use39596"
         xlink:href="#text3392"
         y="0"
         x="0" />
      <use
         x="0"
         y="0"
         xlink:href="#text3392"
         id="use39598"
         transform="translate(2,-118)"
         width="308.84375"
         height="170.65625"
         style="fill:#000000;stroke:#000000;stroke-width:3;filter:url(#filter40112)" />
      <use
         x="0"
         y="0"
         xlink:href="#text3392"
         id="use39594"
         transform="translate(0,-120)"
         width="308.84375"
         height="170.65625"
         style="fill:url(#linearGradient4330);fill-opacity:1;stroke:#ffffff" />
    </g>
    <path
       sodipodi:type="arc"
       style="fill:#800080;fill-opacity:1;fill-rule:nonzero;stroke:none"
       id="path2453"
       sodipodi:cx="-471.85995"
       sodipodi:cy="-345.79184"
       sodipodi:rx="0"
       sodipodi:ry="22.546209"
       transform="matrix(0.37036554,0,0,0.37036554,632.41344,318.38031)" />
  </g>
</svg>
